<?xml version="1.0" encoding="UTF-8" standalone="no"?>
<!-- Created with Inkscape (http://www.inkscape.org/) -->

<svg
   width="44.722176mm"
   height="28.062965mm"
   viewBox="0 0 44.722176 28.062965"
   version="1.1"
   id="svg1"
   inkscape:version="1.4.2 (ebf0e940, 2025-05-08)"
   sodipodi:docname="gold.svg"
   xmlns:inkscape="http://www.inkscape.org/namespaces/inkscape"
   xmlns:sodipodi="http://sodipodi.sourceforge.net/DTD/sodipodi-0.dtd"
   xmlns="http://www.w3.org/2000/svg"
   xmlns:svg="http://www.w3.org/2000/svg">
  <sodipodi:namedview
     id="namedview1"
     pagecolor="#ffffff"
     bordercolor="#000000"
     borderopacity="0.25"
     inkscape:showpageshadow="2"
     inkscape:pageopacity="0.0"
     inkscape:pagecheckerboard="0"
     inkscape:deskcolor="#d1d1d1"
     inkscape:document-units="mm"
     inkscape:zoom="2.5978238"
     inkscape:cx="181.3056"
     inkscape:cy="90.075393"
     inkscape:window-width="2560"
     inkscape:window-height="1287"
     inkscape:window-x="0"
     inkscape:window-y="31"
     inkscape:window-maximized="0"
     inkscape:current-layer="layer1" />
  <defs
     id="defs1" />
  <g
     inkscape:label="Layer 1"
     inkscape:groupmode="layer"
     id="layer1"
     transform="translate(-82.549996,-134.40833)">
    <path
       style="fill:#ffffff;fill-opacity:1;stroke-width:0.264583"
       d="m 122.0575,134.41288 c -0.67257,1.60919 -0.59267,1.94733 -2.06587,2.55217 -0.20584,0.17462 0.38048,0.47757 0.42466,0.50668 1.13639,0.59028 1.23984,1.72534 1.56739,2.73658 0.74666,0.45667 0.30083,-2.15821 1.87616,-2.80934 0.44927,-0.14764 0.66569,-0.71226 0.12436,-0.75909 -0.99245,0.14843 -1.35361,-2.35215 -1.9267,-2.227 z m 0.28205,1.4007 c 1.39276,2.32199 1.11469,0.24554 -0.12383,2.98265 -0.127,-0.18918 -0.74004,-1.5158 -0.92525,-1.33615 -0.0397,0.0156 -0.0579,0.003 -0.0397,-0.0278 0.023,-0.10451 -0.48419,-0.3384 -0.16404,-0.4146 0.22463,-0.0415 0.84031,-0.69083 0.98451,-1.11363 0.13838,-0.18442 0.0672,-0.4744 0.26829,-0.0905 z"
       id="path31" />
    <path
       style="fill:#ffffff;fill-opacity:1;stroke-width:0.264583"
       d="m 108.99846,137.48866 c -1.4896,0.0921 -3.09536,1.19565 -3.62214,1.4261 -0.39582,0.13732 -2.07222,1.03929 -2.27833,1.20544 -0.0251,0.0341 -0.0418,0.041 -0.0418,0.0172 -0.0349,-0.0249 -0.44502,0.26168 -0.49238,0.2376 -0.11192,-0.003 0.0283,0.13547 -0.0622,0.0923 -0.0902,-0.0362 -0.72443,0.38708 -0.80354,0.45667 -0.0145,-0.0572 -0.25003,0.0778 -0.19817,0.13282 0.0204,0.0323 0.0159,0.0505 -0.0114,0.0458 -1.06098,0.39926 -2.044966,1.19565 -3.016516,1.7481 -0.124354,0.0577 -0.209814,0.12277 -0.189442,0.14447 -0.02805,0.0743 -0.292629,0.0339 -0.376237,0.15293 -0.108479,0.12409 -0.243152,0.0691 -0.283104,0.1725 0,0.0339 -0.02434,0.045 -0.05662,0.0254 -0.03175,-0.019 -0.05662,0.006 -0.05662,0.0566 -0.580231,0.33046 -2.427287,1.49198 -2.744787,1.66978 -0.650611,0.57309 -2.183871,1.33535 -2.70219,2.09947 -0.290248,0.30189 -0.357717,0.67971 -0.586052,1.10913 -0.658019,1.52744 -0.668602,1.40573 -1.392237,3.05038 -1.377157,0.3937 -3.132667,1.0631 -4.131469,1.89019 -0.887942,0.6432 -1.144058,2.01401 -1.630098,2.9456 -0.23786,0.89932 -1.810544,3.14934 -0.05662,3.29724 2.75934,0.2884 5.773738,0.74639 8.361892,0.98161 0.789781,0.16589 2.278327,0.52175 2.956983,0.2868 0.237331,-0.16033 0.551127,0.10795 0.877358,0.12039 4.011879,0.71305 7.940409,1.4015 11.997789,1.60258 1.61396,0.077 1.71054,-0.10398 2.82972,-1.18719 1.06892,-0.93318 1.81108,-1.54516 2.90883,-2.37357 2.93238,-2.39739 5.91688,-4.6744 8.89106,-7.08845 0.87101,-0.68263 1.60496,-1.25122 2.42782,-1.94681 0.20875,-0.12303 0.39264,-0.26564 0.4572,-0.53208 5.3e-4,-0.068 0.028,-0.12435 0.0606,-0.12435 0.0855,0.002 -0.0344,-0.1143 0.0537,-0.11324 0.15637,0 -0.12462,-0.62918 -0.35666,-0.79878 -0.42095,-0.96996 -1.68407,-1.96135 -2.47306,-2.89401 -0.12965,-0.19923 -0.56436,-0.61701 -0.7755,-0.72152 -0.0669,-0.0577 -0.31538,-0.38126 -0.50376,-0.4535 -0.18283,-0.13864 -2.61673,-0.14234 -3.92192,-0.0841 0.83952,-0.80354 0.97208,-1.06548 0.32808,-2.06719 -0.62838,-1.10331 -1.27,-2.44581 -1.91849,-3.27528 -0.96494,-1.37001 -0.79904,-0.91519 -3.44091,-1.1012 -0.94191,-0.081 -3.28692,-0.25532 -4.02881,-0.20584 z m 1.35811,0.56594 c 1.42266,0.1397 2.24658,0.12938 3.71528,0.24898 1.01944,0.14896 1.22237,-0.21855 1.79123,0.61674 0.85672,1.05357 1.53432,2.73949 2.24102,3.88726 0.11641,0.0791 -0.0169,0.54636 -0.16987,0.59505 -0.13043,0.0143 -0.0783,0.22383 -0.15292,0.245 -0.23575,-0.0127 -0.18998,0.18256 -0.36513,0.26749 -0.14208,0.0413 -0.0749,0.15902 -0.1442,0.18759 -0.1561,-0.10239 -0.68262,0.51065 -0.84905,0.5424 -0.29474,0.17304 -0.62097,0.45588 -0.88582,0.6141 -0.18045,0.25744 -0.46302,0.16324 -0.7837,0.49794 -0.17462,0.12621 -0.28416,0.20611 -0.60536,0.41884 -0.0111,-0.0437 -0.35481,0.16669 -0.3056,0.20928 0.0164,0.0262 -0.008,0.0453 -0.0595,0.0453 -0.44265,0.29448 -1.11151,0.60298 -1.50257,1.01018 0,0.0423 -0.0368,0.0624 -0.082,0.0452 -0.0998,-0.0455 -0.2286,0.13203 -0.31115,0.13309 -0.0865,0.002 -0.0339,0.12197 -0.13864,0.11324 -0.14473,0.0447 -0.13785,0.18944 -0.35375,0.25453 -1.45626,0.81756 -2.57942,1.7354 -3.88514,2.59212 -0.15822,0.0619 -0.0873,0.20928 -0.13573,0.19262 -0.0571,-0.055 -0.2704,0.18362 -0.31406,0.15557 -0.17013,0.0937 -0.5805,0.33787 -0.62283,0.55748 0.008,0.0236 -0.0167,0.0262 -0.0505,0.006 -0.13732,-2.6e-4 -0.51488,0.34687 -0.6141,0.44715 0,0.0273 -0.0214,0.0328 -0.0537,0.0143 -0.0638,-0.0585 -0.11324,0.2151 -0.15531,0.17833 -0.0619,-0.063 -0.35534,0.19817 -0.35613,0.31697 -5.3e-4,0.0905 -0.0148,0.10371 -0.0519,0.0482 -0.0397,-0.0593 -0.0934,-0.0357 -0.24051,0.10478 -0.2876,0.26008 -0.62547,0.40878 -0.88291,0.62256 -0.0987,0.15584 -0.43312,0.19394 -0.4273,0.36222 -0.0378,0.0614 -0.23707,0.0482 -0.3564,0.17541 -0.19156,0.14103 -0.26352,0.12171 -0.35084,0.2548 -0.4736,-1.61714 -1.16575,-3.55627 -2.07724,-5.32262 -0.14367,-0.25268 -0.18309,-0.18521 -0.36856,-0.15002 -0.002,-0.0915 -0.1106,0.12435 -0.11139,0.22066 0.20055,0.73369 0.7612,1.62745 0.92154,2.11958 0.43736,0.94747 0.76068,1.99363 1.10358,3.13822 -4.017435,-0.22066 -7.916071,-0.23363 -11.613094,-1.02711 -0.333639,-0.0998 -0.585258,-0.0698 -0.486833,-0.25189 0.09155,0.0384 0.06085,-0.14287 0.08652,-0.19817 0.07091,-0.56806 0.398462,-1.11363 0.442648,-1.54226 -0.02011,-0.0325 -0.0085,-0.0415 0.0254,-0.0198 0.03863,0.0246 0.0762,-0.0368 0.09895,-0.1614 0.02064,-0.11324 0.059,-0.20081 0.08784,-0.20081 0.07567,-0.0138 0.03757,-0.2159 0.100013,-0.2548 0.293423,-0.56938 1.089025,-2.84215 1.592262,-3.27078 0.06853,0.1659 0.552715,-0.3683 0.970492,-0.56356 0.373327,-0.28152 1.256506,-0.89985 1.655233,-1.12316 1.14009,-0.74268 2.45163,-1.50891 3.616325,-2.20159 2.290764,-1.35679 3.948114,-2.42597 6.632844,-3.78328 1.46367,-0.73501 3.00223,-1.7055 4.78261,-1.36737 z m -11.290566,4.98052 c 0.04604,0.0815 -0.09366,0.0667 -0.08493,0 0.0019,-0.086 0.04842,-0.0622 0.08493,0 z m 18.789386,1.6383 c 0.75009,0.28522 2.01692,-0.0823 3.31073,0.0939 0.7956,0.0394 0.77655,0.0278 1.69571,1.04087 1.02262,1.08082 1.89469,2.05766 2.68764,3.14087 0.086,0.13017 0.0852,0.14472 -0.008,0.18097 -2.32437,1.71662 -4.61513,3.69967 -6.88182,5.39353 -0.0569,0.0114 0.0484,0.12065 -0.068,0.11324 -0.0566,0 -0.0757,0.0243 -0.0511,0.0651 0.0672,0.082 -0.1233,-0.0262 -0.17251,0.10187 -1.53088,1.16681 -2.90115,2.36378 -4.39446,3.51446 -1.54279,1.09775 -3.14801,3.00751 -4.35478,3.57134 -2.60588,0.0111 -5.59594,-0.36671 -8.17139,-0.75009 -1.18004,-0.20744 -2.928409,-0.42783 -4.21984,-0.68474 -0.310886,-0.0807 -1.277673,-0.0998 -1.211528,-0.39053 0.15584,-1.15993 0.41963,-1.80604 0.904082,-2.88634 0.04524,-0.0849 0.08123,-0.18283 0.08123,-0.22066 0,-0.0611 0.148431,-0.39053 0.650081,-1.44304 0.365654,-0.66834 0.269875,-0.80856 0.402431,-1.01176 1.218671,-0.22755 3.406774,0.33787 4.691854,0.22225 0.5887,-0.19685 2.80485,0.27013 3.39566,0.28707 1.10331,0.16139 1.09617,0.0323 1.51104,0.87021 0.30586,0.84032 0.65616,1.76927 0.96202,2.49 0.20029,0.60007 0.60749,2.36775 0.61701,2.32039 0.0368,0.0897 0.0476,0.62257 0.22093,0.53949 0.13811,5.3e-4 0.16139,0.19764 0.31961,-0.0643 0.21432,-0.39714 -0.0669,-0.97737 -0.12435,-1.41763 -0.27596,-1.35626 -0.84931,-2.59768 -1.37372,-3.91928 -0.11218,-0.18494 -0.0915,-0.47783 -0.313,-0.53207 -0.028,0.0177 -0.0349,0.003 -0.014,-0.0312 -0.0638,-0.3736 -0.0315,-0.3355 0.32253,-0.63051 1.2954,-1.12236 1.79017,-1.24618 2.89745,-2.03782 1.02685,-0.73422 2.1418,-1.43113 3.26257,-2.20715 1.77165,-1.12025 3.68539,-2.23282 5.46418,-3.3356 0.14076,-0.0841 1.66079,-0.89271 1.39224,-1.22344 -0.0876,-0.0548 -0.34343,-0.19473 -0.51515,-0.0611 -0.4781,0.31115 -1.25492,0.85249 -1.72905,1.11152 -2.34447,1.31762 -5.84068,3.55388 -7.76473,4.94903 -1.21655,0.9525 -2.75881,2.1127 -4.10315,2.77019 -0.41963,-0.12303 -1.31075,-0.15029 -1.74017,-0.22066 -0.24394,-0.0408 -1.09458,-0.18601 -1.23084,-0.11616 -0.046,-0.0786 -0.35613,-0.0704 -0.41593,-0.1135 -0.0571,-0.0355 0.35666,-0.3646 0.45853,-0.3646 0.0765,-0.004 0.0373,-0.15875 0.13017,-0.15293 0.12436,0 0.38127,-0.19605 0.34105,-0.26035 -0.0214,-0.0344 -0.01,-0.041 0.0296,-0.0169 0.0365,0.0222 0.13574,-0.0175 0.22649,-0.0905 1.25888,-0.98637 1.96268,-1.56236 3.34751,-2.51301 0.16351,-0.0836 0.0915,-0.19421 0.14155,-0.1868 0.1688,0.0347 0.41222,-0.22675 0.48101,-0.28839 0.84402,-0.51224 2.06349,-1.33297 2.86941,-1.92405 0.13493,-0.0595 0.34184,-0.21696 0.50085,-0.26326 0.20611,-0.14843 0.0283,-0.13891 0.32253,-0.26326 0.1905,-0.0667 0.86016,-0.57362 1.02447,-0.61701 0.0725,0.0267 -0.0511,-0.18706 0.0397,-0.12727 0.79614,-0.35374 1.74837,-1.15305 2.52969,-1.55919 0.3085,-0.17885 1.24354,-1.12792 1.62639,-0.85116 z m -6.25369,3.79465 c 0.0106,0.14949 -0.16272,-0.0479 -0.0595,-0.0566 0.0341,0 0.0595,0.0243 0.0595,0.0566 z m -21.732084,3.58511 c 0.01376,0.0598 -0.167746,0.56991 -0.127264,0.62812 0.01217,0.0532 -0.136261,0.0151 -0.08202,0.14446 0.02461,0.0982 -0.0029,0.11404 -0.20664,0.1188 -0.554831,-0.0299 -0.998802,-0.0799 -1.576123,-0.082 -0.640291,-0.0352 0.541338,-0.29686 0.746919,-0.43313 0.374915,-0.0939 1.010708,-0.54345 1.245129,-0.37623 z m -2.234406,1.33852 c 2.28256,0.19421 4.11136,0.45668 6.110817,0.82101 0.684741,0.0691 0.796925,0.17145 0.909902,0.83158 0.153194,0.69586 0.327554,1.84282 0.363537,2.59212 -0.04789,0.16272 0.174096,0.46197 0.06218,0.36778 -0.134408,0.0111 0.06826,0.35692 0.07541,0.69611 -0.0056,0.49954 0.440002,1.2372 0.230452,1.41605 -0.849048,0.0857 -1.11125,-0.17118 -1.958182,-0.23971 -0.277547,0.002 -0.08546,-0.099 -0.353747,-0.0669 -0.242359,0.0336 -0.202671,-0.0466 -0.421482,-0.0577 -3.208073,-0.31009 -5.48296,-0.6731 -8.783373,-0.81386 0.227807,-0.37279 0.465667,-1.08743 0.500857,-1.44594 0.415131,-0.6948 0.621241,-1.53353 1.004623,-2.30611 0.635529,-1.49728 0.581025,-1.50601 2.259012,-1.79441 z m 7.503319,0.72152 c -0.0045,0.014 0.05583,0.2802 -0.0056,0.26723 -0.08414,-0.0497 -0.116417,-0.44238 0.0056,-0.26723 z m 1.392237,0.0905 c -0.08996,0.34211 0.567531,1.57163 0.294481,1.73461 -0.0426,0.0444 -0.116416,0.36354 -0.21537,0.48101 0.07355,-1.1221 -1.007798,-3.67638 -0.668338,-0.83185 0.179388,1.06707 -0.389467,-1.34064 -0.582348,-1.47717 0.225161,0.0146 1.103577,0.0582 1.171575,0.0934 z m 1.202531,0.11615 c -0.59637,1.01865 -0.388937,0.98743 -0.682095,-0.0849 0.129116,0.008 0.676275,0 0.682095,0.0849 z m -1.669256,1.7317 c 0.04551,0.0632 -0.08255,0.14605 -0.08228,0.0339 0,-0.10187 0.03281,-0.11536 0.08228,-0.0339 z m 0.172244,0.44715 c -0.0011,0.0688 0.206375,0.23071 0.164042,0.11033 -0.02408,-0.0397 -0.01535,-0.0508 0.02249,-0.0283 0.059,0.0709 0.161661,-0.17463 0.178329,-0.0934 -0.0026,0.10636 -0.123295,0.11536 -0.110331,0.24633 0,0.0622 -0.02461,0.11033 -0.05662,0.11033 -0.07541,0.0471 -0.08308,0.47334 -0.247914,0.19817 -0.08017,-0.21378 -0.144198,-0.91175 0.05001,-0.54345 z m -0.534458,0.70167 c 0.21246,0.86175 0.436298,0.3429 0.02355,1.59597 -0.01773,0.054 -0.04736,-0.29422 -0.03281,-0.38471 -0.155575,-0.0841 0.0042,-0.21351 -0.02752,-0.33972 -0.04471,-0.17886 -0.237596,-2.14948 0.03678,-0.87154 z"
       id="path32" />
    <path
       style="fill:#ffffff;fill-opacity:1;stroke-width:0.264583"
       d="m 125.26346,139.77545 c -0.28813,0.79217 -0.40799,1.474 -1.11231,1.93225 -0.31829,0.24713 -0.86095,0.59294 -0.30268,0.77841 0.0489,-0.0257 0.023,0.17462 0.10742,0.15266 0.0817,-0.0124 0.29607,0.22569 0.36777,0.22649 0.40851,0.27172 0.69109,0.87524 0.73845,1.31868 0.51356,1.59411 0.71676,-1.09908 2.21006,-1.9976 0,-0.12462 -0.14578,-0.29898 -0.26035,-0.31142 -1.19353,0.0153 -1.13612,-2.53127 -1.74836,-2.09947 z m 0.22913,1.27873 c 0.18812,0.44847 0.47201,0.86757 0.89693,1.25069 -0.24368,0.28363 -0.55906,0.57229 -0.66489,0.90831 -0.008,0.0598 -0.23998,0.24712 -0.16563,0.399 0.0151,0.11906 -0.11404,-0.10134 -0.11721,-0.20929 -0.0468,-0.26749 -0.11854,-0.13229 -0.19712,-0.39053 0.0336,-0.21537 -0.68871,-0.62732 -0.85857,-0.82708 0.21537,0.0982 1.1938,-1.53829 1.10649,-1.1311 z"
       id="path33" />
    <path
       style="fill:#ffffff;fill-opacity:1;stroke-width:0.264583"
       d="m 85.154741,140.78828 c -2.239168,1.21629 1.194065,4.57517 2.213505,5.51233 0.111125,0.29342 0.564356,0.52731 0.735541,0.79507 0.1905,0.25347 0.709348,0.87312 0.803804,0.24051 -0.08202,-0.35243 -0.559858,-1.45548 -0.659341,-1.56475 -0.248444,-1.13956 -1.751807,-5.34167 -3.093509,-4.98316 z m 0.357188,0.57467 c 0.933979,0.64506 1.561835,2.73685 2.065602,3.9923 0.01164,0.14631 0.611981,1.34011 0.164042,0.87154 -0.876036,-1.07315 -1.618457,-1.7235 -2.348707,-2.85353 -0.34925,-0.25665 -1.002241,-2.2987 0.119063,-2.01031 z m 3.339041,6.08648 c 0,0.0323 -0.0254,0.0566 -0.05953,0.0566 -0.103452,-0.009 0.07012,-0.20638 0.05953,-0.0566 z"
       id="path34" />
    <path
       style="fill:#ffffff;fill-opacity:1;stroke-width:0.264583"
       d="m 89.020568,141.13541 c -1.256506,1.18269 -0.08149,3.19008 0.396082,4.5339 0.238389,0.37809 0.397933,1.32398 0.874448,1.42055 0.271462,0.17886 0.295539,-0.10636 0.314854,-0.77814 -0.113507,-2.68737 0.634471,-5.7875 -1.585384,-5.17631 z m 0.72443,0.4609 c 0.50456,-0.17409 0.549539,5.53006 0.234685,4.20053 -0.330994,-0.96388 -2.032,-4.52596 -0.234685,-4.20053 z"
       id="path35" />
    <path
       style="fill:#ffffff;fill-opacity:1;stroke-width:0.264583"
       d="m 83.083848,146.7115 c -0.834761,0.28152 -0.575734,1.12554 -0.0056,1.40283 0.642144,0.42862 0.970757,0.36988 2.659857,0.49873 0.666485,-0.11615 2.351616,0.66781 1.958181,-0.24103 -0.155046,-0.0561 -0.572294,-0.21378 -0.648229,-0.36804 -1.091142,-0.60801 -2.541852,-1.68248 -3.964252,-1.29249 z m 1.522412,0.50589 c 0.18759,0.009 2.45745,1.10649 1.811073,0.99615 -0.565415,-0.0251 -2.897717,-0.16748 -2.750608,-0.28204 -1.235869,-0.70591 -0.427038,-0.82286 0.430212,-0.9062 0.03572,-0.0466 0.230188,0.1352 0.509323,0.19209 z"
       id="path36" />
    <path
       style="fill:#ffffff;fill-opacity:1;stroke-width:0.264583"
       d="m 107.89488,138.96159 c -0.35903,0.16854 -1.14855,0.40905 -1.33006,0.72285 -0.41195,0.28257 -0.004,0.67257 0.46408,0.31432 0.1786,-0.14155 0.51594,-0.21669 0.61119,-0.36221 0.0429,-0.0704 0.16325,0.0169 0.32253,-0.0849 0.091,-0.13494 2.00633,-0.0754 1.78938,-0.26882 0.54795,-0.26009 -1.62269,-0.49266 -1.85712,-0.32121 z"
       id="path37" />
    <path
       style="fill:#ffffff;fill-opacity:1;stroke-width:0.264583"
       d="m 112.7619,140.04374 c -3.4552,2.50269 -7.04189,4.47384 -10.74712,6.93182 -0.7448,0.58605 -0.50323,0.86995 0.65644,0.14525 2.21535,-1.28587 4.21745,-2.56513 6.35555,-3.97271 1.18243,-0.7665 2.35003,-1.63645 3.50309,-2.44608 0.30215,-0.27675 0.39158,-0.23865 0.52599,-0.47995 0.44873,-0.16245 0.5326,-0.79957 -0.29395,-0.17833 z"
       id="path38" />
    <path
       style="fill:#ffffff;fill-opacity:1;stroke-width:0.264583"
       d="m 110.07373,140.43162 c 0,0.0696 -0.26511,0.063 -0.24051,0.15848 0.008,0.0397 -0.009,0.0593 -0.0368,0.0426 -0.22278,-0.0616 -0.16405,0.10557 -0.25453,0.12171 -0.20215,0.0109 -0.46302,0.29819 -0.55748,0.35666 -1.39171,0.78872 -2.8321,1.69757 -4.10607,2.5146 -0.85831,0.50006 -2.45639,1.61422 -3.57664,2.17461 -1.00012,0.66252 -2.742668,0.30136 -3.876672,0.13758 -0.616479,-0.0484 -0.468048,-0.0603 -0.83185,-0.1016 -0.5842,-0.005 -0.301625,0.40217 0.116152,0.40455 1.453621,0.1397 2.567781,0.47546 4.02669,0.10478 1.30863,-0.54266 2.8919,-1.4867 4.39738,-2.4011 1.45918,-0.90117 3.63114,-2.17408 4.43415,-2.88475 0.26088,-0.27279 0.15425,-0.0823 0.36513,-0.29977 0.13096,-0.0979 0.1053,-0.25982 0.19817,-0.24342 0.10424,0.0418 -0.0714,-0.25982 -0.0572,-0.0849 z"
       id="path39" />
    <path
       style="fill:#ffffff;fill-opacity:1;stroke-width:0.264583"
       d="m 115.54663,141.49551 c -0.72284,0.9525 -1.29883,2.01983 -1.89626,3.01069 -0.0368,-0.10821 -0.29025,0.60616 -0.41884,0.67919 -0.0992,0.19129 -0.90937,1.23957 -0.56039,1.3417 1.17131,-0.81941 2.52995,-3.7002 2.94878,-4.90696 -0.01,-0.14235 0.0923,-0.078 0.0961,-0.19818 0,-0.10503 0.006,-0.10742 -0.16934,0.0736 z"
       id="path40" />
    <path
       style="fill:#ffffff;fill-opacity:1;stroke-width:0.264583"
       d="m 116.61026,141.90323 c -0.11165,0.12171 -0.0561,0.15611 -0.16298,0.27728 -0.17595,0.20373 -0.36963,0.62019 -0.3011,0.64691 0.0408,0.0159 0.0339,0.0288 -0.0169,0.0323 -0.14764,0.0212 -2.03677,3.15595 -1.35202,2.71648 0.2487,-0.0998 0.92921,-0.96282 0.98134,-1.35811 -0.0249,-0.0397 -0.0177,-0.0526 0.0169,-0.0312 0.0455,0.0503 0.20479,-0.10319 0.15557,-0.13309 0.008,-0.22251 0.6784,-1.11283 0.68131,-1.51103 0.0264,-0.0868 0.186,-0.12753 0.22833,-0.53208 0.072,-0.28707 -0.10742,-0.2241 -0.23045,-0.10742 z"
       id="path41" />
    <path
       style="fill:#ffffff;fill-opacity:1;stroke-width:0.264583"
       d="m 113.28524,142.58506 c -0.27675,0.50324 -0.60881,0.91123 -0.76121,1.33747 -0.10186,-0.0254 -0.61198,0.94695 -0.63949,0.98028 -0.35693,0.51462 -0.57044,0.88292 -0.97923,1.50813 -1.00277,1.42002 -0.36353,1.42531 0.35666,0.38206 0.22437,-0.21061 0.84138,-1.09485 1.01865,-1.48273 0.38973,-0.62124 0.7747,-1.42134 1.08664,-2.10793 0.17092,-0.26062 0.45852,-1.50204 -0.082,-0.61728 z"
       id="path42" />
    <path
       style="fill:#ffffff;fill-opacity:1;stroke-width:0.264583"
       d="m 117.54688,142.56522 c -0.24209,0.0934 -0.28045,0.30983 -0.38179,0.57732 -0.28231,0.25823 -0.7575,1.62401 -0.0736,0.76412 0,-0.0452 0.0217,-0.0794 0.0508,-0.0794 0.13732,-0.004 0.22489,-0.4146 0.30268,-0.50932 0.0733,0.002 -0.0458,-0.11695 0.0312,-0.11324 0.0881,0.018 0.24527,-0.6866 0.0706,-0.6395 z"
       id="path43" />
    <path
       style="fill:#ffffff;fill-opacity:1;stroke-width:0.264583"
       d="m 111.18842,143.53598 c -0.46567,0.73051 -1.00383,1.79652 -1.47426,2.65985 -0.23125,0.5469 -0.66331,1.08241 -0.59161,1.51553 0.7964,-0.43074 2.7768,-4.46246 2.06587,-4.17538 z"
       id="path44" />
    <path
       style="fill:#ffffff;fill-opacity:1;stroke-width:0.264583"
       d="m 93.067106,147.4862 c -0.932921,0.60034 2.293937,0.47467 2.688166,0.55669 2.062692,0.0159 2.536032,0.24844 3.961607,0.28495 0.897201,-0.67971 -2.739761,-0.8972 -2.927879,-0.74268 0.05053,-0.0849 -0.3302,-0.13732 -0.410898,-0.0566 -0.03387,0.0339 -0.05662,0.0352 -0.05662,0.003 -0.352954,-0.0929 -3.00064,-0.18944 -3.254375,-0.0453 z"
       id="path45" />
    <path
       style="fill:#ffffff;fill-opacity:1;stroke-width:0.264583"
       d="m 119.31536,145.46558 c -0.60854,0.39397 -1.48061,0.78237 -1.90077,1.21391 -0.0413,0.0524 -0.36115,0.0815 -0.70273,0.372 -0.52652,0.331 -0.85249,0.50007 -1.34699,0.82815 -0.27993,0.1815 -1.28482,0.64056 -1.347,0.88847 -0.009,0.0127 -0.45561,0.1053 -0.54742,0.26617 -1.32477,0.78661 -3.33481,2.03729 -4.69318,3.03054 -0.22066,0.0516 -0.55404,0.39661 -0.78105,0.47837 -0.0397,0 -0.0735,0.0262 -0.0735,0.0566 0.013,0.0791 -0.19315,0.0278 -0.13574,0.1217 0.0241,0.0397 0.0153,0.05 -0.0228,0.0267 -0.12038,-0.0627 -0.70167,0.40825 -0.72443,0.4572 -0.2032,-5.3e-4 -0.9062,0.49556 -1.13744,0.29501 -0.36936,-0.21696 -0.73766,0.36618 -0.33973,0.35136 0.0273,-0.004 0.0328,0.0132 0.0138,0.0439 0.49266,0.69109 2.08333,-0.46064 2.18123,-0.57733 0.1651,-0.0918 0.939,-0.58684 1.18374,-0.78369 1.60179,-1.06521 2.54318,-1.73329 4.32938,-2.85406 2.06137,-1.24037 3.56499,-2.16456 5.71315,-3.50441 0.35718,-0.28046 0.44952,-0.21378 0.69797,-0.5715 0.0865,-0.24077 -0.0423,-0.31274 -0.36645,-0.13917 z"
       id="path46" />
    <path
       style="fill:#ffffff;fill-opacity:1;stroke-width:0.264583"
       d="m 123.01371,146.78426 c -0.41752,0.78026 -0.86943,1.81161 -1.1602,2.5072 -0.37095,0.6932 -1.22661,2.24102 -1.26498,2.92311 0.30745,0.12118 1.3978,-2.07539 1.33589,-2.04867 0.28125,-0.47995 0.52202,-1.01017 0.72998,-1.50256 0.13785,-0.46408 0.42466,-0.98081 0.5207,-1.44304 0.0812,-0.12938 0.16325,-1.02897 -0.16139,-0.43604 z"
       id="path47" />
    <path
       style="fill:#ffffff;fill-opacity:1;stroke-width:0.264583"
       d="m 121.99506,146.68531 c -0.0622,0.0471 -0.0876,0.10663 -0.0622,0.14711 0.0553,0.10266 -0.14049,-0.0815 -0.0817,0.14155 -0.12356,0.0865 -0.21405,0.36248 -0.28311,0.47546 -0.14129,0.1061 -0.15504,0.44873 -0.28469,0.62256 -0.17595,0.25453 -0.19791,0.3048 -0.11165,0.25506 0.0476,-0.0275 0.0397,-2.6e-4 -0.0198,0.0675 -0.12726,0.12621 -0.0601,0.25135 -0.18388,0.3593 -0.11986,0.0373 0.0249,0.32015 -0.0878,0.25189 -0.0527,-0.0336 -0.0627,-0.0143 -0.0397,0.0765 -0.19712,0.44635 -0.63924,1.34064 -0.89138,1.93278 -0.16537,0.46567 -0.86546,1.72059 -0.72443,2.09974 0.60034,0.1471 3.4417,-6.64158 2.77045,-6.42938 z"
       id="path48" />
    <path
       style="fill:#ffffff;fill-opacity:1;stroke-width:0.264583"
       d="m 123.59949,147.75502 c 0,0.0566 -0.0161,0.0916 -0.0339,0.0736 -0.0471,-0.0471 -0.0884,0.0228 -0.56145,0.95091 -0.46143,0.9054 -0.80777,1.72746 -0.77232,1.83356 0.0442,0.13176 -0.15028,-0.0717 -0.0868,0.0791 0.0191,0.0508 0.0103,0.1053 -0.0198,0.12462 0.0228,1.13109 1.49093,-2.25531 1.47135,-2.37702 0.0672,-0.1516 0.29025,-0.83635 0.12753,-0.71305 -0.0294,0.15478 -0.13123,-0.17753 -0.12462,0.0283 z"
       id="path49" />
    <path
       style="fill:#ffffff;fill-opacity:1;stroke-width:0.264583"
       d="m 124.29297,148.46807 c -0.2921,0.39794 -1.06786,1.92511 -0.78952,2.09392 0.42571,-0.0188 1.70074,-2.88185 0.78952,-2.09392 z"
       id="path50" />
    <path
       style="fill:#ffffff;fill-opacity:1;stroke-width:0.264583"
       d="m 119.71726,148.49903 c -0.38259,0.57494 -1.52638,3.05435 -1.75445,3.80603 0.0339,0.0445 -0.20981,0.30427 -0.16113,0.35666 0.0169,0.0278 0.003,0.0511 -0.0312,0.0511 -0.0876,0.008 0.0243,0.10954 -0.0595,0.1442 -0.0744,0.008 0.0156,0.20982 -0.0312,0.17833 -0.0746,-0.0749 -0.44689,0.93372 -0.39476,1.06971 0.0228,0.15214 -0.0775,-0.0945 -0.11457,0.2122 0.10637,0.24791 0.33205,-0.23654 0.46884,-0.42731 0.27702,-0.39608 1.2573,-2.47888 1.16682,-2.47888 -0.0193,0 10e-4,-0.0423 0.0482,-0.099 0.10134,0.0307 1.39912,-3.46551 0.86307,-2.81305 z"
       id="path51" />
    <path
       style="fill:#ffffff;fill-opacity:1;stroke-width:0.264583"
       d="m 106.6987,155.72348 c 0.1188,0.86677 0.8255,2.49978 1.22423,3.63908 0.91467,2.60376 0.90673,0.92789 0.29263,-0.53764 -0.12012,-0.35427 -1.17475,-3.39672 -1.51686,-3.10144 z"
       id="path52" />
    <path
       style="fill:#ffffff;fill-opacity:1;stroke-width:0.264583"
       d="m 106.44788,157.43824 c -0.0704,0.3982 0.0868,0.67945 0.14261,0.72152 -0.0307,0.14975 0.34607,0.94853 0.39079,1.08955 0.12568,0.38365 0.35401,0.52653 0.41804,0.7075 0.14975,0.50165 0.76174,0.67125 0.38788,-0.13573 -0.16113,-0.32332 -0.23257,-0.76068 -0.45799,-0.89562 0.0434,-0.0585 -0.15479,-0.40057 -0.19818,-0.49371 0.0156,-0.068 -0.12911,-0.0444 -0.096,-0.0934 0.0426,-0.17965 -0.57362,-1.0369 -0.58711,-0.90011 z"
       id="path53" />
    <path
       style="fill:#ffffff;fill-opacity:1;stroke-width:0.264583"
       d="m 106.03486,159.03976 c -0.055,0.4318 0.58447,1.85394 0.8128,2.0574 0.46302,0.449 0.40508,-0.567 0.0482,-0.82364 -0.0257,0.0151 -0.0328,-0.0114 -0.0151,-0.0566 0.16192,0.0347 -0.69744,-1.3806 -0.84588,-1.17714 z"
       id="path54" />
    <path
       style="fill:#ffffff;fill-opacity:1;stroke-width:0.264583"
       d="m 105.14983,159.82637 c 0.0482,0.28469 0.33576,1.37504 0.80063,1.46579 0.15002,0.0714 0.2122,-0.39264 0.0992,-0.34263 0.0111,0.045 -0.36116,-0.89615 -0.47546,-0.83609 -0.0246,0.0225 -0.0291,0.0127 -0.01,-0.0212 0.0415,-0.0736 -0.15108,-0.38206 -0.20505,-0.32835 -0.0206,0.0206 -0.0397,0.008 -0.0397,-0.0254 -0.0352,-0.11695 -0.18838,-0.0691 -0.1696,0.0878 z"
       id="path55" />
    <path
       style="fill:#ffffff;fill-opacity:1;stroke-width:0.264583"
       d="m 104.58415,159.9793 c 0,0.0132 0.0368,0.0368 0.0876,0.0566 0.17383,0.0415 -0.0849,-0.14843 -0.0876,-0.0566 z"
       id="path56" />
    <path
       style="fill:#ffffff;fill-opacity:1;stroke-width:0.264583"
       d="m 104.58415,160.11503 c 0.002,0.11906 0.39556,1.13903 0.56595,0.65643 0.0222,-0.13837 -0.11377,-0.15478 -0.082,-0.25188 0.018,-0.0312 -0.006,-0.068 -0.0566,-0.0878 -0.12859,-0.064 0.0259,-0.18336 -0.21802,-0.14341 -0.0246,0.004 -0.0273,-0.0206 -0.006,-0.0545 0.0712,-0.0992 -0.2204,-0.22304 -0.20373,-0.1188 z"
       id="path57" />
    <path
       style="fill:#ffffff;fill-opacity:1;stroke-width:0.264583"
       d="m 93.517162,155.76581 c -0.174096,0.32888 0.04948,2.46565 0.290513,3.28533 0.366977,1.31154 0.528637,0.004 0.252677,-1.52797 -0.232834,-1.38033 -0.287073,-1.81451 -0.54319,-1.75736 z"
       id="path58" />
    <path
       style="fill:#ffffff;fill-opacity:1;stroke-width:0.264583"
       d="m 91.567448,155.86212 c 0,0.0905 -0.0074,0.0931 -0.05556,0.0198 -0.08625,-0.21457 -0.04419,1.8042 0.205317,2.43364 0.02963,0.51673 0.519112,0.9996 0.440002,0.006 -0.01508,-0.38127 -0.303477,-2.73818 -0.589756,-2.45904 z"
       id="path59" />
    <path
       style="fill:#ffffff;fill-opacity:1;stroke-width:0.264583"
       d="m 92.409087,156.41378 c -0.0069,0.12276 -0.175154,0.39184 -0.03519,0.39343 -0.06244,0.17754 -0.03175,0.32306 0.02275,0.71596 0.151077,0.74851 0.154516,1.32424 0.535252,1.90156 0.472016,0.28575 -0.111654,-2.96439 -0.522817,-3.01095 z"
       id="path60" />
  </g>
</svg>
