<?xml version="1.0" encoding="UTF-8" standalone="no"?>
<!-- Created with Inkscape (http://www.inkscape.org/) -->

<svg
   version="1.1"
   id="svg39"
   xml:space="preserve"
   width="110.10493"
   height="111.00439"
   viewBox="0 0 110.10493 111.0044"
   sodipodi:docname="logo_plain.svg"
   inkscape:version="1.1.1 (3bf5ae0d25, 2021-09-20)"
   xmlns:inkscape="http://www.inkscape.org/namespaces/inkscape"
   xmlns:sodipodi="http://sodipodi.sourceforge.net/DTD/sodipodi-0.dtd"
   xmlns="http://www.w3.org/2000/svg"
   xmlns:svg="http://www.w3.org/2000/svg"><defs
     id="defs43"><clipPath
       clipPathUnits="userSpaceOnUse"
       id="clipPath55"><path
         d="M 0,1080 H 1920 V 0 H 0 Z"
         id="path53" /></clipPath><clipPath
       clipPathUnits="userSpaceOnUse"
       id="clipPath139"><path
         d="m 614,525.433 c 0,-44.217 35.844,-80.061 80.06,-80.061 v 0 c 44.217,0 80.061,35.844 80.061,80.061 v 0 c 0,44.217 -35.844,80.061 -80.061,80.061 v 0 C 649.844,605.494 614,569.65 614,525.433"
         id="path137" /></clipPath><clipPath
       clipPathUnits="userSpaceOnUse"
       id="clipPath2635"><path
         d="M 0,1080 H 1920 V 0 H 0 Z"
         id="path2633" /></clipPath></defs><sodipodi:namedview
     id="namedview41"
     pagecolor="#ffffff"
     bordercolor="#666666"
     borderopacity="1.0"
     inkscape:pageshadow="2"
     inkscape:pageopacity="0.0"
     inkscape:pagecheckerboard="0"
     showgrid="false"
     inkscape:zoom="3.3785286"
     inkscape:cx="29.154703"
     inkscape:cy="59.493354"
     inkscape:window-width="1920"
     inkscape:window-height="1154"
     inkscape:window-x="1200"
     inkscape:window-y="742"
     inkscape:window-maximized="1"
     inkscape:current-layer="g45" /><g
     id="g45"
     inkscape:groupmode="layer"
     inkscape:label="neptune_logo_fin"
     transform="matrix(1.3333333,0,0,-1.3333333,-870.36144,756.07971)"><g
       id="g2637"
       transform="translate(666.2811,485.7088)"><path
         d="m 0,0 h -13.51 v 51.517 c 0,16.451 13.385,29.834 29.835,29.834 16.451,0 29.835,-13.383 29.835,-29.834 V 23.735 H 32.651 v 27.782 c 0,9.001 -7.323,16.324 -16.326,16.324 C 7.323,67.841 0,60.518 0,51.517 Z"
         style="fill:#191919;fill-opacity:1;fill-rule:nonzero;stroke:none"
         id="path2639" /></g><g
       id="g2641"
       transform="translate(705.5148,483.8065)"><path
         d="m 0,0 c -16.451,0 -29.835,13.383 -29.835,29.834 v 27.782 h 13.51 V 29.834 c 0,-9.001 7.323,-16.324 16.325,-16.324 9.002,0 16.325,7.323 16.325,16.324 v 51.517 h 13.51 V 29.834 C 29.835,13.383 16.451,0 0,0"
         style="fill:#191919;fill-opacity:1;fill-rule:nonzero;stroke:none"
         id="path2643" /></g></g></svg>
