<?xml version="1.0" encoding="UTF-8" standalone="no"?>
<!-- Generator: Adobe Illustrator 26.0.3, SVG Export Plug-In . SVG Version: 6.00 Build 0)  -->

<svg
   version="1.1"
   id="Layer_1"
   x="0px"
   y="0px"
   viewBox="0 0 1251.2367 161.21594"
   xml:space="preserve"
   sodipodi:docname="neptune-fancy.svg"
   width="1251.2367"
   height="161.21594"
   inkscape:version="1.4.2 (ebf0e940, 2025-05-08)"
   xmlns:inkscape="http://www.inkscape.org/namespaces/inkscape"
   xmlns:sodipodi="http://sodipodi.sourceforge.net/DTD/sodipodi-0.dtd"
   xmlns="http://www.w3.org/2000/svg"
   xmlns:svg="http://www.w3.org/2000/svg"><defs
   id="defs2" /><sodipodi:namedview
   id="namedview2"
   pagecolor="#ffffff"
   bordercolor="#000000"
   borderopacity="0.25"
   inkscape:showpageshadow="2"
   inkscape:pageopacity="0.0"
   inkscape:pagecheckerboard="0"
   inkscape:deskcolor="#d1d1d1"
   inkscape:zoom="0.9805214"
   inkscape:cx="586.93262"
   inkscape:cy="159.60896"
   inkscape:window-width="976"
   inkscape:window-height="1186"
   inkscape:window-x="19"
   inkscape:window-y="57"
   inkscape:window-maximized="0"
   inkscape:current-layer="Layer_1" />
<style
   type="text/css"
   id="style1">

</style>
			<path
   id="path1"
   class="st1"
   d="M 1153.1367 0 C 1122.5366 -4.7369516e-15 1097.6367 24.900004 1097.6367 55.5 L 1097.6367 151.40039 L 1122.7363 151.40039 L 1122.7363 55.5 C 1122.7363 38.7 1136.3366 25.099609 1153.1367 25.099609 C 1169.9367 25.099609 1183.5371 38.7 1183.5371 55.5 L 1183.5371 107.19922 L 1208.6367 107.19922 L 1208.6367 55.5 C 1208.6367 24.900004 1183.7367 0 1153.1367 0 z M 996.1543 1.1738281 C 965.5543 1.1738281 940.6543 26.073832 940.6543 56.673828 L 940.6543 152.57227 L 965.75391 152.57227 L 965.75391 56.673828 C 965.75391 39.873828 979.3543 26.273438 996.1543 26.273438 C 1012.9542 26.273437 1026.5547 39.873828 1026.5547 56.673828 L 1026.5547 108.37305 L 1051.6543 108.37305 L 1051.6543 56.673828 C 1051.6543 26.073832 1026.7543 1.1738281 996.1543 1.1738281 z M 840.1543 2 C 809.5543 2 784.6543 26.900004 784.6543 57.5 L 784.6543 153.40039 L 809.75391 153.40039 L 809.75391 57.5 C 809.75391 40.7 823.3543 27.099609 840.1543 27.099609 C 856.9543 27.099609 870.55469 40.7 870.55469 57.5 L 870.55469 109.19922 L 895.6543 109.19922 L 895.6543 57.5 C 895.6543 26.900004 870.7543 2 840.1543 2 z M 525.46484 3.0429688 C 494.86484 3.0429688 469.96484 27.942969 469.96484 58.542969 L 469.96484 154.44336 L 495.06445 154.44336 L 495.06445 58.542969 C 495.06445 41.742969 508.66484 28.142578 525.46484 28.142578 C 542.26484 28.142578 555.86523 41.742969 555.86523 58.542969 L 555.86523 110.24219 L 580.96484 110.24219 L 580.96484 58.542969 C 580.96484 27.942969 556.06484 3.0429688 525.46484 3.0429688 z M 683.17188 3.1738281 C 652.57188 3.1738281 627.67188 28.073832 627.67188 58.673828 L 627.67188 154.57227 L 652.77148 154.57227 L 652.77148 58.673828 C 652.77148 41.873828 666.37188 28.273438 683.17188 28.273438 C 699.97188 28.273437 713.57031 41.873828 713.57031 58.673828 L 713.57031 110.37305 L 738.67188 110.37305 L 738.67188 58.673828 C 738.67188 28.073832 713.77188 3.1738281 683.17188 3.1738281 z M 1226.1367 3.5996094 L 1226.1367 99.5 C 1226.1367 116.3 1212.5363 129.90039 1195.7363 129.90039 C 1178.9363 129.90039 1165.3359 116.3 1165.3359 99.5 L 1165.3359 47.800781 L 1140.2363 47.800781 L 1140.2363 99.5 C 1140.2363 130.1 1165.1363 155 1195.7363 155 C 1226.3363 155 1251.2363 130.1 1251.2363 99.5 L 1251.2363 3.5996094 L 1226.1367 3.5996094 z M 368.48242 4.2167969 C 337.88242 4.2167969 312.98242 29.116794 312.98242 59.716797 L 312.98242 155.61523 L 338.08203 155.61523 L 338.08203 59.716797 C 338.08203 42.916797 351.68242 29.316406 368.48242 29.316406 C 385.28242 29.316406 398.88281 42.916797 398.88281 59.716797 L 398.88281 111.41602 L 423.98242 111.41602 L 423.98242 59.716797 C 423.98242 29.116794 399.08242 4.2167969 368.48242 4.2167969 z M 1069.1543 4.7734375 L 1069.1543 100.67383 C 1069.1543 117.47383 1055.5539 131.07227 1038.7539 131.07227 C 1021.9539 131.07227 1008.3535 117.47383 1008.3535 100.67383 L 1008.3535 48.972656 L 983.25391 48.972656 L 983.25391 100.67383 C 983.25391 131.27383 1008.1538 156.17383 1038.7539 156.17383 C 1069.3539 156.17383 1094.2539 131.27383 1094.2539 100.67383 L 1094.2539 4.7734375 L 1069.1543 4.7734375 z M 212.48242 5.0429688 C 181.88242 5.0429688 156.98242 29.942969 156.98242 60.542969 L 156.98242 156.44336 L 182.08203 156.44336 L 182.08203 60.542969 C 182.08203 43.742969 195.68242 30.142578 212.48242 30.142578 C 229.28242 30.142578 242.88281 43.742969 242.88281 60.542969 L 242.88281 112.24219 L 267.98242 112.24219 L 267.98242 60.542969 C 267.98242 29.942969 243.08242 5.0429688 212.48242 5.0429688 z M 913.1543 5.5996094 L 913.1543 101.5 C 913.1543 118.3 899.55391 131.90039 882.75391 131.90039 C 865.95391 131.90039 852.35352 118.3 852.35352 101.5 L 852.35352 49.800781 L 827.25391 49.800781 L 827.25391 101.5 C 827.25391 132.1 852.15391 157 882.75391 157 C 913.35391 157 938.25391 132.1 938.25391 101.5 L 938.25391 5.5996094 L 913.1543 5.5996094 z M 55.5 6.2167969 C 24.900002 6.2167969 0 31.116794 0 61.716797 L 0 157.61523 L 25.099609 157.61523 L 25.099609 61.716797 C 25.099609 44.916797 38.700002 31.316406 55.5 31.316406 C 72.3 31.316406 85.900391 44.916797 85.900391 61.716797 L 85.900391 113.41602 L 111 113.41602 L 111 61.716797 C 111 31.116794 86.1 6.2167969 55.5 6.2167969 z M 598.46484 6.6425781 L 598.46484 102.54297 C 598.46484 119.34297 584.86445 132.94336 568.06445 132.94336 C 551.26445 132.94336 537.66602 119.34297 537.66602 102.54297 L 537.66602 50.84375 L 512.56445 50.84375 L 512.56445 102.54297 C 512.56445 133.14297 537.46445 158.04297 568.06445 158.04297 C 598.66445 158.04297 623.56445 133.14297 623.56445 102.54297 L 623.56445 6.6425781 L 598.46484 6.6425781 z M 756.17188 6.7734375 L 756.17188 102.67383 C 756.17188 119.47383 742.57148 133.07227 725.77148 133.07227 C 708.97148 133.07227 695.37109 119.47383 695.37109 102.67383 L 695.37109 50.972656 L 670.27148 50.972656 L 670.27148 102.67383 C 670.27148 133.27383 695.17148 158.17383 725.77148 158.17383 C 756.37148 158.17383 781.27148 133.27383 781.27148 102.67383 L 781.27148 6.7734375 L 756.17188 6.7734375 z M 441.48242 7.8164062 L 441.48242 103.7168 C 441.48242 120.5168 427.88203 134.11523 411.08203 134.11523 C 394.28203 134.11523 380.68359 120.5168 380.68359 103.7168 L 380.68359 52.015625 L 355.58203 52.015625 L 355.58203 103.7168 C 355.58203 134.3168 380.48203 159.2168 411.08203 159.2168 C 441.68203 159.2168 466.58203 134.3168 466.58203 103.7168 L 466.58203 7.8164062 L 441.48242 7.8164062 z M 285.48242 8.6425781 L 285.48242 104.54297 C 285.48242 121.34297 271.88203 134.94336 255.08203 134.94336 C 238.28203 134.94336 224.68359 121.34297 224.68359 104.54297 L 224.68359 52.84375 L 199.58203 52.84375 L 199.58203 104.54297 C 199.58203 135.14297 224.48203 160.04297 255.08203 160.04297 C 285.68203 160.04297 310.58203 135.14297 310.58203 104.54297 L 310.58203 8.6425781 L 285.48242 8.6425781 z M 128.5 9.8164062 L 128.5 105.7168 C 128.5 122.5168 114.89961 136.11523 98.099609 136.11523 C 81.299609 136.11523 67.699219 122.5168 67.699219 105.7168 L 67.699219 54.015625 L 42.599609 54.015625 L 42.599609 105.7168 C 42.599609 136.3168 67.499609 161.2168 98.099609 161.2168 C 128.69961 161.2168 153.59961 136.3168 153.59961 105.7168 L 153.59961 9.8164062 L 128.5 9.8164062 z " />
			
</svg>
