<?xml version="1.0" encoding="utf-8"?>
<!-- Generator: Adobe Illustrator 26.0.3, SVG Export Plug-In . SVG Version: 6.00 Build 0)  -->
<svg version="1.1" id="Layer_1" xmlns="http://www.w3.org/2000/svg" xmlns:xlink="http://www.w3.org/1999/xlink" x="0px" y="0px"
	 viewBox="0 0 300 300" style="enable-background:new 0 0 300 300;" xml:space="preserve">
<style type="text/css">

</style>
			<path class="st1" d="M98.3,223.9H73.2v-95.9c0-30.6,24.9-55.5,55.5-55.5s55.5,24.9,55.5,55.5v51.7h-25.1v-51.7
				c0-16.8-13.6-30.4-30.4-30.4s-30.4,13.6-30.4,30.4V223.9z"/>
			<path class="st1" d="M171.3,227.5c-30.6,0-55.5-24.9-55.5-55.5v-51.7h25.1v51.7c0,16.8,13.6,30.4,30.4,30.4s30.4-13.6,30.4-30.4
				V76.1h25.1v95.9C226.8,202.6,201.9,227.5,171.3,227.5z"/>
</svg>
