<?xml version="1.0" encoding="utf-8"?>
<!-- Generator: Adobe Illustrator 26.0.3, SVG Export Plug-In . SVG Version: 6.00 Build 0)  -->
<svg version="1.1" id="Layer_1" xmlns="http://www.w3.org/2000/svg" xmlns:xlink="http://www.w3.org/1999/xlink" x="0px" y="0px"
	 viewBox="0 0 658.3 159.8" style="enable-background:new 0 0 658.3 159.8;" xml:space="preserve">
<style type="text/css">
	.st0{fill:#e9e9f0;}
	.st1{clip-path:url(#SVGID_00000158730669501129213850000005875272629834995337_);}
</style>
<g>
	<g>
		<path class="st0" d="M267.6,74.1c0-17.2,10.2-34,31.6-34h0.3c23.7,0.1,30.6,17.1,30.6,33.9c0,3-0.5,5-0.5,5h-45
			c1.1,8.1,6.2,13.4,15.7,13.4h0.1c7,0,11.6-1.2,16.3-6l11,9.7c-7.7,8.2-16.3,11.3-27,11.3h-0.3C278.4,107.3,267.6,91.5,267.6,74.1z
			 M314.3,67.3c-1.1-8.7-5.6-13.7-14.9-13.8h-0.3c-8.9,0-13.3,5.9-14.6,13.8H314.3z"/>
		<path class="st0" d="M337.4,40.9h16v6.6c5-6,12.1-7.9,19.1-7.9h0.5c17.5,0,27.4,16.1,27.4,34.1c0,17.9-9.5,34.1-27.3,34.1h-0.7
			c-7.1,0-14.5-2.3-19.1-7.9v35.3h-16V40.9z M369,93c10.2,0,15.2-8.5,15.2-19.4s-4.8-19.8-15.2-19.8h-0.5
			c-10.8,0-15.6,8.7-15.6,19.8S357.7,93,368.5,93H369z"/>
		<path class="st0" d="M426.9,82.7c0,6.3,0.4,10.6,5.9,10.6c4.8,0,6.3-2.8,6.3-10.1h14.8c0,16.1-6.3,25-21.9,25
			c-13.8,0-20.4-8.7-20.4-23.1V55.4H401V40.9h10.9V24.6h15.1v16.3h25.1v14.5h-25.1V82.7z"/>
		<path class="st0" d="M517.2,81c0,16.5-12.6,26.7-29.2,26.7c-16.5,0-29-10.2-29-26.7V40.9h16v39.4c0,7.5,5.5,12.9,13,12.9
			s13.2-5.4,13.2-12.9V40.9h16V81z"/>
		<path class="st0" d="M524.9,67.1c0-22.7,17.1-27,28.6-27c10.6,0,28,4.3,28,26.9v39.5h-16V69.2c0-9.1-4.6-14.8-11.8-14.8
			c-8.6,0-12.8,5.6-12.8,14.9v37.1h-16V67.1z"/>
		<path class="st0" d="M203.5,67.1c0-22.7,17.1-27,28.6-27c10.6,0,28,4.3,28,26.9v39.5h-16V69.2c0-9.1-4.6-14.8-11.8-14.8
			c-8.6,0-12.8,5.6-12.8,14.9v37.1h-16V67.1z"/>
		<path class="st0" d="M587.7,74.1c0-17.2,10.2-34,31.6-34h0.3c23.7,0.1,30.6,17.1,30.6,33.9c0,3-0.5,5-0.5,5h-45
			c1.1,8.1,6.2,13.4,15.7,13.4h0.1c7,0,11.6-1.2,16.3-6l11,9.7c-7.7,8.2-16.3,11.3-27,11.3h-0.3C598.6,107.3,587.7,91.5,587.7,74.1z
			 M634.5,67.3c-1.1-8.7-5.6-13.7-14.9-13.8h-0.3c-8.9,0-13.3,5.9-14.6,13.8H634.5z"/>
	</g>
	<g fill="#fff">
		<g>
			<g>
				<defs>
					<circle id="SVGID_1_" cx="82.4" cy="79.9" r="74.3" fill="#fff"/>
				</defs>
				<clipPath id="SVGID_00000147909653882444727330000009150910402440004027_">
					<use xlink:href="#SVGID_1_"  style="overflow:visible;"/>
				</clipPath>
				<g style="clip-path:url(#SVGID_00000147909653882444727330000009150910402440004027_);">
					<g>
						<defs>
							<rect id="SVGID_00000179629735092296416270000007098197870574929043_" x="3.1" y="0.6" width="158.6" height="158.6"/>
						</defs>
						<clipPath id="SVGID_00000020362587623568833520000017179757574728918704_">
							<use xlink:href="#SVGID_00000179629735092296416270000007098197870574929043_"  style="overflow:visible;"/>
						</clipPath>
						<g style="clip-path:url(#SVGID_00000020362587623568833520000017179757574728918704_);">

								<g transform="matrix(0.48 0 0 0.48 2.8038 0.4711)" fill="#fff">
							</g>
						</g>
					</g>
				</g>
			</g>
		</g>
		<g>
			<g>
				<path class="st0" d="M56.6,116.8H44.1V69c0-15.3,12.4-27.7,27.7-27.7S99.4,53.7,99.4,69v25.8H86.9V69c0-8.4-6.8-15.1-15.1-15.1
					S56.6,60.6,56.6,69V116.8z"/>
			</g>
			<g>
				<path class="st0" d="M93,118.5c-15.3,0-27.7-12.4-27.7-27.7V65.1h12.5v25.8c0,8.4,6.8,15.1,15.1,15.1s15.1-6.8,15.1-15.1V43
					h12.5v47.8C120.7,106.1,108.3,118.5,93,118.5z"/>
			</g>
		</g>
	</g>
</g>
</svg>
