<svg xmlns="http://www.w3.org/2000/svg" version="1.1" xmlns:xlink="http://www.w3.org/1999/xlink" width="1000" height="1000"><style>
    #light-icon {
      display: inline;
    }
    #dark-icon {
      display: none;
    }

    @media (prefers-color-scheme: dark) {
      #light-icon {
        display: none;
      }
      #dark-icon {
        display: inline;
      }
    }
  </style><g id="light-icon"><svg xmlns="http://www.w3.org/2000/svg" version="1.1" xmlns:xlink="http://www.w3.org/1999/xlink" width="1000" height="1000"><g><g transform="matrix(6.451612903225806,0,0,6.451612903225806,4.516096774193613,5.684341886080802e-14)"><svg xmlns="http://www.w3.org/2000/svg" version="1.1" xmlns:xlink="http://www.w3.org/1999/xlink" width="153.60001" height="155"><svg version="1.1" id="Layer_1" x="0px" y="0px" viewBox="0 0 153.60001 155" xml:space="preserve" sodipodi:docname="neptune-logo.svg" width="153.60001" height="155" inkscape:export-filename="/Users/imalfect/Downloads/neptuneeee.svg" inkscape:export-xdpi="96" inkscape:export-ydpi="96" xmlns:inkscape="http://www.inkscape.org/namespaces/inkscape" xmlns:sodipodi="http://sodipodi.sourceforge.net/DTD/sodipodi-0.dtd" xmlns="http://www.w3.org/2000/svg" xmlns:svg="http://www.w3.org/2000/svg"><defs id="defs2"></defs><sodipodi:namedview id="namedview2" pagecolor="#ffffff" bordercolor="#000000" borderopacity="0.25" inkscape:showpageshadow="2" inkscape:pageopacity="0.0" inkscape:pagecheckerboard="0" inkscape:deskcolor="#d1d1d1"><inkscape:page x="0" y="0" width="153.60001" height="155" id="page2" margin="0" bleed="0"></inkscape:page></sodipodi:namedview>
<style type="text/css" id="style1">

</style>
			<path class="st1" d="M 25.1,151.4 H 0 V 55.5 C 0,24.9 24.9,0 55.5,0 86.1,0 111,24.9 111,55.5 v 51.7 H 85.9 V 55.5 C 85.9,38.7 72.3,25.1 55.5,25.1 38.7,25.1 25.1,38.7 25.1,55.5 Z" id="path1"></path>
			<path class="st1" d="M 98.1,155 C 67.5,155 42.6,130.1 42.6,99.5 V 47.8 h 25.1 v 51.7 c 0,16.8 13.6,30.4 30.4,30.4 16.8,0 30.4,-13.6 30.4,-30.4 V 3.6 h 25.1 v 95.9 c 0,30.6 -24.9,55.5 -55.5,55.5 z" id="path2"></path>
</svg></svg></g></g></svg></g><g id="dark-icon"><svg xmlns="http://www.w3.org/2000/svg" version="1.1" xmlns:xlink="http://www.w3.org/1999/xlink" width="1000" height="1000"><g clip-path="url(#SvgjsClipPath1072)"><rect width="1000" height="1000" fill="#ffffff"></rect><g transform="matrix(3.870967741935484,0,0,3.870967741935484,202.70965806451613,200)"><svg xmlns="http://www.w3.org/2000/svg" version="1.1" xmlns:xlink="http://www.w3.org/1999/xlink" width="153.60001" height="155"><svg version="1.1" id="Layer_1" x="0px" y="0px" viewBox="0 0 153.60001 155" xml:space="preserve" sodipodi:docname="neptune-logo.svg" width="153.60001" height="155" inkscape:export-filename="/Users/imalfect/Downloads/neptuneeee.svg" inkscape:export-xdpi="96" inkscape:export-ydpi="96" xmlns:inkscape="http://www.inkscape.org/namespaces/inkscape" xmlns:sodipodi="http://sodipodi.sourceforge.net/DTD/sodipodi-0.dtd" xmlns="http://www.w3.org/2000/svg" xmlns:svg="http://www.w3.org/2000/svg"><defs id="defs2"><clipPath id="SvgjsClipPath1072"><rect width="1000" height="1000" x="0" y="0" rx="400" ry="400"></rect></clipPath></defs><sodipodi:namedview id="namedview2" pagecolor="#ffffff" bordercolor="#000000" borderopacity="0.25" inkscape:showpageshadow="2" inkscape:pageopacity="0.0" inkscape:pagecheckerboard="0" inkscape:deskcolor="#d1d1d1"><inkscape:page x="0" y="0" width="153.60001" height="155" id="page2" margin="0" bleed="0"></inkscape:page></sodipodi:namedview>
<style type="text/css" id="style1">

</style>
			<path class="st1" d="M 25.1,151.4 H 0 V 55.5 C 0,24.9 24.9,0 55.5,0 86.1,0 111,24.9 111,55.5 v 51.7 H 85.9 V 55.5 C 85.9,38.7 72.3,25.1 55.5,25.1 38.7,25.1 25.1,38.7 25.1,55.5 Z" id="path1"></path>
			<path class="st1" d="M 98.1,155 C 67.5,155 42.6,130.1 42.6,99.5 V 47.8 h 25.1 v 51.7 c 0,16.8 13.6,30.4 30.4,30.4 16.8,0 30.4,-13.6 30.4,-30.4 V 3.6 h 25.1 v 95.9 c 0,30.6 -24.9,55.5 -55.5,55.5 z" id="path2"></path>
</svg></svg></g></g></svg></g></svg>