<?xml version="1.0" encoding="UTF-8"?>
<svg xmlns="http://www.w3.org/2000/svg" xmlns:xlink="http://www.w3.org/1999/xlink" width="437.424158pt" height="161.145623pt" viewBox="0 0 437.424158 161.145623" version="1.1">
<defs>
<clipPath id="clip1">
  <path d="M 0 0 L 437.425781 0 L 437.425781 161.144531 L 0 161.144531 Z M 0 0 "/>
</clipPath>
<clipPath id="clip2">
  <path d="M 117 116 L 163 116 L 163 161.144531 L 117 161.144531 Z M 117 116 "/>
</clipPath>
<clipPath id="clip3">
  <path d="M 187 116 L 233 116 L 233 161.144531 L 187 161.144531 Z M 187 116 "/>
</clipPath>
<clipPath id="clip4">
  <path d="M 222 116 L 268 116 L 268 161.144531 L 222 161.144531 Z M 222 116 "/>
</clipPath>
<clipPath id="clip5">
  <path d="M 257 116 L 303 116 L 303 161.144531 L 257 161.144531 Z M 257 116 "/>
</clipPath>
<clipPath id="clip6">
  <path d="M 292 116 L 338 116 L 338 161.144531 L 292 161.144531 Z M 292 116 "/>
</clipPath>
<clipPath id="clip7">
  <path d="M 327 116 L 373 116 L 373 161.144531 L 327 161.144531 Z M 327 116 "/>
</clipPath>
<clipPath id="clip8">
  <path d="M 362 116 L 408 116 L 408 161.144531 L 362 161.144531 Z M 362 116 "/>
</clipPath>
</defs>
<g id="surface1">
<g clip-path="url(#clip1)" clip-rule="nonzero">
<path style=" stroke:none;fill-rule:nonzero;fill:rgb(100%,100%,100%);fill-opacity:1;" d="M 0 0 L 437.425781 0 L 437.425781 161.144531 L 0 161.144531 Z M 0 0 "/>
</g>
<path style="fill-rule:nonzero;fill:rgb(78.430176%,76.861572%,71.763611%);fill-opacity:1;stroke-width:2.834646;stroke-linecap:round;stroke-linejoin:miter;stroke:rgb(0%,0%,0%);stroke-opacity:1;stroke-miterlimit:4;" d="M 42.121094 45.035156 C 42.121094 48.585938 39.242188 51.464844 35.691406 51.464844 C 32.140625 51.464844 29.261719 48.585938 29.261719 45.035156 C 29.261719 41.488281 32.140625 38.609375 35.691406 38.609375 C 39.242188 38.609375 42.121094 41.488281 42.121094 45.035156 Z M 42.121094 45.035156 "/>
<path style="fill-rule:nonzero;fill:rgb(78.430176%,76.861572%,71.763611%);fill-opacity:1;stroke-width:2.834646;stroke-linecap:round;stroke-linejoin:miter;stroke:rgb(0%,0%,0%);stroke-opacity:1;stroke-miterlimit:4;" d="M 42.121094 76.375 C 42.121094 78.082031 41.441406 79.714844 40.238281 80.921875 C 39.03125 82.128906 37.398438 82.804688 35.691406 82.804688 C 33.988281 82.804688 32.351562 82.128906 31.144531 80.921875 C 29.941406 79.714844 29.261719 78.082031 29.261719 76.375 C 29.261719 72.824219 32.140625 69.949219 35.691406 69.949219 C 39.242188 69.949219 42.121094 72.824219 42.121094 76.375 Z M 42.121094 76.375 "/>
<path style="fill-rule:nonzero;fill:rgb(78.430176%,76.861572%,71.763611%);fill-opacity:1;stroke-width:2.834646;stroke-linecap:round;stroke-linejoin:miter;stroke:rgb(0%,0%,0%);stroke-opacity:1;stroke-miterlimit:4;" d="M 42.121094 107.714844 C 42.121094 111.265625 39.242188 114.144531 35.691406 114.144531 C 32.140625 114.144531 29.261719 111.265625 29.261719 107.714844 C 29.261719 104.164062 32.140625 101.285156 35.691406 101.285156 C 39.242188 101.285156 42.121094 104.164062 42.121094 107.714844 Z M 42.121094 107.714844 "/>
<path style="fill-rule:nonzero;fill:rgb(78.430176%,76.861572%,71.763611%);fill-opacity:1;stroke-width:2.834646;stroke-linecap:round;stroke-linejoin:miter;stroke:rgb(0%,0%,0%);stroke-opacity:1;stroke-miterlimit:4;" d="M 77.019531 45.035156 C 77.019531 46.742188 76.339844 48.375 75.136719 49.582031 C 73.929688 50.789062 72.292969 51.464844 70.589844 51.464844 C 67.039062 51.464844 64.160156 48.585938 64.160156 45.035156 C 64.160156 41.488281 67.039062 38.609375 70.589844 38.609375 C 72.292969 38.609375 73.929688 39.285156 75.136719 40.492188 C 76.339844 41.695312 77.019531 43.332031 77.019531 45.035156 Z M 77.019531 45.035156 "/>
<path style="fill-rule:nonzero;fill:rgb(78.430176%,76.861572%,71.763611%);fill-opacity:1;stroke-width:2.834646;stroke-linecap:round;stroke-linejoin:miter;stroke:rgb(0%,0%,0%);stroke-opacity:1;stroke-miterlimit:4;" d="M 77.019531 107.714844 C 77.019531 109.421875 76.339844 111.054688 75.136719 112.261719 C 73.929688 113.464844 72.292969 114.144531 70.589844 114.144531 C 67.039062 114.144531 64.160156 111.265625 64.160156 107.714844 C 64.160156 104.164062 67.039062 101.285156 70.589844 101.285156 C 72.292969 101.285156 73.929688 101.964844 75.136719 103.167969 C 76.339844 104.375 77.019531 106.011719 77.019531 107.714844 Z M 77.019531 107.714844 "/>
<path style="fill-rule:nonzero;fill:rgb(78.430176%,76.861572%,71.763611%);fill-opacity:1;stroke-width:2.834646;stroke-linecap:round;stroke-linejoin:miter;stroke:rgb(0%,0%,0%);stroke-opacity:1;stroke-miterlimit:4;" d="M 111.917969 45.035156 C 111.917969 48.585938 109.039062 51.464844 105.488281 51.464844 C 101.9375 51.464844 99.058594 48.585938 99.058594 45.035156 C 99.058594 41.488281 101.9375 38.609375 105.488281 38.609375 C 109.039062 38.609375 111.917969 41.488281 111.917969 45.035156 Z M 111.917969 45.035156 "/>
<path style="fill-rule:nonzero;fill:rgb(78.430176%,76.861572%,71.763611%);fill-opacity:1;stroke-width:2.834646;stroke-linecap:round;stroke-linejoin:miter;stroke:rgb(0%,0%,0%);stroke-opacity:1;stroke-miterlimit:4;" d="M 111.917969 76.375 C 111.917969 78.082031 111.238281 79.714844 110.035156 80.921875 C 108.828125 82.128906 107.191406 82.804688 105.488281 82.804688 C 103.78125 82.804688 102.148438 82.128906 100.941406 80.921875 C 99.738281 79.714844 99.058594 78.082031 99.058594 76.375 C 99.058594 72.824219 101.9375 69.949219 105.488281 69.949219 C 109.039062 69.949219 111.917969 72.824219 111.917969 76.375 Z M 111.917969 76.375 "/>
<path style="fill-rule:nonzero;fill:rgb(78.430176%,76.861572%,71.763611%);fill-opacity:1;stroke-width:2.834646;stroke-linecap:round;stroke-linejoin:miter;stroke:rgb(0%,0%,0%);stroke-opacity:1;stroke-miterlimit:4;" d="M 111.917969 107.714844 C 111.917969 111.265625 109.039062 114.144531 105.488281 114.144531 C 101.9375 114.144531 99.058594 111.265625 99.058594 107.714844 C 99.058594 104.164062 101.9375 101.285156 105.488281 101.285156 C 109.039062 101.285156 111.917969 104.164062 111.917969 107.714844 Z M 111.917969 107.714844 "/>
<path style="fill-rule:nonzero;fill:rgb(78.430176%,76.861572%,71.763611%);fill-opacity:1;stroke-width:2.834646;stroke-linecap:round;stroke-linejoin:miter;stroke:rgb(0%,0%,0%);stroke-opacity:1;stroke-miterlimit:4;" d="M 146.8125 45.035156 C 146.8125 48.585938 143.9375 51.464844 140.386719 51.464844 C 136.835938 51.464844 133.957031 48.585938 133.957031 45.035156 C 133.957031 41.488281 136.835938 38.609375 140.386719 38.609375 C 143.9375 38.609375 146.8125 41.488281 146.8125 45.035156 Z M 146.8125 45.035156 "/>
<path style="fill-rule:nonzero;fill:rgb(78.430176%,76.861572%,71.763611%);fill-opacity:1;stroke-width:2.834646;stroke-linecap:round;stroke-linejoin:miter;stroke:rgb(0%,0%,0%);stroke-opacity:1;stroke-miterlimit:4;" d="M 146.8125 76.375 C 146.8125 78.082031 146.136719 79.714844 144.929688 80.921875 C 143.726562 82.128906 142.089844 82.804688 140.386719 82.804688 C 138.679688 82.804688 137.046875 82.128906 135.839844 80.921875 C 134.632812 79.714844 133.957031 78.082031 133.957031 76.375 C 133.957031 72.824219 136.835938 69.949219 140.386719 69.949219 C 143.9375 69.949219 146.8125 72.824219 146.8125 76.375 Z M 146.8125 76.375 "/>
<path style="fill-rule:nonzero;fill:rgb(78.430176%,76.861572%,71.763611%);fill-opacity:1;stroke-width:2.834646;stroke-linecap:round;stroke-linejoin:miter;stroke:rgb(0%,0%,0%);stroke-opacity:1;stroke-miterlimit:4;" d="M 146.8125 107.714844 C 146.8125 111.265625 143.9375 114.144531 140.386719 114.144531 C 136.835938 114.144531 133.957031 111.265625 133.957031 107.714844 C 133.957031 104.164062 136.835938 101.285156 140.386719 101.285156 C 143.9375 101.285156 146.8125 104.164062 146.8125 107.714844 Z M 146.8125 107.714844 "/>
<path style=" stroke:none;fill-rule:nonzero;fill:rgb(78.430176%,76.861572%,71.763611%);fill-opacity:1;" d="M 146.8125 139.054688 C 146.8125 142.605469 143.9375 145.484375 140.386719 145.484375 C 136.835938 145.484375 133.957031 142.605469 133.957031 139.054688 C 133.957031 135.503906 136.835938 132.625 140.386719 132.625 C 143.9375 132.625 146.8125 135.503906 146.8125 139.054688 Z M 146.8125 139.054688 "/>
<g clip-path="url(#clip2)" clip-rule="nonzero">
<path style="fill:none;stroke-width:2.834646;stroke-linecap:round;stroke-linejoin:miter;stroke:rgb(0%,0%,0%);stroke-opacity:1;stroke-miterlimit:4;" d="M 146.8125 139.054688 C 146.8125 142.605469 143.9375 145.484375 140.386719 145.484375 C 136.835938 145.484375 133.957031 142.605469 133.957031 139.054688 C 133.957031 135.503906 136.835938 132.625 140.386719 132.625 C 143.9375 132.625 146.8125 135.503906 146.8125 139.054688 Z M 146.8125 139.054688 "/>
</g>
<path style="fill-rule:nonzero;fill:rgb(78.430176%,76.861572%,71.763611%);fill-opacity:1;stroke-width:2.834646;stroke-linecap:round;stroke-linejoin:miter;stroke:rgb(0%,0%,0%);stroke-opacity:1;stroke-miterlimit:4;" d="M 181.710938 45.035156 C 181.710938 48.585938 178.835938 51.464844 175.285156 51.464844 C 171.734375 51.464844 168.855469 48.585938 168.855469 45.035156 C 168.855469 41.488281 171.734375 38.609375 175.285156 38.609375 C 178.835938 38.609375 181.710938 41.488281 181.710938 45.035156 Z M 181.710938 45.035156 "/>
<path style="fill-rule:nonzero;fill:rgb(78.430176%,76.861572%,71.763611%);fill-opacity:1;stroke-width:2.834646;stroke-linecap:round;stroke-linejoin:miter;stroke:rgb(0%,0%,0%);stroke-opacity:1;stroke-miterlimit:4;" d="M 181.710938 76.375 C 181.710938 78.082031 181.035156 79.714844 179.828125 80.921875 C 178.625 82.128906 176.988281 82.804688 175.285156 82.804688 C 173.578125 82.804688 171.945312 82.128906 170.738281 80.921875 C 169.53125 79.714844 168.855469 78.082031 168.855469 76.375 C 168.855469 72.824219 171.734375 69.949219 175.285156 69.949219 C 178.835938 69.949219 181.710938 72.824219 181.710938 76.375 Z M 181.710938 76.375 "/>
<path style="fill-rule:nonzero;fill:rgb(78.430176%,76.861572%,71.763611%);fill-opacity:1;stroke-width:2.834646;stroke-linecap:round;stroke-linejoin:miter;stroke:rgb(0%,0%,0%);stroke-opacity:1;stroke-miterlimit:4;" d="M 181.710938 107.714844 C 181.710938 111.265625 178.835938 114.144531 175.285156 114.144531 C 171.734375 114.144531 168.855469 111.265625 168.855469 107.714844 C 168.855469 104.164062 171.734375 101.285156 175.285156 101.285156 C 178.835938 101.285156 181.710938 104.164062 181.710938 107.714844 Z M 181.710938 107.714844 "/>
<path style="fill-rule:nonzero;fill:rgb(78.430176%,76.861572%,71.763611%);fill-opacity:1;stroke-width:2.834646;stroke-linecap:round;stroke-linejoin:miter;stroke:rgb(0%,0%,0%);stroke-opacity:1;stroke-miterlimit:4;" d="M 216.609375 76.375 C 216.609375 78.082031 215.933594 79.714844 214.726562 80.921875 C 213.523438 82.128906 211.886719 82.804688 210.183594 82.804688 C 208.476562 82.804688 206.839844 82.128906 205.636719 80.921875 C 204.429688 79.714844 203.753906 78.082031 203.753906 76.375 C 203.753906 72.824219 206.632812 69.949219 210.183594 69.949219 C 213.730469 69.949219 216.609375 72.824219 216.609375 76.375 Z M 216.609375 76.375 "/>
<path style="fill-rule:nonzero;fill:rgb(78.430176%,76.861572%,71.763611%);fill-opacity:1;stroke-width:2.834646;stroke-linecap:round;stroke-linejoin:miter;stroke:rgb(0%,0%,0%);stroke-opacity:1;stroke-miterlimit:4;" d="M 216.609375 107.714844 C 216.609375 111.265625 213.730469 114.144531 210.183594 114.144531 C 206.632812 114.144531 203.753906 111.265625 203.753906 107.714844 C 203.753906 104.164062 206.632812 101.285156 210.183594 101.285156 C 213.730469 101.285156 216.609375 104.164062 216.609375 107.714844 Z M 216.609375 107.714844 "/>
<path style=" stroke:none;fill-rule:nonzero;fill:rgb(78.430176%,76.861572%,71.763611%);fill-opacity:1;" d="M 216.609375 139.054688 C 216.609375 142.605469 213.730469 145.484375 210.183594 145.484375 C 206.632812 145.484375 203.753906 142.605469 203.753906 139.054688 C 203.753906 135.503906 206.632812 132.625 210.183594 132.625 C 213.730469 132.625 216.609375 135.503906 216.609375 139.054688 Z M 216.609375 139.054688 "/>
<g clip-path="url(#clip3)" clip-rule="nonzero">
<path style="fill:none;stroke-width:2.834646;stroke-linecap:round;stroke-linejoin:miter;stroke:rgb(0%,0%,0%);stroke-opacity:1;stroke-miterlimit:4;" d="M 216.609375 139.054688 C 216.609375 142.605469 213.730469 145.484375 210.183594 145.484375 C 206.632812 145.484375 203.753906 142.605469 203.753906 139.054688 C 203.753906 135.503906 206.632812 132.625 210.183594 132.625 C 213.730469 132.625 216.609375 135.503906 216.609375 139.054688 Z M 216.609375 139.054688 "/>
</g>
<path style="fill-rule:nonzero;fill:rgb(78.430176%,76.861572%,71.763611%);fill-opacity:1;stroke-width:2.834646;stroke-linecap:round;stroke-linejoin:miter;stroke:rgb(0%,0%,0%);stroke-opacity:1;stroke-miterlimit:4;" d="M 251.507812 76.375 C 251.507812 78.082031 250.832031 79.714844 249.625 80.921875 C 248.417969 82.128906 246.785156 82.804688 245.078125 82.804688 C 243.375 82.804688 241.738281 82.128906 240.535156 80.921875 C 239.328125 79.714844 238.652344 78.082031 238.652344 76.375 C 238.652344 72.824219 241.527344 69.949219 245.078125 69.949219 C 248.628906 69.949219 251.507812 72.824219 251.507812 76.375 Z M 251.507812 76.375 "/>
<path style="fill-rule:nonzero;fill:rgb(78.430176%,76.861572%,71.763611%);fill-opacity:1;stroke-width:2.834646;stroke-linecap:round;stroke-linejoin:miter;stroke:rgb(0%,0%,0%);stroke-opacity:1;stroke-miterlimit:4;" d="M 251.507812 107.714844 C 251.507812 111.265625 248.628906 114.144531 245.078125 114.144531 C 241.527344 114.144531 238.652344 111.265625 238.652344 107.714844 C 238.652344 104.164062 241.527344 101.285156 245.078125 101.285156 C 248.628906 101.285156 251.507812 104.164062 251.507812 107.714844 Z M 251.507812 107.714844 "/>
<path style=" stroke:none;fill-rule:nonzero;fill:rgb(78.430176%,76.861572%,71.763611%);fill-opacity:1;" d="M 251.507812 139.054688 C 251.507812 142.605469 248.628906 145.484375 245.078125 145.484375 C 241.527344 145.484375 238.652344 142.605469 238.652344 139.054688 C 238.652344 135.503906 241.527344 132.625 245.078125 132.625 C 248.628906 132.625 251.507812 135.503906 251.507812 139.054688 Z M 251.507812 139.054688 "/>
<g clip-path="url(#clip4)" clip-rule="nonzero">
<path style="fill:none;stroke-width:2.834646;stroke-linecap:round;stroke-linejoin:miter;stroke:rgb(0%,0%,0%);stroke-opacity:1;stroke-miterlimit:4;" d="M 251.507812 139.054688 C 251.507812 142.605469 248.628906 145.484375 245.078125 145.484375 C 241.527344 145.484375 238.652344 142.605469 238.652344 139.054688 C 238.652344 135.503906 241.527344 132.625 245.078125 132.625 C 248.628906 132.625 251.507812 135.503906 251.507812 139.054688 Z M 251.507812 139.054688 "/>
</g>
<path style="fill-rule:nonzero;fill:rgb(78.430176%,76.861572%,71.763611%);fill-opacity:1;stroke-width:2.834646;stroke-linecap:round;stroke-linejoin:miter;stroke:rgb(0%,0%,0%);stroke-opacity:1;stroke-miterlimit:4;" d="M 286.40625 76.375 C 286.40625 78.082031 285.730469 79.714844 284.523438 80.921875 C 283.316406 82.128906 281.683594 82.804688 279.976562 82.804688 C 278.273438 82.804688 276.636719 82.128906 275.433594 80.921875 C 274.226562 79.714844 273.550781 78.082031 273.550781 76.375 C 273.550781 74.671875 274.226562 73.035156 275.433594 71.832031 C 276.636719 70.625 278.273438 69.949219 279.976562 69.949219 C 281.683594 69.949219 283.316406 70.625 284.523438 71.832031 C 285.730469 73.035156 286.40625 74.671875 286.40625 76.375 Z M 286.40625 76.375 "/>
<path style="fill-rule:nonzero;fill:rgb(78.430176%,76.861572%,71.763611%);fill-opacity:1;stroke-width:2.834646;stroke-linecap:round;stroke-linejoin:miter;stroke:rgb(0%,0%,0%);stroke-opacity:1;stroke-miterlimit:4;" d="M 286.40625 107.714844 C 286.40625 109.421875 285.730469 111.054688 284.523438 112.261719 C 283.316406 113.464844 281.683594 114.144531 279.976562 114.144531 C 278.273438 114.144531 276.636719 113.464844 275.433594 112.261719 C 274.226562 111.054688 273.550781 109.421875 273.550781 107.714844 C 273.550781 106.011719 274.226562 104.375 275.433594 103.167969 C 276.636719 101.964844 278.273438 101.285156 279.976562 101.285156 C 281.683594 101.285156 283.316406 101.964844 284.523438 103.167969 C 285.730469 104.375 286.40625 106.011719 286.40625 107.714844 Z M 286.40625 107.714844 "/>
<path style=" stroke:none;fill-rule:nonzero;fill:rgb(78.430176%,76.861572%,71.763611%);fill-opacity:1;" d="M 286.40625 139.054688 C 286.40625 140.757812 285.730469 142.394531 284.523438 143.601562 C 283.316406 144.804688 281.683594 145.484375 279.976562 145.484375 C 278.273438 145.484375 276.636719 144.804688 275.433594 143.601562 C 274.226562 142.394531 273.550781 140.757812 273.550781 139.054688 C 273.550781 137.351562 274.226562 135.714844 275.433594 134.507812 C 276.636719 133.304688 278.273438 132.625 279.976562 132.625 C 281.683594 132.625 283.316406 133.304688 284.523438 134.507812 C 285.730469 135.714844 286.40625 137.351562 286.40625 139.054688 Z M 286.40625 139.054688 "/>
<g clip-path="url(#clip5)" clip-rule="nonzero">
<path style="fill:none;stroke-width:2.834646;stroke-linecap:round;stroke-linejoin:miter;stroke:rgb(0%,0%,0%);stroke-opacity:1;stroke-miterlimit:4;" d="M 286.40625 139.054688 C 286.40625 140.757812 285.730469 142.394531 284.523438 143.601562 C 283.316406 144.804688 281.683594 145.484375 279.976562 145.484375 C 278.273438 145.484375 276.636719 144.804688 275.433594 143.601562 C 274.226562 142.394531 273.550781 140.757812 273.550781 139.054688 C 273.550781 137.351562 274.226562 135.714844 275.433594 134.507812 C 276.636719 133.304688 278.273438 132.625 279.976562 132.625 C 281.683594 132.625 283.316406 133.304688 284.523438 134.507812 C 285.730469 135.714844 286.40625 137.351562 286.40625 139.054688 Z M 286.40625 139.054688 "/>
</g>
<path style="fill-rule:nonzero;fill:rgb(78.430176%,76.861572%,71.763611%);fill-opacity:1;stroke-width:2.834646;stroke-linecap:round;stroke-linejoin:miter;stroke:rgb(0%,0%,0%);stroke-opacity:1;stroke-miterlimit:4;" d="M 321.4375 45.035156 C 321.4375 46.742188 320.761719 48.375 319.554688 49.582031 C 318.347656 50.789062 316.714844 51.464844 315.007812 51.464844 C 313.304688 51.464844 311.667969 50.789062 310.464844 49.582031 C 309.257812 48.375 308.582031 46.742188 308.582031 45.035156 C 308.582031 43.332031 309.257812 41.695312 310.464844 40.492188 C 311.667969 39.285156 313.304688 38.609375 315.007812 38.609375 C 316.714844 38.609375 318.347656 39.285156 319.554688 40.492188 C 320.761719 41.695312 321.4375 43.332031 321.4375 45.035156 Z M 321.4375 45.035156 "/>
<path style="fill-rule:nonzero;fill:rgb(78.430176%,76.861572%,71.763611%);fill-opacity:1;stroke-width:2.834646;stroke-linecap:round;stroke-linejoin:miter;stroke:rgb(0%,0%,0%);stroke-opacity:1;stroke-miterlimit:4;" d="M 321.4375 76.375 C 321.4375 78.082031 320.761719 79.714844 319.554688 80.921875 C 318.347656 82.128906 316.714844 82.804688 315.007812 82.804688 C 313.304688 82.804688 311.667969 82.128906 310.464844 80.921875 C 309.257812 79.714844 308.582031 78.082031 308.582031 76.375 C 308.582031 74.671875 309.257812 73.035156 310.464844 71.832031 C 311.667969 70.625 313.304688 69.949219 315.007812 69.949219 C 316.714844 69.949219 318.347656 70.625 319.554688 71.832031 C 320.761719 73.035156 321.4375 74.671875 321.4375 76.375 Z M 321.4375 76.375 "/>
<path style="fill-rule:nonzero;fill:rgb(78.430176%,76.861572%,71.763611%);fill-opacity:1;stroke-width:2.834646;stroke-linecap:round;stroke-linejoin:miter;stroke:rgb(0%,0%,0%);stroke-opacity:1;stroke-miterlimit:4;" d="M 321.4375 107.714844 C 321.4375 109.421875 320.761719 111.054688 319.554688 112.261719 C 318.347656 113.464844 316.714844 114.144531 315.007812 114.144531 C 313.304688 114.144531 311.667969 113.464844 310.464844 112.261719 C 309.257812 111.054688 308.582031 109.421875 308.582031 107.714844 C 308.582031 106.011719 309.257812 104.375 310.464844 103.167969 C 311.667969 101.964844 313.304688 101.285156 315.007812 101.285156 C 316.714844 101.285156 318.347656 101.964844 319.554688 103.167969 C 320.761719 104.375 321.4375 106.011719 321.4375 107.714844 Z M 321.4375 107.714844 "/>
<path style=" stroke:none;fill-rule:nonzero;fill:rgb(78.430176%,76.861572%,71.763611%);fill-opacity:1;" d="M 321.4375 139.054688 C 321.4375 140.757812 320.761719 142.394531 319.554688 143.601562 C 318.347656 144.804688 316.714844 145.484375 315.007812 145.484375 C 313.304688 145.484375 311.667969 144.804688 310.464844 143.601562 C 309.257812 142.394531 308.582031 140.757812 308.582031 139.054688 C 308.582031 137.351562 309.257812 135.714844 310.464844 134.507812 C 311.667969 133.304688 313.304688 132.625 315.007812 132.625 C 316.714844 132.625 318.347656 133.304688 319.554688 134.507812 C 320.761719 135.714844 321.4375 137.351562 321.4375 139.054688 Z M 321.4375 139.054688 "/>
<g clip-path="url(#clip6)" clip-rule="nonzero">
<path style="fill:none;stroke-width:2.834646;stroke-linecap:round;stroke-linejoin:miter;stroke:rgb(0%,0%,0%);stroke-opacity:1;stroke-miterlimit:4;" d="M 321.4375 139.054688 C 321.4375 140.757812 320.761719 142.394531 319.554688 143.601562 C 318.347656 144.804688 316.714844 145.484375 315.007812 145.484375 C 313.304688 145.484375 311.667969 144.804688 310.464844 143.601562 C 309.257812 142.394531 308.582031 140.757812 308.582031 139.054688 C 308.582031 137.351562 309.257812 135.714844 310.464844 134.507812 C 311.667969 133.304688 313.304688 132.625 315.007812 132.625 C 316.714844 132.625 318.347656 133.304688 319.554688 134.507812 C 320.761719 135.714844 321.4375 137.351562 321.4375 139.054688 Z M 321.4375 139.054688 "/>
</g>
<path style="fill-rule:nonzero;fill:rgb(78.430176%,76.861572%,71.763611%);fill-opacity:1;stroke-width:2.834646;stroke-linecap:round;stroke-linejoin:miter;stroke:rgb(0%,0%,0%);stroke-opacity:1;stroke-miterlimit:4;" d="M 356.335938 76.382812 C 356.335938 78.089844 355.660156 79.722656 354.453125 80.929688 C 353.246094 82.136719 351.613281 82.8125 349.90625 82.8125 C 346.355469 82.8125 343.480469 79.933594 343.480469 76.382812 C 343.480469 72.832031 346.355469 69.957031 349.90625 69.957031 C 351.613281 69.957031 353.246094 70.632812 354.453125 71.839844 C 355.660156 73.042969 356.335938 74.679688 356.335938 76.382812 Z M 356.335938 76.382812 "/>
<path style="fill-rule:nonzero;fill:rgb(78.430176%,76.861572%,71.763611%);fill-opacity:1;stroke-width:2.834646;stroke-linecap:round;stroke-linejoin:miter;stroke:rgb(0%,0%,0%);stroke-opacity:1;stroke-miterlimit:4;" d="M 356.335938 107.714844 C 356.335938 109.421875 355.660156 111.054688 354.453125 112.261719 C 353.246094 113.464844 351.613281 114.144531 349.90625 114.144531 C 346.355469 114.144531 343.480469 111.265625 343.480469 107.714844 C 343.480469 104.164062 346.355469 101.285156 349.90625 101.285156 C 351.613281 101.285156 353.246094 101.964844 354.453125 103.167969 C 355.660156 104.375 356.335938 106.011719 356.335938 107.714844 Z M 356.335938 107.714844 "/>
<path style=" stroke:none;fill-rule:nonzero;fill:rgb(78.430176%,76.861572%,71.763611%);fill-opacity:1;" d="M 356.335938 139.054688 C 356.335938 140.757812 355.660156 142.394531 354.453125 143.601562 C 353.246094 144.804688 351.613281 145.484375 349.90625 145.484375 C 346.355469 145.484375 343.480469 142.605469 343.480469 139.054688 C 343.480469 135.503906 346.355469 132.625 349.90625 132.625 C 351.613281 132.625 353.246094 133.304688 354.453125 134.507812 C 355.660156 135.714844 356.335938 137.351562 356.335938 139.054688 Z M 356.335938 139.054688 "/>
<g clip-path="url(#clip7)" clip-rule="nonzero">
<path style="fill:none;stroke-width:2.834646;stroke-linecap:round;stroke-linejoin:miter;stroke:rgb(0%,0%,0%);stroke-opacity:1;stroke-miterlimit:4;" d="M 356.335938 139.054688 C 356.335938 140.757812 355.660156 142.394531 354.453125 143.601562 C 353.246094 144.804688 351.613281 145.484375 349.90625 145.484375 C 346.355469 145.484375 343.480469 142.605469 343.480469 139.054688 C 343.480469 135.503906 346.355469 132.625 349.90625 132.625 C 351.613281 132.625 353.246094 133.304688 354.453125 134.507812 C 355.660156 135.714844 356.335938 137.351562 356.335938 139.054688 Z M 356.335938 139.054688 "/>
</g>
<path style="fill-rule:nonzero;fill:rgb(78.430176%,76.861572%,71.763611%);fill-opacity:1;stroke-width:2.834646;stroke-linecap:round;stroke-linejoin:miter;stroke:rgb(0%,0%,0%);stroke-opacity:1;stroke-miterlimit:4;" d="M 391.234375 107.714844 C 391.234375 109.421875 390.558594 111.054688 389.351562 112.261719 C 388.144531 113.464844 386.511719 114.144531 384.804688 114.144531 C 381.253906 114.144531 378.375 111.265625 378.375 107.714844 C 378.375 104.164062 381.253906 101.285156 384.804688 101.285156 C 386.511719 101.285156 388.144531 101.964844 389.351562 103.167969 C 390.558594 104.375 391.234375 106.011719 391.234375 107.714844 Z M 391.234375 107.714844 "/>
<path style=" stroke:none;fill-rule:nonzero;fill:rgb(78.430176%,76.861572%,71.763611%);fill-opacity:1;" d="M 391.234375 139.054688 C 391.234375 140.757812 390.558594 142.394531 389.351562 143.601562 C 388.144531 144.804688 386.511719 145.484375 384.804688 145.484375 C 381.253906 145.484375 378.375 142.605469 378.375 139.054688 C 378.375 135.503906 381.253906 132.625 384.804688 132.625 C 386.511719 132.625 388.144531 133.304688 389.351562 134.507812 C 390.558594 135.714844 391.234375 137.351562 391.234375 139.054688 Z M 391.234375 139.054688 "/>
<g clip-path="url(#clip8)" clip-rule="nonzero">
<path style="fill:none;stroke-width:2.834646;stroke-linecap:round;stroke-linejoin:miter;stroke:rgb(0%,0%,0%);stroke-opacity:1;stroke-miterlimit:4;" d="M 391.234375 139.054688 C 391.234375 140.757812 390.558594 142.394531 389.351562 143.601562 C 388.144531 144.804688 386.511719 145.484375 384.804688 145.484375 C 381.253906 145.484375 378.375 142.605469 378.375 139.054688 C 378.375 135.503906 381.253906 132.625 384.804688 132.625 C 386.511719 132.625 388.144531 133.304688 389.351562 134.507812 C 390.558594 135.714844 391.234375 137.351562 391.234375 139.054688 Z M 391.234375 139.054688 "/>
</g>
<path style="fill:none;stroke-width:0.751181;stroke-linecap:butt;stroke-linejoin:miter;stroke:rgb(0%,0%,0%);stroke-opacity:1;stroke-miterlimit:4;" d="M 42.121094 45.035156 L 62.820312 45.035156 "/>
<path style="fill-rule:evenodd;fill:rgb(0%,0%,0%);fill-opacity:1;stroke-width:0.40063;stroke-linecap:butt;stroke-linejoin:miter;stroke:rgb(0%,0%,0%);stroke-opacity:1;stroke-miterlimit:4;" d="M -59.816406 -45.035156 L -58.316406 -46.539062 L -63.574219 -45.035156 L -58.316406 -43.535156 Z M -59.816406 -45.035156 " transform="matrix(-1,0,0,-1,0,0)"/>
<path style="fill:none;stroke-width:0.751181;stroke-linecap:butt;stroke-linejoin:miter;stroke:rgb(0%,0%,0%);stroke-opacity:1;stroke-miterlimit:4;" d="M 77.019531 45.035156 L 98.714844 45.027344 "/>
<path style="fill-rule:evenodd;fill:rgb(0%,0%,0%);fill-opacity:1;stroke-width:0.40063;stroke-linecap:butt;stroke-linejoin:miter;stroke:rgb(0%,0%,0%);stroke-opacity:1;stroke-miterlimit:4;" d="M -95.688559 -45.07485 L -94.183907 -46.57801 L -99.442464 -45.076714 L -94.185398 -43.574104 Z M -95.688559 -45.07485 " transform="matrix(-1,0.000496471,-0.000496471,-1,0,0)"/>
<path style="fill:none;stroke-width:0.751181;stroke-linecap:butt;stroke-linejoin:miter;stroke:rgb(0%,0%,0%);stroke-opacity:1;stroke-miterlimit:4;" d="M 111.917969 45.035156 L 133.253906 45.070312 "/>
<path style="fill-rule:evenodd;fill:rgb(0%,0%,0%);fill-opacity:1;stroke-width:0.400629;stroke-linecap:butt;stroke-linejoin:miter;stroke:rgb(0%,0%,0%);stroke-opacity:1;stroke-miterlimit:4;" d="M -130.324177 -44.85087 L -128.822755 -46.353353 L -134.081992 -44.852467 L -128.821693 -43.349448 Z M -130.324177 -44.85087 " transform="matrix(-1,-0.00165385,0.00165385,-1,0,0)"/>
<path style="fill:none;stroke-width:0.751181;stroke-linecap:butt;stroke-linejoin:miter;stroke:rgb(0%,0%,0%);stroke-opacity:1;stroke-miterlimit:4;" d="M 42.121094 76.375 L 62.363281 76.285156 "/>
<path style="fill-rule:evenodd;fill:rgb(0%,0%,0%);fill-opacity:1;stroke-width:0.400626;stroke-linecap:butt;stroke-linejoin:miter;stroke:rgb(0%,0%,0%);stroke-opacity:1;stroke-miterlimit:4;" d="M -59.022757 -76.560291 L -57.520063 -78.061496 L -62.780566 -76.561188 L -57.521552 -75.057597 Z M -59.022757 -76.560291 " transform="matrix(-1,0.00439677,-0.00439677,-1,0,0)"/>
<path style="fill:none;stroke-width:0.751181;stroke-linecap:butt;stroke-linejoin:miter;stroke:rgb(0%,0%,0%);stroke-opacity:1;stroke-miterlimit:4;" d="M 146.8125 45.035156 L 167.515625 45.035156 "/>
<path style="fill-rule:evenodd;fill:rgb(0%,0%,0%);fill-opacity:1;stroke-width:0.40063;stroke-linecap:butt;stroke-linejoin:miter;stroke:rgb(0%,0%,0%);stroke-opacity:1;stroke-miterlimit:4;" d="M -164.511719 -45.035156 L -163.007812 -46.539062 L -168.265625 -45.035156 L -163.007812 -43.535156 Z M -164.511719 -45.035156 " transform="matrix(-1,0,0,-1,0,0)"/>
<path style="fill:none;stroke-width:0.751181;stroke-linecap:butt;stroke-linejoin:miter;stroke:rgb(0%,0%,0%);stroke-opacity:1;stroke-miterlimit:4;" d="M 146.8125 76.375 L 167.515625 76.375 "/>
<path style="fill-rule:evenodd;fill:rgb(0%,0%,0%);fill-opacity:1;stroke-width:0.40063;stroke-linecap:butt;stroke-linejoin:miter;stroke:rgb(0%,0%,0%);stroke-opacity:1;stroke-miterlimit:4;" d="M -164.511719 -76.375 L -163.007812 -77.878906 L -168.265625 -76.375 L -163.007812 -74.875 Z M -164.511719 -76.375 " transform="matrix(-1,0,0,-1,0,0)"/>
<path style="fill:none;stroke-width:0.751181;stroke-linecap:butt;stroke-linejoin:miter;stroke:rgb(0%,0%,0%);stroke-opacity:1;stroke-miterlimit:4;" d="M 181.710938 76.375 L 202.414062 76.375 "/>
<path style="fill-rule:evenodd;fill:rgb(0%,0%,0%);fill-opacity:1;stroke-width:0.40063;stroke-linecap:butt;stroke-linejoin:miter;stroke:rgb(0%,0%,0%);stroke-opacity:1;stroke-miterlimit:4;" d="M -199.410156 -76.375 L -197.90625 -77.878906 L -203.164062 -76.375 L -197.90625 -74.875 Z M -199.410156 -76.375 " transform="matrix(-1,0,0,-1,0,0)"/>
<path style="fill:none;stroke-width:0.751181;stroke-linecap:butt;stroke-linejoin:miter;stroke:rgb(0%,0%,0%);stroke-opacity:1;stroke-miterlimit:4;" d="M 179.167969 80.929688 L 203.5625 103.390625 "/>
<path style="fill-rule:evenodd;fill:rgb(0%,0%,0%);fill-opacity:1;stroke-width:0.294724;stroke-linecap:butt;stroke-linejoin:miter;stroke:rgb(0%,0%,0%);stroke-opacity:1;stroke-miterlimit:4;" d="M -159.473958 45.481613 L -158.370823 44.376048 L -162.235722 45.481564 L -158.370507 46.586694 Z M -159.473958 45.481613 " transform="matrix(-1,-0.920759,0.920759,-1,0,0)"/>
<path style="fill:none;stroke-width:0.751181;stroke-linecap:butt;stroke-linejoin:miter;stroke:rgb(0%,0%,0%);stroke-opacity:1;stroke-miterlimit:4;" d="M 74.871094 112.890625 C 97.035156 140.980469 121.726562 154.558594 140.972656 154.777344 C 160.222656 154.996094 202.816406 140.625 202.816406 140.625 "/>
<path style="fill-rule:evenodd;fill:rgb(0%,0%,0%);fill-opacity:1;stroke-width:0.379608;stroke-linecap:butt;stroke-linejoin:miter;stroke:rgb(0%,0%,0%);stroke-opacity:1;stroke-miterlimit:4;" d="M -136.647276 -187.687585 L -135.225853 -189.110374 L -140.205455 -187.688814 L -135.224487 -186.266163 Z M -136.647276 -187.687585 " transform="matrix(-1,0.337377,-0.337377,-1,0,0)"/>
<path style="fill:none;stroke-width:0.751181;stroke-linecap:butt;stroke-linejoin:miter;stroke:rgb(0%,0%,0%);stroke-opacity:1;stroke-miterlimit:4;" d="M 216.609375 76.375 L 237.3125 76.375 "/>
<path style="fill-rule:evenodd;fill:rgb(0%,0%,0%);fill-opacity:1;stroke-width:0.40063;stroke-linecap:butt;stroke-linejoin:miter;stroke:rgb(0%,0%,0%);stroke-opacity:1;stroke-miterlimit:4;" d="M -234.308594 -76.375 L -232.804688 -77.878906 L -238.0625 -76.375 L -232.804688 -74.875 Z M -234.308594 -76.375 " transform="matrix(-1,0,0,-1,0,0)"/>
<path style="fill:none;stroke-width:0.751181;stroke-linecap:butt;stroke-linejoin:miter;stroke:rgb(0%,0%,0%);stroke-opacity:1;stroke-miterlimit:4;" d="M 180.054688 41.058594 C 180.054688 41.058594 197.128906 25.167969 245.863281 26.441406 C 294.597656 27.714844 309.980469 40.679688 309.980469 40.679688 "/>
<path style="fill-rule:evenodd;fill:rgb(0%,0%,0%);fill-opacity:1;stroke-width:0.30633;stroke-linecap:butt;stroke-linejoin:miter;stroke:rgb(0%,0%,0%);stroke-opacity:1;stroke-miterlimit:4;" d="M -198.977316 128.970818 L -197.829984 127.820166 L -201.849347 128.969706 L -197.828589 130.115866 Z M -198.977316 128.970818 " transform="matrix(-1,-0.842875,0.842875,-1,0,0)"/>
<path style="fill:none;stroke-width:0.751181;stroke-linecap:butt;stroke-linejoin:miter;stroke:rgb(0%,0%,0%);stroke-opacity:1;stroke-miterlimit:4;" d="M 214.648438 111.699219 L 239.617188 133.707031 "/>
<path style="fill-rule:evenodd;fill:rgb(0%,0%,0%);fill-opacity:1;stroke-width:0.30056;stroke-linecap:butt;stroke-linejoin:miter;stroke:rgb(0%,0%,0%);stroke-opacity:1;stroke-miterlimit:4;" d="M -198.932378 43.605726 L -197.804444 42.478834 L -201.749875 43.604487 L -197.803288 44.731722 Z M -198.932378 43.605726 " transform="matrix(-1,-0.881327,0.881327,-1,0,0)"/>
<path style="fill:none;stroke-width:0.751181;stroke-linecap:butt;stroke-linejoin:miter;stroke:rgb(0%,0%,0%);stroke-opacity:1;stroke-miterlimit:4;" d="M 217.332031 107.507812 L 238.03125 107.507812 "/>
<path style="fill-rule:evenodd;fill:rgb(0%,0%,0%);fill-opacity:1;stroke-width:0.40063;stroke-linecap:butt;stroke-linejoin:miter;stroke:rgb(0%,0%,0%);stroke-opacity:1;stroke-miterlimit:4;" d="M -235.027344 -107.507812 L -233.523438 -109.007812 L -238.78125 -107.507812 L -233.523438 -106.003906 Z M -235.027344 -107.507812 " transform="matrix(-1,0,0,-1,0,0)"/>
<path style="fill:none;stroke-width:0.751181;stroke-linecap:butt;stroke-linejoin:miter;stroke:rgb(0%,0%,0%);stroke-opacity:1;stroke-miterlimit:4;" d="M 251.507812 107.714844 L 272.210938 107.714844 "/>
<path style="fill-rule:evenodd;fill:rgb(0%,0%,0%);fill-opacity:1;stroke-width:0.40063;stroke-linecap:butt;stroke-linejoin:miter;stroke:rgb(0%,0%,0%);stroke-opacity:1;stroke-miterlimit:4;" d="M -269.203125 -107.714844 L -267.703125 -109.21875 L -272.960938 -107.714844 L -267.703125 -106.214844 Z M -269.203125 -107.714844 " transform="matrix(-1,0,0,-1,0,0)"/>
<path style="fill:none;stroke-width:0.751181;stroke-linecap:butt;stroke-linejoin:miter;stroke:rgb(0%,0%,0%);stroke-opacity:1;stroke-miterlimit:4;" d="M 251.507812 76.375 L 272.210938 76.375 "/>
<path style="fill-rule:evenodd;fill:rgb(0%,0%,0%);fill-opacity:1;stroke-width:0.40063;stroke-linecap:butt;stroke-linejoin:miter;stroke:rgb(0%,0%,0%);stroke-opacity:1;stroke-miterlimit:4;" d="M -269.203125 -76.375 L -267.703125 -77.878906 L -272.960938 -76.375 L -267.703125 -74.875 Z M -269.203125 -76.375 " transform="matrix(-1,0,0,-1,0,0)"/>
<path style="fill:none;stroke-width:0.751181;stroke-linecap:butt;stroke-linejoin:miter;stroke:rgb(0%,0%,0%);stroke-opacity:1;stroke-miterlimit:4;" d="M 286.40625 76.375 L 310.738281 49.867188 "/>
<path style="fill-rule:evenodd;fill:rgb(0%,0%,0%);fill-opacity:1;stroke-width:0.295158;stroke-linecap:butt;stroke-linejoin:miter;stroke:rgb(0%,0%,0%);stroke-opacity:1;stroke-miterlimit:4;" d="M -125.516492 -193.503336 L -124.411908 -194.610879 L -128.286559 -193.50392 L -124.411068 -192.396806 Z M -125.516492 -193.503336 " transform="matrix(-0.917806,1,-1,-0.917806,0,0)"/>
<path style="fill:none;stroke-width:0.751181;stroke-linecap:butt;stroke-linejoin:miter;stroke:rgb(0%,0%,0%);stroke-opacity:1;stroke-miterlimit:4;" d="M 77.484375 77.050781 L 98.984375 77 "/>
<path style="fill-rule:evenodd;fill:rgb(0%,0%,0%);fill-opacity:1;stroke-width:0.400629;stroke-linecap:butt;stroke-linejoin:miter;stroke:rgb(0%,0%,0%);stroke-opacity:1;stroke-miterlimit:4;" d="M -95.801457 -77.229872 L -94.297979 -78.730293 L -99.559267 -77.230769 L -94.301036 -75.726394 Z M -95.801457 -77.229872 " transform="matrix(-1,0.00231791,-0.00231791,-1,0,0)"/>
<path style="fill:none;stroke-width:0.751181;stroke-linecap:butt;stroke-linejoin:miter;stroke:rgb(0%,0%,0%);stroke-opacity:1;stroke-miterlimit:4;" d="M 286.40625 76.375 L 309.695312 102.601562 "/>
<path style="fill-rule:evenodd;fill:rgb(0%,0%,0%);fill-opacity:1;stroke-width:0.299563;stroke-linecap:butt;stroke-linejoin:miter;stroke:rgb(0%,0%,0%);stroke-opacity:1;stroke-miterlimit:4;" d="M -208.879774 122.20834 L -207.756774 121.0845 L -211.689354 122.20945 L -207.755934 123.33134 Z M -208.879774 122.20834 " transform="matrix(-0.888027,-1,1,-0.888027,0,0)"/>
<path style="fill:none;stroke-width:0.751181;stroke-linecap:butt;stroke-linejoin:miter;stroke:rgb(0%,0%,0%);stroke-opacity:1;stroke-miterlimit:4;" d="M 251.421875 139.324219 L 272.125 139.324219 "/>
<path style="fill-rule:evenodd;fill:rgb(0%,0%,0%);fill-opacity:1;stroke-width:0.40063;stroke-linecap:butt;stroke-linejoin:miter;stroke:rgb(0%,0%,0%);stroke-opacity:1;stroke-miterlimit:4;" d="M -269.121094 -139.324219 L -267.617188 -140.828125 L -272.875 -139.324219 L -267.617188 -137.824219 Z M -269.121094 -139.324219 " transform="matrix(-1,0,0,-1,0,0)"/>
<path style="fill:none;stroke-width:0.751181;stroke-linecap:butt;stroke-linejoin:miter;stroke:rgb(0%,0%,0%);stroke-opacity:1;stroke-miterlimit:4;" d="M 287.789062 140.839844 C 287.789062 140.839844 301.636719 155.28125 314.808594 155.234375 C 327.976562 155.191406 343.199219 143.066406 343.199219 143.066406 "/>
<path style="fill-rule:evenodd;fill:rgb(0%,0%,0%);fill-opacity:1;stroke-width:0.313376;stroke-linecap:butt;stroke-linejoin:miter;stroke:rgb(0%,0%,0%);stroke-opacity:1;stroke-miterlimit:4;" d="M -137.914601 -254.784825 L -136.738945 -255.96171 L -140.852179 -254.784727 L -136.740106 -253.611072 Z M -137.914601 -254.784825 " transform="matrix(-1,0.796488,-0.796488,-1,0,0)"/>
<path style="fill:none;stroke-width:0.751181;stroke-linecap:butt;stroke-linejoin:miter;stroke:rgb(0%,0%,0%);stroke-opacity:1;stroke-miterlimit:4;" d="M 42.121094 109.785156 C 42.121094 109.785156 55.96875 124.222656 69.140625 124.179688 C 82.308594 124.136719 97.53125 112.011719 97.53125 112.011719 "/>
<path style="fill-rule:evenodd;fill:rgb(0%,0%,0%);fill-opacity:1;stroke-width:0.313376;stroke-linecap:butt;stroke-linejoin:miter;stroke:rgb(0%,0%,0%);stroke-opacity:1;stroke-miterlimit:4;" d="M -2.737037 -116.062829 L -1.563284 -117.237325 L -5.674615 -116.062731 L -1.562541 -114.889077 Z M -2.737037 -116.062829 " transform="matrix(-1,0.796488,-0.796488,-1,0,0)"/>
<path style="fill:none;stroke-width:0.751181;stroke-linecap:butt;stroke-linejoin:miter;stroke:rgb(0%,0%,0%);stroke-opacity:1;stroke-miterlimit:4;" d="M 321.4375 107.714844 L 342.140625 107.714844 "/>
<path style="fill-rule:evenodd;fill:rgb(0%,0%,0%);fill-opacity:1;stroke-width:0.40063;stroke-linecap:butt;stroke-linejoin:miter;stroke:rgb(0%,0%,0%);stroke-opacity:1;stroke-miterlimit:4;" d="M -339.136719 -107.714844 L -337.632812 -109.21875 L -342.890625 -107.714844 L -337.632812 -106.214844 Z M -339.136719 -107.714844 " transform="matrix(-1,0,0,-1,0,0)"/>
<path style="fill:none;stroke-width:0.751181;stroke-linecap:butt;stroke-linejoin:miter;stroke:rgb(0%,0%,0%);stroke-opacity:1;stroke-miterlimit:4;" d="M 356.335938 107.714844 L 377.039062 107.714844 "/>
<path style="fill-rule:evenodd;fill:rgb(0%,0%,0%);fill-opacity:1;stroke-width:0.40063;stroke-linecap:butt;stroke-linejoin:miter;stroke:rgb(0%,0%,0%);stroke-opacity:1;stroke-miterlimit:4;" d="M -374.03125 -107.714844 L -372.53125 -109.21875 L -377.789062 -107.714844 L -372.53125 -106.214844 Z M -374.03125 -107.714844 " transform="matrix(-1,0,0,-1,0,0)"/>
<path style="fill:none;stroke-width:0.751181;stroke-linecap:butt;stroke-linejoin:miter;stroke:rgb(0%,0%,0%);stroke-opacity:1;stroke-miterlimit:4;" d="M 321.4375 76.375 L 343.144531 76.433594 "/>
<path style="fill-rule:evenodd;fill:rgb(0%,0%,0%);fill-opacity:1;stroke-width:0.400628;stroke-linecap:butt;stroke-linejoin:miter;stroke:rgb(0%,0%,0%);stroke-opacity:1;stroke-miterlimit:4;" d="M -340.337723 -75.519938 L -338.837819 -77.023931 L -344.09554 -75.521655 L -338.837626 -74.016119 Z M -340.337723 -75.519938 " transform="matrix(-1,-0.0026616,0.0026616,-1,0,0)"/>
<path style="fill:none;stroke-width:0.751181;stroke-linecap:butt;stroke-linejoin:miter;stroke:rgb(0%,0%,0%);stroke-opacity:1;stroke-miterlimit:4;" d="M 356.335938 139.054688 L 377.039062 139.054688 "/>
<path style="fill-rule:evenodd;fill:rgb(0%,0%,0%);fill-opacity:1;stroke-width:0.40063;stroke-linecap:butt;stroke-linejoin:miter;stroke:rgb(0%,0%,0%);stroke-opacity:1;stroke-miterlimit:4;" d="M -374.03125 -139.054688 L -372.53125 -140.558594 L -377.789062 -139.054688 L -372.53125 -137.550781 Z M -374.03125 -139.054688 " transform="matrix(-1,0,0,-1,0,0)"/>
<path style="fill:none;stroke-width:0.751181;stroke-linecap:butt;stroke-linejoin:miter;stroke:rgb(0%,0%,0%);stroke-opacity:1;stroke-miterlimit:4;" d="M 391.234375 139.054688 L 411.933594 139.054688 "/>
<path style="fill-rule:evenodd;fill:rgb(0%,0%,0%);fill-opacity:1;stroke-width:0.40063;stroke-linecap:butt;stroke-linejoin:miter;stroke:rgb(0%,0%,0%);stroke-opacity:1;stroke-miterlimit:4;" d="M -408.929688 -139.054688 L -407.429688 -140.558594 L -412.6875 -139.054688 L -407.429688 -137.550781 Z M -408.929688 -139.054688 " transform="matrix(-1,0,0,-1,0,0)"/>
<path style="fill:none;stroke-width:0.751181;stroke-linecap:butt;stroke-linejoin:miter;stroke:rgb(0%,0%,0%);stroke-opacity:1;stroke-miterlimit:4;" d="M 391.234375 107.714844 L 411.933594 107.714844 "/>
<path style="fill-rule:evenodd;fill:rgb(0%,0%,0%);fill-opacity:1;stroke-width:0.40063;stroke-linecap:butt;stroke-linejoin:miter;stroke:rgb(0%,0%,0%);stroke-opacity:1;stroke-miterlimit:4;" d="M -408.929688 -107.714844 L -407.429688 -109.21875 L -412.6875 -107.714844 L -407.429688 -106.214844 Z M -408.929688 -107.714844 " transform="matrix(-1,0,0,-1,0,0)"/>
<path style="fill:none;stroke-width:0.751181;stroke-linecap:butt;stroke-linejoin:miter;stroke:rgb(0%,0%,0%);stroke-opacity:1;stroke-miterlimit:4;" d="M 356.335938 76.382812 L 377.039062 76.382812 "/>
<path style="fill-rule:evenodd;fill:rgb(0%,0%,0%);fill-opacity:1;stroke-width:0.40063;stroke-linecap:butt;stroke-linejoin:miter;stroke:rgb(0%,0%,0%);stroke-opacity:1;stroke-miterlimit:4;" d="M -374.03125 -76.382812 L -372.53125 -77.886719 L -377.789062 -76.382812 L -372.53125 -74.882812 Z M -374.03125 -76.382812 " transform="matrix(-1,0,0,-1,0,0)"/>
<path style="fill:none;stroke-width:0.751181;stroke-linecap:butt;stroke-linejoin:miter;stroke:rgb(0%,0%,0%);stroke-opacity:1;stroke-miterlimit:4;" d="M 321.4375 45.035156 L 342.140625 45.035156 "/>
<path style="fill-rule:evenodd;fill:rgb(0%,0%,0%);fill-opacity:1;stroke-width:0.40063;stroke-linecap:butt;stroke-linejoin:miter;stroke:rgb(0%,0%,0%);stroke-opacity:1;stroke-miterlimit:4;" d="M -339.136719 -45.035156 L -337.632812 -46.539062 L -342.890625 -45.035156 L -337.632812 -43.535156 Z M -339.136719 -45.035156 " transform="matrix(-1,0,0,-1,0,0)"/>
<path style="fill:none;stroke-width:0.751181;stroke-linecap:butt;stroke-linejoin:miter;stroke:rgb(0%,0%,0%);stroke-opacity:1;stroke-miterlimit:4;" d="M 284.417969 111.976562 L 309.011719 134.734375 "/>
<path style="fill-rule:evenodd;fill:rgb(0%,0%,0%);fill-opacity:1;stroke-width:0.294059;stroke-linecap:butt;stroke-linejoin:miter;stroke:rgb(0%,0%,0%);stroke-opacity:1;stroke-miterlimit:4;" d="M -231.43542 81.4544 L -230.333586 80.352848 L -234.192731 81.454942 L -230.333868 82.556234 Z M -231.43542 81.4544 " transform="matrix(-1,-0.925294,0.925294,-1,0,0)"/>
<path style="fill:none;stroke-width:0.751181;stroke-linecap:butt;stroke-linejoin:miter;stroke:rgb(0%,0%,0%);stroke-opacity:1;stroke-miterlimit:4;" d="M 321.4375 139.054688 L 343.984375 139.394531 "/>
<path style="fill-rule:evenodd;fill:rgb(0%,0%,0%);fill-opacity:1;stroke-width:0.400584;stroke-linecap:butt;stroke-linejoin:miter;stroke:rgb(0%,0%,0%);stroke-opacity:1;stroke-miterlimit:4;" d="M -343.004036 -134.174607 L -341.503268 -135.677709 L -346.757973 -134.176585 L -341.500934 -132.673838 Z M -343.004036 -134.174607 " transform="matrix(-1,-0.0150816,0.0150816,-1,0,0)"/>
<path style="fill:none;stroke-width:0.751181;stroke-linecap:butt;stroke-linejoin:miter;stroke:rgb(0%,0%,0%);stroke-opacity:1;stroke-miterlimit:4;" d="M 215.742188 135.386719 L 240.855469 112.929688 "/>
<path style="fill-rule:evenodd;fill:rgb(0%,0%,0%);fill-opacity:1;stroke-width:0.29864;stroke-linecap:butt;stroke-linejoin:miter;stroke:rgb(0%,0%,0%);stroke-opacity:1;stroke-miterlimit:4;" d="M -75.480274 -182.430998 L -74.361202 -183.551375 L -78.280726 -182.431366 L -74.359898 -181.311927 Z M -75.480274 -182.430998 " transform="matrix(-1,0.894239,-0.894239,-1,0,0)"/>
<path style="fill:none;stroke-width:0.749999;stroke-linecap:butt;stroke-linejoin:miter;stroke:rgb(0%,0%,0%);stroke-opacity:1;stroke-miterlimit:3.6;" d="M 109.839844 80.59375 L 134.730469 103.027344 "/>
<path style="fill-rule:evenodd;fill:rgb(0%,0%,0%);fill-opacity:1;stroke-width:0.297135;stroke-linecap:butt;stroke-linejoin:miter;stroke:rgb(0%,0%,0%);stroke-opacity:1;stroke-miterlimit:4;" d="M -123.354941 10.151643 L -122.241048 9.038393 L -126.140919 10.150731 L -122.241692 11.265536 Z M -123.354941 10.151643 " transform="matrix(-1,-0.90123,0.90123,-1,0,0)"/>
<path style="fill:none;stroke-width:0.751181;stroke-linecap:butt;stroke-linejoin:miter;stroke:rgb(0%,0%,0%);stroke-opacity:1;stroke-miterlimit:4;" d="M 143.769531 102.671875 L 171.113281 50.339844 "/>
<path style="fill-rule:evenodd;fill:rgb(0%,0%,0%);fill-opacity:1;stroke-width:0.355081;stroke-linecap:butt;stroke-linejoin:miter;stroke:rgb(0%,0%,0%);stroke-opacity:1;stroke-miterlimit:4;" d="M -28.025694 -155.079091 L -26.694477 -156.411377 L -31.35354 -155.078556 L -26.693408 -153.747874 Z M -28.025694 -155.079091 " transform="matrix(-0.522505,1,-1,-0.522505,0,0)"/>
<path style="fill:none;stroke-width:0.749999;stroke-linecap:butt;stroke-linejoin:miter;stroke:rgb(0%,0%,0%);stroke-opacity:1;stroke-miterlimit:3.6;" d="M 111.917969 107.714844 L 133.179688 107.816406 "/>
<path style="fill-rule:evenodd;fill:rgb(0%,0%,0%);fill-opacity:1;stroke-width:0.399995;stroke-linecap:butt;stroke-linejoin:miter;stroke:rgb(0%,0%,0%);stroke-opacity:1;stroke-miterlimit:4;" d="M -130.696452 -107.174507 L -129.195869 -108.67393 L -134.44644 -107.172051 L -129.197029 -105.673924 Z M -130.696452 -107.174507 " transform="matrix(-1,-0.00482171,0.00482171,-1,0,0)"/>
<path style="fill:none;stroke-width:0.751181;stroke-linecap:butt;stroke-linejoin:miter;stroke:rgb(0%,0%,0%);stroke-opacity:1;stroke-miterlimit:4;" d="M 145.910156 135.65625 L 170.253906 113.128906 "/>
<path style="fill-rule:evenodd;fill:rgb(0%,0%,0%);fill-opacity:1;stroke-width:0.294061;stroke-linecap:butt;stroke-linejoin:miter;stroke:rgb(0%,0%,0%);stroke-opacity:1;stroke-miterlimit:4;" d="M -33.124802 -145.821625 L -32.023251 -146.923474 L -35.882131 -145.822148 L -32.020848 -144.718126 Z M -33.124802 -145.821625 " transform="matrix(-1,0.925281,-0.925281,-1,0,0)"/>
<path style="fill-rule:nonzero;fill:rgb(78.430176%,76.861572%,71.763611%);fill-opacity:1;stroke-width:2.834646;stroke-linecap:round;stroke-linejoin:round;stroke:rgb(0%,0%,0%);stroke-opacity:1;stroke-miterlimit:4;" d="M 70.265625 38.554688 L 70.945312 38.554688 C 74.308594 38.554688 77.015625 41.613281 77.015625 45.410156 L 77.015625 107.25 C 77.015625 111.046875 74.308594 114.105469 70.945312 114.105469 L 70.265625 114.105469 C 66.898438 114.105469 64.191406 111.046875 64.191406 107.25 L 64.191406 45.410156 C 64.191406 41.613281 66.898438 38.554688 70.265625 38.554688 Z M 70.265625 38.554688 "/>
<path style="fill-rule:nonzero;fill:rgb(78.430176%,76.861572%,71.763611%);fill-opacity:1;stroke-width:2.834646;stroke-linecap:round;stroke-linejoin:round;stroke:rgb(0%,0%,0%);stroke-opacity:1;stroke-miterlimit:4;" d="M 140.152344 101.296875 L 140.832031 101.296875 C 144.195312 101.296875 146.90625 104.355469 146.90625 108.152344 L 146.90625 139.394531 C 146.90625 143.191406 144.195312 146.25 140.832031 146.25 L 140.152344 146.25 C 136.785156 146.25 134.078125 143.191406 134.078125 139.394531 L 134.078125 108.152344 C 134.078125 104.355469 136.785156 101.296875 140.152344 101.296875 Z M 140.152344 101.296875 "/>
<path style="fill-rule:nonzero;fill:rgb(78.430176%,76.861572%,71.763611%);fill-opacity:1;stroke-width:2.834646;stroke-linecap:round;stroke-linejoin:round;stroke:rgb(0%,0%,0%);stroke-opacity:1;stroke-miterlimit:4;" d="M 140.070312 38.503906 L 140.75 38.503906 C 144.113281 38.503906 146.824219 41.5625 146.824219 45.359375 L 146.824219 76.601562 C 146.824219 80.402344 144.113281 83.457031 140.75 83.457031 L 140.070312 83.457031 C 136.703125 83.457031 133.996094 80.402344 133.996094 76.601562 L 133.996094 45.359375 C 133.996094 41.5625 136.703125 38.503906 140.070312 38.503906 Z M 140.070312 38.503906 "/>
<path style="fill-rule:nonzero;fill:rgb(78.430176%,76.861572%,71.763611%);fill-opacity:1;stroke-width:2.834646;stroke-linecap:round;stroke-linejoin:round;stroke:rgb(0%,0%,0%);stroke-opacity:1;stroke-miterlimit:4;" d="M 35.265625 69.203125 L 35.945312 69.203125 C 39.308594 69.203125 42.019531 72.257812 42.019531 76.054688 L 42.019531 107.300781 C 42.019531 111.097656 39.308594 114.15625 35.945312 114.15625 L 35.265625 114.15625 C 31.902344 114.15625 29.191406 111.097656 29.191406 107.300781 L 29.191406 76.054688 C 29.191406 72.257812 31.902344 69.203125 35.265625 69.203125 Z M 35.265625 69.203125 "/>
<path style="fill-rule:nonzero;fill:rgb(78.430176%,76.861572%,71.763611%);fill-opacity:1;stroke-width:2.834646;stroke-linecap:round;stroke-linejoin:round;stroke:rgb(0%,0%,0%);stroke-opacity:1;stroke-miterlimit:4;" d="M 174.953125 70.074219 L 175.632812 70.074219 C 178.996094 70.074219 181.707031 73.128906 181.707031 76.925781 L 181.707031 108.171875 C 181.707031 111.96875 178.996094 115.027344 175.632812 115.027344 L 174.953125 115.027344 C 171.585938 115.027344 168.878906 111.96875 168.878906 108.171875 L 168.878906 76.925781 C 168.878906 73.128906 171.585938 70.074219 174.953125 70.074219 Z M 174.953125 70.074219 "/>
<path style="fill-rule:nonzero;fill:rgb(78.430176%,76.861572%,71.763611%);fill-opacity:1;stroke-width:2.834646;stroke-linecap:round;stroke-linejoin:round;stroke:rgb(0%,0%,0%);stroke-opacity:1;stroke-miterlimit:4;" d="M 209.917969 100.65625 L 245.480469 100.65625 C 248.84375 100.65625 251.554688 103.714844 251.554688 107.511719 L 251.554688 138.710938 C 251.554688 142.507812 248.84375 145.566406 245.480469 145.566406 L 209.917969 145.566406 C 206.554688 145.566406 203.84375 142.507812 203.84375 138.710938 L 203.84375 107.511719 C 203.84375 103.714844 206.554688 100.65625 209.917969 100.65625 Z M 209.917969 100.65625 "/>
<path style="fill-rule:nonzero;fill:rgb(78.430176%,76.861572%,71.763611%);fill-opacity:1;stroke-width:2.834646;stroke-linecap:round;stroke-linejoin:round;stroke:rgb(0%,0%,0%);stroke-opacity:1;stroke-miterlimit:4;" d="M 279.546875 70.03125 L 315.195312 70.03125 C 318.558594 70.03125 321.265625 73.089844 321.265625 76.886719 L 321.265625 107.070312 C 321.265625 110.867188 318.558594 113.921875 315.195312 113.921875 L 279.546875 113.921875 C 276.179688 113.921875 273.472656 110.867188 273.472656 107.070312 L 273.472656 76.886719 C 273.472656 73.089844 276.179688 70.03125 279.546875 70.03125 Z M 279.546875 70.03125 "/>
<path style="fill-rule:nonzero;fill:rgb(78.430176%,76.861572%,71.763611%);fill-opacity:1;stroke-width:2.834646;stroke-linecap:round;stroke-linejoin:round;stroke:rgb(0%,0%,0%);stroke-opacity:1;stroke-miterlimit:4;" d="M 349.613281 101.277344 L 350.292969 101.277344 C 353.65625 101.277344 356.367188 104.335938 356.367188 108.132812 L 356.367188 139.375 C 356.367188 143.171875 353.65625 146.230469 350.292969 146.230469 L 349.613281 146.230469 C 346.246094 146.230469 343.539062 143.171875 343.539062 139.375 L 343.539062 108.132812 C 343.539062 104.335938 346.246094 101.277344 349.613281 101.277344 Z M 349.613281 101.277344 "/>
<path style="fill-rule:nonzero;fill:rgb(78.430176%,76.861572%,71.763611%);fill-opacity:1;stroke-width:2.834646;stroke-linecap:round;stroke-linejoin:round;stroke:rgb(0%,0%,0%);stroke-opacity:1;stroke-miterlimit:4;" d="M 209.914062 70.007812 L 245.378906 70.007812 C 248.746094 70.007812 251.453125 72.863281 251.453125 76.414062 C 251.453125 79.960938 248.746094 82.820312 245.378906 82.820312 L 209.914062 82.820312 C 206.550781 82.820312 203.839844 79.960938 203.839844 76.414062 C 203.839844 72.863281 206.550781 70.007812 209.914062 70.007812 Z M 209.914062 70.007812 "/>
<path style="fill-rule:nonzero;fill:rgb(78.430176%,76.861572%,71.763611%);fill-opacity:1;stroke-width:2.834646;stroke-linecap:round;stroke-linejoin:round;stroke:rgb(0%,0%,0%);stroke-opacity:1;stroke-miterlimit:4;" d="M 105.195312 69.800781 L 105.875 69.800781 C 109.242188 69.800781 111.949219 72.859375 111.949219 76.65625 L 111.949219 107.898438 C 111.949219 111.695312 109.242188 114.753906 105.875 114.753906 L 105.195312 114.753906 C 101.832031 114.753906 99.121094 111.695312 99.121094 107.898438 L 99.121094 76.65625 C 99.121094 72.859375 101.832031 69.800781 105.195312 69.800781 Z M 105.195312 69.800781 "/>
</g>
</svg>
