<?xml version="1.0" encoding="UTF-8"?>
<svg xmlns="http://www.w3.org/2000/svg" xmlns:xlink="http://www.w3.org/1999/xlink" width="437.424158pt" height="161.145623pt" viewBox="0 0 437.424158 161.145623" version="1.1">
<defs>
<clipPath id="clip1">
  <path d="M 0 0 L 437.425781 0 L 437.425781 161.144531 L 0 161.144531 Z M 0 0 "/>
</clipPath>
<clipPath id="clip2">
  <path d="M 117 116 L 163 116 L 163 161.144531 L 117 161.144531 Z M 117 116 "/>
</clipPath>
<clipPath id="clip3">
  <path d="M 187 116 L 233 116 L 233 161.144531 L 187 161.144531 Z M 187 116 "/>
</clipPath>
<clipPath id="clip4">
  <path d="M 222 116 L 268 116 L 268 161.144531 L 222 161.144531 Z M 222 116 "/>
</clipPath>
<clipPath id="clip5">
  <path d="M 257 116 L 303 116 L 303 161.144531 L 257 161.144531 Z M 257 116 "/>
</clipPath>
<clipPath id="clip6">
  <path d="M 292 116 L 338 116 L 338 161.144531 L 292 161.144531 Z M 292 116 "/>
</clipPath>
<clipPath id="clip7">
  <path d="M 327 116 L 373 116 L 373 161.144531 L 327 161.144531 Z M 327 116 "/>
</clipPath>
<clipPath id="clip8">
  <path d="M 362 116 L 408 116 L 408 161.144531 L 362 161.144531 Z M 362 116 "/>
</clipPath>
</defs>
<g id="surface1">
<g clip-path="url(#clip1)" clip-rule="nonzero">
<path style=" stroke:none;fill-rule:nonzero;fill:rgb(100%,100%,100%);fill-opacity:1;" d="M 0 0 L 437.425781 0 L 437.425781 161.144531 L 0 161.144531 Z M 0 0 "/>
</g>
<path style="fill:none;stroke-width:0.751181;stroke-linecap:butt;stroke-linejoin:miter;stroke:rgb(0%,0%,0%);stroke-opacity:1;stroke-dasharray:0.751181,0.751181;stroke-miterlimit:3.98095;" d="M 146.261719 111.550781 L 203.121094 136.664062 "/>
<path style="fill-rule:evenodd;fill:rgb(0%,0%,0%);fill-opacity:1;stroke-width:0.36647;stroke-linecap:butt;stroke-linejoin:miter;stroke:rgb(0%,0%,0%);stroke-opacity:1;stroke-miterlimit:4;" d="M -217.720982 -39.278378 L -216.348262 -40.654261 L -221.1589 -39.279325 L -216.348367 -37.904215 Z M -217.720982 -39.278378 " transform="matrix(-1,-0.441716,0.441716,-1,0,0)"/>
<path style="fill:none;stroke-width:0.751181;stroke-linecap:butt;stroke-linejoin:miter;stroke:rgb(0%,0%,0%);stroke-opacity:1;stroke-dasharray:0.751181,0.751181;stroke-miterlimit:3.98095;" d="M 146.8125 139.054688 L 202.847656 139.40625 "/>
<path style="fill-rule:evenodd;fill:rgb(0%,0%,0%);fill-opacity:1;stroke-width:0.400622;stroke-linecap:butt;stroke-linejoin:miter;stroke:rgb(0%,0%,0%);stroke-opacity:1;stroke-miterlimit:4;" d="M -200.70608 -138.133767 L -199.203736 -139.635333 L -204.463893 -138.133745 L -199.204514 -136.631422 Z M -200.70608 -138.133767 " transform="matrix(-1,-0.00624272,0.00624272,-1,0,0)"/>
<path style="fill:none;stroke-width:0.751181;stroke-linecap:butt;stroke-linejoin:miter;stroke:rgb(0%,0%,0%);stroke-opacity:1;stroke-dasharray:0.751181,0.751181;stroke-miterlimit:3.98095;" d="M 286.441406 105.082031 L 343.125 78.460938 "/>
<path style="fill-rule:evenodd;fill:rgb(0%,0%,0%);fill-opacity:1;stroke-width:0.362634;stroke-linecap:butt;stroke-linejoin:miter;stroke:rgb(0%,0%,0%);stroke-opacity:1;stroke-miterlimit:4;" d="M -248.215892 -196.303442 L -246.857493 -197.665522 L -251.618187 -196.303545 L -246.858515 -194.943346 Z M -248.215892 -196.303442 " transform="matrix(-1,0.469612,-0.469612,-1,0,0)"/>
<path style="fill:none;stroke-width:0.751181;stroke-linecap:butt;stroke-linejoin:miter;stroke:rgb(0%,0%,0%);stroke-opacity:1;stroke-dasharray:0.751181,0.751181;stroke-miterlimit:3.98095;" d="M 319.890625 102.320312 L 343.679688 81.214844 "/>
<path style="fill-rule:evenodd;fill:rgb(0%,0%,0%);fill-opacity:1;stroke-width:0.29969;stroke-linecap:butt;stroke-linejoin:miter;stroke:rgb(0%,0%,0%);stroke-opacity:1;stroke-miterlimit:4;" d="M -149.748418 -216.063392 L -148.625233 -217.184122 L -152.559192 -216.060935 L -148.625503 -214.938267 Z M -149.748418 -216.063392 " transform="matrix(-1,0.887171,-0.887171,-1,0,0)"/>
<path style="fill:none;stroke-width:0.751181;stroke-linecap:butt;stroke-linejoin:miter;stroke:rgb(0%,0%,0%);stroke-opacity:1;stroke-dasharray:0.751181,0.751181;stroke-miterlimit:3.98095;" d="M 320.691406 80.933594 L 378.332031 104.941406 "/>
<path style="fill-rule:evenodd;fill:rgb(0%,0%,0%);fill-opacity:1;stroke-width:0.369831;stroke-linecap:butt;stroke-linejoin:miter;stroke:rgb(0%,0%,0%);stroke-opacity:1;stroke-miterlimit:4;" d="M -356.874141 44.857939 L -355.486792 43.47148 L -360.341679 44.860849 L -355.487682 46.245288 Z M -356.874141 44.857939 " transform="matrix(-1,-0.416525,0.416525,-1,0,0)"/>
<path style="fill:none;stroke-width:0.751181;stroke-linecap:butt;stroke-linejoin:miter;stroke:rgb(0%,0%,0%);stroke-opacity:1;stroke-dasharray:0.751181,0.751181;stroke-miterlimit:3.98095;" d="M 355.523438 133.652344 L 378.308594 112.21875 "/>
<path style="fill-rule:evenodd;fill:rgb(0%,0%,0%);fill-opacity:1;stroke-width:0.291845;stroke-linecap:butt;stroke-linejoin:miter;stroke:rgb(0%,0%,0%);stroke-opacity:1;stroke-miterlimit:4;" d="M -142.561432 -248.349099 L -141.465692 -249.443612 L -145.295194 -248.349751 L -141.464969 -247.255433 Z M -142.561432 -248.349099 " transform="matrix(-1,0.940449,-0.940449,-1,0,0)"/>
<path style="fill:none;stroke-width:0.751181;stroke-linecap:butt;stroke-linejoin:miter;stroke:rgb(0%,0%,0%);stroke-opacity:1;stroke-dasharray:0.751181,0.751181;stroke-miterlimit:3.98095;" d="M 321.65625 110.4375 L 377.746094 137.128906 "/>
<path style="fill-rule:evenodd;fill:rgb(0%,0%,0%);fill-opacity:1;stroke-width:0.361755;stroke-linecap:butt;stroke-linejoin:miter;stroke:rgb(0%,0%,0%);stroke-opacity:1;stroke-miterlimit:4;" d="M -358.487498 34.763961 L -357.132655 33.40827 L -361.881201 34.765702 L -357.131807 36.118804 Z M -358.487498 34.763961 " transform="matrix(-1,-0.475888,0.475888,-1,0,0)"/>
<path style="fill:none;stroke-width:0.751181;stroke-linecap:butt;stroke-linejoin:miter;stroke:rgb(0%,0%,0%);stroke-opacity:1;stroke-dasharray:0.751181,0.751181;stroke-miterlimit:3.98095;" d="M 216.3125 73.433594 C 246.585938 53.21875 269.785156 47.636719 307.054688 45.640625 "/>
<path style="fill-rule:evenodd;fill:rgb(0%,0%,0%);fill-opacity:1;stroke-width:0.400057;stroke-linecap:butt;stroke-linejoin:miter;stroke:rgb(0%,0%,0%);stroke-opacity:1;stroke-miterlimit:4;" d="M -300.736328 -61.906111 L -299.238161 -63.404024 L -304.490349 -61.903976 L -299.238623 -60.404048 Z M -300.736328 -61.906111 " transform="matrix(-1,0.05354,-0.05354,-1,0,0)"/>
<path style="fill:none;stroke-width:0.751181;stroke-linecap:butt;stroke-linejoin:miter;stroke:rgb(0%,0%,0%);stroke-opacity:1;stroke-dasharray:0.751181,0.751181;stroke-miterlimit:3.98095;" d="M 286.453125 79.238281 L 342.957031 103.914062 "/>
<path style="fill-rule:evenodd;fill:rgb(0%,0%,0%);fill-opacity:1;stroke-width:0.367141;stroke-linecap:butt;stroke-linejoin:miter;stroke:rgb(0%,0%,0%);stroke-opacity:1;stroke-miterlimit:4;" d="M -323.379241 38.520716 L -322.002995 37.146205 L -326.822816 38.524694 L -322.003296 39.900243 Z M -323.379241 38.520716 " transform="matrix(-1,-0.436749,0.436749,-1,0,0)"/>
<path style="fill:none;stroke-width:0.751181;stroke-linecap:butt;stroke-linejoin:miter;stroke:rgb(0%,0%,0%);stroke-opacity:1;stroke-dasharray:0.751181,0.751181;stroke-miterlimit:3.98095;" d="M 320.59375 112.742188 L 344.320312 134.390625 "/>
<path style="fill-rule:evenodd;fill:rgb(0%,0%,0%);fill-opacity:1;stroke-width:0.29594;stroke-linecap:butt;stroke-linejoin:miter;stroke:rgb(0%,0%,0%);stroke-opacity:1;stroke-miterlimit:4;" d="M -252.575127 98.11127 L -251.464231 96.999922 L -255.348809 98.111002 L -251.465724 99.220034 Z M -252.575127 98.11127 " transform="matrix(-1,-0.912499,0.912499,-1,0,0)"/>
<path style="fill:none;stroke-width:0.751181;stroke-linecap:butt;stroke-linejoin:miter;stroke:rgb(0%,0%,0%);stroke-opacity:1;stroke-dasharray:0.751181,0.751181;stroke-miterlimit:3.98095;" d="M 321.988281 139.554688 L 342.691406 139.554688 "/>
<path style="fill-rule:evenodd;fill:rgb(0%,0%,0%);fill-opacity:1;stroke-width:0.40063;stroke-linecap:butt;stroke-linejoin:miter;stroke:rgb(0%,0%,0%);stroke-opacity:1;stroke-miterlimit:4;" d="M -339.6875 -139.554688 L -338.183594 -141.054688 L -343.441406 -139.554688 L -338.183594 -138.050781 Z M -339.6875 -139.554688 " transform="matrix(-1,0,0,-1,0,0)"/>
<path style="fill:none;stroke-width:0.751181;stroke-linecap:butt;stroke-linejoin:miter;stroke:rgb(0%,0%,0%);stroke-opacity:1;stroke-dasharray:0.751181,0.751181;stroke-miterlimit:3.98095;" d="M 285.179688 102.472656 L 308.746094 81.6875 "/>
<path style="fill-rule:evenodd;fill:rgb(0%,0%,0%);fill-opacity:1;stroke-width:0.300455;stroke-linecap:butt;stroke-linejoin:miter;stroke:rgb(0%,0%,0%);stroke-opacity:1;stroke-miterlimit:4;" d="M -130.871075 -199.108781 L -129.74413 -200.235869 L -133.687582 -199.108666 L -129.743987 -197.981836 Z M -130.871075 -199.108781 " transform="matrix(-1,0.882036,-0.882036,-1,0,0)"/>
<path style="fill:none;stroke-width:0.751181;stroke-linecap:butt;stroke-linejoin:miter;stroke:rgb(0%,0%,0%);stroke-opacity:1;stroke-dasharray:0.751181,0.751181;stroke-miterlimit:3.98095;" d="M 287.035156 77.144531 L 307.734375 77.144531 "/>
<path style="fill-rule:evenodd;fill:rgb(0%,0%,0%);fill-opacity:1;stroke-width:0.40063;stroke-linecap:butt;stroke-linejoin:miter;stroke:rgb(0%,0%,0%);stroke-opacity:1;stroke-miterlimit:4;" d="M -304.730469 -77.144531 L -303.226562 -78.644531 L -308.488281 -77.144531 L -303.226562 -75.640625 Z M -304.730469 -77.144531 " transform="matrix(-1,0,0,-1,0,0)"/>
<path style="fill:none;stroke-width:0.751181;stroke-linecap:butt;stroke-linejoin:miter;stroke:rgb(0%,0%,0%);stroke-opacity:1;stroke-dasharray:0.751181,0.751181;stroke-miterlimit:3.98095;" d="M 285.292969 107.8125 L 305.996094 107.8125 "/>
<path style="fill-rule:evenodd;fill:rgb(0%,0%,0%);fill-opacity:1;stroke-width:0.40063;stroke-linecap:butt;stroke-linejoin:miter;stroke:rgb(0%,0%,0%);stroke-opacity:1;stroke-miterlimit:4;" d="M -302.988281 -107.8125 L -301.488281 -109.316406 L -306.746094 -107.8125 L -301.488281 -106.308594 Z M -302.988281 -107.8125 " transform="matrix(-1,0,0,-1,0,0)"/>
<path style="fill:none;stroke-width:0.751181;stroke-linecap:butt;stroke-linejoin:miter;stroke:rgb(0%,0%,0%);stroke-opacity:1;stroke-dasharray:0.751181,0.751181;stroke-miterlimit:3.98095;" d="M 285.449219 134.1875 L 309.292969 113.121094 "/>
<path style="fill-rule:evenodd;fill:rgb(0%,0%,0%);fill-opacity:1;stroke-width:0.30022;stroke-linecap:butt;stroke-linejoin:miter;stroke:rgb(0%,0%,0%);stroke-opacity:1;stroke-miterlimit:4;" d="M -115.302917 -216.99207 L -114.17805 -218.119221 L -118.117226 -216.994444 L -114.177959 -215.869141 Z M -115.302917 -216.99207 " transform="matrix(-1,0.883609,-0.883609,-1,0,0)"/>
<path style="fill:none;stroke-width:0.751181;stroke-linecap:butt;stroke-linejoin:miter;stroke:rgb(0%,0%,0%);stroke-opacity:1;stroke-dasharray:0.751181,0.751181;stroke-miterlimit:3.98095;" d="M 249.851562 144.5 C 270.847656 154.886719 289.71875 155.007812 308.757812 143.640625 "/>
<path style="fill-rule:evenodd;fill:rgb(0%,0%,0%);fill-opacity:1;stroke-width:0.343977;stroke-linecap:butt;stroke-linejoin:miter;stroke:rgb(0%,0%,0%);stroke-opacity:1;stroke-miterlimit:4;" d="M -161.803233 -241.791589 L -160.512403 -243.083341 L -165.027731 -241.795046 L -160.51436 -240.502478 Z M -161.803233 -241.791589 " transform="matrix(-1,0.597095,-0.597095,-1,0,0)"/>
<path style="fill:none;stroke-width:0.751181;stroke-linecap:butt;stroke-linejoin:miter;stroke:rgb(0%,0%,0%);stroke-opacity:1;stroke-dasharray:0.751181,0.751181;stroke-miterlimit:3.98095;" d="M 287.167969 139.152344 L 307.871094 139.152344 "/>
<path style="fill-rule:evenodd;fill:rgb(0%,0%,0%);fill-opacity:1;stroke-width:0.40063;stroke-linecap:butt;stroke-linejoin:miter;stroke:rgb(0%,0%,0%);stroke-opacity:1;stroke-miterlimit:4;" d="M -304.863281 -139.152344 L -303.363281 -140.652344 L -308.621094 -139.152344 L -303.363281 -137.648438 Z M -304.863281 -139.152344 " transform="matrix(-1,0,0,-1,0,0)"/>
<path style="fill:none;stroke-width:0.751181;stroke-linecap:butt;stroke-linejoin:miter;stroke:rgb(0%,0%,0%);stroke-opacity:1;stroke-dasharray:0.751181,0.751181;stroke-miterlimit:3.98095;" d="M 181.710938 45.035156 C 216.792969 45.035156 248.65625 51.910156 274.40625 71.8125 "/>
<path style="fill-rule:evenodd;fill:rgb(0%,0%,0%);fill-opacity:1;stroke-width:0.31698;stroke-linecap:butt;stroke-linejoin:miter;stroke:rgb(0%,0%,0%);stroke-opacity:1;stroke-miterlimit:4;" d="M -204.151456 87.820264 L -202.961396 86.630888 L -207.121275 87.81888 L -202.96397 89.007877 Z M -204.151456 87.820264 " transform="matrix(-1,-0.77294,0.77294,-1,0,0)"/>
<path style="fill:none;stroke-width:0.751181;stroke-linecap:butt;stroke-linejoin:miter;stroke:rgb(0%,0%,0%);stroke-opacity:1;stroke-dasharray:0.751181,0.751181;stroke-miterlimit:3.98095;" d="M 250.511719 103.082031 L 274.503906 81.75 "/>
<path style="fill-rule:evenodd;fill:rgb(0%,0%,0%);fill-opacity:1;stroke-width:0.299378;stroke-linecap:butt;stroke-linejoin:miter;stroke:rgb(0%,0%,0%);stroke-opacity:1;stroke-miterlimit:4;" d="M -110.444784 -181.961437 L -109.321697 -183.083802 L -113.250448 -181.960339 L -109.322418 -180.83835 Z M -110.444784 -181.961437 " transform="matrix(-1,0.889271,-0.889271,-1,0,0)"/>
<path style="fill:none;stroke-width:0.751181;stroke-linecap:butt;stroke-linejoin:miter;stroke:rgb(0%,0%,0%);stroke-opacity:1;stroke-dasharray:0.751181,0.751181;stroke-miterlimit:3.98095;" d="M 249.871094 113.308594 L 273.621094 134.816406 "/>
<path style="fill-rule:evenodd;fill:rgb(0%,0%,0%);fill-opacity:1;stroke-width:0.296936;stroke-linecap:butt;stroke-linejoin:miter;stroke:rgb(0%,0%,0%);stroke-opacity:1;stroke-miterlimit:4;" d="M -215.163573 62.082549 L -214.048707 60.967296 L -217.945036 62.082314 L -214.050264 63.195269 Z M -215.163573 62.082549 " transform="matrix(-1,-0.905745,0.905745,-1,0,0)"/>
<path style="fill:none;stroke-width:0.751181;stroke-linecap:butt;stroke-linejoin:miter;stroke:rgb(0%,0%,0%);stroke-opacity:1;stroke-dasharray:0.751181,0.751181;stroke-miterlimit:3.98095;" d="M 215.058594 144.210938 C 232.152344 153.992188 253.027344 154.652344 273.507812 144.789062 "/>
<path style="fill-rule:evenodd;fill:rgb(0%,0%,0%);fill-opacity:1;stroke-width:0.360958;stroke-linecap:butt;stroke-linejoin:miter;stroke:rgb(0%,0%,0%);stroke-opacity:1;stroke-miterlimit:4;" d="M -162.715138 -224.450363 L -161.361031 -225.80219 L -166.097907 -224.450453 L -161.36014 -223.09473 Z M -162.715138 -224.450363 " transform="matrix(-1,0.481557,-0.481557,-1,0,0)"/>
<path style="fill:none;stroke-width:0.751181;stroke-linecap:butt;stroke-linejoin:miter;stroke:rgb(0%,0%,0%);stroke-opacity:1;stroke-dasharray:0.751181,0.751181;stroke-miterlimit:3.98095;" d="M 250.71875 133.425781 L 274.648438 113.785156 "/>
<path style="fill-rule:evenodd;fill:rgb(0%,0%,0%);fill-opacity:1;stroke-width:0.309677;stroke-linecap:butt;stroke-linejoin:miter;stroke:rgb(0%,0%,0%);stroke-opacity:1;stroke-miterlimit:4;" d="M -105.977834 -202.675151 L -104.81544 -203.83437 L -108.880495 -202.674764 L -104.814364 -201.513175 Z M -105.977834 -202.675151 " transform="matrix(-1,0.820773,-0.820773,-1,0,0)"/>
<path style="fill:none;stroke-width:0.751181;stroke-linecap:butt;stroke-linejoin:miter;stroke:rgb(0%,0%,0%);stroke-opacity:1;stroke-dasharray:0.751181,0.751181;stroke-miterlimit:3.98095;" d="M 215.984375 139.6875 L 236.6875 139.6875 "/>
<path style="fill-rule:evenodd;fill:rgb(0%,0%,0%);fill-opacity:1;stroke-width:0.40063;stroke-linecap:butt;stroke-linejoin:miter;stroke:rgb(0%,0%,0%);stroke-opacity:1;stroke-miterlimit:4;" d="M -233.683594 -139.6875 L -232.179688 -141.191406 L -237.4375 -139.6875 L -232.179688 -138.183594 Z M -233.683594 -139.6875 " transform="matrix(-1,0,0,-1,0,0)"/>
<path style="fill:none;stroke-width:0.751181;stroke-linecap:butt;stroke-linejoin:miter;stroke:rgb(0%,0%,0%);stroke-opacity:1;stroke-dasharray:0.751181,0.751181;stroke-miterlimit:3.98095;" d="M 181 79.6875 L 238.804688 105.175781 "/>
<path style="fill-rule:evenodd;fill:rgb(0%,0%,0%);fill-opacity:1;stroke-width:0.366578;stroke-linecap:butt;stroke-linejoin:miter;stroke:rgb(0%,0%,0%);stroke-opacity:1;stroke-miterlimit:4;" d="M -236.010455 0.10032 L -234.636412 -1.275051 L -239.447943 0.100346 L -234.635083 1.474363 Z M -236.010455 0.10032 " transform="matrix(-1,-0.440918,0.440918,-1,0,0)"/>
<path style="fill:none;stroke-width:0.751181;stroke-linecap:butt;stroke-linejoin:miter;stroke:rgb(0%,0%,0%);stroke-opacity:1;stroke-dasharray:0.751181,0.751181;stroke-miterlimit:3.98095;" d="M 181.949219 46.65625 L 238.867188 72.023438 "/>
<path style="fill-rule:evenodd;fill:rgb(0%,0%,0%);fill-opacity:1;stroke-width:0.365929;stroke-linecap:butt;stroke-linejoin:miter;stroke:rgb(0%,0%,0%);stroke-opacity:1;stroke-miterlimit:4;" d="M -223.318296 28.733523 L -221.94603 27.360177 L -226.748957 28.731339 L -221.94495 30.10579 Z M -223.318296 28.733523 " transform="matrix(-1,-0.445706,0.445706,-1,0,0)"/>
<path style="fill:none;stroke-width:0.751181;stroke-linecap:butt;stroke-linejoin:miter;stroke:rgb(0%,0%,0%);stroke-opacity:1;stroke-dasharray:0.751181,0.751181;stroke-miterlimit:3.98095;" d="M 215.597656 102.148438 L 238.933594 81.238281 "/>
<path style="fill-rule:evenodd;fill:rgb(0%,0%,0%);fill-opacity:1;stroke-width:0.298371;stroke-linecap:butt;stroke-linejoin:miter;stroke:rgb(0%,0%,0%);stroke-opacity:1;stroke-miterlimit:4;" d="M -89.911348 -163.811517 L -88.792158 -164.929756 L -92.709049 -163.810595 L -88.793109 -162.692327 Z M -89.911348 -163.811517 " transform="matrix(-1,0.896054,-0.896054,-1,0,0)"/>
<path style="fill:none;stroke-width:0.751181;stroke-linecap:butt;stroke-linejoin:miter;stroke:rgb(0%,0%,0%);stroke-opacity:1;stroke-dasharray:0.751181,0.751181;stroke-miterlimit:3.98095;" d="M 147.472656 137.558594 L 203.195312 112.640625 "/>
<path style="fill-rule:evenodd;fill:rgb(0%,0%,0%);fill-opacity:1;stroke-width:0.365729;stroke-linecap:butt;stroke-linejoin:miter;stroke:rgb(0%,0%,0%);stroke-opacity:1;stroke-miterlimit:4;" d="M -124.616474 -169.592061 L -123.245457 -170.963357 L -128.042009 -169.592611 L -123.245177 -168.221044 Z M -124.616474 -169.592061 " transform="matrix(-1,0.447171,-0.447171,-1,0,0)"/>
<path style="fill:none;stroke-width:0.751181;stroke-linecap:butt;stroke-linejoin:miter;stroke:rgb(0%,0%,0%);stroke-opacity:1;stroke-dasharray:0.751181,0.751181;stroke-miterlimit:3.98095;" d="M 181.710938 107.714844 L 202.414062 107.714844 "/>
<path style="fill-rule:evenodd;fill:rgb(0%,0%,0%);fill-opacity:1;stroke-width:0.40063;stroke-linecap:butt;stroke-linejoin:miter;stroke:rgb(0%,0%,0%);stroke-opacity:1;stroke-miterlimit:4;" d="M -199.410156 -107.714844 L -197.90625 -109.21875 L -203.164062 -107.714844 L -197.90625 -106.214844 Z M -199.410156 -107.714844 " transform="matrix(-1,0,0,-1,0,0)"/>
<path style="fill:none;stroke-width:0.751181;stroke-linecap:butt;stroke-linejoin:miter;stroke:rgb(0%,0%,0%);stroke-opacity:1;stroke-dasharray:0.751181,0.751181;stroke-miterlimit:3.98095;" d="M 180.875 102.605469 L 204.714844 82.023438 "/>
<path style="fill-rule:evenodd;fill:rgb(0%,0%,0%);fill-opacity:1;stroke-width:0.303252;stroke-linecap:butt;stroke-linejoin:miter;stroke:rgb(0%,0%,0%);stroke-opacity:1;stroke-miterlimit:4;" d="M -74.444794 -148.258854 L -73.308005 -149.394615 L -77.289499 -148.257747 L -73.309032 -147.122065 Z M -74.444794 -148.258854 " transform="matrix(-1,0.863332,-0.863332,-1,0,0)"/>
<path style="fill:none;stroke-width:0.751181;stroke-linecap:butt;stroke-linejoin:miter;stroke:rgb(0%,0%,0%);stroke-opacity:1;stroke-dasharray:0.751181,0.751181;stroke-miterlimit:3.98095;" d="M 181.347656 49.980469 L 204.636719 70.855469 "/>
<path style="fill-rule:evenodd;fill:rgb(0%,0%,0%);fill-opacity:1;stroke-width:0.298333;stroke-linecap:butt;stroke-linejoin:miter;stroke:rgb(0%,0%,0%);stroke-opacity:1;stroke-miterlimit:4;" d="M -146.453886 62.41652 L -145.334007 61.29948 L -149.24929 62.418162 L -145.33468 63.534458 Z M -146.453886 62.41652 " transform="matrix(-1,-0.89631,0.89631,-1,0,0)"/>
<path style="fill:none;stroke-width:0.751181;stroke-linecap:butt;stroke-linejoin:miter;stroke:rgb(0%,0%,0%);stroke-opacity:1;stroke-dasharray:0.751181,0.751181;stroke-miterlimit:3.98095;" d="M 145.644531 81.308594 L 169.144531 102.289062 "/>
<path style="fill-rule:evenodd;fill:rgb(0%,0%,0%);fill-opacity:1;stroke-width:0.298834;stroke-linecap:butt;stroke-linejoin:miter;stroke:rgb(0%,0%,0%);stroke-opacity:1;stroke-miterlimit:4;" d="M -142.686442 27.119657 L -141.566461 25.998501 L -145.486779 27.120156 L -141.567459 28.241579 Z M -142.686442 27.119657 " transform="matrix(-1,-0.892928,0.892928,-1,0,0)"/>
<path style="fill:none;stroke-width:0.751181;stroke-linecap:butt;stroke-linejoin:miter;stroke:rgb(0%,0%,0%);stroke-opacity:1;stroke-dasharray:0.751181,0.751181;stroke-miterlimit:3.98095;" d="M 147.25 107.960938 L 167.953125 107.960938 "/>
<path style="fill-rule:evenodd;fill:rgb(0%,0%,0%);fill-opacity:1;stroke-width:0.40063;stroke-linecap:butt;stroke-linejoin:miter;stroke:rgb(0%,0%,0%);stroke-opacity:1;stroke-miterlimit:4;" d="M -164.949219 -107.960938 L -163.445312 -109.460938 L -168.703125 -107.960938 L -163.445312 -106.457031 Z M -164.949219 -107.960938 " transform="matrix(-1,0,0,-1,0,0)"/>
<path style="fill:none;stroke-width:0.751181;stroke-linecap:butt;stroke-linejoin:miter;stroke:rgb(0%,0%,0%);stroke-opacity:1;stroke-dasharray:0.751181,0.751181;stroke-miterlimit:3.98095;" d="M 145.84375 49.765625 L 169.371094 71.394531 "/>
<path style="fill-rule:evenodd;fill:rgb(0%,0%,0%);fill-opacity:1;stroke-width:0.294926;stroke-linecap:butt;stroke-linejoin:miter;stroke:rgb(0%,0%,0%);stroke-opacity:1;stroke-miterlimit:4;" d="M -125.145977 45.698084 L -124.039148 44.590638 L -127.909631 45.69598 L -124.040477 46.802796 Z M -125.145977 45.698084 " transform="matrix(-1,-0.919386,0.919386,-1,0,0)"/>
<path style="fill:none;stroke-width:0.751181;stroke-linecap:butt;stroke-linejoin:miter;stroke:rgb(0%,0%,0%);stroke-opacity:1;stroke-dasharray:0.751181,0.751181;stroke-miterlimit:3.98095;" d="M 145.3125 71.351562 L 168.027344 49.15625 "/>
<path style="fill-rule:evenodd;fill:rgb(0%,0%,0%);fill-opacity:1;stroke-width:0.286556;stroke-linecap:butt;stroke-linejoin:miter;stroke:rgb(0%,0%,0%);stroke-opacity:1;stroke-miterlimit:4;" d="M -59.243762 -109.138676 L -58.169558 -110.214113 L -61.930837 -109.139112 L -58.168326 -108.064471 Z M -59.243762 -109.138676 " transform="matrix(-1,0.977061,-0.977061,-1,0,0)"/>
<path style="fill:none;stroke-width:0.751181;stroke-linecap:butt;stroke-linejoin:miter;stroke:rgb(0%,0%,0%);stroke-opacity:1;stroke-dasharray:0.751181,0.751181;stroke-miterlimit:3.98095;" d="M 75.816406 111.449219 L 133.742188 136.785156 "/>
<path style="fill-rule:evenodd;fill:rgb(0%,0%,0%);fill-opacity:1;stroke-width:0.367055;stroke-linecap:butt;stroke-linejoin:miter;stroke:rgb(0%,0%,0%);stroke-opacity:1;stroke-miterlimit:4;" d="M -159.732154 -65.717104 L -158.356968 -67.092031 L -163.173074 -65.715993 L -158.355792 -64.338639 Z M -159.732154 -65.717104 " transform="matrix(-1,-0.437388,0.437388,-1,0,0)"/>
<path style="fill:none;stroke-width:0.751181;stroke-linecap:butt;stroke-linejoin:miter;stroke:rgb(0%,0%,0%);stroke-opacity:1;stroke-dasharray:0.751181,0.751181;stroke-miterlimit:3.98095;" d="M 39.183594 112.917969 C 60.285156 134.769531 96.808594 136.59375 132.957031 138.90625 "/>
<path style="fill-rule:evenodd;fill:rgb(0%,0%,0%);fill-opacity:1;stroke-width:0.399811;stroke-linecap:butt;stroke-linejoin:miter;stroke:rgb(0%,0%,0%);stroke-opacity:1;stroke-miterlimit:4;" d="M -138.274652 -129.858131 L -136.777119 -131.3603 L -142.02478 -129.860117 L -136.776373 -128.360348 Z M -138.274652 -129.858131 " transform="matrix(-1,-0.0640516,0.0640516,-1,0,0)"/>
<path style="fill:none;stroke-width:0.751181;stroke-linecap:butt;stroke-linejoin:miter;stroke:rgb(0%,0%,0%);stroke-opacity:1;stroke-dasharray:0.751181,0.751181;stroke-miterlimit:3.98095;" d="M 41.308594 49.746094 L 133.671875 104.601562 "/>
<path style="fill-rule:evenodd;fill:rgb(0%,0%,0%);fill-opacity:1;stroke-width:0.344456;stroke-linecap:butt;stroke-linejoin:miter;stroke:rgb(0%,0%,0%);stroke-opacity:1;stroke-miterlimit:4;" d="M -142.156216 -18.638903 L -140.864257 -19.929678 L -145.38637 -18.638373 L -140.863725 -17.344057 Z M -142.156216 -18.638903 " transform="matrix(-1,-0.593934,0.593934,-1,0,0)"/>
<path style="fill:none;stroke-width:0.751181;stroke-linecap:butt;stroke-linejoin:miter;stroke:rgb(0%,0%,0%);stroke-opacity:1;stroke-dasharray:0.751181,0.751181;stroke-miterlimit:3.98095;" d="M 111.265625 108.527344 L 131.964844 108.527344 "/>
<path style="fill-rule:evenodd;fill:rgb(0%,0%,0%);fill-opacity:1;stroke-width:0.40063;stroke-linecap:butt;stroke-linejoin:miter;stroke:rgb(0%,0%,0%);stroke-opacity:1;stroke-miterlimit:4;" d="M -128.960938 -108.527344 L -127.457031 -110.03125 L -132.714844 -108.527344 L -127.457031 -107.027344 Z M -128.960938 -108.527344 " transform="matrix(-1,0,0,-1,0,0)"/>
<path style="fill:none;stroke-width:0.751181;stroke-linecap:butt;stroke-linejoin:miter;stroke:rgb(0%,0%,0%);stroke-opacity:1;stroke-dasharray:0.751181,0.751181;stroke-miterlimit:3.98095;" d="M 111.433594 102.960938 L 133.730469 81.378906 "/>
<path style="fill-rule:evenodd;fill:rgb(0%,0%,0%);fill-opacity:1;stroke-width:0.287856;stroke-linecap:butt;stroke-linejoin:miter;stroke:rgb(0%,0%,0%);stroke-opacity:1;stroke-miterlimit:4;" d="M -26.211633 -108.841611 L -25.133497 -109.919069 L -28.911071 -108.841385 L -25.132158 -107.761523 Z M -26.211633 -108.841611 " transform="matrix(-1,0.968,-0.968,-1,0,0)"/>
<path style="fill:none;stroke-width:0.751181;stroke-linecap:butt;stroke-linejoin:miter;stroke:rgb(0%,0%,0%);stroke-opacity:1;stroke-dasharray:0.751181,0.751181;stroke-miterlimit:3.98095;" d="M 110.886719 75.949219 L 131.585938 75.949219 "/>
<path style="fill-rule:evenodd;fill:rgb(0%,0%,0%);fill-opacity:1;stroke-width:0.40063;stroke-linecap:butt;stroke-linejoin:miter;stroke:rgb(0%,0%,0%);stroke-opacity:1;stroke-miterlimit:4;" d="M -128.582031 -75.949219 L -127.078125 -77.453125 L -132.335938 -75.949219 L -127.078125 -74.449219 Z M -128.582031 -75.949219 " transform="matrix(-1,0,0,-1,0,0)"/>
<path style="fill:none;stroke-width:0.751181;stroke-linecap:butt;stroke-linejoin:miter;stroke:rgb(0%,0%,0%);stroke-opacity:1;stroke-dasharray:0.751181,0.751181;stroke-miterlimit:3.98095;" d="M 111.273438 71.847656 L 135.394531 51.769531 "/>
<path style="fill-rule:evenodd;fill:rgb(0%,0%,0%);fill-opacity:1;stroke-width:0.307926;stroke-linecap:butt;stroke-linejoin:miter;stroke:rgb(0%,0%,0%);stroke-opacity:1;stroke-miterlimit:4;" d="M -52.221371 -97.156088 L -51.064979 -98.310793 L -55.107933 -97.156277 L -51.066666 -95.999697 Z M -52.221371 -97.156088 " transform="matrix(-1,0.832316,-0.832316,-1,0,0)"/>
<path style="fill:none;stroke-width:0.751181;stroke-linecap:butt;stroke-linejoin:miter;stroke:rgb(0%,0%,0%);stroke-opacity:1;stroke-dasharray:0.751181,0.751181;stroke-miterlimit:3.98095;" d="M 42.121094 76.375 L 132.808594 48.839844 "/>
<path style="fill-rule:evenodd;fill:rgb(0%,0%,0%);fill-opacity:1;stroke-width:0.38335;stroke-linecap:butt;stroke-linejoin:miter;stroke:rgb(0%,0%,0%);stroke-opacity:1;stroke-miterlimit:4;" d="M -105.146462 -81.639202 L -103.709631 -83.077955 L -108.739856 -81.640377 L -103.70771 -80.202371 Z M -105.146462 -81.639202 " transform="matrix(-1,0.303618,-0.303618,-1,0,0)"/>
<path style="fill:none;stroke-width:0.751181;stroke-linecap:butt;stroke-linejoin:miter;stroke:rgb(0%,0%,0%);stroke-opacity:1;stroke-dasharray:0.751181,0.751181;stroke-miterlimit:3.98095;" d="M 42.570312 78.9375 L 98.597656 103.839844 "/>
<path style="fill-rule:evenodd;fill:rgb(0%,0%,0%);fill-opacity:1;stroke-width:0.366094;stroke-linecap:butt;stroke-linejoin:miter;stroke:rgb(0%,0%,0%);stroke-opacity:1;stroke-miterlimit:4;" d="M -118.12709 -50.115138 L -116.756066 -51.486259 L -121.559663 -50.112841 L -116.754519 -48.740853 Z M -118.12709 -50.115138 " transform="matrix(-1,-0.444487,0.444487,-1,0,0)"/>
<path style="fill:none;stroke-width:0.751181;stroke-linecap:butt;stroke-linejoin:miter;stroke:rgb(0%,0%,0%);stroke-opacity:1;stroke-dasharray:0.751181,0.751181;stroke-miterlimit:3.98095;" d="M 73.953125 101.183594 L 100.203125 52.230469 "/>
<path style="fill-rule:evenodd;fill:rgb(0%,0%,0%);fill-opacity:1;stroke-width:0.353071;stroke-linecap:butt;stroke-linejoin:miter;stroke:rgb(0%,0%,0%);stroke-opacity:1;stroke-miterlimit:4;" d="M 1.478348 -99.577891 L 2.803583 -100.901803 L -1.829942 -99.577324 L 2.805294 -98.254283 Z M 1.478348 -99.577891 " transform="matrix(-0.53623,1,-1,-0.53623,0,0)"/>
<path style="fill:none;stroke-width:0.751181;stroke-linecap:butt;stroke-linejoin:miter;stroke:rgb(0%,0%,0%);stroke-opacity:1;stroke-dasharray:0.751181,0.751181;stroke-miterlimit:3.98095;" d="M 42.234375 73.640625 L 98.71875 49.605469 "/>
<path style="fill-rule:evenodd;fill:rgb(0%,0%,0%);fill-opacity:1;stroke-width:0.368645;stroke-linecap:butt;stroke-linejoin:miter;stroke:rgb(0%,0%,0%);stroke-opacity:1;stroke-miterlimit:4;" d="M -62.948188 -77.566144 L -61.566079 -78.950704 L -66.404411 -77.568042 L -61.566936 -76.185443 Z M -62.948188 -77.566144 " transform="matrix(-1,0.425507,-0.425507,-1,0,0)"/>
<path style="fill:none;stroke-width:0.751181;stroke-linecap:butt;stroke-linejoin:miter;stroke:rgb(0%,0%,0%);stroke-opacity:1;stroke-dasharray:0.751181,0.751181;stroke-miterlimit:3.98095;" d="M 42.304688 48.382812 L 97.527344 74.855469 "/>
<path style="fill-rule:evenodd;fill:rgb(0%,0%,0%);fill-opacity:1;stroke-width:0.361264;stroke-linecap:butt;stroke-linejoin:miter;stroke:rgb(0%,0%,0%);stroke-opacity:1;stroke-miterlimit:4;" d="M -105.771908 -22.853339 L -104.416542 -24.206203 L -109.157675 -22.851354 L -104.419044 -21.497973 Z M -105.771908 -22.853339 " transform="matrix(-1,-0.479383,0.479383,-1,0,0)"/>
<path style="fill:none;stroke-width:0.751181;stroke-linecap:butt;stroke-linejoin:miter;stroke:rgb(0%,0%,0%);stroke-opacity:1;stroke-dasharray:0.751181,0.751181;stroke-miterlimit:3.98095;" d="M 40.214844 101.1875 L 66.675781 52.109375 "/>
<path style="fill-rule:evenodd;fill:rgb(0%,0%,0%);fill-opacity:1;stroke-width:0.352644;stroke-linecap:butt;stroke-linejoin:miter;stroke:rgb(0%,0%,0%);stroke-opacity:1;stroke-miterlimit:4;" d="M 15.166725 -73.426942 L 16.489 -74.749205 L 11.862217 -73.42661 L 16.488987 -72.104667 Z M 15.166725 -73.426942 " transform="matrix(-0.539137,1,-1,-0.539137,0,0)"/>
<path style="fill:none;stroke-width:0.751181;stroke-linecap:butt;stroke-linejoin:miter;stroke:rgb(0%,0%,0%);stroke-opacity:1;stroke-dasharray:0.751181,0.751181;stroke-miterlimit:3.98095;" d="M 42.699219 108.148438 L 63.402344 108.148438 "/>
<path style="fill-rule:evenodd;fill:rgb(0%,0%,0%);fill-opacity:1;stroke-width:0.40063;stroke-linecap:butt;stroke-linejoin:miter;stroke:rgb(0%,0%,0%);stroke-opacity:1;stroke-miterlimit:4;" d="M -60.398438 -108.148438 L -58.894531 -109.652344 L -64.152344 -108.148438 L -58.894531 -106.648438 Z M -60.398438 -108.148438 " transform="matrix(-1,0,0,-1,0,0)"/>
<path style="fill:none;stroke-width:0.751181;stroke-linecap:butt;stroke-linejoin:miter;stroke:rgb(0%,0%,0%);stroke-opacity:1;stroke-dasharray:0.751181,0.751181;stroke-miterlimit:3.98095;" d="M 39.9375 51.046875 L 66.890625 100.433594 "/>
<path style="fill-rule:evenodd;fill:rgb(0%,0%,0%);fill-opacity:1;stroke-width:0.351662;stroke-linecap:butt;stroke-linejoin:miter;stroke:rgb(0%,0%,0%);stroke-opacity:1;stroke-miterlimit:4;" d="M -102.875339 9.304794 L -101.554374 7.986701 L -106.171151 9.302847 L -101.555603 10.622749 Z M -102.875339 9.304794 " transform="matrix(-0.54579,-1,1,-0.54579,0,0)"/>
<path style="fill:none;stroke-width:0.751181;stroke-linecap:butt;stroke-linejoin:miter;stroke:rgb(0%,0%,0%);stroke-opacity:1;stroke-dasharray:0.751181,0.751181;stroke-miterlimit:3.98095;" d="M 41.121094 71.945312 L 65.183594 50.503906 "/>
<path style="fill-rule:evenodd;fill:rgb(0%,0%,0%);fill-opacity:1;stroke-width:0.299127;stroke-linecap:butt;stroke-linejoin:miter;stroke:rgb(0%,0%,0%);stroke-opacity:1;stroke-miterlimit:4;" d="M -9.01032 -60.531705 L -7.887119 -61.652076 L -11.815577 -60.531066 L -7.888009 -59.410682 Z M -9.01032 -60.531705 " transform="matrix(-1,0.890956,-0.890956,-1,0,0)"/>
<path style="fill-rule:nonzero;fill:rgb(78.430176%,76.861572%,71.763611%);fill-opacity:1;stroke-width:2.834646;stroke-linecap:round;stroke-linejoin:miter;stroke:rgb(0%,0%,0%);stroke-opacity:1;stroke-miterlimit:4;" d="M 42.121094 45.035156 C 42.121094 48.585938 39.242188 51.464844 35.691406 51.464844 C 32.140625 51.464844 29.261719 48.585938 29.261719 45.035156 C 29.261719 41.488281 32.140625 38.609375 35.691406 38.609375 C 39.242188 38.609375 42.121094 41.488281 42.121094 45.035156 Z M 42.121094 45.035156 "/>
<path style="fill-rule:nonzero;fill:rgb(78.430176%,76.861572%,71.763611%);fill-opacity:1;stroke-width:2.834646;stroke-linecap:round;stroke-linejoin:miter;stroke:rgb(0%,0%,0%);stroke-opacity:1;stroke-miterlimit:4;" d="M 42.121094 76.375 C 42.121094 78.082031 41.441406 79.714844 40.238281 80.921875 C 39.03125 82.128906 37.398438 82.804688 35.691406 82.804688 C 33.988281 82.804688 32.351562 82.128906 31.144531 80.921875 C 29.941406 79.714844 29.261719 78.082031 29.261719 76.375 C 29.261719 72.824219 32.140625 69.949219 35.691406 69.949219 C 39.242188 69.949219 42.121094 72.824219 42.121094 76.375 Z M 42.121094 76.375 "/>
<path style="fill-rule:nonzero;fill:rgb(78.430176%,76.861572%,71.763611%);fill-opacity:1;stroke-width:2.834646;stroke-linecap:round;stroke-linejoin:miter;stroke:rgb(0%,0%,0%);stroke-opacity:1;stroke-miterlimit:4;" d="M 42.121094 107.714844 C 42.121094 111.265625 39.242188 114.144531 35.691406 114.144531 C 32.140625 114.144531 29.261719 111.265625 29.261719 107.714844 C 29.261719 104.164062 32.140625 101.285156 35.691406 101.285156 C 39.242188 101.285156 42.121094 104.164062 42.121094 107.714844 Z M 42.121094 107.714844 "/>
<path style="fill-rule:nonzero;fill:rgb(78.430176%,76.861572%,71.763611%);fill-opacity:1;stroke-width:2.834646;stroke-linecap:round;stroke-linejoin:miter;stroke:rgb(0%,0%,0%);stroke-opacity:1;stroke-miterlimit:4;" d="M 77.019531 45.035156 C 77.019531 46.742188 76.339844 48.375 75.136719 49.582031 C 73.929688 50.789062 72.292969 51.464844 70.589844 51.464844 C 67.039062 51.464844 64.160156 48.585938 64.160156 45.035156 C 64.160156 41.488281 67.039062 38.609375 70.589844 38.609375 C 72.292969 38.609375 73.929688 39.285156 75.136719 40.492188 C 76.339844 41.695312 77.019531 43.332031 77.019531 45.035156 Z M 77.019531 45.035156 "/>
<path style="fill-rule:nonzero;fill:rgb(78.430176%,76.861572%,71.763611%);fill-opacity:1;stroke-width:2.834646;stroke-linecap:round;stroke-linejoin:miter;stroke:rgb(0%,0%,0%);stroke-opacity:1;stroke-miterlimit:4;" d="M 77.019531 107.714844 C 77.019531 109.421875 76.339844 111.054688 75.136719 112.261719 C 73.929688 113.464844 72.292969 114.144531 70.589844 114.144531 C 67.039062 114.144531 64.160156 111.265625 64.160156 107.714844 C 64.160156 104.164062 67.039062 101.285156 70.589844 101.285156 C 72.292969 101.285156 73.929688 101.964844 75.136719 103.167969 C 76.339844 104.375 77.019531 106.011719 77.019531 107.714844 Z M 77.019531 107.714844 "/>
<path style="fill-rule:nonzero;fill:rgb(78.430176%,76.861572%,71.763611%);fill-opacity:1;stroke-width:2.834646;stroke-linecap:round;stroke-linejoin:miter;stroke:rgb(0%,0%,0%);stroke-opacity:1;stroke-miterlimit:4;" d="M 111.917969 45.035156 C 111.917969 48.585938 109.039062 51.464844 105.488281 51.464844 C 101.9375 51.464844 99.058594 48.585938 99.058594 45.035156 C 99.058594 41.488281 101.9375 38.609375 105.488281 38.609375 C 109.039062 38.609375 111.917969 41.488281 111.917969 45.035156 Z M 111.917969 45.035156 "/>
<path style="fill-rule:nonzero;fill:rgb(78.430176%,76.861572%,71.763611%);fill-opacity:1;stroke-width:2.834646;stroke-linecap:round;stroke-linejoin:miter;stroke:rgb(0%,0%,0%);stroke-opacity:1;stroke-miterlimit:4;" d="M 111.917969 76.375 C 111.917969 78.082031 111.238281 79.714844 110.035156 80.921875 C 108.828125 82.128906 107.191406 82.804688 105.488281 82.804688 C 103.78125 82.804688 102.148438 82.128906 100.941406 80.921875 C 99.738281 79.714844 99.058594 78.082031 99.058594 76.375 C 99.058594 72.824219 101.9375 69.949219 105.488281 69.949219 C 109.039062 69.949219 111.917969 72.824219 111.917969 76.375 Z M 111.917969 76.375 "/>
<path style="fill-rule:nonzero;fill:rgb(78.430176%,76.861572%,71.763611%);fill-opacity:1;stroke-width:2.834646;stroke-linecap:round;stroke-linejoin:miter;stroke:rgb(0%,0%,0%);stroke-opacity:1;stroke-miterlimit:4;" d="M 111.917969 107.714844 C 111.917969 111.265625 109.039062 114.144531 105.488281 114.144531 C 101.9375 114.144531 99.058594 111.265625 99.058594 107.714844 C 99.058594 104.164062 101.9375 101.285156 105.488281 101.285156 C 109.039062 101.285156 111.917969 104.164062 111.917969 107.714844 Z M 111.917969 107.714844 "/>
<path style="fill-rule:nonzero;fill:rgb(78.430176%,76.861572%,71.763611%);fill-opacity:1;stroke-width:2.834646;stroke-linecap:round;stroke-linejoin:miter;stroke:rgb(0%,0%,0%);stroke-opacity:1;stroke-miterlimit:4;" d="M 146.8125 45.035156 C 146.8125 48.585938 143.9375 51.464844 140.386719 51.464844 C 136.835938 51.464844 133.957031 48.585938 133.957031 45.035156 C 133.957031 41.488281 136.835938 38.609375 140.386719 38.609375 C 143.9375 38.609375 146.8125 41.488281 146.8125 45.035156 Z M 146.8125 45.035156 "/>
<path style="fill-rule:nonzero;fill:rgb(78.430176%,76.861572%,71.763611%);fill-opacity:1;stroke-width:2.834646;stroke-linecap:round;stroke-linejoin:miter;stroke:rgb(0%,0%,0%);stroke-opacity:1;stroke-miterlimit:4;" d="M 146.8125 76.375 C 146.8125 78.082031 146.136719 79.714844 144.929688 80.921875 C 143.726562 82.128906 142.089844 82.804688 140.386719 82.804688 C 138.679688 82.804688 137.046875 82.128906 135.839844 80.921875 C 134.632812 79.714844 133.957031 78.082031 133.957031 76.375 C 133.957031 72.824219 136.835938 69.949219 140.386719 69.949219 C 143.9375 69.949219 146.8125 72.824219 146.8125 76.375 Z M 146.8125 76.375 "/>
<path style="fill-rule:nonzero;fill:rgb(78.430176%,76.861572%,71.763611%);fill-opacity:1;stroke-width:2.834646;stroke-linecap:round;stroke-linejoin:miter;stroke:rgb(0%,0%,0%);stroke-opacity:1;stroke-miterlimit:4;" d="M 146.8125 107.714844 C 146.8125 111.265625 143.9375 114.144531 140.386719 114.144531 C 136.835938 114.144531 133.957031 111.265625 133.957031 107.714844 C 133.957031 104.164062 136.835938 101.285156 140.386719 101.285156 C 143.9375 101.285156 146.8125 104.164062 146.8125 107.714844 Z M 146.8125 107.714844 "/>
<path style=" stroke:none;fill-rule:nonzero;fill:rgb(78.430176%,76.861572%,71.763611%);fill-opacity:1;" d="M 146.8125 139.054688 C 146.8125 142.605469 143.9375 145.484375 140.386719 145.484375 C 136.835938 145.484375 133.957031 142.605469 133.957031 139.054688 C 133.957031 135.503906 136.835938 132.625 140.386719 132.625 C 143.9375 132.625 146.8125 135.503906 146.8125 139.054688 Z M 146.8125 139.054688 "/>
<g clip-path="url(#clip2)" clip-rule="nonzero">
<path style="fill:none;stroke-width:2.834646;stroke-linecap:round;stroke-linejoin:miter;stroke:rgb(0%,0%,0%);stroke-opacity:1;stroke-miterlimit:4;" d="M 146.8125 139.054688 C 146.8125 142.605469 143.9375 145.484375 140.386719 145.484375 C 136.835938 145.484375 133.957031 142.605469 133.957031 139.054688 C 133.957031 135.503906 136.835938 132.625 140.386719 132.625 C 143.9375 132.625 146.8125 135.503906 146.8125 139.054688 Z M 146.8125 139.054688 "/>
</g>
<path style="fill-rule:nonzero;fill:rgb(78.430176%,76.861572%,71.763611%);fill-opacity:1;stroke-width:2.834646;stroke-linecap:round;stroke-linejoin:miter;stroke:rgb(0%,0%,0%);stroke-opacity:1;stroke-miterlimit:4;" d="M 181.710938 45.035156 C 181.710938 48.585938 178.835938 51.464844 175.285156 51.464844 C 171.734375 51.464844 168.855469 48.585938 168.855469 45.035156 C 168.855469 41.488281 171.734375 38.609375 175.285156 38.609375 C 178.835938 38.609375 181.710938 41.488281 181.710938 45.035156 Z M 181.710938 45.035156 "/>
<path style="fill-rule:nonzero;fill:rgb(78.430176%,76.861572%,71.763611%);fill-opacity:1;stroke-width:2.834646;stroke-linecap:round;stroke-linejoin:miter;stroke:rgb(0%,0%,0%);stroke-opacity:1;stroke-miterlimit:4;" d="M 181.710938 76.375 C 181.710938 78.082031 181.035156 79.714844 179.828125 80.921875 C 178.625 82.128906 176.988281 82.804688 175.285156 82.804688 C 173.578125 82.804688 171.945312 82.128906 170.738281 80.921875 C 169.53125 79.714844 168.855469 78.082031 168.855469 76.375 C 168.855469 72.824219 171.734375 69.949219 175.285156 69.949219 C 178.835938 69.949219 181.710938 72.824219 181.710938 76.375 Z M 181.710938 76.375 "/>
<path style="fill-rule:nonzero;fill:rgb(78.430176%,76.861572%,71.763611%);fill-opacity:1;stroke-width:2.834646;stroke-linecap:round;stroke-linejoin:miter;stroke:rgb(0%,0%,0%);stroke-opacity:1;stroke-miterlimit:4;" d="M 181.710938 107.714844 C 181.710938 111.265625 178.835938 114.144531 175.285156 114.144531 C 171.734375 114.144531 168.855469 111.265625 168.855469 107.714844 C 168.855469 104.164062 171.734375 101.285156 175.285156 101.285156 C 178.835938 101.285156 181.710938 104.164062 181.710938 107.714844 Z M 181.710938 107.714844 "/>
<path style="fill-rule:nonzero;fill:rgb(78.430176%,76.861572%,71.763611%);fill-opacity:1;stroke-width:2.834646;stroke-linecap:round;stroke-linejoin:miter;stroke:rgb(0%,0%,0%);stroke-opacity:1;stroke-miterlimit:4;" d="M 216.609375 76.375 C 216.609375 78.082031 215.933594 79.714844 214.726562 80.921875 C 213.523438 82.128906 211.886719 82.804688 210.183594 82.804688 C 208.476562 82.804688 206.839844 82.128906 205.636719 80.921875 C 204.429688 79.714844 203.753906 78.082031 203.753906 76.375 C 203.753906 72.824219 206.632812 69.949219 210.183594 69.949219 C 213.730469 69.949219 216.609375 72.824219 216.609375 76.375 Z M 216.609375 76.375 "/>
<path style="fill-rule:nonzero;fill:rgb(78.430176%,76.861572%,71.763611%);fill-opacity:1;stroke-width:2.834646;stroke-linecap:round;stroke-linejoin:miter;stroke:rgb(0%,0%,0%);stroke-opacity:1;stroke-miterlimit:4;" d="M 216.609375 107.714844 C 216.609375 111.265625 213.730469 114.144531 210.183594 114.144531 C 206.632812 114.144531 203.753906 111.265625 203.753906 107.714844 C 203.753906 104.164062 206.632812 101.285156 210.183594 101.285156 C 213.730469 101.285156 216.609375 104.164062 216.609375 107.714844 Z M 216.609375 107.714844 "/>
<path style=" stroke:none;fill-rule:nonzero;fill:rgb(78.430176%,76.861572%,71.763611%);fill-opacity:1;" d="M 216.609375 139.054688 C 216.609375 142.605469 213.730469 145.484375 210.183594 145.484375 C 206.632812 145.484375 203.753906 142.605469 203.753906 139.054688 C 203.753906 135.503906 206.632812 132.625 210.183594 132.625 C 213.730469 132.625 216.609375 135.503906 216.609375 139.054688 Z M 216.609375 139.054688 "/>
<g clip-path="url(#clip3)" clip-rule="nonzero">
<path style="fill:none;stroke-width:2.834646;stroke-linecap:round;stroke-linejoin:miter;stroke:rgb(0%,0%,0%);stroke-opacity:1;stroke-miterlimit:4;" d="M 216.609375 139.054688 C 216.609375 142.605469 213.730469 145.484375 210.183594 145.484375 C 206.632812 145.484375 203.753906 142.605469 203.753906 139.054688 C 203.753906 135.503906 206.632812 132.625 210.183594 132.625 C 213.730469 132.625 216.609375 135.503906 216.609375 139.054688 Z M 216.609375 139.054688 "/>
</g>
<path style="fill-rule:nonzero;fill:rgb(78.430176%,76.861572%,71.763611%);fill-opacity:1;stroke-width:2.834646;stroke-linecap:round;stroke-linejoin:miter;stroke:rgb(0%,0%,0%);stroke-opacity:1;stroke-miterlimit:4;" d="M 251.507812 76.375 C 251.507812 78.082031 250.832031 79.714844 249.625 80.921875 C 248.417969 82.128906 246.785156 82.804688 245.078125 82.804688 C 243.375 82.804688 241.738281 82.128906 240.535156 80.921875 C 239.328125 79.714844 238.652344 78.082031 238.652344 76.375 C 238.652344 72.824219 241.527344 69.949219 245.078125 69.949219 C 248.628906 69.949219 251.507812 72.824219 251.507812 76.375 Z M 251.507812 76.375 "/>
<path style="fill-rule:nonzero;fill:rgb(78.430176%,76.861572%,71.763611%);fill-opacity:1;stroke-width:2.834646;stroke-linecap:round;stroke-linejoin:miter;stroke:rgb(0%,0%,0%);stroke-opacity:1;stroke-miterlimit:4;" d="M 251.507812 107.714844 C 251.507812 111.265625 248.628906 114.144531 245.078125 114.144531 C 241.527344 114.144531 238.652344 111.265625 238.652344 107.714844 C 238.652344 104.164062 241.527344 101.285156 245.078125 101.285156 C 248.628906 101.285156 251.507812 104.164062 251.507812 107.714844 Z M 251.507812 107.714844 "/>
<path style=" stroke:none;fill-rule:nonzero;fill:rgb(78.430176%,76.861572%,71.763611%);fill-opacity:1;" d="M 251.507812 139.054688 C 251.507812 142.605469 248.628906 145.484375 245.078125 145.484375 C 241.527344 145.484375 238.652344 142.605469 238.652344 139.054688 C 238.652344 135.503906 241.527344 132.625 245.078125 132.625 C 248.628906 132.625 251.507812 135.503906 251.507812 139.054688 Z M 251.507812 139.054688 "/>
<g clip-path="url(#clip4)" clip-rule="nonzero">
<path style="fill:none;stroke-width:2.834646;stroke-linecap:round;stroke-linejoin:miter;stroke:rgb(0%,0%,0%);stroke-opacity:1;stroke-miterlimit:4;" d="M 251.507812 139.054688 C 251.507812 142.605469 248.628906 145.484375 245.078125 145.484375 C 241.527344 145.484375 238.652344 142.605469 238.652344 139.054688 C 238.652344 135.503906 241.527344 132.625 245.078125 132.625 C 248.628906 132.625 251.507812 135.503906 251.507812 139.054688 Z M 251.507812 139.054688 "/>
</g>
<path style="fill-rule:nonzero;fill:rgb(78.430176%,76.861572%,71.763611%);fill-opacity:1;stroke-width:2.834646;stroke-linecap:round;stroke-linejoin:miter;stroke:rgb(0%,0%,0%);stroke-opacity:1;stroke-miterlimit:4;" d="M 286.40625 76.375 C 286.40625 78.082031 285.730469 79.714844 284.523438 80.921875 C 283.316406 82.128906 281.683594 82.804688 279.976562 82.804688 C 278.273438 82.804688 276.636719 82.128906 275.433594 80.921875 C 274.226562 79.714844 273.550781 78.082031 273.550781 76.375 C 273.550781 74.671875 274.226562 73.035156 275.433594 71.832031 C 276.636719 70.625 278.273438 69.949219 279.976562 69.949219 C 281.683594 69.949219 283.316406 70.625 284.523438 71.832031 C 285.730469 73.035156 286.40625 74.671875 286.40625 76.375 Z M 286.40625 76.375 "/>
<path style="fill-rule:nonzero;fill:rgb(78.430176%,76.861572%,71.763611%);fill-opacity:1;stroke-width:2.834646;stroke-linecap:round;stroke-linejoin:miter;stroke:rgb(0%,0%,0%);stroke-opacity:1;stroke-miterlimit:4;" d="M 286.40625 107.714844 C 286.40625 109.421875 285.730469 111.054688 284.523438 112.261719 C 283.316406 113.464844 281.683594 114.144531 279.976562 114.144531 C 278.273438 114.144531 276.636719 113.464844 275.433594 112.261719 C 274.226562 111.054688 273.550781 109.421875 273.550781 107.714844 C 273.550781 106.011719 274.226562 104.375 275.433594 103.167969 C 276.636719 101.964844 278.273438 101.285156 279.976562 101.285156 C 281.683594 101.285156 283.316406 101.964844 284.523438 103.167969 C 285.730469 104.375 286.40625 106.011719 286.40625 107.714844 Z M 286.40625 107.714844 "/>
<path style=" stroke:none;fill-rule:nonzero;fill:rgb(78.430176%,76.861572%,71.763611%);fill-opacity:1;" d="M 286.40625 139.054688 C 286.40625 140.757812 285.730469 142.394531 284.523438 143.601562 C 283.316406 144.804688 281.683594 145.484375 279.976562 145.484375 C 278.273438 145.484375 276.636719 144.804688 275.433594 143.601562 C 274.226562 142.394531 273.550781 140.757812 273.550781 139.054688 C 273.550781 137.351562 274.226562 135.714844 275.433594 134.507812 C 276.636719 133.304688 278.273438 132.625 279.976562 132.625 C 281.683594 132.625 283.316406 133.304688 284.523438 134.507812 C 285.730469 135.714844 286.40625 137.351562 286.40625 139.054688 Z M 286.40625 139.054688 "/>
<g clip-path="url(#clip5)" clip-rule="nonzero">
<path style="fill:none;stroke-width:2.834646;stroke-linecap:round;stroke-linejoin:miter;stroke:rgb(0%,0%,0%);stroke-opacity:1;stroke-miterlimit:4;" d="M 286.40625 139.054688 C 286.40625 140.757812 285.730469 142.394531 284.523438 143.601562 C 283.316406 144.804688 281.683594 145.484375 279.976562 145.484375 C 278.273438 145.484375 276.636719 144.804688 275.433594 143.601562 C 274.226562 142.394531 273.550781 140.757812 273.550781 139.054688 C 273.550781 137.351562 274.226562 135.714844 275.433594 134.507812 C 276.636719 133.304688 278.273438 132.625 279.976562 132.625 C 281.683594 132.625 283.316406 133.304688 284.523438 134.507812 C 285.730469 135.714844 286.40625 137.351562 286.40625 139.054688 Z M 286.40625 139.054688 "/>
</g>
<path style="fill-rule:nonzero;fill:rgb(78.430176%,76.861572%,71.763611%);fill-opacity:1;stroke-width:2.834646;stroke-linecap:round;stroke-linejoin:miter;stroke:rgb(0%,0%,0%);stroke-opacity:1;stroke-miterlimit:4;" d="M 321.4375 45.035156 C 321.4375 46.742188 320.761719 48.375 319.554688 49.582031 C 318.347656 50.789062 316.714844 51.464844 315.007812 51.464844 C 313.304688 51.464844 311.667969 50.789062 310.464844 49.582031 C 309.257812 48.375 308.582031 46.742188 308.582031 45.035156 C 308.582031 43.332031 309.257812 41.695312 310.464844 40.492188 C 311.667969 39.285156 313.304688 38.609375 315.007812 38.609375 C 316.714844 38.609375 318.347656 39.285156 319.554688 40.492188 C 320.761719 41.695312 321.4375 43.332031 321.4375 45.035156 Z M 321.4375 45.035156 "/>
<path style="fill-rule:nonzero;fill:rgb(78.430176%,76.861572%,71.763611%);fill-opacity:1;stroke-width:2.834646;stroke-linecap:round;stroke-linejoin:miter;stroke:rgb(0%,0%,0%);stroke-opacity:1;stroke-miterlimit:4;" d="M 321.4375 76.375 C 321.4375 78.082031 320.761719 79.714844 319.554688 80.921875 C 318.347656 82.128906 316.714844 82.804688 315.007812 82.804688 C 313.304688 82.804688 311.667969 82.128906 310.464844 80.921875 C 309.257812 79.714844 308.582031 78.082031 308.582031 76.375 C 308.582031 74.671875 309.257812 73.035156 310.464844 71.832031 C 311.667969 70.625 313.304688 69.949219 315.007812 69.949219 C 316.714844 69.949219 318.347656 70.625 319.554688 71.832031 C 320.761719 73.035156 321.4375 74.671875 321.4375 76.375 Z M 321.4375 76.375 "/>
<path style="fill-rule:nonzero;fill:rgb(78.430176%,76.861572%,71.763611%);fill-opacity:1;stroke-width:2.834646;stroke-linecap:round;stroke-linejoin:miter;stroke:rgb(0%,0%,0%);stroke-opacity:1;stroke-miterlimit:4;" d="M 321.4375 107.714844 C 321.4375 109.421875 320.761719 111.054688 319.554688 112.261719 C 318.347656 113.464844 316.714844 114.144531 315.007812 114.144531 C 313.304688 114.144531 311.667969 113.464844 310.464844 112.261719 C 309.257812 111.054688 308.582031 109.421875 308.582031 107.714844 C 308.582031 106.011719 309.257812 104.375 310.464844 103.167969 C 311.667969 101.964844 313.304688 101.285156 315.007812 101.285156 C 316.714844 101.285156 318.347656 101.964844 319.554688 103.167969 C 320.761719 104.375 321.4375 106.011719 321.4375 107.714844 Z M 321.4375 107.714844 "/>
<path style=" stroke:none;fill-rule:nonzero;fill:rgb(78.430176%,76.861572%,71.763611%);fill-opacity:1;" d="M 321.4375 139.054688 C 321.4375 140.757812 320.761719 142.394531 319.554688 143.601562 C 318.347656 144.804688 316.714844 145.484375 315.007812 145.484375 C 313.304688 145.484375 311.667969 144.804688 310.464844 143.601562 C 309.257812 142.394531 308.582031 140.757812 308.582031 139.054688 C 308.582031 137.351562 309.257812 135.714844 310.464844 134.507812 C 311.667969 133.304688 313.304688 132.625 315.007812 132.625 C 316.714844 132.625 318.347656 133.304688 319.554688 134.507812 C 320.761719 135.714844 321.4375 137.351562 321.4375 139.054688 Z M 321.4375 139.054688 "/>
<g clip-path="url(#clip6)" clip-rule="nonzero">
<path style="fill:none;stroke-width:2.834646;stroke-linecap:round;stroke-linejoin:miter;stroke:rgb(0%,0%,0%);stroke-opacity:1;stroke-miterlimit:4;" d="M 321.4375 139.054688 C 321.4375 140.757812 320.761719 142.394531 319.554688 143.601562 C 318.347656 144.804688 316.714844 145.484375 315.007812 145.484375 C 313.304688 145.484375 311.667969 144.804688 310.464844 143.601562 C 309.257812 142.394531 308.582031 140.757812 308.582031 139.054688 C 308.582031 137.351562 309.257812 135.714844 310.464844 134.507812 C 311.667969 133.304688 313.304688 132.625 315.007812 132.625 C 316.714844 132.625 318.347656 133.304688 319.554688 134.507812 C 320.761719 135.714844 321.4375 137.351562 321.4375 139.054688 Z M 321.4375 139.054688 "/>
</g>
<path style="fill-rule:nonzero;fill:rgb(78.430176%,76.861572%,71.763611%);fill-opacity:1;stroke-width:2.834646;stroke-linecap:round;stroke-linejoin:miter;stroke:rgb(0%,0%,0%);stroke-opacity:1;stroke-miterlimit:4;" d="M 356.335938 76.382812 C 356.335938 78.089844 355.660156 79.722656 354.453125 80.929688 C 353.246094 82.136719 351.613281 82.8125 349.90625 82.8125 C 346.355469 82.8125 343.480469 79.933594 343.480469 76.382812 C 343.480469 72.832031 346.355469 69.957031 349.90625 69.957031 C 351.613281 69.957031 353.246094 70.632812 354.453125 71.839844 C 355.660156 73.042969 356.335938 74.679688 356.335938 76.382812 Z M 356.335938 76.382812 "/>
<path style="fill-rule:nonzero;fill:rgb(78.430176%,76.861572%,71.763611%);fill-opacity:1;stroke-width:2.834646;stroke-linecap:round;stroke-linejoin:miter;stroke:rgb(0%,0%,0%);stroke-opacity:1;stroke-miterlimit:4;" d="M 356.335938 107.714844 C 356.335938 109.421875 355.660156 111.054688 354.453125 112.261719 C 353.246094 113.464844 351.613281 114.144531 349.90625 114.144531 C 346.355469 114.144531 343.480469 111.265625 343.480469 107.714844 C 343.480469 104.164062 346.355469 101.285156 349.90625 101.285156 C 351.613281 101.285156 353.246094 101.964844 354.453125 103.167969 C 355.660156 104.375 356.335938 106.011719 356.335938 107.714844 Z M 356.335938 107.714844 "/>
<path style=" stroke:none;fill-rule:nonzero;fill:rgb(78.430176%,76.861572%,71.763611%);fill-opacity:1;" d="M 356.335938 139.054688 C 356.335938 140.757812 355.660156 142.394531 354.453125 143.601562 C 353.246094 144.804688 351.613281 145.484375 349.90625 145.484375 C 346.355469 145.484375 343.480469 142.605469 343.480469 139.054688 C 343.480469 135.503906 346.355469 132.625 349.90625 132.625 C 351.613281 132.625 353.246094 133.304688 354.453125 134.507812 C 355.660156 135.714844 356.335938 137.351562 356.335938 139.054688 Z M 356.335938 139.054688 "/>
<g clip-path="url(#clip7)" clip-rule="nonzero">
<path style="fill:none;stroke-width:2.834646;stroke-linecap:round;stroke-linejoin:miter;stroke:rgb(0%,0%,0%);stroke-opacity:1;stroke-miterlimit:4;" d="M 356.335938 139.054688 C 356.335938 140.757812 355.660156 142.394531 354.453125 143.601562 C 353.246094 144.804688 351.613281 145.484375 349.90625 145.484375 C 346.355469 145.484375 343.480469 142.605469 343.480469 139.054688 C 343.480469 135.503906 346.355469 132.625 349.90625 132.625 C 351.613281 132.625 353.246094 133.304688 354.453125 134.507812 C 355.660156 135.714844 356.335938 137.351562 356.335938 139.054688 Z M 356.335938 139.054688 "/>
</g>
<path style="fill-rule:nonzero;fill:rgb(78.430176%,76.861572%,71.763611%);fill-opacity:1;stroke-width:2.834646;stroke-linecap:round;stroke-linejoin:miter;stroke:rgb(0%,0%,0%);stroke-opacity:1;stroke-miterlimit:4;" d="M 391.234375 107.714844 C 391.234375 109.421875 390.558594 111.054688 389.351562 112.261719 C 388.144531 113.464844 386.511719 114.144531 384.804688 114.144531 C 381.253906 114.144531 378.375 111.265625 378.375 107.714844 C 378.375 104.164062 381.253906 101.285156 384.804688 101.285156 C 386.511719 101.285156 388.144531 101.964844 389.351562 103.167969 C 390.558594 104.375 391.234375 106.011719 391.234375 107.714844 Z M 391.234375 107.714844 "/>
<path style=" stroke:none;fill-rule:nonzero;fill:rgb(78.430176%,76.861572%,71.763611%);fill-opacity:1;" d="M 391.234375 139.054688 C 391.234375 140.757812 390.558594 142.394531 389.351562 143.601562 C 388.144531 144.804688 386.511719 145.484375 384.804688 145.484375 C 381.253906 145.484375 378.375 142.605469 378.375 139.054688 C 378.375 135.503906 381.253906 132.625 384.804688 132.625 C 386.511719 132.625 388.144531 133.304688 389.351562 134.507812 C 390.558594 135.714844 391.234375 137.351562 391.234375 139.054688 Z M 391.234375 139.054688 "/>
<g clip-path="url(#clip8)" clip-rule="nonzero">
<path style="fill:none;stroke-width:2.834646;stroke-linecap:round;stroke-linejoin:miter;stroke:rgb(0%,0%,0%);stroke-opacity:1;stroke-miterlimit:4;" d="M 391.234375 139.054688 C 391.234375 140.757812 390.558594 142.394531 389.351562 143.601562 C 388.144531 144.804688 386.511719 145.484375 384.804688 145.484375 C 381.253906 145.484375 378.375 142.605469 378.375 139.054688 C 378.375 135.503906 381.253906 132.625 384.804688 132.625 C 386.511719 132.625 388.144531 133.304688 389.351562 134.507812 C 390.558594 135.714844 391.234375 137.351562 391.234375 139.054688 Z M 391.234375 139.054688 "/>
</g>
<path style="fill:none;stroke-width:0.751181;stroke-linecap:butt;stroke-linejoin:miter;stroke:rgb(0%,0%,0%);stroke-opacity:1;stroke-dasharray:0.751181,0.751181;stroke-miterlimit:3.980952;" d="M 42.121094 45.035156 L 62.820312 45.035156 "/>
<path style="fill-rule:evenodd;fill:rgb(0%,0%,0%);fill-opacity:1;stroke-width:0.40063;stroke-linecap:butt;stroke-linejoin:miter;stroke:rgb(0%,0%,0%);stroke-opacity:1;stroke-miterlimit:4;" d="M -59.816406 -45.035156 L -58.316406 -46.539062 L -63.574219 -45.035156 L -58.316406 -43.535156 Z M -59.816406 -45.035156 " transform="matrix(-1,0,0,-1,0,0)"/>
<path style="fill:none;stroke-width:0.751181;stroke-linecap:butt;stroke-linejoin:miter;stroke:rgb(0%,0%,0%);stroke-opacity:1;stroke-dasharray:0.751181,0.751181;stroke-miterlimit:3.980952;" d="M 77.019531 45.035156 L 98.714844 45.027344 "/>
<path style="fill-rule:evenodd;fill:rgb(0%,0%,0%);fill-opacity:1;stroke-width:0.40063;stroke-linecap:butt;stroke-linejoin:miter;stroke:rgb(0%,0%,0%);stroke-opacity:1;stroke-miterlimit:4;" d="M -95.688559 -45.07485 L -94.183907 -46.57801 L -99.442464 -45.076714 L -94.185398 -43.574104 Z M -95.688559 -45.07485 " transform="matrix(-1,0.000496471,-0.000496471,-1,0,0)"/>
<path style="fill:none;stroke-width:0.751181;stroke-linecap:butt;stroke-linejoin:miter;stroke:rgb(0%,0%,0%);stroke-opacity:1;stroke-dasharray:0.751181,0.751181;stroke-miterlimit:3.980952;" d="M 111.917969 45.035156 L 133.253906 45.070312 "/>
<path style="fill-rule:evenodd;fill:rgb(0%,0%,0%);fill-opacity:1;stroke-width:0.400629;stroke-linecap:butt;stroke-linejoin:miter;stroke:rgb(0%,0%,0%);stroke-opacity:1;stroke-miterlimit:4;" d="M -130.324177 -44.85087 L -128.822755 -46.353353 L -134.081992 -44.852467 L -128.821693 -43.349448 Z M -130.324177 -44.85087 " transform="matrix(-1,-0.00165385,0.00165385,-1,0,0)"/>
<path style="fill:none;stroke-width:0.751181;stroke-linecap:butt;stroke-linejoin:miter;stroke:rgb(0%,0%,0%);stroke-opacity:1;stroke-dasharray:0.751181,0.751181;stroke-miterlimit:3.980952;" d="M 110.042969 49.324219 L 134.542969 71.835938 "/>
<path style="fill-rule:evenodd;fill:rgb(0%,0%,0%);fill-opacity:1;stroke-width:0.295012;stroke-linecap:butt;stroke-linejoin:miter;stroke:rgb(0%,0%,0%);stroke-opacity:1;stroke-miterlimit:4;" d="M -106.533606 28.07839 L -105.428221 26.972918 L -109.298238 28.079471 L -105.426188 29.185894 Z M -106.533606 28.07839 " transform="matrix(-1,-0.9188,0.9188,-1,0,0)"/>
<path style="fill:none;stroke-width:0.751181;stroke-linecap:butt;stroke-linejoin:miter;stroke:rgb(0%,0%,0%);stroke-opacity:1;stroke-dasharray:0.751181,0.751181;stroke-miterlimit:3.980952;" d="M 40.3125 81.035156 L 64.902344 103.09375 "/>
<path style="fill-rule:evenodd;fill:rgb(0%,0%,0%);fill-opacity:1;stroke-width:0.298218;stroke-linecap:butt;stroke-linejoin:miter;stroke:rgb(0%,0%,0%);stroke-opacity:1;stroke-miterlimit:4;" d="M -84.969783 -24.864641 L -83.850816 -25.981732 L -87.76605 -24.863962 L -83.850751 -23.743509 Z M -84.969783 -24.864641 " transform="matrix(-1,-0.897086,0.897086,-1,0,0)"/>
<path style="fill:none;stroke-width:0.751181;stroke-linecap:butt;stroke-linejoin:miter;stroke:rgb(0%,0%,0%);stroke-opacity:1;stroke-dasharray:0.751181,0.751181;stroke-miterlimit:3.980952;" d="M 146.8125 45.035156 L 167.515625 45.035156 "/>
<path style="fill-rule:evenodd;fill:rgb(0%,0%,0%);fill-opacity:1;stroke-width:0.40063;stroke-linecap:butt;stroke-linejoin:miter;stroke:rgb(0%,0%,0%);stroke-opacity:1;stroke-miterlimit:4;" d="M -164.511719 -45.035156 L -163.007812 -46.539062 L -168.265625 -45.035156 L -163.007812 -43.535156 Z M -164.511719 -45.035156 " transform="matrix(-1,0,0,-1,0,0)"/>
<path style="fill:none;stroke-width:0.751181;stroke-linecap:butt;stroke-linejoin:miter;stroke:rgb(0%,0%,0%);stroke-opacity:1;stroke-dasharray:0.751181,0.751181;stroke-miterlimit:3.980952;" d="M 146.8125 76.375 L 167.515625 76.375 "/>
<path style="fill-rule:evenodd;fill:rgb(0%,0%,0%);fill-opacity:1;stroke-width:0.40063;stroke-linecap:butt;stroke-linejoin:miter;stroke:rgb(0%,0%,0%);stroke-opacity:1;stroke-miterlimit:4;" d="M -164.511719 -76.375 L -163.007812 -77.878906 L -168.265625 -76.375 L -163.007812 -74.875 Z M -164.511719 -76.375 " transform="matrix(-1,0,0,-1,0,0)"/>
<path style="fill:none;stroke-width:0.751181;stroke-linecap:butt;stroke-linejoin:miter;stroke:rgb(0%,0%,0%);stroke-opacity:1;stroke-dasharray:0.751181,0.751181;stroke-miterlimit:3.980952;" d="M 181.710938 76.375 L 202.414062 76.375 "/>
<path style="fill-rule:evenodd;fill:rgb(0%,0%,0%);fill-opacity:1;stroke-width:0.40063;stroke-linecap:butt;stroke-linejoin:miter;stroke:rgb(0%,0%,0%);stroke-opacity:1;stroke-miterlimit:4;" d="M -199.410156 -76.375 L -197.90625 -77.878906 L -203.164062 -76.375 L -197.90625 -74.875 Z M -199.410156 -76.375 " transform="matrix(-1,0,0,-1,0,0)"/>
<path style="fill:none;stroke-width:0.751181;stroke-linecap:butt;stroke-linejoin:miter;stroke:rgb(0%,0%,0%);stroke-opacity:1;stroke-dasharray:0.751181,0.751181;stroke-miterlimit:3.980952;" d="M 179.167969 80.929688 L 203.5625 103.390625 "/>
<path style="fill-rule:evenodd;fill:rgb(0%,0%,0%);fill-opacity:1;stroke-width:0.294724;stroke-linecap:butt;stroke-linejoin:miter;stroke:rgb(0%,0%,0%);stroke-opacity:1;stroke-miterlimit:4;" d="M -159.473958 45.481613 L -158.370823 44.376048 L -162.235722 45.481564 L -158.370507 46.586694 Z M -159.473958 45.481613 " transform="matrix(-1,-0.920759,0.920759,-1,0,0)"/>
<path style="fill:none;stroke-width:0.751181;stroke-linecap:butt;stroke-linejoin:miter;stroke:rgb(0%,0%,0%);stroke-opacity:1;stroke-dasharray:0.751181,0.751181;stroke-miterlimit:3.980952;" d="M 76.71875 108.988281 C 76.71875 108.988281 102.539062 118.429688 115.984375 120.875 C 129.433594 123.320312 184.824219 124.261719 198.273438 126.707031 C 211.71875 129.152344 238.074219 138.324219 238.074219 138.324219 "/>
<path style="fill-rule:evenodd;fill:rgb(0%,0%,0%);fill-opacity:1;stroke-width:0.37836;stroke-linecap:butt;stroke-linejoin:miter;stroke:rgb(0%,0%,0%);stroke-opacity:1;stroke-miterlimit:4;" d="M -252.45484 -49.456527 L -251.033892 -50.873055 L -256.001608 -49.456219 L -251.034828 -48.036792 Z M -252.45484 -49.456527 " transform="matrix(-1,-0.348115,0.348115,-1,0,0)"/>
<path style="fill:none;stroke-width:0.751181;stroke-linecap:butt;stroke-linejoin:miter;stroke:rgb(0%,0%,0%);stroke-opacity:1;stroke-dasharray:0.751181,0.751181;stroke-miterlimit:3.980952;" d="M 216.609375 76.375 L 237.3125 76.375 "/>
<path style="fill-rule:evenodd;fill:rgb(0%,0%,0%);fill-opacity:1;stroke-width:0.40063;stroke-linecap:butt;stroke-linejoin:miter;stroke:rgb(0%,0%,0%);stroke-opacity:1;stroke-miterlimit:4;" d="M -234.308594 -76.375 L -232.804688 -77.878906 L -238.0625 -76.375 L -232.804688 -74.875 Z M -234.308594 -76.375 " transform="matrix(-1,0,0,-1,0,0)"/>
<path style="fill:none;stroke-width:0.751181;stroke-linecap:butt;stroke-linejoin:miter;stroke:rgb(0%,0%,0%);stroke-opacity:1;stroke-dasharray:0.751181,0.751181;stroke-miterlimit:3.980952;" d="M 180.054688 41.058594 C 180.054688 41.058594 197.128906 25.167969 245.863281 26.441406 C 294.597656 27.714844 309.980469 40.679688 309.980469 40.679688 "/>
<path style="fill-rule:evenodd;fill:rgb(0%,0%,0%);fill-opacity:1;stroke-width:0.30633;stroke-linecap:butt;stroke-linejoin:miter;stroke:rgb(0%,0%,0%);stroke-opacity:1;stroke-miterlimit:4;" d="M -198.977316 128.970818 L -197.829984 127.820166 L -201.849347 128.969706 L -197.828589 130.115866 Z M -198.977316 128.970818 " transform="matrix(-1,-0.842875,0.842875,-1,0,0)"/>
<path style="fill:none;stroke-width:0.751181;stroke-linecap:butt;stroke-linejoin:miter;stroke:rgb(0%,0%,0%);stroke-opacity:1;stroke-dasharray:0.751181,0.751181;stroke-miterlimit:4;" d="M 214.648438 111.699219 L 239.617188 133.707031 "/>
<path style="fill-rule:evenodd;fill:rgb(0%,0%,0%);fill-opacity:1;stroke-width:0.30056;stroke-linecap:butt;stroke-linejoin:miter;stroke:rgb(0%,0%,0%);stroke-opacity:1;stroke-miterlimit:4;" d="M -198.932378 43.605726 L -197.804444 42.478834 L -201.749875 43.604487 L -197.803288 44.731722 Z M -198.932378 43.605726 " transform="matrix(-1,-0.881327,0.881327,-1,0,0)"/>
<path style="fill:none;stroke-width:0.751181;stroke-linecap:butt;stroke-linejoin:miter;stroke:rgb(0%,0%,0%);stroke-opacity:1;stroke-dasharray:0.751181,0.751181;stroke-miterlimit:3.980952;" d="M 217.332031 107.507812 L 238.03125 107.507812 "/>
<path style="fill-rule:evenodd;fill:rgb(0%,0%,0%);fill-opacity:1;stroke-width:0.40063;stroke-linecap:butt;stroke-linejoin:miter;stroke:rgb(0%,0%,0%);stroke-opacity:1;stroke-miterlimit:4;" d="M -235.027344 -107.507812 L -233.523438 -109.007812 L -238.78125 -107.507812 L -233.523438 -106.003906 Z M -235.027344 -107.507812 " transform="matrix(-1,0,0,-1,0,0)"/>
<path style="fill:none;stroke-width:0.751181;stroke-linecap:butt;stroke-linejoin:miter;stroke:rgb(0%,0%,0%);stroke-opacity:1;stroke-dasharray:0.751181,0.751181;stroke-miterlimit:3.980952;" d="M 251.507812 107.714844 L 272.210938 107.714844 "/>
<path style="fill-rule:evenodd;fill:rgb(0%,0%,0%);fill-opacity:1;stroke-width:0.40063;stroke-linecap:butt;stroke-linejoin:miter;stroke:rgb(0%,0%,0%);stroke-opacity:1;stroke-miterlimit:4;" d="M -269.203125 -107.714844 L -267.703125 -109.21875 L -272.960938 -107.714844 L -267.703125 -106.214844 Z M -269.203125 -107.714844 " transform="matrix(-1,0,0,-1,0,0)"/>
<path style="fill:none;stroke-width:0.751181;stroke-linecap:butt;stroke-linejoin:miter;stroke:rgb(0%,0%,0%);stroke-opacity:1;stroke-dasharray:0.751181,0.751181;stroke-miterlimit:3.980952;" d="M 249.140625 81.210938 L 275.15625 102.890625 "/>
<path style="fill-rule:evenodd;fill:rgb(0%,0%,0%);fill-opacity:1;stroke-width:0.307769;stroke-linecap:butt;stroke-linejoin:miter;stroke:rgb(0%,0%,0%);stroke-opacity:1;stroke-miterlimit:4;" d="M -210.676046 74.603724 L -209.522644 73.447215 L -213.560744 74.601461 L -209.523763 75.756742 Z M -210.676046 74.603724 " transform="matrix(-1,-0.833358,0.833358,-1,0,0)"/>
<path style="fill:none;stroke-width:0.751181;stroke-linecap:butt;stroke-linejoin:miter;stroke:rgb(0%,0%,0%);stroke-opacity:1;stroke-dasharray:0.751181,0.751181;stroke-miterlimit:3.980952;" d="M 251.507812 76.375 L 272.210938 76.375 "/>
<path style="fill-rule:evenodd;fill:rgb(0%,0%,0%);fill-opacity:1;stroke-width:0.40063;stroke-linecap:butt;stroke-linejoin:miter;stroke:rgb(0%,0%,0%);stroke-opacity:1;stroke-miterlimit:4;" d="M -269.203125 -76.375 L -267.703125 -77.878906 L -272.960938 -76.375 L -267.703125 -74.875 Z M -269.203125 -76.375 " transform="matrix(-1,0,0,-1,0,0)"/>
<path style="fill:none;stroke-width:0.751181;stroke-linecap:butt;stroke-linejoin:miter;stroke:rgb(0%,0%,0%);stroke-opacity:1;stroke-dasharray:0.751181,0.751181;stroke-miterlimit:3.980952;" d="M 286.40625 76.375 L 310.738281 49.867188 "/>
<path style="fill-rule:evenodd;fill:rgb(0%,0%,0%);fill-opacity:1;stroke-width:0.295158;stroke-linecap:butt;stroke-linejoin:miter;stroke:rgb(0%,0%,0%);stroke-opacity:1;stroke-miterlimit:4;" d="M -125.516492 -193.503336 L -124.411908 -194.610879 L -128.286559 -193.50392 L -124.411068 -192.396806 Z M -125.516492 -193.503336 " transform="matrix(-0.917806,1,-1,-0.917806,0,0)"/>
<path style="fill:none;stroke-width:0.751181;stroke-linecap:butt;stroke-linejoin:miter;stroke:rgb(0%,0%,0%);stroke-opacity:1;stroke-dasharray:0.751181,0.751181;stroke-miterlimit:3.980952;" d="M 75.007812 48.785156 L 99.460938 71.957031 "/>
<path style="fill-rule:evenodd;fill:rgb(0%,0%,0%);fill-opacity:1;stroke-width:0.290809;stroke-linecap:butt;stroke-linejoin:miter;stroke:rgb(0%,0%,0%);stroke-opacity:1;stroke-miterlimit:4;" d="M -86.152111 11.744876 L -85.059755 10.6551 L -88.877881 11.745713 L -85.060277 12.835282 Z M -86.152111 11.744876 " transform="matrix(-1,-0.947574,0.947574,-1,0,0)"/>
<path style="fill:none;stroke-width:0.751181;stroke-linecap:butt;stroke-linejoin:miter;stroke:rgb(0%,0%,0%);stroke-opacity:1;stroke-dasharray:0.751181,0.751181;stroke-miterlimit:3.980952;" d="M 75.480469 103.488281 L 99.980469 81.664062 "/>
<path style="fill-rule:evenodd;fill:rgb(0%,0%,0%);fill-opacity:1;stroke-width:0.299137;stroke-linecap:butt;stroke-linejoin:miter;stroke:rgb(0%,0%,0%);stroke-opacity:1;stroke-miterlimit:4;" d="M -12.935474 -95.184266 L -11.814455 -96.306653 L -15.73888 -95.185705 L -11.813087 -94.063247 Z M -12.935474 -95.184266 " transform="matrix(-1,0.890892,-0.890892,-1,0,0)"/>
<path style="fill:none;stroke-width:0.751181;stroke-linecap:butt;stroke-linejoin:miter;stroke:rgb(0%,0%,0%);stroke-opacity:1;stroke-dasharray:0.751181,0.751181;stroke-miterlimit:3.98095;" d="M 249.148438 71.898438 C 249.148438 71.898438 259.875 60.050781 279.613281 60.242188 C 299.351562 60.429688 308.917969 71.199219 308.917969 71.199219 "/>
<path style="fill-rule:evenodd;fill:rgb(0%,0%,0%);fill-opacity:1;stroke-width:0.299579;stroke-linecap:butt;stroke-linejoin:miter;stroke:rgb(0%,0%,0%);stroke-opacity:1;stroke-miterlimit:4;" d="M -190.938804 137.384256 L -189.815812 136.260285 L -193.746599 137.383357 L -189.814833 138.507248 Z M -190.938804 137.384256 " transform="matrix(-0.887916,-1,1,-0.887916,0,0)"/>
<path style="fill:none;stroke-width:0.751181;stroke-linecap:butt;stroke-linejoin:miter;stroke:rgb(0%,0%,0%);stroke-opacity:1;stroke-dasharray:0.751181,0.751181;stroke-miterlimit:3.98095;" d="M 285.324219 80.691406 L 309.695312 102.601562 "/>
<path style="fill-rule:evenodd;fill:rgb(0%,0%,0%);fill-opacity:1;stroke-width:0.297932;stroke-linecap:butt;stroke-linejoin:miter;stroke:rgb(0%,0%,0%);stroke-opacity:1;stroke-miterlimit:4;" d="M -220.047765 97.232271 L -218.931061 96.115058 L -222.841131 97.231828 L -218.930551 98.348974 Z M -220.047765 97.232271 " transform="matrix(-1,-0.899014,0.899014,-1,0,0)"/>
<path style="fill:none;stroke-width:0.751181;stroke-linecap:butt;stroke-linejoin:miter;stroke:rgb(0%,0%,0%);stroke-opacity:1;stroke-dasharray:0.751181,0.751181;stroke-miterlimit:3.980952;" d="M 251.421875 139.324219 L 272.125 139.324219 "/>
<path style="fill-rule:evenodd;fill:rgb(0%,0%,0%);fill-opacity:1;stroke-width:0.40063;stroke-linecap:butt;stroke-linejoin:miter;stroke:rgb(0%,0%,0%);stroke-opacity:1;stroke-miterlimit:4;" d="M -269.121094 -139.324219 L -267.617188 -140.828125 L -272.875 -139.324219 L -267.617188 -137.824219 Z M -269.121094 -139.324219 " transform="matrix(-1,0,0,-1,0,0)"/>
<path style="fill:none;stroke-width:0.751181;stroke-linecap:butt;stroke-linejoin:miter;stroke:rgb(0%,0%,0%);stroke-opacity:1;stroke-dasharray:0.751181,0.751181;stroke-miterlimit:3.980952;" d="M 287.789062 140.839844 C 287.789062 140.839844 301.636719 155.28125 314.808594 155.234375 C 327.976562 155.191406 343.199219 143.066406 343.199219 143.066406 "/>
<path style="fill-rule:evenodd;fill:rgb(0%,0%,0%);fill-opacity:1;stroke-width:0.313376;stroke-linecap:butt;stroke-linejoin:miter;stroke:rgb(0%,0%,0%);stroke-opacity:1;stroke-miterlimit:4;" d="M -137.914601 -254.784825 L -136.738945 -255.96171 L -140.852179 -254.784727 L -136.740106 -253.611072 Z M -137.914601 -254.784825 " transform="matrix(-1,0.796488,-0.796488,-1,0,0)"/>
<path style="fill:none;stroke-width:0.751181;stroke-linecap:butt;stroke-linejoin:miter;stroke:rgb(0%,0%,0%);stroke-opacity:1;stroke-dasharray:0.751181,0.751181;stroke-miterlimit:3.980952;" d="M 42.121094 109.785156 C 42.121094 109.785156 55.96875 124.222656 69.140625 124.179688 C 82.308594 124.136719 97.53125 112.011719 97.53125 112.011719 "/>
<path style="fill-rule:evenodd;fill:rgb(0%,0%,0%);fill-opacity:1;stroke-width:0.313376;stroke-linecap:butt;stroke-linejoin:miter;stroke:rgb(0%,0%,0%);stroke-opacity:1;stroke-miterlimit:4;" d="M -2.737037 -116.062829 L -1.563284 -117.237325 L -5.674615 -116.062731 L -1.562541 -114.889077 Z M -2.737037 -116.062829 " transform="matrix(-1,0.796488,-0.796488,-1,0,0)"/>
<path style="fill:none;stroke-width:0.751181;stroke-linecap:butt;stroke-linejoin:miter;stroke:rgb(0%,0%,0%);stroke-opacity:1;stroke-dasharray:0.751181,0.751181;stroke-miterlimit:3.980952;" d="M 321.4375 107.714844 L 342.140625 107.714844 "/>
<path style="fill-rule:evenodd;fill:rgb(0%,0%,0%);fill-opacity:1;stroke-width:0.40063;stroke-linecap:butt;stroke-linejoin:miter;stroke:rgb(0%,0%,0%);stroke-opacity:1;stroke-miterlimit:4;" d="M -339.136719 -107.714844 L -337.632812 -109.21875 L -342.890625 -107.714844 L -337.632812 -106.214844 Z M -339.136719 -107.714844 " transform="matrix(-1,0,0,-1,0,0)"/>
<path style="fill:none;stroke-width:0.751181;stroke-linecap:butt;stroke-linejoin:miter;stroke:rgb(0%,0%,0%);stroke-opacity:1;stroke-dasharray:0.751181,0.751181;stroke-miterlimit:3.980952;" d="M 356.335938 107.714844 L 377.039062 107.714844 "/>
<path style="fill-rule:evenodd;fill:rgb(0%,0%,0%);fill-opacity:1;stroke-width:0.40063;stroke-linecap:butt;stroke-linejoin:miter;stroke:rgb(0%,0%,0%);stroke-opacity:1;stroke-miterlimit:4;" d="M -374.03125 -107.714844 L -372.53125 -109.21875 L -377.789062 -107.714844 L -372.53125 -106.214844 Z M -374.03125 -107.714844 " transform="matrix(-1,0,0,-1,0,0)"/>
<path style="fill:none;stroke-width:0.751181;stroke-linecap:butt;stroke-linejoin:miter;stroke:rgb(0%,0%,0%);stroke-opacity:1;stroke-dasharray:0.751181,0.751181;stroke-miterlimit:3.980952;" d="M 321.4375 76.375 L 343.144531 76.433594 "/>
<path style="fill-rule:evenodd;fill:rgb(0%,0%,0%);fill-opacity:1;stroke-width:0.400628;stroke-linecap:butt;stroke-linejoin:miter;stroke:rgb(0%,0%,0%);stroke-opacity:1;stroke-miterlimit:4;" d="M -340.337723 -75.519938 L -338.837819 -77.023931 L -344.09554 -75.521655 L -338.837626 -74.016119 Z M -340.337723 -75.519938 " transform="matrix(-1,-0.0026616,0.0026616,-1,0,0)"/>
<path style="fill:none;stroke-width:0.751181;stroke-linecap:butt;stroke-linejoin:miter;stroke:rgb(0%,0%,0%);stroke-opacity:1;stroke-dasharray:0.751181,0.751181;stroke-miterlimit:3.980952;" d="M 354.175781 112.429688 L 379.328125 135.539062 "/>
<path style="fill-rule:evenodd;fill:rgb(0%,0%,0%);fill-opacity:1;stroke-width:0.295029;stroke-linecap:butt;stroke-linejoin:miter;stroke:rgb(0%,0%,0%);stroke-opacity:1;stroke-miterlimit:4;" d="M -271.022864 115.480733 L -269.917346 114.375267 L -273.7896 115.479524 L -269.917397 116.586251 Z M -271.022864 115.480733 " transform="matrix(-1,-0.918685,0.918685,-1,0,0)"/>
<path style="fill:none;stroke-width:0.751181;stroke-linecap:butt;stroke-linejoin:miter;stroke:rgb(0%,0%,0%);stroke-opacity:1;stroke-dasharray:0.751181,0.751181;stroke-miterlimit:3.980952;" d="M 356.335938 139.054688 L 377.039062 139.054688 "/>
<path style="fill-rule:evenodd;fill:rgb(0%,0%,0%);fill-opacity:1;stroke-width:0.40063;stroke-linecap:butt;stroke-linejoin:miter;stroke:rgb(0%,0%,0%);stroke-opacity:1;stroke-miterlimit:4;" d="M -374.03125 -139.054688 L -372.53125 -140.558594 L -377.789062 -139.054688 L -372.53125 -137.550781 Z M -374.03125 -139.054688 " transform="matrix(-1,0,0,-1,0,0)"/>
<path style="fill:none;stroke-width:0.751181;stroke-linecap:butt;stroke-linejoin:miter;stroke:rgb(0%,0%,0%);stroke-opacity:1;stroke-dasharray:0.751181,0.751181;stroke-miterlimit:3.980952;" d="M 391.234375 139.054688 L 411.933594 139.054688 "/>
<path style="fill-rule:evenodd;fill:rgb(0%,0%,0%);fill-opacity:1;stroke-width:0.40063;stroke-linecap:butt;stroke-linejoin:miter;stroke:rgb(0%,0%,0%);stroke-opacity:1;stroke-miterlimit:4;" d="M -408.929688 -139.054688 L -407.429688 -140.558594 L -412.6875 -139.054688 L -407.429688 -137.550781 Z M -408.929688 -139.054688 " transform="matrix(-1,0,0,-1,0,0)"/>
<path style="fill:none;stroke-width:0.751181;stroke-linecap:butt;stroke-linejoin:miter;stroke:rgb(0%,0%,0%);stroke-opacity:1;stroke-dasharray:0.751181,0.751181;stroke-miterlimit:3.980952;" d="M 391.234375 107.714844 L 411.933594 107.714844 "/>
<path style="fill-rule:evenodd;fill:rgb(0%,0%,0%);fill-opacity:1;stroke-width:0.40063;stroke-linecap:butt;stroke-linejoin:miter;stroke:rgb(0%,0%,0%);stroke-opacity:1;stroke-miterlimit:4;" d="M -408.929688 -107.714844 L -407.429688 -109.21875 L -412.6875 -107.714844 L -407.429688 -106.214844 Z M -408.929688 -107.714844 " transform="matrix(-1,0,0,-1,0,0)"/>
<path style="fill:none;stroke-width:0.751181;stroke-linecap:butt;stroke-linejoin:miter;stroke:rgb(0%,0%,0%);stroke-opacity:1;stroke-dasharray:0.751181,0.751181;stroke-miterlimit:3.980952;" d="M 356.335938 76.382812 L 377.039062 76.382812 "/>
<path style="fill-rule:evenodd;fill:rgb(0%,0%,0%);fill-opacity:1;stroke-width:0.40063;stroke-linecap:butt;stroke-linejoin:miter;stroke:rgb(0%,0%,0%);stroke-opacity:1;stroke-miterlimit:4;" d="M -374.03125 -76.382812 L -372.53125 -77.886719 L -377.789062 -76.382812 L -372.53125 -74.882812 Z M -374.03125 -76.382812 " transform="matrix(-1,0,0,-1,0,0)"/>
<path style="fill:none;stroke-width:0.751181;stroke-linecap:butt;stroke-linejoin:miter;stroke:rgb(0%,0%,0%);stroke-opacity:1;stroke-dasharray:0.751181,0.751181;stroke-miterlimit:3.980952;" d="M 321.4375 45.035156 L 342.140625 45.035156 "/>
<path style="fill-rule:evenodd;fill:rgb(0%,0%,0%);fill-opacity:1;stroke-width:0.40063;stroke-linecap:butt;stroke-linejoin:miter;stroke:rgb(0%,0%,0%);stroke-opacity:1;stroke-miterlimit:4;" d="M -339.136719 -45.035156 L -337.632812 -46.539062 L -342.890625 -45.035156 L -337.632812 -43.535156 Z M -339.136719 -45.035156 " transform="matrix(-1,0,0,-1,0,0)"/>
<path style="fill:none;stroke-width:0.751181;stroke-linecap:butt;stroke-linejoin:miter;stroke:rgb(0%,0%,0%);stroke-opacity:1;stroke-dasharray:0.751181,0.751181;stroke-miterlimit:3.980952;" d="M 284.417969 111.976562 L 309.011719 134.734375 "/>
<path style="fill-rule:evenodd;fill:rgb(0%,0%,0%);fill-opacity:1;stroke-width:0.294059;stroke-linecap:butt;stroke-linejoin:miter;stroke:rgb(0%,0%,0%);stroke-opacity:1;stroke-miterlimit:4;" d="M -231.43542 81.4544 L -230.333586 80.352848 L -234.192731 81.454942 L -230.333868 82.556234 Z M -231.43542 81.4544 " transform="matrix(-1,-0.925294,0.925294,-1,0,0)"/>
<path style="fill:none;stroke-width:0.751181;stroke-linecap:butt;stroke-linejoin:miter;stroke:rgb(0%,0%,0%);stroke-opacity:1;stroke-dasharray:0.751181,0.751181;stroke-miterlimit:3.980952;" d="M 319.78125 135.457031 L 344.894531 113 "/>
<path style="fill-rule:evenodd;fill:rgb(0%,0%,0%);fill-opacity:1;stroke-width:0.29864;stroke-linecap:butt;stroke-linejoin:miter;stroke:rgb(0%,0%,0%);stroke-opacity:1;stroke-miterlimit:4;" d="M -133.255397 -234.162173 L -132.134384 -235.284719 L -136.053908 -234.164711 L -132.13502 -233.043101 Z M -133.255397 -234.162173 " transform="matrix(-1,0.894239,-0.894239,-1,0,0)"/>
<path style="fill:none;stroke-width:0.751181;stroke-linecap:butt;stroke-linejoin:miter;stroke:rgb(0%,0%,0%);stroke-opacity:1;stroke-dasharray:0.751181,0.751181;stroke-miterlimit:3.980952;" d="M 180.378906 111.910156 L 204.972656 134.664062 "/>
<path style="fill-rule:evenodd;fill:rgb(0%,0%,0%);fill-opacity:1;stroke-width:0.294059;stroke-linecap:butt;stroke-linejoin:miter;stroke:rgb(0%,0%,0%);stroke-opacity:1;stroke-miterlimit:4;" d="M -175.353995 29.629 L -174.250057 28.525501 L -178.109202 29.627595 L -174.250496 30.732939 Z M -175.353995 29.629 " transform="matrix(-1,-0.925294,0.925294,-1,0,0)"/>
<path style="fill:none;stroke-width:0.751181;stroke-linecap:butt;stroke-linejoin:miter;stroke:rgb(0%,0%,0%);stroke-opacity:1;stroke-dasharray:0.751181,0.751181;stroke-miterlimit:3.980952;" d="M 215.742188 135.386719 L 240.855469 112.929688 "/>
<path style="fill-rule:evenodd;fill:rgb(0%,0%,0%);fill-opacity:1;stroke-width:0.29864;stroke-linecap:butt;stroke-linejoin:miter;stroke:rgb(0%,0%,0%);stroke-opacity:1;stroke-miterlimit:4;" d="M -75.480274 -182.430998 L -74.361202 -183.551375 L -78.280726 -182.431366 L -74.359898 -181.311927 Z M -75.480274 -182.430998 " transform="matrix(-1,0.894239,-0.894239,-1,0,0)"/>
<path style="fill:none;stroke-width:0.751181;stroke-linecap:butt;stroke-linejoin:miter;stroke:rgb(0%,0%,0%);stroke-opacity:1;stroke-dasharray:0.751181,0.751181;stroke-miterlimit:3.98095;" d="M 109.839844 80.59375 L 135.863281 102.273438 "/>
<path style="fill-rule:evenodd;fill:rgb(0%,0%,0%);fill-opacity:1;stroke-width:0.307819;stroke-linecap:butt;stroke-linejoin:miter;stroke:rgb(0%,0%,0%);stroke-opacity:1;stroke-miterlimit:4;" d="M -128.192797 6.436627 L -127.037062 5.282461 L -131.078348 6.438028 L -127.038631 7.592362 Z M -128.192797 6.436627 " transform="matrix(-1,-0.833028,0.833028,-1,0,0)"/>
<path style="fill:none;stroke-width:0.751181;stroke-linecap:butt;stroke-linejoin:miter;stroke:rgb(0%,0%,0%);stroke-opacity:1;stroke-dasharray:0.751181,0.751181;stroke-miterlimit:3.980952;" d="M 143.769531 102.671875 L 171.113281 50.339844 "/>
<path style="fill-rule:evenodd;fill:rgb(0%,0%,0%);fill-opacity:1;stroke-width:0.355081;stroke-linecap:butt;stroke-linejoin:miter;stroke:rgb(0%,0%,0%);stroke-opacity:1;stroke-miterlimit:4;" d="M -28.025694 -155.079091 L -26.694477 -156.411377 L -31.35354 -155.078556 L -26.693408 -153.747874 Z M -28.025694 -155.079091 " transform="matrix(-0.522505,1,-1,-0.522505,0,0)"/>
<path style="fill:none;stroke-width:0.751181;stroke-linecap:butt;stroke-linejoin:miter;stroke:rgb(0%,0%,0%);stroke-opacity:1;stroke-dasharray:0.751181,0.751181;stroke-miterlimit:3.980952;" d="M 145.78125 103.808594 L 170.125 81.285156 "/>
<path style="fill-rule:evenodd;fill:rgb(0%,0%,0%);fill-opacity:1;stroke-width:0.294061;stroke-linecap:butt;stroke-linejoin:miter;stroke:rgb(0%,0%,0%);stroke-opacity:1;stroke-miterlimit:4;" d="M -48.929182 -128.597461 L -47.825683 -129.701415 L -51.68651 -128.597984 L -47.827332 -127.495909 Z M -48.929182 -128.597461 " transform="matrix(-1,0.925281,-0.925281,-1,0,0)"/>
<path style="fill:none;stroke-width:0.751181;stroke-linecap:butt;stroke-linejoin:miter;stroke:rgb(0%,0%,0%);stroke-opacity:1;stroke-dasharray:0.751181,0.751181;stroke-miterlimit:3.980952;" d="M 109.972656 112.441406 L 134.863281 134.875 "/>
<path style="fill-rule:evenodd;fill:rgb(0%,0%,0%);fill-opacity:1;stroke-width:0.297604;stroke-linecap:butt;stroke-linejoin:miter;stroke:rgb(0%,0%,0%);stroke-opacity:1;stroke-miterlimit:4;" d="M -139.260082 -7.357917 L -138.144033 -8.473109 L -142.052314 -7.357099 L -138.14489 -6.241868 Z M -139.260082 -7.357917 " transform="matrix(-1,-0.90123,0.90123,-1,0,0)"/>
<path style="fill:none;stroke-width:0.751181;stroke-linecap:butt;stroke-linejoin:miter;stroke:rgb(0%,0%,0%);stroke-opacity:1;stroke-dasharray:0.751181,0.751181;stroke-miterlimit:3.980952;" d="M 145.910156 135.65625 L 170.253906 113.128906 "/>
<path style="fill-rule:evenodd;fill:rgb(0%,0%,0%);fill-opacity:1;stroke-width:0.294061;stroke-linecap:butt;stroke-linejoin:miter;stroke:rgb(0%,0%,0%);stroke-opacity:1;stroke-miterlimit:4;" d="M -33.124802 -145.821625 L -32.023251 -146.923474 L -35.882131 -145.822148 L -32.020848 -144.718126 Z M -33.124802 -145.821625 " transform="matrix(-1,0.925281,-0.925281,-1,0,0)"/>
<path style="fill:none;stroke-width:0.751181;stroke-linecap:butt;stroke-linejoin:miter;stroke:rgb(0%,0%,0%);stroke-opacity:1;stroke-dasharray:0.751181,0.751181;stroke-miterlimit:3.98095;" d="M 76.699219 108.621094 L 97.398438 108.621094 "/>
<path style="fill-rule:evenodd;fill:rgb(0%,0%,0%);fill-opacity:1;stroke-width:0.40063;stroke-linecap:butt;stroke-linejoin:miter;stroke:rgb(0%,0%,0%);stroke-opacity:1;stroke-miterlimit:4;" d="M -94.394531 -108.621094 L -92.890625 -110.125 L -98.148438 -108.621094 L -92.890625 -107.121094 Z M -94.394531 -108.621094 " transform="matrix(-1,0,0,-1,0,0)"/>
</g>
</svg>
