<?xml version="1.0" encoding="UTF-8"?>
<svg xmlns="http://www.w3.org/2000/svg" xmlns:xlink="http://www.w3.org/1999/xlink" width="437.425781pt" height="273.144714pt" viewBox="0 0 437.425781 273.144714" version="1.1">
<defs>
<clipPath id="clip1">
  <path d="M 187 228 L 233 228 L 233 273.144531 L 187 273.144531 Z M 187 228 "/>
</clipPath>
<clipPath id="clip2">
  <path d="M 222 228 L 268 228 L 268 273.144531 L 222 273.144531 Z M 222 228 "/>
</clipPath>
</defs>
<g id="surface1">
<path style="fill:none;stroke-width:0.830374;stroke-linecap:butt;stroke-linejoin:miter;stroke:rgb(0%,0%,0%);stroke-opacity:1;stroke-dasharray:0.830374,0.830374;stroke-miterlimit:4;" d="M 38.34375 35.335938 L 94.949219 45.652344 L 87.355469 104.042969 L 30.265625 94.539062 Z M 38.34375 35.335938 "/>
<path style="fill:none;stroke-width:0.830374;stroke-linecap:butt;stroke-linejoin:miter;stroke:rgb(0%,0%,0%);stroke-opacity:1;stroke-dasharray:0.830374,0.830374;stroke-miterlimit:4;" d="M 38.269531 35.285156 L 87.359375 104 "/>
<path style="fill:none;stroke-width:0.830374;stroke-linecap:butt;stroke-linejoin:miter;stroke:rgb(0%,0%,0%);stroke-opacity:1;stroke-dasharray:0.830374,0.830374;stroke-miterlimit:4;" d="M 95.003906 45.621094 L 30.300781 94.546875 "/>
<path style="fill-rule:nonzero;fill:rgb(78.038025%,76.077271%,70.979309%);fill-opacity:1;stroke-width:2.83465;stroke-linecap:round;stroke-linejoin:miter;stroke:rgb(0%,0%,0%);stroke-opacity:1;stroke-miterlimit:4;" d="M 42.121094 157.035156 C 42.121094 160.585938 39.242188 163.464844 35.691406 163.464844 C 32.140625 163.464844 29.261719 160.585938 29.261719 157.035156 C 29.261719 153.488281 32.140625 150.609375 35.691406 150.609375 C 39.242188 150.609375 42.121094 153.488281 42.121094 157.035156 Z M 42.121094 157.035156 "/>
<path style="fill-rule:nonzero;fill:rgb(78.038025%,76.077271%,70.979309%);fill-opacity:1;stroke-width:2.83465;stroke-linecap:round;stroke-linejoin:miter;stroke:rgb(0%,0%,0%);stroke-opacity:1;stroke-miterlimit:4;" d="M 42.121094 188.375 C 42.121094 190.082031 41.441406 191.714844 40.238281 192.921875 C 39.03125 194.128906 37.398438 194.804688 35.691406 194.804688 C 33.988281 194.804688 32.351562 194.128906 31.144531 192.921875 C 29.941406 191.714844 29.261719 190.082031 29.261719 188.375 C 29.261719 184.824219 32.140625 181.949219 35.691406 181.949219 C 39.242188 181.949219 42.121094 184.824219 42.121094 188.375 Z M 42.121094 188.375 "/>
<path style="fill-rule:nonzero;fill:rgb(78.038025%,76.077271%,70.979309%);fill-opacity:1;stroke-width:2.83465;stroke-linecap:round;stroke-linejoin:miter;stroke:rgb(0%,0%,0%);stroke-opacity:1;stroke-miterlimit:4;" d="M 77.019531 157.035156 C 77.019531 158.742188 76.339844 160.375 75.136719 161.582031 C 73.929688 162.789062 72.292969 163.464844 70.589844 163.464844 C 67.039062 163.464844 64.160156 160.585938 64.160156 157.035156 C 64.160156 153.488281 67.039062 150.609375 70.589844 150.609375 C 72.292969 150.609375 73.929688 151.285156 75.136719 152.492188 C 76.339844 153.695312 77.019531 155.332031 77.019531 157.035156 Z M 77.019531 157.035156 "/>
<path style="fill-rule:nonzero;fill:rgb(78.038025%,76.077271%,70.979309%);fill-opacity:1;stroke-width:2.83465;stroke-linecap:round;stroke-linejoin:miter;stroke:rgb(0%,0%,0%);stroke-opacity:1;stroke-miterlimit:4;" d="M 77.019531 219.714844 C 77.019531 221.421875 76.339844 223.054688 75.136719 224.261719 C 73.929688 225.464844 72.292969 226.144531 70.589844 226.144531 C 67.039062 226.144531 64.160156 223.265625 64.160156 219.714844 C 64.160156 216.164062 67.039062 213.285156 70.589844 213.285156 C 72.292969 213.285156 73.929688 213.964844 75.136719 215.167969 C 76.339844 216.375 77.019531 218.011719 77.019531 219.714844 Z M 77.019531 219.714844 "/>
<path style="fill-rule:nonzero;fill:rgb(78.038025%,76.077271%,70.979309%);fill-opacity:1;stroke-width:2.83465;stroke-linecap:round;stroke-linejoin:miter;stroke:rgb(0%,0%,0%);stroke-opacity:1;stroke-miterlimit:4;" d="M 111.917969 157.035156 C 111.917969 160.585938 109.039062 163.464844 105.488281 163.464844 C 101.9375 163.464844 99.058594 160.585938 99.058594 157.035156 C 99.058594 153.488281 101.9375 150.609375 105.488281 150.609375 C 109.039062 150.609375 111.917969 153.488281 111.917969 157.035156 Z M 111.917969 157.035156 "/>
<path style="fill-rule:nonzero;fill:rgb(78.038025%,76.077271%,70.979309%);fill-opacity:1;stroke-width:2.83465;stroke-linecap:round;stroke-linejoin:miter;stroke:rgb(0%,0%,0%);stroke-opacity:1;stroke-miterlimit:4;" d="M 111.917969 188.375 C 111.917969 190.082031 111.238281 191.714844 110.035156 192.921875 C 108.828125 194.128906 107.191406 194.804688 105.488281 194.804688 C 103.78125 194.804688 102.148438 194.128906 100.941406 192.921875 C 99.738281 191.714844 99.058594 190.082031 99.058594 188.375 C 99.058594 184.824219 101.9375 181.949219 105.488281 181.949219 C 109.039062 181.949219 111.917969 184.824219 111.917969 188.375 Z M 111.917969 188.375 "/>
<path style="fill-rule:nonzero;fill:rgb(78.038025%,76.077271%,70.979309%);fill-opacity:1;stroke-width:2.83465;stroke-linecap:round;stroke-linejoin:miter;stroke:rgb(0%,0%,0%);stroke-opacity:1;stroke-miterlimit:4;" d="M 146.8125 157.035156 C 146.8125 160.585938 143.9375 163.464844 140.386719 163.464844 C 136.835938 163.464844 133.957031 160.585938 133.957031 157.035156 C 133.957031 153.488281 136.835938 150.609375 140.386719 150.609375 C 143.9375 150.609375 146.8125 153.488281 146.8125 157.035156 Z M 146.8125 157.035156 "/>
<path style="fill-rule:nonzero;fill:rgb(78.038025%,76.077271%,70.979309%);fill-opacity:1;stroke-width:2.83465;stroke-linecap:round;stroke-linejoin:miter;stroke:rgb(0%,0%,0%);stroke-opacity:1;stroke-miterlimit:4;" d="M 146.8125 188.375 C 146.8125 190.082031 146.136719 191.714844 144.929688 192.921875 C 143.726562 194.128906 142.089844 194.804688 140.386719 194.804688 C 138.679688 194.804688 137.046875 194.128906 135.839844 192.921875 C 134.632812 191.714844 133.957031 190.082031 133.957031 188.375 C 133.957031 184.824219 136.835938 181.949219 140.386719 181.949219 C 143.9375 181.949219 146.8125 184.824219 146.8125 188.375 Z M 146.8125 188.375 "/>
<path style="fill-rule:nonzero;fill:rgb(78.038025%,76.077271%,70.979309%);fill-opacity:1;stroke-width:2.83465;stroke-linecap:round;stroke-linejoin:miter;stroke:rgb(0%,0%,0%);stroke-opacity:1;stroke-miterlimit:4;" d="M 146.8125 219.714844 C 146.8125 223.265625 143.9375 226.144531 140.386719 226.144531 C 136.835938 226.144531 133.957031 223.265625 133.957031 219.714844 C 133.957031 216.164062 136.835938 213.285156 140.386719 213.285156 C 143.9375 213.285156 146.8125 216.164062 146.8125 219.714844 Z M 146.8125 219.714844 "/>
<path style="fill-rule:nonzero;fill:rgb(78.038025%,76.077271%,70.979309%);fill-opacity:1;stroke-width:2.83465;stroke-linecap:round;stroke-linejoin:miter;stroke:rgb(0%,0%,0%);stroke-opacity:1;stroke-miterlimit:4;" d="M 181.710938 157.035156 C 181.710938 160.585938 178.835938 163.464844 175.285156 163.464844 C 171.734375 163.464844 168.855469 160.585938 168.855469 157.035156 C 168.855469 153.488281 171.734375 150.609375 175.285156 150.609375 C 178.835938 150.609375 181.710938 153.488281 181.710938 157.035156 Z M 181.710938 157.035156 "/>
<path style="fill-rule:nonzero;fill:rgb(78.038025%,76.077271%,70.979309%);fill-opacity:1;stroke-width:2.83465;stroke-linecap:round;stroke-linejoin:miter;stroke:rgb(0%,0%,0%);stroke-opacity:1;stroke-miterlimit:4;" d="M 181.710938 188.375 C 181.710938 190.082031 181.035156 191.714844 179.828125 192.921875 C 178.625 194.128906 176.988281 194.804688 175.285156 194.804688 C 173.578125 194.804688 171.945312 194.128906 170.738281 192.921875 C 169.53125 191.714844 168.855469 190.082031 168.855469 188.375 C 168.855469 184.824219 171.734375 181.949219 175.285156 181.949219 C 178.835938 181.949219 181.710938 184.824219 181.710938 188.375 Z M 181.710938 188.375 "/>
<path style="fill-rule:nonzero;fill:rgb(78.038025%,76.077271%,70.979309%);fill-opacity:1;stroke-width:2.83465;stroke-linecap:round;stroke-linejoin:miter;stroke:rgb(0%,0%,0%);stroke-opacity:1;stroke-miterlimit:4;" d="M 216.609375 188.375 C 216.609375 190.082031 215.933594 191.714844 214.726562 192.921875 C 213.523438 194.128906 211.886719 194.804688 210.183594 194.804688 C 208.476562 194.804688 206.839844 194.128906 205.636719 192.921875 C 204.429688 191.714844 203.753906 190.082031 203.753906 188.375 C 203.753906 184.824219 206.632812 181.949219 210.183594 181.949219 C 213.730469 181.949219 216.609375 184.824219 216.609375 188.375 Z M 216.609375 188.375 "/>
<path style="fill-rule:nonzero;fill:rgb(78.038025%,76.077271%,70.979309%);fill-opacity:1;stroke-width:2.83465;stroke-linecap:round;stroke-linejoin:miter;stroke:rgb(0%,0%,0%);stroke-opacity:1;stroke-miterlimit:4;" d="M 216.609375 219.714844 C 216.609375 223.265625 213.730469 226.144531 210.183594 226.144531 C 206.632812 226.144531 203.753906 223.265625 203.753906 219.714844 C 203.753906 216.164062 206.632812 213.285156 210.183594 213.285156 C 213.730469 213.285156 216.609375 216.164062 216.609375 219.714844 Z M 216.609375 219.714844 "/>
<path style=" stroke:none;fill-rule:nonzero;fill:rgb(78.038025%,76.077271%,70.979309%);fill-opacity:1;" d="M 216.609375 251.054688 C 216.609375 254.605469 213.730469 257.484375 210.183594 257.484375 C 206.632812 257.484375 203.753906 254.605469 203.753906 251.054688 C 203.753906 247.503906 206.632812 244.625 210.183594 244.625 C 213.730469 244.625 216.609375 247.503906 216.609375 251.054688 Z M 216.609375 251.054688 "/>
<g clip-path="url(#clip1)" clip-rule="nonzero">
<path style="fill:none;stroke-width:2.83465;stroke-linecap:round;stroke-linejoin:miter;stroke:rgb(0%,0%,0%);stroke-opacity:1;stroke-miterlimit:4;" d="M 216.609375 251.054688 C 216.609375 254.605469 213.730469 257.484375 210.183594 257.484375 C 206.632812 257.484375 203.753906 254.605469 203.753906 251.054688 C 203.753906 247.503906 206.632812 244.625 210.183594 244.625 C 213.730469 244.625 216.609375 247.503906 216.609375 251.054688 Z M 216.609375 251.054688 "/>
</g>
<path style="fill-rule:nonzero;fill:rgb(78.038025%,76.077271%,70.979309%);fill-opacity:1;stroke-width:2.83465;stroke-linecap:round;stroke-linejoin:miter;stroke:rgb(0%,0%,0%);stroke-opacity:1;stroke-miterlimit:4;" d="M 251.507812 188.375 C 251.507812 190.082031 250.832031 191.714844 249.625 192.921875 C 248.417969 194.128906 246.785156 194.804688 245.078125 194.804688 C 243.375 194.804688 241.738281 194.128906 240.535156 192.921875 C 239.328125 191.714844 238.652344 190.082031 238.652344 188.375 C 238.652344 184.824219 241.527344 181.949219 245.078125 181.949219 C 248.628906 181.949219 251.507812 184.824219 251.507812 188.375 Z M 251.507812 188.375 "/>
<path style="fill-rule:nonzero;fill:rgb(78.038025%,76.077271%,70.979309%);fill-opacity:1;stroke-width:2.83465;stroke-linecap:round;stroke-linejoin:miter;stroke:rgb(0%,0%,0%);stroke-opacity:1;stroke-miterlimit:4;" d="M 251.507812 219.714844 C 251.507812 223.265625 248.628906 226.144531 245.078125 226.144531 C 241.527344 226.144531 238.652344 223.265625 238.652344 219.714844 C 238.652344 216.164062 241.527344 213.285156 245.078125 213.285156 C 248.628906 213.285156 251.507812 216.164062 251.507812 219.714844 Z M 251.507812 219.714844 "/>
<path style=" stroke:none;fill-rule:nonzero;fill:rgb(78.038025%,76.077271%,70.979309%);fill-opacity:1;" d="M 251.507812 251.054688 C 251.507812 254.605469 248.628906 257.484375 245.078125 257.484375 C 241.527344 257.484375 238.652344 254.605469 238.652344 251.054688 C 238.652344 247.503906 241.527344 244.625 245.078125 244.625 C 248.628906 244.625 251.507812 247.503906 251.507812 251.054688 Z M 251.507812 251.054688 "/>
<g clip-path="url(#clip2)" clip-rule="nonzero">
<path style="fill:none;stroke-width:2.83465;stroke-linecap:round;stroke-linejoin:miter;stroke:rgb(0%,0%,0%);stroke-opacity:1;stroke-miterlimit:4;" d="M 251.507812 251.054688 C 251.507812 254.605469 248.628906 257.484375 245.078125 257.484375 C 241.527344 257.484375 238.652344 254.605469 238.652344 251.054688 C 238.652344 247.503906 241.527344 244.625 245.078125 244.625 C 248.628906 244.625 251.507812 247.503906 251.507812 251.054688 Z M 251.507812 251.054688 "/>
</g>
<path style="fill-rule:nonzero;fill:rgb(78.038025%,76.077271%,70.979309%);fill-opacity:1;stroke-width:2.83465;stroke-linecap:round;stroke-linejoin:miter;stroke:rgb(0%,0%,0%);stroke-opacity:1;stroke-miterlimit:4;" d="M 286.40625 188.375 C 286.40625 190.082031 285.730469 191.714844 284.523438 192.921875 C 283.316406 194.128906 281.683594 194.804688 279.976562 194.804688 C 278.273438 194.804688 276.636719 194.128906 275.433594 192.921875 C 274.226562 191.714844 273.550781 190.082031 273.550781 188.375 C 273.550781 186.671875 274.226562 185.035156 275.433594 183.832031 C 276.636719 182.625 278.273438 181.949219 279.976562 181.949219 C 281.683594 181.949219 283.316406 182.625 284.523438 183.832031 C 285.730469 185.035156 286.40625 186.671875 286.40625 188.375 Z M 286.40625 188.375 "/>
<path style="fill-rule:nonzero;fill:rgb(78.038025%,76.077271%,70.979309%);fill-opacity:1;stroke-width:2.83465;stroke-linecap:round;stroke-linejoin:miter;stroke:rgb(0%,0%,0%);stroke-opacity:1;stroke-miterlimit:4;" d="M 286.40625 219.714844 C 286.40625 221.421875 285.730469 223.054688 284.523438 224.261719 C 283.316406 225.464844 281.683594 226.144531 279.976562 226.144531 C 278.273438 226.144531 276.636719 225.464844 275.433594 224.261719 C 274.226562 223.054688 273.550781 221.421875 273.550781 219.714844 C 273.550781 218.011719 274.226562 216.375 275.433594 215.167969 C 276.636719 213.964844 278.273438 213.285156 279.976562 213.285156 C 281.683594 213.285156 283.316406 213.964844 284.523438 215.167969 C 285.730469 216.375 286.40625 218.011719 286.40625 219.714844 Z M 286.40625 219.714844 "/>
<path style="fill-rule:nonzero;fill:rgb(78.038025%,76.077271%,70.979309%);fill-opacity:1;stroke-width:2.83465;stroke-linecap:round;stroke-linejoin:miter;stroke:rgb(0%,0%,0%);stroke-opacity:1;stroke-miterlimit:4;" d="M 321.4375 157.035156 C 321.4375 158.742188 320.761719 160.375 319.554688 161.582031 C 318.347656 162.789062 316.714844 163.464844 315.007812 163.464844 C 313.304688 163.464844 311.667969 162.789062 310.464844 161.582031 C 309.257812 160.375 308.582031 158.742188 308.582031 157.035156 C 308.582031 155.332031 309.257812 153.695312 310.464844 152.492188 C 311.667969 151.285156 313.304688 150.609375 315.007812 150.609375 C 316.714844 150.609375 318.347656 151.285156 319.554688 152.492188 C 320.761719 153.695312 321.4375 155.332031 321.4375 157.035156 Z M 321.4375 157.035156 "/>
<path style="fill-rule:nonzero;fill:rgb(78.038025%,76.077271%,70.979309%);fill-opacity:1;stroke-width:2.83465;stroke-linecap:round;stroke-linejoin:miter;stroke:rgb(0%,0%,0%);stroke-opacity:1;stroke-miterlimit:4;" d="M 321.4375 188.375 C 321.4375 190.082031 320.761719 191.714844 319.554688 192.921875 C 318.347656 194.128906 316.714844 194.804688 315.007812 194.804688 C 313.304688 194.804688 311.667969 194.128906 310.464844 192.921875 C 309.257812 191.714844 308.582031 190.082031 308.582031 188.375 C 308.582031 186.671875 309.257812 185.035156 310.464844 183.832031 C 311.667969 182.625 313.304688 181.949219 315.007812 181.949219 C 316.714844 181.949219 318.347656 182.625 319.554688 183.832031 C 320.761719 185.035156 321.4375 186.671875 321.4375 188.375 Z M 321.4375 188.375 "/>
<path style="fill-rule:nonzero;fill:rgb(78.038025%,76.077271%,70.979309%);fill-opacity:1;stroke-width:2.83465;stroke-linecap:round;stroke-linejoin:miter;stroke:rgb(0%,0%,0%);stroke-opacity:1;stroke-miterlimit:4;" d="M 321.4375 219.714844 C 321.4375 221.421875 320.761719 223.054688 319.554688 224.261719 C 318.347656 225.464844 316.714844 226.144531 315.007812 226.144531 C 313.304688 226.144531 311.667969 225.464844 310.464844 224.261719 C 309.257812 223.054688 308.582031 221.421875 308.582031 219.714844 C 308.582031 218.011719 309.257812 216.375 310.464844 215.167969 C 311.667969 213.964844 313.304688 213.285156 315.007812 213.285156 C 316.714844 213.285156 318.347656 213.964844 319.554688 215.167969 C 320.761719 216.375 321.4375 218.011719 321.4375 219.714844 Z M 321.4375 219.714844 "/>
<path style="fill-rule:nonzero;fill:rgb(78.038025%,76.077271%,70.979309%);fill-opacity:1;stroke-width:2.83465;stroke-linecap:round;stroke-linejoin:miter;stroke:rgb(0%,0%,0%);stroke-opacity:1;stroke-miterlimit:4;" d="M 356.335938 188.382812 C 356.335938 190.089844 355.660156 191.722656 354.453125 192.929688 C 353.246094 194.136719 351.613281 194.8125 349.90625 194.8125 C 346.355469 194.8125 343.480469 191.933594 343.480469 188.382812 C 343.480469 184.832031 346.355469 181.957031 349.90625 181.957031 C 351.613281 181.957031 353.246094 182.632812 354.453125 183.839844 C 355.660156 185.042969 356.335938 186.679688 356.335938 188.382812 Z M 356.335938 188.382812 "/>
<path style="fill-rule:nonzero;fill:rgb(78.038025%,76.077271%,70.979309%);fill-opacity:1;stroke-width:2.83465;stroke-linecap:round;stroke-linejoin:miter;stroke:rgb(0%,0%,0%);stroke-opacity:1;stroke-miterlimit:4;" d="M 356.335938 219.714844 C 356.335938 221.421875 355.660156 223.054688 354.453125 224.261719 C 353.246094 225.464844 351.613281 226.144531 349.90625 226.144531 C 346.355469 226.144531 343.480469 223.265625 343.480469 219.714844 C 343.480469 216.164062 346.355469 213.285156 349.90625 213.285156 C 351.613281 213.285156 353.246094 213.964844 354.453125 215.167969 C 355.660156 216.375 356.335938 218.011719 356.335938 219.714844 Z M 356.335938 219.714844 "/>
<path style="fill-rule:nonzero;fill:rgb(78.038025%,76.077271%,70.979309%);fill-opacity:1;stroke-width:2.83465;stroke-linecap:round;stroke-linejoin:miter;stroke:rgb(0%,0%,0%);stroke-opacity:1;stroke-miterlimit:4;" d="M 391.234375 219.714844 C 391.234375 221.421875 390.558594 223.054688 389.351562 224.261719 C 388.144531 225.464844 386.511719 226.144531 384.804688 226.144531 C 381.253906 226.144531 378.375 223.265625 378.375 219.714844 C 378.375 216.164062 381.253906 213.285156 384.804688 213.285156 C 386.511719 213.285156 388.144531 213.964844 389.351562 215.167969 C 390.558594 216.375 391.234375 218.011719 391.234375 219.714844 Z M 391.234375 219.714844 "/>
<path style="fill:none;stroke-width:0.751181;stroke-linecap:butt;stroke-linejoin:miter;stroke:rgb(0%,0%,0%);stroke-opacity:1;stroke-miterlimit:4;" d="M 42.121094 157.035156 L 62.820312 157.035156 "/>
<path style="fill-rule:evenodd;fill:rgb(0%,0%,0%);fill-opacity:1;stroke-width:0.40063;stroke-linecap:butt;stroke-linejoin:miter;stroke:rgb(0%,0%,0%);stroke-opacity:1;stroke-miterlimit:4;" d="M 59.816406 157.035156 L 58.316406 158.539062 L 63.574219 157.035156 L 58.316406 155.535156 Z M 59.816406 157.035156 "/>
<path style="fill:none;stroke-width:0.751181;stroke-linecap:butt;stroke-linejoin:miter;stroke:rgb(0%,0%,0%);stroke-opacity:1;stroke-miterlimit:4;" d="M 77.019531 157.035156 L 98.714844 157.027344 "/>
<path style="fill-rule:evenodd;fill:rgb(0%,0%,0%);fill-opacity:1;stroke-width:0.40063;stroke-linecap:butt;stroke-linejoin:miter;stroke:rgb(0%,0%,0%);stroke-opacity:1;stroke-miterlimit:4;" d="M 95.710938 157.027344 L 94.207031 158.53125 L 99.464844 157.027344 L 94.207031 155.527344 Z M 95.710938 157.027344 "/>
<path style="fill:none;stroke-width:0.751181;stroke-linecap:butt;stroke-linejoin:miter;stroke:rgb(0%,0%,0%);stroke-opacity:1;stroke-miterlimit:4;" d="M 111.917969 157.035156 L 133.253906 157.070312 "/>
<path style="fill-rule:evenodd;fill:rgb(0%,0%,0%);fill-opacity:1;stroke-width:0.40063;stroke-linecap:butt;stroke-linejoin:miter;stroke:rgb(0%,0%,0%);stroke-opacity:1;stroke-miterlimit:4;" d="M 130.25 157.066406 L 128.746094 158.566406 L 134.007812 157.074219 L 128.75 155.5625 Z M 130.25 157.066406 "/>
<path style="fill:none;stroke-width:0.751181;stroke-linecap:butt;stroke-linejoin:miter;stroke:rgb(0%,0%,0%);stroke-opacity:1;stroke-miterlimit:4;" d="M 110.042969 161.324219 L 134.542969 183.835938 "/>
<path style="fill-rule:evenodd;fill:rgb(0%,0%,0%);fill-opacity:1;stroke-width:0.400629;stroke-linecap:butt;stroke-linejoin:miter;stroke:rgb(0%,0%,0%);stroke-opacity:1;stroke-miterlimit:4;" d="M 132.332031 181.804688 L 130.210938 181.894531 L 135.097656 184.34375 L 132.242188 179.679688 Z M 132.332031 181.804688 "/>
<path style="fill:none;stroke-width:0.751181;stroke-linecap:butt;stroke-linejoin:miter;stroke:rgb(0%,0%,0%);stroke-opacity:1;stroke-miterlimit:4;" d="M 40.3125 193.035156 L 64.902344 215.09375 "/>
<path style="fill-rule:evenodd;fill:rgb(0%,0%,0%);fill-opacity:1;stroke-width:0.40063;stroke-linecap:butt;stroke-linejoin:miter;stroke:rgb(0%,0%,0%);stroke-opacity:1;stroke-miterlimit:4;" d="M 62.664062 213.089844 L 60.542969 213.203125 L 65.460938 215.597656 L 62.550781 210.964844 Z M 62.664062 213.089844 "/>
<path style="fill:none;stroke-width:0.751181;stroke-linecap:butt;stroke-linejoin:miter;stroke:rgb(0%,0%,0%);stroke-opacity:1;stroke-miterlimit:4;" d="M 146.8125 157.035156 L 167.515625 157.035156 "/>
<path style="fill-rule:evenodd;fill:rgb(0%,0%,0%);fill-opacity:1;stroke-width:0.40063;stroke-linecap:butt;stroke-linejoin:miter;stroke:rgb(0%,0%,0%);stroke-opacity:1;stroke-miterlimit:4;" d="M 164.511719 157.035156 L 163.007812 158.539062 L 168.265625 157.035156 L 163.007812 155.535156 Z M 164.511719 157.035156 "/>
<path style="fill:none;stroke-width:0.751181;stroke-linecap:butt;stroke-linejoin:miter;stroke:rgb(0%,0%,0%);stroke-opacity:1;stroke-miterlimit:4;" d="M 146.8125 188.375 L 167.515625 188.375 "/>
<path style="fill-rule:evenodd;fill:rgb(0%,0%,0%);fill-opacity:1;stroke-width:0.40063;stroke-linecap:butt;stroke-linejoin:miter;stroke:rgb(0%,0%,0%);stroke-opacity:1;stroke-miterlimit:4;" d="M 164.511719 188.375 L 163.007812 189.878906 L 168.265625 188.375 L 163.007812 186.875 Z M 164.511719 188.375 "/>
<path style="fill:none;stroke-width:0.751181;stroke-linecap:butt;stroke-linejoin:miter;stroke:rgb(0%,0%,0%);stroke-opacity:1;stroke-miterlimit:4;" d="M 181.710938 188.375 L 202.414062 188.375 "/>
<path style="fill-rule:evenodd;fill:rgb(0%,0%,0%);fill-opacity:1;stroke-width:0.40063;stroke-linecap:butt;stroke-linejoin:miter;stroke:rgb(0%,0%,0%);stroke-opacity:1;stroke-miterlimit:4;" d="M 199.410156 188.375 L 197.90625 189.878906 L 203.164062 188.375 L 197.90625 186.875 Z M 199.410156 188.375 "/>
<path style="fill:none;stroke-width:0.751181;stroke-linecap:butt;stroke-linejoin:miter;stroke:rgb(0%,0%,0%);stroke-opacity:1;stroke-miterlimit:4;" d="M 179.167969 192.929688 L 203.5625 215.390625 "/>
<path style="fill-rule:evenodd;fill:rgb(0%,0%,0%);fill-opacity:1;stroke-width:0.400629;stroke-linecap:butt;stroke-linejoin:miter;stroke:rgb(0%,0%,0%);stroke-opacity:1;stroke-miterlimit:4;" d="M 201.351562 213.355469 L 199.230469 213.445312 L 204.113281 215.898438 L 201.265625 211.234375 Z M 201.351562 213.355469 "/>
<path style="fill:none;stroke-width:0.751181;stroke-linecap:butt;stroke-linejoin:miter;stroke:rgb(0%,0%,0%);stroke-opacity:1;stroke-miterlimit:4;" d="M 76.71875 220.988281 C 76.71875 220.988281 102.539062 230.429688 115.984375 232.875 C 129.433594 235.320312 190.96875 229.621094 204.558594 232.648438 C 218.144531 235.675781 236.4375 247.867188 236.4375 247.867188 "/>
<path style="fill-rule:evenodd;fill:rgb(0%,0%,0%);fill-opacity:1;stroke-width:0.40063;stroke-linecap:butt;stroke-linejoin:miter;stroke:rgb(0%,0%,0%);stroke-opacity:1;stroke-miterlimit:4;" d="M 234.980469 247.003906 L 232.949219 247.625 L 238.296875 248.765625 L 234.359375 244.972656 Z M 234.980469 247.003906 "/>
<path style="fill:none;stroke-width:0.751181;stroke-linecap:butt;stroke-linejoin:miter;stroke:rgb(0%,0%,0%);stroke-opacity:1;stroke-miterlimit:4;" d="M 216.609375 188.375 L 237.3125 188.375 "/>
<path style="fill-rule:evenodd;fill:rgb(0%,0%,0%);fill-opacity:1;stroke-width:0.40063;stroke-linecap:butt;stroke-linejoin:miter;stroke:rgb(0%,0%,0%);stroke-opacity:1;stroke-miterlimit:4;" d="M 234.308594 188.375 L 232.804688 189.878906 L 238.0625 188.375 L 232.804688 186.875 Z M 234.308594 188.375 "/>
<path style="fill:none;stroke-width:0.751181;stroke-linecap:butt;stroke-linejoin:miter;stroke:rgb(46.665955%,0%,86.665344%);stroke-opacity:1;stroke-miterlimit:4;" d="M 180.054688 153.058594 C 180.054688 153.058594 197.128906 137.167969 245.863281 138.441406 C 294.597656 139.714844 309.980469 152.679688 309.980469 152.679688 "/>
<path style="fill-rule:evenodd;fill:rgb(46.665955%,0%,86.665344%);fill-opacity:1;stroke-width:0.40063;stroke-linecap:butt;stroke-linejoin:miter;stroke:rgb(46.665955%,0%,86.665344%);stroke-opacity:1;stroke-miterlimit:4;" d="M 307.683594 150.742188 L 305.566406 150.925781 L 310.554688 153.164062 L 307.5 148.628906 Z M 307.683594 150.742188 "/>
<path style="fill:none;stroke-width:0.751181;stroke-linecap:butt;stroke-linejoin:miter;stroke:rgb(0%,0%,0%);stroke-opacity:1;stroke-miterlimit:4;" d="M 214.648438 223.699219 L 239.617188 245.707031 "/>
<path style="fill-rule:evenodd;fill:rgb(0%,0%,0%);fill-opacity:1;stroke-width:0.400629;stroke-linecap:butt;stroke-linejoin:miter;stroke:rgb(0%,0%,0%);stroke-opacity:1;stroke-miterlimit:4;" d="M 237.363281 243.71875 L 235.242188 243.851562 L 240.179688 246.203125 L 237.226562 241.597656 Z M 237.363281 243.71875 "/>
<path style="fill:none;stroke-width:0.751181;stroke-linecap:butt;stroke-linejoin:miter;stroke:rgb(0%,0%,0%);stroke-opacity:1;stroke-miterlimit:4;" d="M 217.332031 219.507812 L 238.03125 219.507812 "/>
<path style="fill-rule:evenodd;fill:rgb(0%,0%,0%);fill-opacity:1;stroke-width:0.40063;stroke-linecap:butt;stroke-linejoin:miter;stroke:rgb(0%,0%,0%);stroke-opacity:1;stroke-miterlimit:4;" d="M 235.027344 219.507812 L 233.523438 221.007812 L 238.78125 219.507812 L 233.523438 218.003906 Z M 235.027344 219.507812 "/>
<path style="fill:none;stroke-width:0.751181;stroke-linecap:butt;stroke-linejoin:miter;stroke:rgb(0%,0%,0%);stroke-opacity:1;stroke-miterlimit:4;" d="M 251.507812 219.714844 L 272.210938 219.714844 "/>
<path style="fill-rule:evenodd;fill:rgb(0%,0%,0%);fill-opacity:1;stroke-width:0.40063;stroke-linecap:butt;stroke-linejoin:miter;stroke:rgb(0%,0%,0%);stroke-opacity:1;stroke-miterlimit:4;" d="M 269.203125 219.714844 L 267.703125 221.21875 L 272.960938 219.714844 L 267.703125 218.214844 Z M 269.203125 219.714844 "/>
<path style="fill:none;stroke-width:0.751181;stroke-linecap:butt;stroke-linejoin:miter;stroke:rgb(0%,0%,0%);stroke-opacity:1;stroke-miterlimit:4;" d="M 249.140625 193.210938 L 275.15625 214.890625 "/>
<path style="fill-rule:evenodd;fill:rgb(0%,0%,0%);fill-opacity:1;stroke-width:0.40063;stroke-linecap:butt;stroke-linejoin:miter;stroke:rgb(0%,0%,0%);stroke-opacity:1;stroke-miterlimit:4;" d="M 272.847656 212.964844 L 270.730469 213.160156 L 275.730469 215.371094 L 272.65625 210.851562 Z M 272.847656 212.964844 "/>
<path style="fill:none;stroke-width:0.751181;stroke-linecap:butt;stroke-linejoin:miter;stroke:rgb(0%,0%,0%);stroke-opacity:1;stroke-miterlimit:4;" d="M 251.507812 188.375 L 272.210938 188.375 "/>
<path style="fill-rule:evenodd;fill:rgb(0%,0%,0%);fill-opacity:1;stroke-width:0.40063;stroke-linecap:butt;stroke-linejoin:miter;stroke:rgb(0%,0%,0%);stroke-opacity:1;stroke-miterlimit:4;" d="M 269.203125 188.375 L 267.703125 189.878906 L 272.960938 188.375 L 267.703125 186.875 Z M 269.203125 188.375 "/>
<path style="fill:none;stroke-width:0.751181;stroke-linecap:butt;stroke-linejoin:miter;stroke:rgb(0%,0%,0%);stroke-opacity:1;stroke-miterlimit:4;" d="M 75.007812 160.785156 L 99.460938 183.957031 "/>
<path style="fill-rule:evenodd;fill:rgb(0%,0%,0%);fill-opacity:1;stroke-width:0.400631;stroke-linecap:butt;stroke-linejoin:miter;stroke:rgb(0%,0%,0%);stroke-opacity:1;stroke-miterlimit:4;" d="M 97.28125 181.890625 L 95.15625 181.945312 L 100.007812 184.472656 L 97.222656 179.765625 Z M 97.28125 181.890625 "/>
<path style="fill:none;stroke-width:0.751181;stroke-linecap:butt;stroke-linejoin:miter;stroke:rgb(0%,0%,0%);stroke-opacity:1;stroke-miterlimit:4;" d="M 75.480469 215.488281 L 99.980469 193.664062 "/>
<path style="fill-rule:evenodd;fill:rgb(0%,0%,0%);fill-opacity:1;stroke-width:0.40063;stroke-linecap:butt;stroke-linejoin:miter;stroke:rgb(0%,0%,0%);stroke-opacity:1;stroke-miterlimit:4;" d="M 97.734375 195.660156 L 97.613281 197.78125 L 100.539062 193.164062 L 95.613281 195.539062 Z M 97.734375 195.660156 "/>
<path style="fill:none;stroke-width:0.751181;stroke-linecap:butt;stroke-linejoin:miter;stroke:rgb(0%,0%,0%);stroke-opacity:1;stroke-miterlimit:4;" d="M 249.148438 183.898438 C 249.148438 183.898438 261.734375 171.585938 281.472656 171.777344 C 301.210938 171.964844 309.785156 183.285156 309.785156 183.285156 "/>
<path style="fill-rule:evenodd;fill:rgb(0%,0%,0%);fill-opacity:1;stroke-width:0.40063;stroke-linecap:butt;stroke-linejoin:miter;stroke:rgb(0%,0%,0%);stroke-opacity:1;stroke-miterlimit:4;" d="M 307.972656 180.890625 L 305.867188 180.601562 L 310.238281 183.886719 L 308.261719 178.785156 Z M 307.972656 180.890625 "/>
<path style="fill:none;stroke-width:0.751181;stroke-linecap:butt;stroke-linejoin:miter;stroke:rgb(0%,0%,0%);stroke-opacity:1;stroke-miterlimit:4;" d="M 286.40625 188.375 L 309.695312 214.601562 "/>
<path style="fill-rule:evenodd;fill:rgb(0%,0%,0%);fill-opacity:1;stroke-width:0.40063;stroke-linecap:butt;stroke-linejoin:miter;stroke:rgb(0%,0%,0%);stroke-opacity:1;stroke-miterlimit:4;" d="M 307.699219 212.355469 L 305.578125 212.230469 L 310.195312 215.164062 L 307.824219 210.234375 Z M 307.699219 212.355469 "/>
<path style="fill:none;stroke-width:0.751181;stroke-linecap:butt;stroke-linejoin:miter;stroke:rgb(0%,0%,0%);stroke-opacity:1;stroke-miterlimit:4;" d="M 321.4375 219.714844 L 342.140625 219.714844 "/>
<path style="fill-rule:evenodd;fill:rgb(0%,0%,0%);fill-opacity:1;stroke-width:0.40063;stroke-linecap:butt;stroke-linejoin:miter;stroke:rgb(0%,0%,0%);stroke-opacity:1;stroke-miterlimit:4;" d="M 339.136719 219.714844 L 337.632812 221.21875 L 342.890625 219.714844 L 337.632812 218.214844 Z M 339.136719 219.714844 "/>
<path style="fill:none;stroke-width:0.751181;stroke-linecap:butt;stroke-linejoin:miter;stroke:rgb(0%,0%,0%);stroke-opacity:1;stroke-miterlimit:4;" d="M 356.335938 219.714844 L 377.039062 219.714844 "/>
<path style="fill-rule:evenodd;fill:rgb(0%,0%,0%);fill-opacity:1;stroke-width:0.40063;stroke-linecap:butt;stroke-linejoin:miter;stroke:rgb(0%,0%,0%);stroke-opacity:1;stroke-miterlimit:4;" d="M 374.03125 219.714844 L 372.53125 221.21875 L 377.789062 219.714844 L 372.53125 218.214844 Z M 374.03125 219.714844 "/>
<path style="fill:none;stroke-width:0.751181;stroke-linecap:butt;stroke-linejoin:miter;stroke:rgb(0%,0%,0%);stroke-opacity:1;stroke-miterlimit:4;" d="M 321.4375 188.375 L 343.144531 188.433594 "/>
<path style="fill-rule:evenodd;fill:rgb(0%,0%,0%);fill-opacity:1;stroke-width:0.400629;stroke-linecap:butt;stroke-linejoin:miter;stroke:rgb(0%,0%,0%);stroke-opacity:1;stroke-miterlimit:4;" d="M 340.136719 188.425781 L 338.632812 189.925781 L 343.894531 188.4375 L 338.640625 186.917969 Z M 340.136719 188.425781 "/>
<path style="fill:none;stroke-width:0.751181;stroke-linecap:butt;stroke-linejoin:miter;stroke:rgb(46.665955%,0%,86.665344%);stroke-opacity:1;stroke-miterlimit:4;" d="M 250.8125 251.054688 L 411.933594 251.054688 "/>
<path style="fill-rule:evenodd;fill:rgb(46.665955%,0%,86.665344%);fill-opacity:1;stroke-width:0.40063;stroke-linecap:butt;stroke-linejoin:miter;stroke:rgb(46.665955%,0%,86.665344%);stroke-opacity:1;stroke-miterlimit:4;" d="M 408.929688 251.054688 L 407.429688 252.558594 L 412.6875 251.054688 L 407.429688 249.550781 Z M 408.929688 251.054688 "/>
<path style="fill:none;stroke-width:0.751181;stroke-linecap:butt;stroke-linejoin:miter;stroke:rgb(0%,0%,0%);stroke-opacity:1;stroke-miterlimit:4;" d="M 391.234375 219.714844 L 411.933594 219.714844 "/>
<path style="fill-rule:evenodd;fill:rgb(0%,0%,0%);fill-opacity:1;stroke-width:0.40063;stroke-linecap:butt;stroke-linejoin:miter;stroke:rgb(0%,0%,0%);stroke-opacity:1;stroke-miterlimit:4;" d="M 408.929688 219.714844 L 407.429688 221.21875 L 412.6875 219.714844 L 407.429688 218.214844 Z M 408.929688 219.714844 "/>
<path style="fill:none;stroke-width:0.751181;stroke-linecap:butt;stroke-linejoin:miter;stroke:rgb(46.665955%,0%,86.665344%);stroke-opacity:1;stroke-miterlimit:4;" d="M 356.335938 188.382812 L 409.65625 188.382812 "/>
<path style="fill-rule:evenodd;fill:rgb(46.665955%,0%,86.665344%);fill-opacity:1;stroke-width:0.40063;stroke-linecap:butt;stroke-linejoin:miter;stroke:rgb(46.665955%,0%,86.665344%);stroke-opacity:1;stroke-miterlimit:4;" d="M 409.78125 188.382812 L 408.28125 189.886719 L 413.539062 188.382812 L 408.28125 186.882812 Z M 409.78125 188.382812 "/>
<path style="fill:none;stroke-width:0.751181;stroke-linecap:butt;stroke-linejoin:miter;stroke:rgb(0%,0%,0%);stroke-opacity:1;stroke-miterlimit:4;" d="M 321.4375 157.035156 L 342.140625 157.035156 "/>
<path style="fill-rule:evenodd;fill:rgb(0%,0%,0%);fill-opacity:1;stroke-width:0.40063;stroke-linecap:butt;stroke-linejoin:miter;stroke:rgb(0%,0%,0%);stroke-opacity:1;stroke-miterlimit:4;" d="M 339.136719 157.035156 L 337.632812 158.539062 L 342.890625 157.035156 L 337.632812 155.535156 Z M 339.136719 157.035156 "/>
<path style="fill:none;stroke-width:0.751181;stroke-linecap:butt;stroke-linejoin:miter;stroke:rgb(0%,0%,0%);stroke-opacity:1;stroke-miterlimit:4;" d="M 215.742188 247.386719 L 240.855469 224.929688 "/>
<path style="fill-rule:evenodd;fill:rgb(0%,0%,0%);fill-opacity:1;stroke-width:0.40063;stroke-linecap:butt;stroke-linejoin:miter;stroke:rgb(0%,0%,0%);stroke-opacity:1;stroke-miterlimit:4;" d="M 238.617188 226.933594 L 238.5 229.054688 L 241.417969 224.429688 L 236.496094 226.816406 Z M 238.617188 226.933594 "/>
<path style="fill-rule:nonzero;fill:rgb(0%,0%,50.195312%);fill-opacity:1;stroke-width:0.749999;stroke-linecap:butt;stroke-linejoin:miter;stroke:rgb(46.665955%,0%,86.665344%);stroke-opacity:1;stroke-miterlimit:3.6;" d="M 109.839844 192.59375 L 134.730469 215.027344 "/>
<path style="fill-rule:evenodd;fill:rgb(46.665955%,0%,86.665344%);fill-opacity:1;stroke-width:0.399999;stroke-linecap:butt;stroke-linejoin:miter;stroke:rgb(46.665955%,0%,86.665344%);stroke-opacity:1;stroke-miterlimit:4;" d="M 132.503906 213.019531 L 130.386719 213.128906 L 135.289062 215.53125 L 132.394531 210.902344 Z M 132.503906 213.019531 "/>
<path style="fill:none;stroke-width:0.751181;stroke-linecap:butt;stroke-linejoin:miter;stroke:rgb(0%,0%,0%);stroke-opacity:1;stroke-miterlimit:4;" d="M 143.769531 214.671875 L 171.113281 162.339844 "/>
<path style="fill-rule:evenodd;fill:rgb(0%,0%,0%);fill-opacity:1;stroke-width:0.40063;stroke-linecap:butt;stroke-linejoin:miter;stroke:rgb(0%,0%,0%);stroke-opacity:1;stroke-miterlimit:4;" d="M 169.722656 165.003906 L 170.359375 167.03125 L 171.460938 161.675781 L 167.695312 165.640625 Z M 169.722656 165.003906 "/>
<path style="fill:none;stroke-width:0.751181;stroke-linecap:butt;stroke-linejoin:miter;stroke:rgb(0%,0%,0%);stroke-opacity:1;stroke-miterlimit:4;" d="M 145.78125 215.808594 L 170.125 193.285156 "/>
<path style="fill-rule:evenodd;fill:rgb(0%,0%,0%);fill-opacity:1;stroke-width:0.40063;stroke-linecap:butt;stroke-linejoin:miter;stroke:rgb(0%,0%,0%);stroke-opacity:1;stroke-miterlimit:4;" d="M 167.917969 195.324219 L 167.835938 197.449219 L 170.675781 192.773438 L 165.796875 195.242188 Z M 167.917969 195.324219 "/>
<path style="fill-rule:nonzero;fill:rgb(0%,94.900513%,91.763306%);fill-opacity:1;stroke-width:1.58651;stroke-linecap:round;stroke-linejoin:round;stroke:rgb(0%,41.175842%,38.430786%);stroke-opacity:1;stroke-miterlimit:4;" d="M 20.40519 39.175729 L 28.464769 39.172647 L 28.463174 47.234637 L 20.404728 47.234175 Z M 20.40519 39.175729 " transform="matrix(1,-0.319501,0.319501,1,0,0)"/>
<path style="fill-rule:nonzero;fill:rgb(0%,94.900513%,91.763306%);fill-opacity:1;stroke-width:1.61744;stroke-linecap:round;stroke-linejoin:round;stroke:rgb(0%,41.175842%,38.430786%);stroke-opacity:1;stroke-miterlimit:4;" d="M 68.949849 64.674077 L 77.168338 64.674893 L 77.168655 72.889838 L 68.949033 72.892566 Z M 68.949849 64.674077 " transform="matrix(1,-0.319501,0.319501,1,0,0)"/>
<path style="fill-rule:nonzero;fill:rgb(0%,94.900513%,91.763306%);fill-opacity:1;stroke-width:1.58404;stroke-linecap:round;stroke-linejoin:round;stroke:rgb(0%,41.175842%,38.430786%);stroke-opacity:1;stroke-miterlimit:4;" d="M -3.901359 90.335543 L 4.145321 90.336153 L 4.144711 98.382833 L -3.903101 98.385768 Z M -3.901359 90.335543 " transform="matrix(1,-0.319501,0.319501,1,0,0)"/>
<path style="fill-rule:nonzero;fill:rgb(0%,94.900513%,91.763306%);fill-opacity:1;stroke-width:1.58995;stroke-linecap:round;stroke-linejoin:round;stroke:rgb(0%,41.175842%,38.430786%);stroke-opacity:1;stroke-miterlimit:4;" d="M 44.707688 115.901338 L 52.786121 115.900375 L 52.787085 123.978808 L 44.708652 123.979771 Z M 44.707688 115.901338 " transform="matrix(1,-0.319501,0.319501,1,0,0)"/>
<path style="fill-rule:nonzero;fill:rgb(0%,94.900513%,91.763306%);fill-opacity:1;stroke-width:0.830374;stroke-linecap:round;stroke-linejoin:round;stroke:rgb(0%,41.175842%,38.430786%);stroke-opacity:1;stroke-dasharray:0.830374,0.830374;stroke-miterlimit:4;" d="M 69.691406 40.292969 C 69.691406 41.75 68.507812 42.933594 67.050781 42.933594 C 65.59375 42.933594 64.414062 41.75 64.414062 40.292969 C 64.414062 38.835938 65.59375 37.65625 67.050781 37.65625 C 68.507812 37.65625 69.691406 38.835938 69.691406 40.292969 Z M 69.691406 40.292969 "/>
<path style="fill-rule:nonzero;fill:rgb(0%,94.900513%,91.763306%);fill-opacity:1;stroke-width:0.830374;stroke-linecap:round;stroke-linejoin:round;stroke:rgb(0%,41.175842%,38.430786%);stroke-opacity:1;stroke-dasharray:0.830374,0.830374;stroke-miterlimit:4;" d="M 93.703125 75.820312 C 93.703125 77.277344 92.519531 78.457031 91.0625 78.457031 C 89.609375 78.457031 88.425781 77.277344 88.425781 75.820312 C 88.425781 74.363281 89.609375 73.179688 91.0625 73.179688 C 92.519531 73.179688 93.703125 74.363281 93.703125 75.820312 Z M 93.703125 75.820312 "/>
<path style="fill-rule:nonzero;fill:rgb(0%,94.900513%,91.763306%);fill-opacity:1;stroke-width:0.830374;stroke-linecap:round;stroke-linejoin:round;stroke:rgb(0%,41.175842%,38.430786%);stroke-opacity:1;stroke-dasharray:0.830374,0.830374;stroke-miterlimit:4;" d="M 61.371094 99.390625 C 61.371094 100.84375 60.191406 102.027344 58.734375 102.027344 C 57.277344 102.027344 56.097656 100.84375 56.097656 99.390625 C 56.097656 97.933594 57.277344 96.75 58.734375 96.75 C 60.191406 96.75 61.371094 97.933594 61.371094 99.390625 Z M 61.371094 99.390625 "/>
<path style="fill-rule:nonzero;fill:rgb(0%,94.900513%,91.763306%);fill-opacity:1;stroke-width:0.830374;stroke-linecap:round;stroke-linejoin:round;stroke:rgb(0%,41.175842%,38.430786%);stroke-opacity:1;stroke-dasharray:0.830374,0.830374;stroke-miterlimit:4;" d="M 36.976562 63.851562 C 36.976562 65.308594 35.792969 66.488281 34.335938 66.488281 C 32.882812 66.488281 31.699219 65.308594 31.699219 63.851562 C 31.699219 62.394531 32.882812 61.210938 34.335938 61.210938 C 35.792969 61.210938 36.976562 62.394531 36.976562 63.851562 Z M 36.976562 63.851562 "/>
<path style="fill-rule:nonzero;fill:rgb(0%,94.900513%,91.763306%);fill-opacity:1;stroke-width:0.830374;stroke-linecap:round;stroke-linejoin:round;stroke:rgb(0%,41.175842%,38.430786%);stroke-opacity:1;stroke-dasharray:0.830374,0.830374;stroke-miterlimit:4;" d="M 88.96875 52.164062 C 88.96875 53.621094 87.789062 54.800781 86.332031 54.800781 C 84.875 54.800781 83.695312 53.621094 83.695312 52.164062 C 83.695312 50.707031 84.875 49.527344 86.332031 49.527344 C 87.789062 49.527344 88.96875 50.707031 88.96875 52.164062 Z M 88.96875 52.164062 "/>
<path style="fill-rule:nonzero;fill:rgb(0%,94.900513%,91.763306%);fill-opacity:1;stroke-width:0.830374;stroke-linecap:round;stroke-linejoin:round;stroke:rgb(0%,41.175842%,38.430786%);stroke-opacity:1;stroke-dasharray:0.830374,0.830374;stroke-miterlimit:4;" d="M 78.1875 87.597656 C 78.1875 89.054688 77.003906 90.234375 75.550781 90.234375 C 74.09375 90.234375 72.910156 89.054688 72.910156 87.597656 C 72.910156 86.140625 74.09375 84.960938 75.550781 84.960938 C 77.003906 84.960938 78.1875 86.140625 78.1875 87.597656 Z M 78.1875 87.597656 "/>
<path style="fill:none;stroke-width:0.75;stroke-linecap:butt;stroke-linejoin:miter;stroke:rgb(0%,100%,100%);stroke-opacity:1;stroke-dasharray:0.75,1.5;stroke-miterlimit:4;" d="M 70.25 40.269531 L 396.773438 40.269531 "/>
<path style="fill:none;stroke-width:0.75;stroke-linecap:butt;stroke-linejoin:miter;stroke:rgb(0%,100%,100%);stroke-opacity:1;stroke-dasharray:0.75,1.5;stroke-miterlimit:4;" d="M 89.582031 52.121094 L 396.152344 52.121094 "/>
<path style="fill:none;stroke-width:0.75;stroke-linecap:butt;stroke-linejoin:miter;stroke:rgb(0%,100%,100%);stroke-opacity:1;stroke-dasharray:0.75,1.5;stroke-miterlimit:4;" d="M 37.976562 63.972656 L 395.550781 63.972656 "/>
<path style="fill:none;stroke-width:0.75;stroke-linecap:butt;stroke-linejoin:miter;stroke:rgb(0%,100%,100%);stroke-opacity:1;stroke-dasharray:0.75,1.5;stroke-miterlimit:4;" d="M 94.28125 75.824219 L 396.246094 75.824219 "/>
<path style="fill:none;stroke-width:0.75;stroke-linecap:butt;stroke-linejoin:miter;stroke:rgb(0%,100%,100%);stroke-opacity:1;stroke-dasharray:0.75,1.5;stroke-miterlimit:4;" d="M 78.847656 87.679688 L 394.273438 87.679688 "/>
<path style="fill:none;stroke-width:0.75;stroke-linecap:butt;stroke-linejoin:miter;stroke:rgb(0%,100%,100%);stroke-opacity:1;stroke-dasharray:0.75,1.5;stroke-miterlimit:4;" d="M 61.960938 99.53125 L 394.925781 99.53125 "/>
<path style="fill:none;stroke-width:0.75;stroke-linecap:butt;stroke-linejoin:miter;stroke:rgb(0%,0%,0%);stroke-opacity:1;stroke-miterlimit:4;" d="M 320.261719 161.09375 L 342.414062 180.410156 "/>
<path style=" stroke:none;fill-rule:evenodd;fill:rgb(0%,0%,0%);fill-opacity:1;" d="M 342.414062 180.410156 L 339.769531 180.589844 L 345.945312 183.492188 L 342.230469 177.765625 Z M 342.414062 180.410156 "/>
<path style="fill:none;stroke-width:0.75;stroke-linecap:butt;stroke-linejoin:miter;stroke:rgb(50.587463%,50.587463%,50.587463%);stroke-opacity:1;stroke-dasharray:0.75,1.5;stroke-miterlimit:4;" d="M 179.980469 152.957031 L 179.980469 40.128906 "/>
<path style="fill:none;stroke-width:0.75;stroke-linecap:butt;stroke-linejoin:miter;stroke:rgb(50.587463%,50.587463%,50.587463%);stroke-opacity:1;stroke-dasharray:0.75,1.5;stroke-miterlimit:4;" d="M 309.308594 152.308594 L 309.308594 40.367188 "/>
<path style="fill:none;stroke-width:1;stroke-linecap:butt;stroke-linejoin:miter;stroke:rgb(0%,0%,100%);stroke-opacity:1;stroke-miterlimit:4;" d="M 180.082031 40.269531 L 309.320312 40.269531 "/>
<path style="fill:none;stroke-width:0.75;stroke-linecap:butt;stroke-linejoin:miter;stroke:rgb(50.195312%,50.195312%,50.195312%);stroke-opacity:1;stroke-dasharray:0.75,1.5;stroke-miterlimit:4;" d="M 110.1875 192.929688 L 110.1875 64.128906 "/>
<path style="fill:none;stroke-width:0.75;stroke-linecap:butt;stroke-linejoin:miter;stroke:rgb(50.195312%,50.195312%,50.195312%);stroke-opacity:1;stroke-dasharray:0.75,1.5;stroke-miterlimit:4;" d="M 135.042969 215.492188 L 135.042969 64.261719 "/>
<path style="fill:none;stroke-width:1;stroke-linecap:butt;stroke-linejoin:miter;stroke:rgb(0%,0%,100%);stroke-opacity:1;stroke-miterlimit:4;" d="M 110.128906 63.972656 L 135.046875 63.972656 "/>
<path style="fill:none;stroke-width:1;stroke-linecap:butt;stroke-linejoin:miter;stroke:rgb(0%,0%,100%);stroke-opacity:1;stroke-miterlimit:4;" d="M 395.457031 52.125 L 98.546875 52.125 "/>
<path style="fill:none;stroke-width:0.75;stroke-linecap:butt;stroke-linejoin:miter;stroke:rgb(50.195312%,50.195312%,50.195312%);stroke-opacity:1;stroke-dasharray:0.75,1.5;stroke-miterlimit:4;" d="M 357.03125 188.296875 L 357.03125 75.910156 "/>
<path style="fill:none;stroke-width:1;stroke-linecap:butt;stroke-linejoin:miter;stroke:rgb(0%,0%,100%);stroke-opacity:1;stroke-miterlimit:4;" d="M 396.421875 75.824219 L 356.835938 75.824219 "/>
<path style="fill:none;stroke-width:0.660322;stroke-linecap:round;stroke-linejoin:round;stroke:rgb(0%,0%,100%);stroke-opacity:1;stroke-miterlimit:4;" d="M 361.914062 75.851562 C 361.914062 76.792969 361.152344 77.554688 360.210938 77.554688 C 359.269531 77.554688 358.503906 76.792969 358.503906 75.851562 C 358.503906 74.910156 359.269531 74.148438 360.210938 74.148438 C 361.152344 74.148438 361.914062 74.910156 361.914062 75.851562 Z M 361.914062 75.851562 "/>
<path style="fill:none;stroke-width:0.660322;stroke-linecap:round;stroke-linejoin:round;stroke:rgb(0%,0%,100%);stroke-opacity:1;stroke-miterlimit:4;" d="M 388.972656 75.917969 C 388.972656 76.859375 388.207031 77.625 387.265625 77.625 C 386.324219 77.625 385.5625 76.859375 385.5625 75.917969 C 385.5625 74.976562 386.324219 74.214844 387.265625 74.214844 C 388.207031 74.214844 388.972656 74.976562 388.972656 75.917969 Z M 388.972656 75.917969 "/>
<path style="fill:none;stroke-width:0.75;stroke-linecap:butt;stroke-linejoin:miter;stroke:rgb(50.195312%,50.195312%,50.195312%);stroke-opacity:1;stroke-dasharray:0.75,1.5;stroke-miterlimit:4;" d="M 251.660156 250.863281 L 251.660156 99.453125 "/>
<path style="fill:none;stroke-width:1;stroke-linecap:butt;stroke-linejoin:miter;stroke:rgb(0%,0%,100%);stroke-opacity:1;stroke-miterlimit:4;" d="M 251.660156 99.535156 L 394.367188 99.535156 "/>
<path style="fill:none;stroke-width:0.75;stroke-linecap:butt;stroke-linejoin:miter;stroke:rgb(0%,0%,0%);stroke-opacity:1;stroke-miterlimit:4;" d="M 216.207031 251.054688 L 233.773438 251.054688 "/>
<path style=" stroke:none;fill-rule:evenodd;fill:rgb(0%,0%,0%);fill-opacity:1;" d="M 233.773438 251.054688 L 231.898438 252.929688 L 238.460938 251.054688 L 231.898438 249.179688 Z M 233.773438 251.054688 "/>
<path style="fill:none;stroke-width:0.75;stroke-linecap:butt;stroke-linejoin:miter;stroke:rgb(46.665955%,0%,86.665344%);stroke-opacity:1;stroke-miterlimit:4;" d="M 31.019531 251.324219 L 199.851562 251.324219 "/>
<path style=" stroke:none;fill-rule:evenodd;fill:rgb(46.665955%,0%,86.665344%);fill-opacity:1;" d="M 199.851562 251.324219 L 197.976562 253.199219 L 204.539062 251.324219 L 197.976562 249.449219 Z M 199.851562 251.324219 "/>
<path style="fill:none;stroke-width:0.75;stroke-linecap:butt;stroke-linejoin:miter;stroke:rgb(49.803162%,49.803162%,49.803162%);stroke-opacity:1;stroke-dasharray:0.75,1.5;stroke-miterlimit:4;" d="M 203.082031 251.304688 L 203.082031 87.34375 "/>
<path style="fill:none;stroke-width:1;stroke-linecap:butt;stroke-linejoin:miter;stroke:rgb(0%,0%,100%);stroke-opacity:1;stroke-miterlimit:4;" d="M 203.03125 87.675781 L 82.121094 87.675781 "/>
<path style="fill:none;stroke-width:0.75;stroke-linecap:butt;stroke-linejoin:miter;stroke:rgb(1.960754%,0%,100%);stroke-opacity:1;stroke-miterlimit:4;" d="M 112.316406 52.164062 L 115.398438 63.96875 "/>
<path style="fill:none;stroke-width:0.653121;stroke-linecap:butt;stroke-linejoin:miter;stroke:rgb(1.960754%,0%,100%);stroke-opacity:1;stroke-miterlimit:4;" d="M 77.915077 -92.406197 C 77.914966 -91.507788 77.184063 -90.772774 76.281997 -90.77384 C 75.379932 -90.774906 74.648575 -91.504854 74.649641 -92.406919 C 74.650707 -93.308985 75.399895 -94.039227 76.28272 -94.039276 C 77.184786 -94.03821 77.916143 -93.308262 77.915077 -92.406197 Z M 77.915077 -92.406197 " transform="matrix(0.261002,1,-1,0.261002,0,0)"/>
<path style="fill:none;stroke-width:0.653121;stroke-linecap:butt;stroke-linejoin:miter;stroke:rgb(1.960754%,0%,100%);stroke-opacity:1;stroke-miterlimit:4;" d="M 89.720005 -92.407118 C 89.718939 -91.505052 88.988991 -90.773695 88.086925 -90.774761 C 87.18486 -90.775827 86.453503 -91.505775 86.454569 -92.407841 C 86.455635 -93.309906 87.204823 -94.040148 88.087648 -94.040198 C 88.989714 -94.039132 89.721071 -93.309184 89.720005 -92.407118 Z M 89.720005 -92.407118 " transform="matrix(0.261002,1,-1,0.261002,0,0)"/>
<path style="fill:none;stroke-width:0.75;stroke-linecap:butt;stroke-linejoin:miter;stroke:rgb(1.960754%,0%,100%);stroke-opacity:1;stroke-miterlimit:4;" d="M 115.382812 63.980469 L 118.464844 75.785156 "/>
<path style="fill:none;stroke-width:0.653121;stroke-linecap:butt;stroke-linejoin:miter;stroke:rgb(1.960754%,0%,100%);stroke-opacity:1;stroke-miterlimit:4;" d="M 89.727158 -92.389626 C 89.727047 -91.491218 88.997099 -90.75986 88.094079 -90.757269 C 87.192013 -90.758335 86.460656 -91.488283 86.461722 -92.390349 C 86.459131 -93.293369 87.211976 -94.022656 88.094802 -94.022706 C 88.994165 -94.026251 89.724567 -93.292646 89.727158 -92.389626 Z M 89.727158 -92.389626 " transform="matrix(0.261002,1,-1,0.261002,0,0)"/>
<path style="fill:none;stroke-width:0.75;stroke-linecap:butt;stroke-linejoin:miter;stroke:rgb(1.960754%,0%,100%);stroke-opacity:1;stroke-miterlimit:4;" d="M 118.449219 75.703125 L 121.53125 87.511719 "/>
<path style="fill:none;stroke-width:0.653121;stroke-linecap:butt;stroke-linejoin:miter;stroke:rgb(1.960754%,0%,100%);stroke-opacity:1;stroke-miterlimit:4;" d="M 113.260054 -92.395931 C 113.258988 -91.493865 112.525383 -90.763463 111.626974 -90.763574 C 110.724909 -90.76464 109.993552 -91.494588 109.994618 -92.396654 C 109.992026 -93.299674 110.744872 -94.028961 111.627697 -94.02901 C 112.526106 -94.028899 113.257463 -93.298951 113.260054 -92.395931 Z M 113.260054 -92.395931 " transform="matrix(0.261002,1,-1,0.261002,0,0)"/>
<path style="fill:none;stroke-width:0.75;stroke-linecap:butt;stroke-linejoin:miter;stroke:rgb(1.960754%,0%,100%);stroke-opacity:1;stroke-miterlimit:4;" d="M 188.851562 52.179688 L 191.933594 63.984375 "/>
<path style="fill:none;stroke-width:0.75;stroke-linecap:butt;stroke-linejoin:miter;stroke:rgb(1.960754%,0%,100%);stroke-opacity:1;stroke-miterlimit:4;" d="M 185.75 40.398438 L 188.832031 52.203125 "/>
<path style="fill:none;stroke-width:0.653121;stroke-linecap:butt;stroke-linejoin:miter;stroke:rgb(1.960754%,0%,100%);stroke-opacity:1;stroke-miterlimit:4;" d="M 84.84377 -164.031388 C 84.847316 -163.132025 84.113711 -162.401622 83.210691 -162.399031 C 82.312282 -162.399142 81.58188 -163.132748 81.578334 -164.03211 C 81.5794 -164.934176 82.328588 -165.664418 83.211414 -165.664467 C 84.114434 -165.667058 84.844836 -164.933453 84.84377 -164.031388 Z M 84.84377 -164.031388 " transform="matrix(0.261002,1,-1,0.261002,0,0)"/>
<path style="fill:none;stroke-width:0.75;stroke-linecap:butt;stroke-linejoin:miter;stroke:rgb(1.960754%,0%,100%);stroke-opacity:1;stroke-miterlimit:4;" d="M 191.917969 63.996094 L 195 75.800781 "/>
<path style="fill:none;stroke-width:0.75;stroke-linecap:butt;stroke-linejoin:miter;stroke:rgb(1.960754%,0%,100%);stroke-opacity:1;stroke-miterlimit:4;" d="M 194.984375 75.722656 L 198.066406 87.527344 "/>
<path style="fill:none;stroke-width:0.653121;stroke-linecap:butt;stroke-linejoin:miter;stroke:rgb(1.960754%,0%,100%);stroke-opacity:1;stroke-miterlimit:4;" d="M 131.976505 -164.046056 C 131.975439 -163.14399 131.245491 -162.412633 130.343425 -162.413699 C 129.44136 -162.414765 128.710003 -163.144713 128.711069 -164.046779 C 128.712134 -164.948844 129.461323 -165.679086 130.344148 -165.679135 C 131.246214 -165.678069 131.977571 -164.948121 131.976505 -164.046056 Z M 131.976505 -164.046056 " transform="matrix(0.261002,1,-1,0.261002,0,0)"/>
<path style="fill:none;stroke-width:0.75;stroke-linecap:butt;stroke-linejoin:miter;stroke:rgb(1.960754%,0%,100%);stroke-opacity:1;stroke-miterlimit:4;" d="M 253.933594 52.144531 L 257.015625 63.953125 "/>
<path style="fill:none;stroke-width:0.75;stroke-linecap:butt;stroke-linejoin:miter;stroke:rgb(1.960754%,0%,100%);stroke-opacity:1;stroke-miterlimit:4;" d="M 250.835938 40.363281 L 253.914062 52.171875 "/>
<path style="fill:none;stroke-width:0.653121;stroke-linecap:butt;stroke-linejoin:miter;stroke:rgb(1.960754%,0%,100%);stroke-opacity:1;stroke-miterlimit:4;" d="M 100.714994 -224.974904 C 100.717585 -224.071884 99.98398 -223.341481 99.081914 -223.342547 C 98.182551 -223.339002 97.452149 -224.072607 97.448603 -224.97197 C 97.449669 -225.874035 98.203469 -226.60698 99.082637 -226.607984 C 99.984702 -226.606918 100.715105 -225.873312 100.714994 -224.974904 Z M 100.714994 -224.974904 " transform="matrix(0.261002,1,-1,0.261002,0,0)"/>
<path style="fill:none;stroke-width:0.653121;stroke-linecap:butt;stroke-linejoin:miter;stroke:rgb(1.960754%,0%,100%);stroke-opacity:1;stroke-miterlimit:4;" d="M 112.522624 -224.971214 C 112.522513 -224.072805 111.788908 -223.342403 110.889545 -223.338857 C 109.987479 -223.339923 109.256122 -224.069871 109.257188 -224.971937 C 109.254597 -225.874957 110.007442 -226.604244 110.88661 -226.605248 C 111.78963 -226.607839 112.520033 -225.874234 112.522624 -224.971214 Z M 112.522624 -224.971214 " transform="matrix(0.261002,1,-1,0.261002,0,0)"/>
<path style="fill:none;stroke-width:0.75;stroke-linecap:butt;stroke-linejoin:miter;stroke:rgb(1.960754%,0%,100%);stroke-opacity:1;stroke-miterlimit:4;" d="M 257 63.960938 L 260.082031 75.765625 "/>
<path style="fill:none;stroke-width:0.75;stroke-linecap:butt;stroke-linejoin:miter;stroke:rgb(1.960754%,0%,100%);stroke-opacity:1;stroke-miterlimit:4;" d="M 260.066406 75.6875 L 263.148438 87.492188 "/>
<path style="fill:none;stroke-width:0.75;stroke-linecap:butt;stroke-linejoin:miter;stroke:rgb(1.960754%,0%,100%);stroke-opacity:1;stroke-miterlimit:4;" d="M 263.140625 87.460938 L 266.222656 99.265625 "/>
<path style="fill:none;stroke-width:0.653121;stroke-linecap:butt;stroke-linejoin:miter;stroke:rgb(1.960754%,0%,100%);stroke-opacity:1;stroke-miterlimit:4;" d="M 159.620536 -224.987158 C 159.61947 -224.085093 158.889522 -223.353736 157.987456 -223.354802 C 157.088093 -223.351256 156.354034 -224.085816 156.3551 -224.987881 C 156.355211 -225.88629 157.105354 -226.620188 157.988179 -226.620238 C 158.890245 -226.619172 159.621602 -225.889224 159.620536 -224.987158 Z M 159.620536 -224.987158 " transform="matrix(0.261002,1,-1,0.261002,0,0)"/>
<path style="fill:none;stroke-width:0.75;stroke-linecap:butt;stroke-linejoin:miter;stroke:rgb(1.960754%,0%,100%);stroke-opacity:1;stroke-miterlimit:4;" d="M 310.976562 52.335938 L 314.058594 64.140625 "/>
<path style="fill:none;stroke-width:0.653121;stroke-linecap:butt;stroke-linejoin:miter;stroke:rgb(1.960754%,0%,100%);stroke-opacity:1;stroke-miterlimit:4;" d="M 126.619786 -278.354326 C 126.61872 -277.452261 125.888772 -276.720904 124.986706 -276.72197 C 124.084641 -276.723036 123.353284 -277.452984 123.35435 -278.355049 C 123.354461 -279.253458 124.104604 -279.987356 124.987429 -279.987406 C 125.889495 -279.98634 126.620852 -279.256392 126.619786 -278.354326 Z M 126.619786 -278.354326 " transform="matrix(0.261002,1,-1,0.261002,0,0)"/>
<path style="fill:none;stroke-width:0.75;stroke-linecap:butt;stroke-linejoin:miter;stroke:rgb(1.960754%,0%,100%);stroke-opacity:1;stroke-miterlimit:4;" d="M 314.042969 64.152344 L 317.125 75.957031 "/>
<path style="fill:none;stroke-width:0.75;stroke-linecap:butt;stroke-linejoin:miter;stroke:rgb(1.960754%,0%,100%);stroke-opacity:1;stroke-miterlimit:4;" d="M 317.109375 75.878906 L 320.191406 87.683594 "/>
<path style="fill:none;stroke-width:0.75;stroke-linecap:butt;stroke-linejoin:miter;stroke:rgb(1.960754%,0%,100%);stroke-opacity:1;stroke-miterlimit:4;" d="M 320.183594 87.652344 L 323.261719 99.457031 "/>
<path style="fill:none;stroke-width:0.653121;stroke-linecap:butt;stroke-linejoin:miter;stroke:rgb(1.960754%,0%,100%);stroke-opacity:1;stroke-miterlimit:4;" d="M 173.73757 -278.341647 C 173.737459 -277.443238 173.007511 -276.711881 172.104491 -276.70929 C 171.202425 -276.710356 170.471068 -277.440304 170.472134 -278.34237 C 170.4732 -279.244435 171.222388 -279.974677 172.105214 -279.974726 C 173.004576 -279.978272 173.738636 -279.243712 173.73757 -278.341647 Z M 173.73757 -278.341647 " transform="matrix(0.261002,1,-1,0.261002,0,0)"/>
<path style="fill:none;stroke-width:0.75;stroke-linecap:butt;stroke-linejoin:miter;stroke:rgb(1.960754%,0%,100%);stroke-opacity:1;stroke-miterlimit:4;" d="M 290.015625 52.289062 L 286.9375 64.09375 "/>
<path style="fill:none;stroke-width:0.75;stroke-linecap:butt;stroke-linejoin:miter;stroke:rgb(1.960754%,0%,100%);stroke-opacity:1;stroke-miterlimit:4;" d="M 293.117188 40.507812 L 290.035156 52.3125 "/>
<path style="fill:none;stroke-width:0.653121;stroke-linecap:butt;stroke-linejoin:miter;stroke:rgb(1.960754%,0%,100%);stroke-opacity:1;stroke-miterlimit:4;" d="M -32.067887 -284.321624 C -32.066821 -283.419558 -32.798179 -282.68961 -33.700244 -282.688544 C -34.60231 -282.687478 -35.332258 -283.418835 -35.333324 -284.320901 C -35.33439 -285.222966 -34.583792 -285.95403 -33.700967 -285.95398 C -32.798901 -285.955046 -32.068953 -285.223689 -32.067887 -284.321624 Z M -32.067887 -284.321624 " transform="matrix(-0.261002,1,-1,-0.261002,0,0)"/>
<path style="fill:none;stroke-width:0.653121;stroke-linecap:butt;stroke-linejoin:miter;stroke:rgb(1.960754%,0%,100%);stroke-opacity:1;stroke-miterlimit:4;" d="M -20.262959 -284.320702 C -20.261893 -283.418637 -20.993251 -282.688688 -21.895316 -282.687622 C -22.798336 -282.690214 -23.528284 -283.421571 -23.528396 -284.319979 C -23.529462 -285.222045 -22.778864 -285.953108 -21.896039 -285.953059 C -20.993973 -285.954125 -20.264025 -285.222768 -20.262959 -284.320702 Z M -20.262959 -284.320702 " transform="matrix(-0.261002,1,-1,-0.261002,0,0)"/>
<path style="fill:none;stroke-width:0.75;stroke-linecap:butt;stroke-linejoin:miter;stroke:rgb(1.960754%,0%,100%);stroke-opacity:1;stroke-miterlimit:4;" d="M 286.949219 64.105469 L 283.867188 75.910156 "/>
<path style="fill:none;stroke-width:0.75;stroke-linecap:butt;stroke-linejoin:miter;stroke:rgb(1.960754%,0%,100%);stroke-opacity:1;stroke-miterlimit:4;" d="M 283.882812 75.828125 L 280.804688 87.636719 "/>
<path style="fill:none;stroke-width:0.75;stroke-linecap:butt;stroke-linejoin:miter;stroke:rgb(1.960754%,0%,100%);stroke-opacity:1;stroke-miterlimit:4;" d="M 280.8125 87.605469 L 277.730469 99.410156 "/>
<path style="fill:none;stroke-width:0.653121;stroke-linecap:butt;stroke-linejoin:miter;stroke:rgb(1.960754%,0%,100%);stroke-opacity:1;stroke-miterlimit:4;" d="M 26.837928 -284.309413 C 26.838993 -283.407348 26.103978 -282.676445 25.205569 -282.676335 C 24.303503 -282.67527 23.573555 -283.406628 23.57249 -284.308694 C 23.571425 -285.210759 24.322023 -285.941822 25.204849 -285.941772 C 26.106915 -285.942837 26.836862 -285.211479 26.837928 -284.309413 Z M 26.837928 -284.309413 " transform="matrix(-0.261001,1,-1,-0.261001,0,0)"/>
<path style="fill:none;stroke-width:0.75;stroke-linecap:butt;stroke-linejoin:miter;stroke:rgb(1.960754%,0%,100%);stroke-opacity:1;stroke-miterlimit:4;" d="M 373.429688 75.753906 L 370.347656 87.558594 "/>
<path style="fill:none;stroke-width:0.653121;stroke-linecap:butt;stroke-linejoin:miter;stroke:rgb(1.960754%,0%,100%);stroke-opacity:1;stroke-miterlimit:4;" d="M -18.694537 -368.124595 C -18.693471 -367.222529 -19.424828 -366.492581 -20.326893 -366.491515 C -21.228959 -366.490449 -21.959862 -367.225463 -21.959973 -368.123872 C -21.961039 -369.025937 -21.210442 -369.757001 -20.327616 -369.756951 C -19.425551 -369.758017 -18.695603 -369.02666 -18.694537 -368.124595 Z M -18.694537 -368.124595 " transform="matrix(-0.261002,1,-1,-0.261002,0,0)"/>
<path style="fill:none;stroke-width:0.75;stroke-linecap:butt;stroke-linejoin:miter;stroke:rgb(1.960754%,0%,100%);stroke-opacity:1;stroke-miterlimit:4;" d="M 370.359375 87.527344 L 367.277344 99.332031 "/>
<path style="fill:none;stroke-width:0.653121;stroke-linecap:butt;stroke-linejoin:miter;stroke:rgb(1.960754%,0%,100%);stroke-opacity:1;stroke-miterlimit:4;" d="M 4.883545 -368.126173 C 4.88461 -367.224107 4.153252 -366.494159 3.251186 -366.493094 C 2.34912 -366.492029 1.619173 -367.223387 1.618107 -368.125453 C 1.617042 -369.027518 2.371298 -369.759536 3.250466 -369.758531 C 4.152532 -369.759596 4.883434 -369.024581 4.883545 -368.126173 Z M 4.883545 -368.126173 " transform="matrix(-0.261001,1,-1,-0.261001,0,0)"/>
<path style="fill:none;stroke-width:0.75;stroke-linecap:butt;stroke-linejoin:miter;stroke:rgb(1.960754%,0%,100%);stroke-opacity:1;stroke-miterlimit:4;" d="M 124.257812 64.171875 L 127.335938 52.363281 "/>
<path style="fill:none;stroke-width:0.653121;stroke-linecap:butt;stroke-linejoin:miter;stroke:rgb(1.960754%,0%,100%);stroke-opacity:1;stroke-miterlimit:4;" d="M -28.083303 132.013392 C -28.083192 132.9118 -28.813594 133.645406 -29.71566 133.646472 C -30.615023 133.642926 -31.348628 132.912523 -31.349694 132.010458 C -31.346148 131.111095 -30.595551 130.380031 -29.712726 130.380081 C -28.814317 130.379969 -28.080712 131.110372 -28.083303 132.013392 Z M -28.083303 132.013392 " transform="matrix(0.261002,-1,1,0.261002,0,0)"/>
<path style="fill:none;stroke-width:0.653121;stroke-linecap:butt;stroke-linejoin:miter;stroke:rgb(1.960754%,0%,100%);stroke-opacity:1;stroke-miterlimit:4;" d="M -16.275673 132.009702 C -16.278264 132.912722 -17.008666 133.646327 -17.908029 133.642781 C -18.810095 133.643847 -19.5437 132.913445 -19.541109 132.010425 C -19.54122 131.112016 -18.791578 130.377296 -17.908752 130.377345 C -17.009389 130.380891 -16.275784 131.111293 -16.275673 132.009702 Z M -16.275673 132.009702 " transform="matrix(0.261002,-1,1,0.261002,0,0)"/>
<path style="fill:none;stroke-width:0.75;stroke-linecap:butt;stroke-linejoin:miter;stroke:rgb(1.960754%,0%,100%);stroke-opacity:1;stroke-miterlimit:4;" d="M 182.726562 52.1875 L 185.808594 40.382812 "/>
<path style="fill:none;stroke-width:0.653121;stroke-linecap:butt;stroke-linejoin:miter;stroke:rgb(1.960754%,0%,100%);stroke-opacity:1;stroke-miterlimit:4;" d="M -2.576072 183.824704 C -2.575006 184.726769 -3.306363 185.456717 -4.208429 185.457783 C -5.110494 185.458849 -5.840443 184.727492 -5.841508 183.825427 C -5.842574 182.923361 -5.091977 182.192297 -4.209152 182.192347 C -3.307086 182.191281 -2.577138 182.922638 -2.576072 183.824704 Z M -2.576072 183.824704 " transform="matrix(0.261002,-1,1,0.261002,0,0)"/>
<path style="fill:none;stroke-width:0.653121;stroke-linecap:butt;stroke-linejoin:miter;stroke:rgb(1.960754%,0%,100%);stroke-opacity:1;stroke-miterlimit:4;" d="M 9.228856 183.825625 C 9.229922 184.727691 8.498565 185.457639 7.596499 185.458705 C 6.694434 185.459771 5.963531 184.724757 5.96342 183.826348 C 5.962354 182.924283 6.716608 182.192264 7.595776 182.193268 C 8.497842 182.192203 9.22779 182.92356 9.228856 183.825625 Z M 9.228856 183.825625 " transform="matrix(0.261002,-1,1,0.261002,0,0)"/>
<path style="fill:none;stroke-width:0.75;stroke-linecap:butt;stroke-linejoin:miter;stroke:rgb(1.960754%,0%,100%);stroke-opacity:1;stroke-miterlimit:4;" d="M 268.613281 52.210938 L 271.695312 40.40625 "/>
<path style="fill:none;stroke-width:0.653121;stroke-linecap:butt;stroke-linejoin:miter;stroke:rgb(1.960754%,0%,100%);stroke-opacity:1;stroke-miterlimit:4;" d="M 18.388918 264.239518 C 18.389984 265.141584 17.658627 265.871532 16.756561 265.872598 C 15.854495 265.873664 15.124547 265.142307 15.123481 264.240241 C 15.122415 263.338176 15.87667 262.606157 16.755838 262.607161 C 17.657904 262.606096 18.387852 263.337453 18.388918 264.239518 Z M 18.388918 264.239518 " transform="matrix(0.261002,-1,1,0.261002,0,0)"/>
<path style="fill:none;stroke-width:0.653121;stroke-linecap:butt;stroke-linejoin:miter;stroke:rgb(1.960754%,0%,100%);stroke-opacity:1;stroke-miterlimit:4;" d="M 30.193846 264.24044 C 30.194912 265.142505 29.463555 265.872453 28.561489 265.873519 C 27.662126 265.869974 26.928521 265.139571 26.928409 264.241163 C 26.931001 263.338142 27.681598 262.607079 28.564423 262.607128 C 29.462832 262.607017 30.196437 263.33742 30.193846 264.24044 Z M 30.193846 264.24044 " transform="matrix(0.261002,-1,1,0.261002,0,0)"/>
<path style="fill:none;stroke-width:0.75;stroke-linecap:butt;stroke-linejoin:miter;stroke:rgb(1.960754%,0%,100%);stroke-opacity:1;stroke-miterlimit:4;" d="M 130.253906 52.222656 L 133.335938 64.027344 "/>
<path style="fill:none;stroke-width:0.653121;stroke-linecap:butt;stroke-linejoin:miter;stroke:rgb(1.960754%,0%,100%);stroke-opacity:1;stroke-miterlimit:4;" d="M 82.353069 -109.185372 C 82.352003 -108.283306 81.622055 -107.551949 80.71999 -107.553015 C 79.821581 -107.553126 79.090224 -108.283075 79.087633 -109.186095 C 79.087744 -110.084503 79.837887 -110.818402 80.720712 -110.818451 C 81.622778 -110.817385 82.354135 -110.087437 82.353069 -109.185372 Z M 82.353069 -109.185372 " transform="matrix(0.261002,1,-1,0.261002,0,0)"/>
<path style="fill:none;stroke-width:0.653121;stroke-linecap:butt;stroke-linejoin:miter;stroke:rgb(1.960754%,0%,100%);stroke-opacity:1;stroke-miterlimit:4;" d="M 94.157997 -109.186293 C 94.160588 -108.283273 93.426983 -107.552871 92.528575 -107.552982 C 91.625555 -107.550391 90.895152 -108.283996 90.891606 -109.183359 C 90.892672 -110.085425 91.646472 -110.818369 92.52564 -110.819373 C 93.427706 -110.818307 94.158109 -110.084702 94.157997 -109.186293 Z M 94.157997 -109.186293 " transform="matrix(0.261002,1,-1,0.261002,0,0)"/>
<path style="fill:none;stroke-width:0.660322;stroke-linecap:round;stroke-linejoin:round;stroke:rgb(0%,0%,100%);stroke-opacity:1;stroke-miterlimit:4;" d="M 127.902344 87.617188 C 127.902344 88.558594 127.136719 89.324219 126.195312 89.324219 C 125.253906 89.324219 124.492188 88.558594 124.492188 87.617188 C 124.492188 86.675781 125.253906 85.914062 126.195312 85.914062 C 127.136719 85.914062 127.902344 86.675781 127.902344 87.617188 Z M 127.902344 87.617188 "/>
<path style="fill:none;stroke-width:0.660322;stroke-linecap:round;stroke-linejoin:round;stroke:rgb(0%,0%,100%);stroke-opacity:1;stroke-miterlimit:4;" d="M 106.570312 87.921875 C 106.570312 88.863281 105.804688 89.625 104.863281 89.625 C 103.921875 89.625 103.160156 88.863281 103.160156 87.921875 C 103.160156 86.980469 103.921875 86.214844 104.863281 86.214844 C 105.804688 86.214844 106.570312 86.980469 106.570312 87.921875 Z M 106.570312 87.921875 "/>
<path style="fill:none;stroke-width:0.660322;stroke-linecap:round;stroke-linejoin:round;stroke:rgb(0%,0%,100%);stroke-opacity:1;stroke-miterlimit:4;" d="M 123.320312 52.175781 C 123.320312 53.117188 122.554688 53.878906 121.613281 53.878906 C 120.671875 53.878906 119.910156 53.117188 119.910156 52.175781 C 119.910156 51.234375 120.671875 50.46875 121.613281 50.46875 C 122.554688 50.46875 123.320312 51.234375 123.320312 52.175781 Z M 123.320312 52.175781 "/>
<path style="fill:none;stroke-width:0.660322;stroke-linecap:round;stroke-linejoin:round;stroke:rgb(0%,0%,100%);stroke-opacity:1;stroke-miterlimit:4;" d="M 108.238281 52.207031 C 108.238281 53.148438 107.472656 53.910156 106.53125 53.910156 C 105.589844 53.910156 104.828125 53.148438 104.828125 52.207031 C 104.828125 51.265625 105.589844 50.503906 106.53125 50.503906 C 107.472656 50.503906 108.238281 51.265625 108.238281 52.207031 Z M 108.238281 52.207031 "/>
<path style="fill:none;stroke-width:0.660322;stroke-linecap:round;stroke-linejoin:round;stroke:rgb(0%,0%,100%);stroke-opacity:1;stroke-miterlimit:4;" d="M 121.328125 64.113281 C 121.328125 65.054688 120.566406 65.816406 119.625 65.816406 C 118.683594 65.816406 117.917969 65.054688 117.917969 64.113281 C 117.917969 63.171875 118.683594 62.40625 119.625 62.40625 C 120.566406 62.40625 121.328125 63.171875 121.328125 64.113281 Z M 121.328125 64.113281 "/>
<path style="fill:none;stroke-width:0.660322;stroke-linecap:round;stroke-linejoin:round;stroke:rgb(0%,0%,100%);stroke-opacity:1;stroke-miterlimit:4;" d="M 142.363281 87.761719 C 142.363281 88.703125 141.597656 89.464844 140.65625 89.464844 C 139.714844 89.464844 138.953125 88.703125 138.953125 87.761719 C 138.953125 86.820312 139.714844 86.054688 140.65625 86.054688 C 141.597656 86.054688 142.363281 86.820312 142.363281 87.761719 Z M 142.363281 87.761719 "/>
<path style="fill:none;stroke-width:0.660322;stroke-linecap:round;stroke-linejoin:round;stroke:rgb(0%,0%,100%);stroke-opacity:1;stroke-miterlimit:4;" d="M 147.304688 87.761719 C 147.304688 88.707031 146.542969 89.46875 145.601562 89.46875 C 144.65625 89.46875 143.894531 88.707031 143.894531 87.761719 C 143.894531 86.820312 144.65625 86.058594 145.601562 86.058594 C 146.542969 86.058594 147.304688 86.820312 147.304688 87.761719 Z M 147.304688 87.761719 "/>
<path style="fill:none;stroke-width:0.660322;stroke-linecap:round;stroke-linejoin:round;stroke:rgb(0%,0%,100%);stroke-opacity:1;stroke-miterlimit:4;" d="M 165.003906 87.785156 C 165.003906 88.726562 164.238281 89.492188 163.296875 89.492188 C 162.355469 89.492188 161.59375 88.726562 161.59375 87.785156 C 161.59375 86.84375 162.355469 86.082031 163.296875 86.082031 C 164.238281 86.082031 165.003906 86.84375 165.003906 87.785156 Z M 165.003906 87.785156 "/>
<path style="fill:none;stroke-width:0.660322;stroke-linecap:round;stroke-linejoin:round;stroke:rgb(0%,0%,100%);stroke-opacity:1;stroke-miterlimit:4;" d="M 169.746094 87.742188 C 169.746094 88.683594 168.980469 89.445312 168.039062 89.445312 C 167.097656 89.445312 166.335938 88.683594 166.335938 87.742188 C 166.335938 86.800781 167.097656 86.035156 168.039062 86.035156 C 168.980469 86.035156 169.746094 86.800781 169.746094 87.742188 Z M 169.746094 87.742188 "/>
<path style="fill:none;stroke-width:0.660322;stroke-linecap:round;stroke-linejoin:round;stroke:rgb(0%,0%,100%);stroke-opacity:1;stroke-miterlimit:4;" d="M 174.941406 87.742188 C 174.941406 88.683594 174.175781 89.445312 173.234375 89.445312 C 172.292969 89.445312 171.53125 88.683594 171.53125 87.742188 C 171.53125 86.800781 172.292969 86.035156 173.234375 86.035156 C 174.175781 86.035156 174.941406 86.800781 174.941406 87.742188 Z M 174.941406 87.742188 "/>
<path style="fill:none;stroke-width:0.660322;stroke-linecap:round;stroke-linejoin:round;stroke:rgb(0%,0%,100%);stroke-opacity:1;stroke-miterlimit:4;" d="M 188.167969 87.792969 C 188.167969 88.734375 187.40625 89.496094 186.464844 89.496094 C 185.523438 89.496094 184.757812 88.734375 184.757812 87.792969 C 184.757812 86.851562 185.523438 86.089844 186.464844 86.089844 C 187.40625 86.089844 188.167969 86.851562 188.167969 87.792969 Z M 188.167969 87.792969 "/>
<path style="fill:none;stroke-width:0.660322;stroke-linecap:round;stroke-linejoin:round;stroke:rgb(0%,0%,100%);stroke-opacity:1;stroke-miterlimit:4;" d="M 173.664062 52.175781 C 173.664062 53.117188 172.902344 53.878906 171.960938 53.878906 C 171.019531 53.878906 170.253906 53.117188 170.253906 52.175781 C 170.253906 51.234375 171.019531 50.46875 171.960938 50.46875 C 172.902344 50.46875 173.664062 51.234375 173.664062 52.175781 Z M 173.664062 52.175781 "/>
<path style="fill:none;stroke-width:0.660322;stroke-linecap:round;stroke-linejoin:round;stroke:rgb(0%,0%,100%);stroke-opacity:1;stroke-miterlimit:4;" d="M 164.710938 52.175781 C 164.710938 53.117188 163.949219 53.878906 163.007812 53.878906 C 162.066406 53.878906 161.300781 53.117188 161.300781 52.175781 C 161.300781 51.234375 162.066406 50.46875 163.007812 50.46875 C 163.949219 50.46875 164.710938 51.234375 164.710938 52.175781 Z M 164.710938 52.175781 "/>
<path style="fill:none;stroke-width:0.660322;stroke-linecap:round;stroke-linejoin:round;stroke:rgb(0%,0%,100%);stroke-opacity:1;stroke-miterlimit:4;" d="M 160.027344 52.175781 C 160.027344 53.117188 159.265625 53.878906 158.324219 53.878906 C 157.382812 53.878906 156.617188 53.117188 156.617188 52.175781 C 156.617188 51.234375 157.382812 50.46875 158.324219 50.46875 C 159.265625 50.46875 160.027344 51.234375 160.027344 52.175781 Z M 160.027344 52.175781 "/>
<path style="fill:none;stroke-width:0.660322;stroke-linecap:round;stroke-linejoin:round;stroke:rgb(0%,0%,100%);stroke-opacity:1;stroke-miterlimit:4;" d="M 151.75 52.207031 C 151.75 53.148438 150.984375 53.910156 150.042969 53.910156 C 149.101562 53.910156 148.339844 53.148438 148.339844 52.207031 C 148.339844 51.265625 149.101562 50.503906 150.042969 50.503906 C 150.984375 50.503906 151.75 51.265625 151.75 52.207031 Z M 151.75 52.207031 "/>
<path style="fill:none;stroke-width:0.660322;stroke-linecap:round;stroke-linejoin:round;stroke:rgb(0%,0%,100%);stroke-opacity:1;stroke-miterlimit:4;" d="M 147 52.175781 C 147 53.117188 146.234375 53.878906 145.292969 53.878906 C 144.351562 53.878906 143.589844 53.117188 143.589844 52.175781 C 143.589844 51.234375 144.351562 50.46875 145.292969 50.46875 C 146.234375 50.46875 147 51.234375 147 52.175781 Z M 147 52.175781 "/>
<path style="fill:none;stroke-width:0.660322;stroke-linecap:round;stroke-linejoin:round;stroke:rgb(0%,0%,100%);stroke-opacity:1;stroke-miterlimit:4;" d="M 197.289062 40.433594 C 197.289062 41.375 196.527344 42.136719 195.585938 42.136719 C 194.644531 42.136719 193.878906 41.375 193.878906 40.433594 C 193.878906 39.492188 194.644531 38.726562 195.585938 38.726562 C 196.527344 38.726562 197.289062 39.492188 197.289062 40.433594 Z M 197.289062 40.433594 "/>
<path style="fill:none;stroke-width:0.660322;stroke-linecap:round;stroke-linejoin:round;stroke:rgb(0%,0%,100%);stroke-opacity:1;stroke-miterlimit:4;" d="M 208.863281 40.386719 C 208.863281 41.328125 208.097656 42.09375 207.15625 42.09375 C 206.214844 42.09375 205.453125 41.328125 205.453125 40.386719 C 205.453125 39.445312 206.214844 38.683594 207.15625 38.683594 C 208.097656 38.683594 208.863281 39.445312 208.863281 40.386719 Z M 208.863281 40.386719 "/>
<path style="fill:none;stroke-width:0.660322;stroke-linecap:round;stroke-linejoin:round;stroke:rgb(0%,0%,100%);stroke-opacity:1;stroke-miterlimit:4;" d="M 223.15625 40.476562 C 223.15625 41.417969 222.394531 42.183594 221.453125 42.183594 C 220.507812 42.183594 219.746094 41.417969 219.746094 40.476562 C 219.746094 39.535156 220.507812 38.773438 221.453125 38.773438 C 222.394531 38.773438 223.15625 39.535156 223.15625 40.476562 Z M 223.15625 40.476562 "/>
<path style="fill:none;stroke-width:0.660322;stroke-linecap:round;stroke-linejoin:round;stroke:rgb(0%,0%,100%);stroke-opacity:1;stroke-miterlimit:4;" d="M 228.691406 40.476562 C 228.691406 41.417969 227.929688 42.183594 226.988281 42.183594 C 226.046875 42.183594 225.28125 41.417969 225.28125 40.476562 C 225.28125 39.535156 226.046875 38.773438 226.988281 38.773438 C 227.929688 38.773438 228.691406 39.535156 228.691406 40.476562 Z M 228.691406 40.476562 "/>
<path style="fill:none;stroke-width:0.660322;stroke-linecap:round;stroke-linejoin:round;stroke:rgb(0%,0%,100%);stroke-opacity:1;stroke-miterlimit:4;" d="M 234.410156 40.386719 C 234.410156 41.328125 233.648438 42.09375 232.707031 42.09375 C 231.765625 42.09375 231 41.328125 231 40.386719 C 231 39.445312 231.765625 38.683594 232.707031 38.683594 C 233.648438 38.683594 234.410156 39.445312 234.410156 40.386719 Z M 234.410156 40.386719 "/>
<path style="fill:none;stroke-width:0.660322;stroke-linecap:round;stroke-linejoin:round;stroke:rgb(0%,0%,100%);stroke-opacity:1;stroke-miterlimit:4;" d="M 214.625 52.277344 C 214.625 53.21875 213.863281 53.980469 212.917969 53.980469 C 211.976562 53.980469 211.214844 53.21875 211.214844 52.277344 C 211.214844 51.335938 211.976562 50.574219 212.917969 50.574219 C 213.863281 50.574219 214.625 51.335938 214.625 52.277344 Z M 214.625 52.277344 "/>
<path style="fill:none;stroke-width:0.660322;stroke-linecap:round;stroke-linejoin:round;stroke:rgb(0%,0%,100%);stroke-opacity:1;stroke-miterlimit:4;" d="M 239.015625 52.164062 C 239.015625 53.105469 238.253906 53.867188 237.3125 53.867188 C 236.371094 53.867188 235.605469 53.105469 235.605469 52.164062 C 235.605469 51.222656 236.371094 50.457031 237.3125 50.457031 C 238.253906 50.457031 239.015625 51.222656 239.015625 52.164062 Z M 239.015625 52.164062 "/>
<path style="fill:none;stroke-width:0.660322;stroke-linecap:round;stroke-linejoin:round;stroke:rgb(0%,0%,100%);stroke-opacity:1;stroke-miterlimit:4;" d="M 259.917969 52.207031 C 259.917969 53.148438 259.152344 53.910156 258.210938 53.910156 C 257.269531 53.910156 256.507812 53.148438 256.507812 52.207031 C 256.507812 51.265625 257.269531 50.503906 258.210938 50.503906 C 259.152344 50.503906 259.917969 51.265625 259.917969 52.207031 Z M 259.917969 52.207031 "/>
<path style="fill:none;stroke-width:0.660322;stroke-linecap:round;stroke-linejoin:round;stroke:rgb(0%,0%,100%);stroke-opacity:1;stroke-miterlimit:4;" d="M 276.28125 52.238281 C 276.28125 53.179688 275.519531 53.945312 274.578125 53.945312 C 273.636719 53.945312 272.871094 53.179688 272.871094 52.238281 C 272.871094 51.296875 273.636719 50.535156 274.578125 50.535156 C 275.519531 50.535156 276.28125 51.296875 276.28125 52.238281 Z M 276.28125 52.238281 "/>
<path style="fill:none;stroke-width:0.660322;stroke-linecap:round;stroke-linejoin:round;stroke:rgb(0%,0%,100%);stroke-opacity:1;stroke-miterlimit:4;" d="M 283.664062 52.207031 C 283.664062 53.148438 282.898438 53.910156 281.957031 53.910156 C 281.015625 53.910156 280.253906 53.148438 280.253906 52.207031 C 280.253906 51.265625 281.015625 50.503906 281.957031 50.503906 C 282.898438 50.503906 283.664062 51.265625 283.664062 52.207031 Z M 283.664062 52.207031 "/>
<path style="fill:none;stroke-width:0.660322;stroke-linecap:round;stroke-linejoin:round;stroke:rgb(0%,0%,100%);stroke-opacity:1;stroke-miterlimit:4;" d="M 304.132812 40.367188 C 304.132812 41.308594 303.371094 42.070312 302.429688 42.070312 C 301.488281 42.070312 300.726562 41.308594 300.726562 40.367188 C 300.726562 39.425781 301.488281 38.660156 302.429688 38.660156 C 303.371094 38.660156 304.132812 39.425781 304.132812 40.367188 Z M 304.132812 40.367188 "/>
<path style="fill:none;stroke-width:0.660322;stroke-linecap:round;stroke-linejoin:round;stroke:rgb(0%,0%,100%);stroke-opacity:1;stroke-miterlimit:4;" d="M 311.035156 40.335938 C 311.035156 41.277344 310.269531 42.039062 309.328125 42.039062 C 308.386719 42.039062 307.625 41.277344 307.625 40.335938 C 307.625 39.394531 308.386719 38.628906 309.328125 38.628906 C 310.269531 38.628906 311.035156 39.394531 311.035156 40.335938 Z M 311.035156 40.335938 "/>
<path style="fill:none;stroke-width:0.660322;stroke-linecap:round;stroke-linejoin:round;stroke:rgb(0%,0%,100%);stroke-opacity:1;stroke-miterlimit:4;" d="M 204.730469 87.621094 C 204.730469 88.5625 203.96875 89.324219 203.027344 89.324219 C 202.085938 89.324219 201.320312 88.5625 201.320312 87.621094 C 201.320312 86.679688 202.085938 85.917969 203.027344 85.917969 C 203.96875 85.917969 204.730469 86.679688 204.730469 87.621094 Z M 204.730469 87.621094 "/>
<path style="fill:none;stroke-width:0.660322;stroke-linecap:round;stroke-linejoin:round;stroke:rgb(0%,0%,100%);stroke-opacity:1;stroke-miterlimit:4;" d="M 136.84375 64.007812 C 136.84375 64.949219 136.082031 65.710938 135.140625 65.710938 C 134.199219 65.710938 133.433594 64.949219 133.433594 64.007812 C 133.433594 63.066406 134.199219 62.304688 135.140625 62.304688 C 136.082031 62.304688 136.84375 63.066406 136.84375 64.007812 Z M 136.84375 64.007812 "/>
<path style="fill:none;stroke-width:0.660322;stroke-linecap:round;stroke-linejoin:round;stroke:rgb(0%,0%,100%);stroke-opacity:1;stroke-miterlimit:4;" d="M 324.058594 52.207031 C 324.058594 53.152344 323.292969 53.914062 322.351562 53.914062 C 321.410156 53.914062 320.648438 53.152344 320.648438 52.207031 C 320.648438 51.265625 321.410156 50.503906 322.351562 50.503906 C 323.292969 50.503906 324.058594 51.265625 324.058594 52.207031 Z M 324.058594 52.207031 "/>
<path style="fill:none;stroke-width:0.660322;stroke-linecap:round;stroke-linejoin:round;stroke:rgb(0%,0%,100%);stroke-opacity:1;stroke-miterlimit:4;" d="M 329.480469 52.164062 C 329.480469 53.105469 328.714844 53.867188 327.773438 53.867188 C 326.832031 53.867188 326.070312 53.105469 326.070312 52.164062 C 326.070312 51.222656 326.832031 50.457031 327.773438 50.457031 C 328.714844 50.457031 329.480469 51.222656 329.480469 52.164062 Z M 329.480469 52.164062 "/>
<path style="fill:none;stroke-width:0.660322;stroke-linecap:round;stroke-linejoin:round;stroke:rgb(0%,0%,100%);stroke-opacity:1;stroke-miterlimit:4;" d="M 335.945312 52.140625 C 335.945312 53.082031 335.183594 53.84375 334.242188 53.84375 C 333.300781 53.84375 332.535156 53.082031 332.535156 52.140625 C 332.535156 51.199219 333.300781 50.4375 334.242188 50.4375 C 335.183594 50.4375 335.945312 51.199219 335.945312 52.140625 Z M 335.945312 52.140625 "/>
<path style="fill:none;stroke-width:0.660322;stroke-linecap:round;stroke-linejoin:round;stroke:rgb(0%,0%,100%);stroke-opacity:1;stroke-miterlimit:4;" d="M 373.363281 52.164062 C 373.363281 53.105469 372.597656 53.867188 371.65625 53.867188 C 370.714844 53.867188 369.953125 53.105469 369.953125 52.164062 C 369.953125 51.222656 370.714844 50.457031 371.65625 50.457031 C 372.597656 50.457031 373.363281 51.222656 373.363281 52.164062 Z M 373.363281 52.164062 "/>
<path style="fill:none;stroke-width:0.660322;stroke-linecap:round;stroke-linejoin:round;stroke:rgb(0%,0%,100%);stroke-opacity:1;stroke-miterlimit:4;" d="M 367.054688 52.164062 C 367.054688 53.105469 366.289062 53.867188 365.347656 53.867188 C 364.40625 53.867188 363.644531 53.105469 363.644531 52.164062 C 363.644531 51.222656 364.40625 50.457031 365.347656 50.457031 C 366.289062 50.457031 367.054688 51.222656 367.054688 52.164062 Z M 367.054688 52.164062 "/>
<path style="fill:none;stroke-width:0.660322;stroke-linecap:round;stroke-linejoin:round;stroke:rgb(0%,0%,100%);stroke-opacity:1;stroke-miterlimit:4;" d="M 290.5625 99.601562 C 290.5625 100.542969 289.796875 101.304688 288.855469 101.304688 C 287.914062 101.304688 287.152344 100.542969 287.152344 99.601562 C 287.152344 98.660156 287.914062 97.898438 288.855469 97.898438 C 289.796875 97.898438 290.5625 98.660156 290.5625 99.601562 Z M 290.5625 99.601562 "/>
<path style="fill:none;stroke-width:0.660322;stroke-linecap:round;stroke-linejoin:round;stroke:rgb(0%,0%,100%);stroke-opacity:1;stroke-miterlimit:4;" d="M 300.957031 99.664062 C 300.957031 100.605469 300.195312 101.371094 299.253906 101.371094 C 298.3125 101.371094 297.546875 100.605469 297.546875 99.664062 C 297.546875 98.722656 298.3125 97.960938 299.253906 97.960938 C 300.195312 97.960938 300.957031 98.722656 300.957031 99.664062 Z M 300.957031 99.664062 "/>
<path style="fill:none;stroke-width:0.660322;stroke-linecap:round;stroke-linejoin:round;stroke:rgb(0%,0%,100%);stroke-opacity:1;stroke-miterlimit:4;" d="M 311.484375 99.601562 C 311.484375 100.542969 310.71875 101.304688 309.777344 101.304688 C 308.835938 101.304688 308.074219 100.542969 308.074219 99.601562 C 308.074219 98.660156 308.835938 97.898438 309.777344 97.898438 C 310.71875 97.898438 311.484375 98.660156 311.484375 99.601562 Z M 311.484375 99.601562 "/>
<path style="fill:none;stroke-width:0.660322;stroke-linecap:round;stroke-linejoin:round;stroke:rgb(0%,0%,100%);stroke-opacity:1;stroke-miterlimit:4;" d="M 320.144531 99.601562 C 320.144531 100.542969 319.382812 101.304688 318.441406 101.304688 C 317.5 101.304688 316.738281 100.542969 316.738281 99.601562 C 316.738281 98.660156 317.5 97.898438 318.441406 97.898438 C 319.382812 97.898438 320.144531 98.660156 320.144531 99.601562 Z M 320.144531 99.601562 "/>
<path style="fill:none;stroke-width:0.660322;stroke-linecap:round;stroke-linejoin:round;stroke:rgb(0%,0%,100%);stroke-opacity:1;stroke-miterlimit:4;" d="M 333.558594 99.664062 C 333.558594 100.605469 332.796875 101.371094 331.855469 101.371094 C 330.914062 101.371094 330.148438 100.605469 330.148438 99.664062 C 330.148438 98.722656 330.914062 97.960938 331.855469 97.960938 C 332.796875 97.960938 333.558594 98.722656 333.558594 99.664062 Z M 333.558594 99.664062 "/>
</g>
</svg>
