<?xml version="1.0" encoding="UTF-8"?>
<svg xmlns="http://www.w3.org/2000/svg" xmlns:xlink="http://www.w3.org/1999/xlink" width="383.393656pt" height="161.145623pt" viewBox="0 0 383.393656 161.145623" version="1.1">
<defs>
<clipPath id="clip1">
  <path d="M 0 0 L 383.394531 0 L 383.394531 161.144531 L 0 161.144531 Z M 0 0 "/>
</clipPath>
<clipPath id="clip2">
  <path d="M 274 116 L 320 116 L 320 161.144531 L 274 161.144531 Z M 274 116 "/>
</clipPath>
<clipPath id="clip3">
  <path d="M 161 116 L 207 116 L 207 161.144531 L 161 161.144531 Z M 161 116 "/>
</clipPath>
</defs>
<g id="surface1">
<g clip-path="url(#clip1)" clip-rule="nonzero">
<path style=" stroke:none;fill-rule:nonzero;fill:rgb(100%,100%,100%);fill-opacity:1;" d="M 0 0 L 383.394531 0 L 383.394531 161.144531 L 0 161.144531 Z M 0 0 "/>
</g>
<path style="fill-rule:nonzero;fill:rgb(78.430176%,76.861572%,71.763611%);fill-opacity:1;stroke-width:2.834646;stroke-linecap:round;stroke-linejoin:miter;stroke:rgb(0%,0%,0%);stroke-opacity:1;stroke-miterlimit:4;" d="M 42.121094 45.035156 C 42.121094 48.585938 39.242188 51.464844 35.691406 51.464844 C 32.140625 51.464844 29.261719 48.585938 29.261719 45.035156 C 29.261719 41.488281 32.140625 38.609375 35.691406 38.609375 C 39.242188 38.609375 42.121094 41.488281 42.121094 45.035156 Z M 42.121094 45.035156 "/>
<path style="fill-rule:nonzero;fill:rgb(78.430176%,76.861572%,71.763611%);fill-opacity:1;stroke-width:2.834646;stroke-linecap:round;stroke-linejoin:miter;stroke:rgb(0%,0%,0%);stroke-opacity:1;stroke-miterlimit:4;" d="M 42.121094 76.375 C 42.121094 78.082031 41.441406 79.714844 40.238281 80.921875 C 39.03125 82.128906 37.398438 82.804688 35.691406 82.804688 C 33.988281 82.804688 32.351562 82.128906 31.144531 80.921875 C 29.941406 79.714844 29.261719 78.082031 29.261719 76.375 C 29.261719 72.824219 32.140625 69.949219 35.691406 69.949219 C 39.242188 69.949219 42.121094 72.824219 42.121094 76.375 Z M 42.121094 76.375 "/>
<path style="fill-rule:nonzero;fill:rgb(78.430176%,76.861572%,71.763611%);fill-opacity:1;stroke-width:2.834646;stroke-linecap:round;stroke-linejoin:miter;stroke:rgb(0%,0%,0%);stroke-opacity:1;stroke-miterlimit:4;" d="M 42.121094 107.714844 C 42.121094 111.265625 39.242188 114.144531 35.691406 114.144531 C 32.140625 114.144531 29.261719 111.265625 29.261719 107.714844 C 29.261719 104.164062 32.140625 101.285156 35.691406 101.285156 C 39.242188 101.285156 42.121094 104.164062 42.121094 107.714844 Z M 42.121094 107.714844 "/>
<path style="fill-rule:nonzero;fill:rgb(78.430176%,76.861572%,71.763611%);fill-opacity:1;stroke-width:2.834646;stroke-linecap:round;stroke-linejoin:miter;stroke:rgb(0%,0%,0%);stroke-opacity:1;stroke-miterlimit:4;" d="M 77.019531 45.035156 C 77.019531 46.742188 76.339844 48.375 75.136719 49.582031 C 73.929688 50.789062 72.292969 51.464844 70.589844 51.464844 C 67.039062 51.464844 64.160156 48.585938 64.160156 45.035156 C 64.160156 41.488281 67.039062 38.609375 70.589844 38.609375 C 72.292969 38.609375 73.929688 39.285156 75.136719 40.492188 C 76.339844 41.695312 77.019531 43.332031 77.019531 45.035156 Z M 77.019531 45.035156 "/>
<path style="fill-rule:nonzero;fill:rgb(78.430176%,76.861572%,71.763611%);fill-opacity:1;stroke-width:2.834646;stroke-linecap:round;stroke-linejoin:miter;stroke:rgb(0%,0%,0%);stroke-opacity:1;stroke-miterlimit:4;" d="M 77.019531 107.714844 C 77.019531 109.421875 76.339844 111.054688 75.136719 112.261719 C 73.929688 113.464844 72.292969 114.144531 70.589844 114.144531 C 67.039062 114.144531 64.160156 111.265625 64.160156 107.714844 C 64.160156 104.164062 67.039062 101.285156 70.589844 101.285156 C 72.292969 101.285156 73.929688 101.964844 75.136719 103.167969 C 76.339844 104.375 77.019531 106.011719 77.019531 107.714844 Z M 77.019531 107.714844 "/>
<path style="fill:none;stroke-width:0.751181;stroke-linecap:butt;stroke-linejoin:miter;stroke:rgb(0%,0%,0%);stroke-opacity:1;stroke-miterlimit:4;" d="M 42.121094 45.035156 L 62.820312 45.035156 "/>
<path style="fill-rule:evenodd;fill:rgb(0%,0%,0%);fill-opacity:1;stroke-width:0.40063;stroke-linecap:butt;stroke-linejoin:miter;stroke:rgb(0%,0%,0%);stroke-opacity:1;stroke-miterlimit:4;" d="M -59.816406 -45.035156 L -58.316406 -46.539062 L -63.574219 -45.035156 L -58.316406 -43.535156 Z M -59.816406 -45.035156 " transform="matrix(-1,0,0,-1,0,0)"/>
<path style="fill:none;stroke-width:0.751181;stroke-linecap:butt;stroke-linejoin:miter;stroke:rgb(0%,50.195312%,50.195312%);stroke-opacity:1;stroke-miterlimit:4;" d="M 77.019531 45.035156 L 98.714844 45.027344 "/>
<path style="fill-rule:evenodd;fill:rgb(0%,50.195312%,50.195312%);fill-opacity:1;stroke-width:0.80126;stroke-linecap:butt;stroke-linejoin:miter;stroke:rgb(0%,50.195312%,50.195312%);stroke-opacity:1;stroke-miterlimit:4;" d="M -91.180746 -45.076519 L -88.175349 -48.078933 L -98.692465 -45.076342 L -88.174425 -42.07112 Z M -91.180746 -45.076519 " transform="matrix(-1,0.000496471,-0.000496471,-1,0,0)"/>
<path style="fill:none;stroke-width:0.751181;stroke-linecap:butt;stroke-linejoin:miter;stroke:rgb(0%,50.195312%,50.195312%);stroke-opacity:1;stroke-miterlimit:4;" d="M 77.019531 107.714844 L 98.714844 107.703125 "/>
<path style="fill-rule:evenodd;fill:rgb(0%,50.195312%,50.195312%);fill-opacity:1;stroke-width:0.80126;stroke-linecap:butt;stroke-linejoin:miter;stroke:rgb(0%,50.195312%,50.195312%);stroke-opacity:1;stroke-miterlimit:4;" d="M -91.149629 -107.752284 L -88.14423 -110.758605 L -98.661348 -107.752107 L -88.143307 -104.750792 Z M -91.149629 -107.752284 " transform="matrix(-1,0.000496471,-0.000496471,-1,0,0)"/>
<path style="fill:none;stroke-width:0.751181;stroke-linecap:butt;stroke-linejoin:miter;stroke:rgb(0%,50.195312%,50.195312%);stroke-opacity:1;stroke-miterlimit:4;" d="M 77.011719 132.808594 L 98.710938 132.796875 "/>
<path style="fill-rule:evenodd;fill:rgb(0%,50.195312%,50.195312%);fill-opacity:1;stroke-width:0.80126;stroke-linecap:butt;stroke-linejoin:miter;stroke:rgb(0%,50.195312%,50.195312%);stroke-opacity:1;stroke-miterlimit:4;" d="M -91.133265 -132.846026 L -88.127868 -135.84844 L -98.644983 -132.845849 L -88.126944 -129.840627 Z M -91.133265 -132.846026 " transform="matrix(-1,0.000496471,-0.000496471,-1,0,0)"/>
<path style="fill:none;stroke-width:0.751181;stroke-linecap:butt;stroke-linejoin:miter;stroke:rgb(0%,0%,0%);stroke-opacity:1;stroke-miterlimit:4;" d="M 40.3125 81.035156 L 64.902344 103.09375 "/>
<path style="fill-rule:evenodd;fill:rgb(0%,0%,0%);fill-opacity:1;stroke-width:0.298218;stroke-linecap:butt;stroke-linejoin:miter;stroke:rgb(0%,0%,0%);stroke-opacity:1;stroke-miterlimit:4;" d="M -84.969783 -24.864641 L -83.850816 -25.981732 L -87.76605 -24.863962 L -83.850751 -23.743509 Z M -84.969783 -24.864641 " transform="matrix(-1,-0.897086,0.897086,-1,0,0)"/>
<path style="fill:none;stroke-width:0.751181;stroke-linecap:butt;stroke-linejoin:miter;stroke:rgb(0%,50.195312%,50.195312%);stroke-opacity:1;stroke-miterlimit:4;" d="M 73.011719 101.921875 C 76.914062 95.984375 76.691406 87.527344 97.304688 87.871094 "/>
<path style="fill-rule:evenodd;fill:rgb(0%,50.195312%,50.195312%);fill-opacity:1;stroke-width:0.801148;stroke-linecap:butt;stroke-linejoin:miter;stroke:rgb(0%,50.195312%,50.195312%);stroke-opacity:1;stroke-miterlimit:4;" d="M -91.236993 -86.222217 L -88.232468 -89.225525 L -98.744799 -86.221819 L -88.22978 -83.217757 Z M -91.236993 -86.222217 " transform="matrix(-1,-0.0167024,0.0167024,-1,0,0)"/>
<path style="fill:none;stroke-width:0.751181;stroke-linecap:butt;stroke-linejoin:miter;stroke:rgb(0%,50.195312%,50.195312%);stroke-opacity:1;stroke-miterlimit:4;" d="M 70.546875 51.953125 C 70.261719 68.726562 81.148438 66.496094 98.277344 66.789062 "/>
<path style="fill-rule:evenodd;fill:rgb(0%,50.195312%,50.195312%);fill-opacity:1;stroke-width:0.801143;stroke-linecap:butt;stroke-linejoin:miter;stroke:rgb(0%,50.195312%,50.195312%);stroke-opacity:1;stroke-miterlimit:4;" d="M -91.879003 -65.088511 L -88.875709 -68.093009 L -99.390729 -65.088924 L -88.87841 -62.08515 Z M -91.879003 -65.088511 " transform="matrix(-1,-0.0171056,0.0171056,-1,0,0)"/>
<path style="fill:none;stroke-width:0.751181;stroke-linecap:butt;stroke-linejoin:miter;stroke:rgb(0%,0%,0%);stroke-opacity:1;stroke-miterlimit:4;" d="M 41.414062 111.652344 C 61.40625 116.152344 52.148438 132.152344 77.011719 132.808594 "/>
<path style="fill-rule:evenodd;fill:rgb(0%,0%,0%);fill-opacity:1;stroke-width:0.400491;stroke-linecap:butt;stroke-linejoin:miter;stroke:rgb(0%,0%,0%);stroke-opacity:1;stroke-miterlimit:4;" d="M -77.450738 -130.686123 L -75.951308 -132.190469 L -81.208618 -130.688684 L -75.950296 -129.186589 Z M -77.450738 -130.686123 " transform="matrix(-1,-0.026345,0.026345,-1,0,0)"/>
<path style="fill:none;stroke-width:0.751181;stroke-linecap:butt;stroke-linejoin:miter;stroke:rgb(0%,50.195312%,50.195312%);stroke-opacity:1;stroke-miterlimit:4;" d="M 303.429688 139.054688 L 324.132812 139.054688 "/>
<path style="fill-rule:evenodd;fill:rgb(0%,50.195312%,50.195312%);fill-opacity:1;stroke-width:0.80126;stroke-linecap:butt;stroke-linejoin:miter;stroke:rgb(0%,50.195312%,50.195312%);stroke-opacity:1;stroke-miterlimit:4;" d="M -316.621094 -139.054688 L -313.613281 -142.058594 L -324.132812 -139.054688 L -313.613281 -136.050781 Z M -316.621094 -139.054688 " transform="matrix(-1,0,0,-1,0,0)"/>
<path style="fill-rule:nonzero;fill:rgb(0%,50.195312%,50.195312%);fill-opacity:1;stroke-width:0.751181;stroke-linecap:butt;stroke-linejoin:miter;stroke:rgb(0%,50.195312%,50.195312%);stroke-opacity:1;stroke-miterlimit:4;" d="M 304.464844 152.660156 L 325.949219 152.773438 "/>
<path style="fill-rule:evenodd;fill:rgb(0%,50.195312%,50.195312%);fill-opacity:1;stroke-width:0.801249;stroke-linecap:butt;stroke-linejoin:miter;stroke:rgb(0%,50.195312%,50.195312%);stroke-opacity:1;stroke-miterlimit:4;" d="M -319.229814 -151.060005 L -316.226039 -154.064041 L -326.741531 -151.059668 L -316.225758 -148.052324 Z M -319.229814 -151.060005 " transform="matrix(-1,-0.00524503,0.00524503,-1,0,0)"/>
<path style="fill:none;stroke-width:0.751181;stroke-linecap:butt;stroke-linejoin:miter;stroke:rgb(0%,50.195312%,50.195312%);stroke-opacity:1;stroke-miterlimit:4;" d="M 303.761719 45.371094 L 324.464844 45.371094 "/>
<path style="fill-rule:evenodd;fill:rgb(0%,50.195312%,50.195312%);fill-opacity:1;stroke-width:0.80126;stroke-linecap:butt;stroke-linejoin:miter;stroke:rgb(0%,50.195312%,50.195312%);stroke-opacity:1;stroke-miterlimit:4;" d="M -316.953125 -45.371094 L -313.949219 -48.375 L -324.464844 -45.371094 L -313.949219 -42.367188 Z M -316.953125 -45.371094 " transform="matrix(-1,0,0,-1,0,0)"/>
<path style="fill:none;stroke-width:0.751181;stroke-linecap:butt;stroke-linejoin:miter;stroke:rgb(50.195312%,0%,50.195312%);stroke-opacity:1;stroke-miterlimit:4;" d="M 233.632812 145.015625 L 255.835938 145.058594 "/>
<path style="fill-rule:evenodd;fill:rgb(50.195312%,0%,50.195312%);fill-opacity:1;stroke-width:0.801258;stroke-linecap:butt;stroke-linejoin:miter;stroke:rgb(50.195312%,0%,50.195312%);stroke-opacity:1;stroke-miterlimit:4;" d="M -248.609523 -144.552286 L -245.603737 -147.558218 L -256.121243 -144.553085 L -245.60359 -141.5465 Z M -248.609523 -144.552286 " transform="matrix(-1,-0.00197371,0.00197371,-1,0,0)"/>
<path style="fill:none;stroke-width:0.751181;stroke-linecap:butt;stroke-linejoin:miter;stroke:rgb(0%,0%,0%);stroke-opacity:1;stroke-miterlimit:4;" d="M 255.835938 145.058594 C 274.339844 144.878906 270.523438 153.175781 304.464844 152.660156 "/>
<path style="fill-rule:evenodd;fill:rgb(0%,0%,0%);fill-opacity:1;stroke-width:0.400584;stroke-linecap:butt;stroke-linejoin:miter;stroke:rgb(0%,0%,0%);stroke-opacity:1;stroke-miterlimit:4;" d="M -299.070639 -157.249208 L -297.571207 -158.753759 L -302.828415 -157.251641 L -297.569993 -155.749835 Z M -299.070639 -157.249208 " transform="matrix(-1,0.0152007,-0.0152007,-1,0,0)"/>
<path style="fill:none;stroke-width:0.751181;stroke-linecap:butt;stroke-linejoin:miter;stroke:rgb(50.195312%,0%,50.195312%);stroke-opacity:1;stroke-miterlimit:4;" d="M 233.777344 108.09375 L 254.476562 108.09375 "/>
<path style="fill-rule:evenodd;fill:rgb(50.195312%,0%,50.195312%);fill-opacity:1;stroke-width:0.80126;stroke-linecap:butt;stroke-linejoin:miter;stroke:rgb(50.195312%,0%,50.195312%);stroke-opacity:1;stroke-miterlimit:4;" d="M -246.964844 -108.09375 L -243.960938 -111.097656 L -254.476562 -108.09375 L -243.960938 -105.089844 Z M -246.964844 -108.09375 " transform="matrix(-1,0,0,-1,0,0)"/>
<path style="fill:none;stroke-width:0.751181;stroke-linecap:butt;stroke-linejoin:miter;stroke:rgb(50.195312%,0%,50.195312%);stroke-opacity:1;stroke-miterlimit:4;" d="M 233.8125 74.785156 L 254.515625 74.785156 "/>
<path style="fill-rule:evenodd;fill:rgb(50.195312%,0%,50.195312%);fill-opacity:1;stroke-width:0.80126;stroke-linecap:butt;stroke-linejoin:miter;stroke:rgb(50.195312%,0%,50.195312%);stroke-opacity:1;stroke-miterlimit:4;" d="M -247 -74.785156 L -243.996094 -77.792969 L -254.515625 -74.785156 L -243.996094 -71.78125 Z M -247 -74.785156 " transform="matrix(-1,0,0,-1,0,0)"/>
<path style="fill:none;stroke-width:0.751181;stroke-linecap:butt;stroke-linejoin:miter;stroke:rgb(50.195312%,0%,50.195312%);stroke-opacity:1;stroke-miterlimit:4;" d="M 233.960938 78.824219 L 254.664062 78.824219 "/>
<path style="fill-rule:evenodd;fill:rgb(50.195312%,0%,50.195312%);fill-opacity:1;stroke-width:0.80126;stroke-linecap:butt;stroke-linejoin:miter;stroke:rgb(50.195312%,0%,50.195312%);stroke-opacity:1;stroke-miterlimit:4;" d="M -247.152344 -78.824219 L -244.144531 -81.828125 L -254.664062 -78.824219 L -244.144531 -75.820312 Z M -247.152344 -78.824219 " transform="matrix(-1,0,0,-1,0,0)"/>
<path style="fill-rule:nonzero;fill:rgb(78.430176%,76.861572%,71.763611%);fill-opacity:1;stroke-width:2.834646;stroke-linecap:round;stroke-linejoin:miter;stroke:rgb(0%,0%,0%);stroke-opacity:1;stroke-miterlimit:4;" d="M 268.53125 45.035156 C 268.53125 46.742188 267.855469 48.375 266.648438 49.582031 C 265.441406 50.789062 263.808594 51.464844 262.101562 51.464844 C 260.398438 51.464844 258.761719 50.789062 257.558594 49.582031 C 256.351562 48.375 255.675781 46.742188 255.675781 45.035156 C 255.675781 43.332031 256.351562 41.695312 257.558594 40.492188 C 258.761719 39.285156 260.398438 38.609375 262.101562 38.609375 C 263.808594 38.609375 265.441406 39.285156 266.648438 40.492188 C 267.855469 41.695312 268.53125 43.332031 268.53125 45.035156 Z M 268.53125 45.035156 "/>
<path style="fill-rule:nonzero;fill:rgb(78.430176%,76.861572%,71.763611%);fill-opacity:1;stroke-width:2.834646;stroke-linecap:round;stroke-linejoin:miter;stroke:rgb(0%,0%,0%);stroke-opacity:1;stroke-miterlimit:4;" d="M 268.53125 76.375 C 268.53125 78.082031 267.855469 79.714844 266.648438 80.921875 C 265.441406 82.128906 263.808594 82.804688 262.101562 82.804688 C 260.398438 82.804688 258.761719 82.128906 257.558594 80.921875 C 256.351562 79.714844 255.675781 78.082031 255.675781 76.375 C 255.675781 74.671875 256.351562 73.035156 257.558594 71.832031 C 258.761719 70.625 260.398438 69.949219 262.101562 69.949219 C 263.808594 69.949219 265.441406 70.625 266.648438 71.832031 C 267.855469 73.035156 268.53125 74.671875 268.53125 76.375 Z M 268.53125 76.375 "/>
<path style="fill-rule:nonzero;fill:rgb(78.430176%,76.861572%,71.763611%);fill-opacity:1;stroke-width:2.834646;stroke-linecap:round;stroke-linejoin:miter;stroke:rgb(0%,0%,0%);stroke-opacity:1;stroke-miterlimit:4;" d="M 268.53125 107.714844 C 268.53125 109.421875 267.855469 111.054688 266.648438 112.261719 C 265.441406 113.464844 263.808594 114.144531 262.101562 114.144531 C 260.398438 114.144531 258.761719 113.464844 257.558594 112.261719 C 256.351562 111.054688 255.675781 109.421875 255.675781 107.714844 C 255.675781 106.011719 256.351562 104.375 257.558594 103.167969 C 258.761719 101.964844 260.398438 101.285156 262.101562 101.285156 C 263.808594 101.285156 265.441406 101.964844 266.648438 103.167969 C 267.855469 104.375 268.53125 106.011719 268.53125 107.714844 Z M 268.53125 107.714844 "/>
<path style="fill-rule:nonzero;fill:rgb(78.430176%,76.861572%,71.763611%);fill-opacity:1;stroke-width:2.834646;stroke-linecap:round;stroke-linejoin:miter;stroke:rgb(0%,0%,0%);stroke-opacity:1;stroke-miterlimit:4;" d="M 303.429688 76.375 C 303.429688 78.082031 302.753906 79.714844 301.546875 80.921875 C 300.339844 82.128906 298.707031 82.804688 297 82.804688 C 293.449219 82.804688 290.574219 79.925781 290.574219 76.375 C 290.574219 72.824219 293.449219 69.949219 297 69.949219 C 298.707031 69.949219 300.339844 70.625 301.546875 71.832031 C 302.753906 73.035156 303.429688 74.671875 303.429688 76.375 Z M 303.429688 76.375 "/>
<path style="fill-rule:nonzero;fill:rgb(78.430176%,76.861572%,71.763611%);fill-opacity:1;stroke-width:2.834646;stroke-linecap:round;stroke-linejoin:miter;stroke:rgb(0%,0%,0%);stroke-opacity:1;stroke-miterlimit:4;" d="M 303.429688 107.714844 C 303.429688 109.421875 302.753906 111.054688 301.546875 112.261719 C 300.339844 113.464844 298.707031 114.144531 297 114.144531 C 293.449219 114.144531 290.574219 111.265625 290.574219 107.714844 C 290.574219 104.164062 293.449219 101.285156 297 101.285156 C 298.707031 101.285156 300.339844 101.964844 301.546875 103.167969 C 302.753906 104.375 303.429688 106.011719 303.429688 107.714844 Z M 303.429688 107.714844 "/>
<path style=" stroke:none;fill-rule:nonzero;fill:rgb(78.430176%,76.861572%,71.763611%);fill-opacity:1;" d="M 303.429688 139.054688 C 303.429688 140.757812 302.753906 142.394531 301.546875 143.601562 C 300.339844 144.804688 298.707031 145.484375 297 145.484375 C 293.449219 145.484375 290.574219 142.605469 290.574219 139.054688 C 290.574219 135.503906 293.449219 132.625 297 132.625 C 298.707031 132.625 300.339844 133.304688 301.546875 134.507812 C 302.753906 135.714844 303.429688 137.351562 303.429688 139.054688 Z M 303.429688 139.054688 "/>
<g clip-path="url(#clip2)" clip-rule="nonzero">
<path style="fill:none;stroke-width:2.834646;stroke-linecap:round;stroke-linejoin:miter;stroke:rgb(0%,0%,0%);stroke-opacity:1;stroke-miterlimit:4;" d="M 303.429688 139.054688 C 303.429688 140.757812 302.753906 142.394531 301.546875 143.601562 C 300.339844 144.804688 298.707031 145.484375 297 145.484375 C 293.449219 145.484375 290.574219 142.605469 290.574219 139.054688 C 290.574219 135.503906 293.449219 132.625 297 132.625 C 298.707031 132.625 300.339844 133.304688 301.546875 134.507812 C 302.753906 135.714844 303.429688 137.351562 303.429688 139.054688 Z M 303.429688 139.054688 "/>
</g>
<path style="fill:none;stroke-width:0.751181;stroke-linecap:butt;stroke-linejoin:miter;stroke:rgb(50.195312%,0%,50.195312%);stroke-opacity:1;stroke-miterlimit:4;" d="M 233.714844 42.890625 L 254.417969 42.890625 "/>
<path style="fill-rule:evenodd;fill:rgb(50.195312%,0%,50.195312%);fill-opacity:1;stroke-width:0.80126;stroke-linecap:butt;stroke-linejoin:miter;stroke:rgb(50.195312%,0%,50.195312%);stroke-opacity:1;stroke-miterlimit:4;" d="M -246.90625 -42.890625 L -243.902344 -45.894531 L -254.417969 -42.890625 L -243.902344 -39.886719 Z M -246.90625 -42.890625 " transform="matrix(-1,0,0,-1,0,0)"/>
<path style="fill:none;stroke-width:0.751181;stroke-linecap:butt;stroke-linejoin:miter;stroke:rgb(50.195312%,0%,50.195312%);stroke-opacity:1;stroke-miterlimit:4;" d="M 233.71875 48.28125 L 254.421875 48.28125 "/>
<path style="fill-rule:evenodd;fill:rgb(50.195312%,0%,50.195312%);fill-opacity:1;stroke-width:0.80126;stroke-linecap:butt;stroke-linejoin:miter;stroke:rgb(50.195312%,0%,50.195312%);stroke-opacity:1;stroke-miterlimit:4;" d="M -246.90625 -48.28125 L -243.902344 -51.285156 L -254.421875 -48.28125 L -243.902344 -45.277344 Z M -246.90625 -48.28125 " transform="matrix(-1,0,0,-1,0,0)"/>
<path style="fill:none;stroke-width:0.751181;stroke-linecap:butt;stroke-linejoin:miter;stroke:rgb(50.195312%,0%,50.195312%);stroke-opacity:1;stroke-miterlimit:4;" d="M 345.679688 144.097656 L 367.882812 144.140625 "/>
<path style="fill-rule:evenodd;fill:rgb(50.195312%,0%,50.195312%);fill-opacity:1;stroke-width:0.801258;stroke-linecap:butt;stroke-linejoin:miter;stroke:rgb(50.195312%,0%,50.195312%);stroke-opacity:1;stroke-miterlimit:4;" d="M -360.65415 -143.413173 L -357.648364 -146.419106 L -368.16587 -143.413972 L -357.648217 -140.407387 Z M -360.65415 -143.413173 " transform="matrix(-1,-0.00197371,0.00197371,-1,0,0)"/>
<path style="fill:none;stroke-width:0.751181;stroke-linecap:butt;stroke-linejoin:miter;stroke:rgb(50.195312%,0%,50.195312%);stroke-opacity:1;stroke-miterlimit:4;" d="M 345.820312 107.175781 L 366.523438 107.175781 "/>
<path style="fill-rule:evenodd;fill:rgb(50.195312%,0%,50.195312%);fill-opacity:1;stroke-width:0.80126;stroke-linecap:butt;stroke-linejoin:miter;stroke:rgb(50.195312%,0%,50.195312%);stroke-opacity:1;stroke-miterlimit:4;" d="M -359.011719 -107.175781 L -356.007812 -110.179688 L -366.523438 -107.175781 L -356.007812 -104.171875 Z M -359.011719 -107.175781 " transform="matrix(-1,0,0,-1,0,0)"/>
<path style="fill:none;stroke-width:0.751181;stroke-linecap:butt;stroke-linejoin:miter;stroke:rgb(50.195312%,0%,50.195312%);stroke-opacity:1;stroke-miterlimit:4;" d="M 345.859375 73.867188 L 366.558594 73.867188 "/>
<path style="fill-rule:evenodd;fill:rgb(50.195312%,0%,50.195312%);fill-opacity:1;stroke-width:0.80126;stroke-linecap:butt;stroke-linejoin:miter;stroke:rgb(50.195312%,0%,50.195312%);stroke-opacity:1;stroke-miterlimit:4;" d="M -359.046875 -73.867188 L -356.042969 -76.875 L -366.558594 -73.867188 L -356.042969 -70.863281 Z M -359.046875 -73.867188 " transform="matrix(-1,0,0,-1,0,0)"/>
<path style="fill:none;stroke-width:0.751181;stroke-linecap:butt;stroke-linejoin:miter;stroke:rgb(50.195312%,0%,50.195312%);stroke-opacity:1;stroke-miterlimit:4;" d="M 346.007812 127.542969 L 366.707031 127.542969 "/>
<path style="fill-rule:evenodd;fill:rgb(50.195312%,0%,50.195312%);fill-opacity:1;stroke-width:0.80126;stroke-linecap:butt;stroke-linejoin:miter;stroke:rgb(50.195312%,0%,50.195312%);stroke-opacity:1;stroke-miterlimit:4;" d="M -359.195312 -127.542969 L -356.191406 -130.550781 L -366.707031 -127.542969 L -356.191406 -124.539062 Z M -359.195312 -127.542969 " transform="matrix(-1,0,0,-1,0,0)"/>
<path style="fill:none;stroke-width:0.751181;stroke-linecap:butt;stroke-linejoin:miter;stroke:rgb(50.195312%,0%,50.195312%);stroke-opacity:1;stroke-miterlimit:4;" d="M 345.761719 35.203125 L 366.464844 35.203125 "/>
<path style="fill-rule:evenodd;fill:rgb(50.195312%,0%,50.195312%);fill-opacity:1;stroke-width:0.80126;stroke-linecap:butt;stroke-linejoin:miter;stroke:rgb(50.195312%,0%,50.195312%);stroke-opacity:1;stroke-miterlimit:4;" d="M -358.953125 -35.203125 L -355.945312 -38.207031 L -366.464844 -35.203125 L -355.945312 -32.195312 Z M -358.953125 -35.203125 " transform="matrix(-1,0,0,-1,0,0)"/>
<path style="fill:none;stroke-width:0.751181;stroke-linecap:butt;stroke-linejoin:miter;stroke:rgb(50.195312%,0%,50.195312%);stroke-opacity:1;stroke-miterlimit:4;" d="M 345.765625 81.925781 L 366.464844 81.925781 "/>
<path style="fill-rule:evenodd;fill:rgb(50.195312%,0%,50.195312%);fill-opacity:1;stroke-width:0.80126;stroke-linecap:butt;stroke-linejoin:miter;stroke:rgb(50.195312%,0%,50.195312%);stroke-opacity:1;stroke-miterlimit:4;" d="M -358.953125 -81.925781 L -355.949219 -84.933594 L -366.464844 -81.925781 L -355.949219 -78.921875 Z M -358.953125 -81.925781 " transform="matrix(-1,0,0,-1,0,0)"/>
<path style="fill:none;stroke-width:0.751181;stroke-linecap:butt;stroke-linejoin:miter;stroke:rgb(0%,0%,0%);stroke-opacity:1;stroke-miterlimit:4;" d="M 268.53125 76.375 L 289.234375 76.375 "/>
<path style="fill-rule:evenodd;fill:rgb(0%,0%,0%);fill-opacity:1;stroke-width:0.40063;stroke-linecap:butt;stroke-linejoin:miter;stroke:rgb(0%,0%,0%);stroke-opacity:1;stroke-miterlimit:4;" d="M -286.226562 -76.375 L -284.726562 -77.878906 L -289.984375 -76.375 L -284.726562 -74.875 Z M -286.226562 -76.375 " transform="matrix(-1,0,0,-1,0,0)"/>
<path style="fill:none;stroke-width:0.751181;stroke-linecap:butt;stroke-linejoin:miter;stroke:rgb(0%,0%,0%);stroke-opacity:1;stroke-miterlimit:4;" d="M 265.988281 80.929688 L 290.382812 103.390625 "/>
<path style="fill-rule:evenodd;fill:rgb(0%,0%,0%);fill-opacity:1;stroke-width:0.294724;stroke-linecap:butt;stroke-linejoin:miter;stroke:rgb(0%,0%,0%);stroke-opacity:1;stroke-miterlimit:4;" d="M -206.459804 88.744254 L -205.354555 87.636743 L -209.221569 88.744205 L -205.354239 89.847389 Z M -206.459804 88.744254 " transform="matrix(-1,-0.920759,0.920759,-1,0,0)"/>
<path style="fill:none;stroke-width:0.751181;stroke-linecap:butt;stroke-linejoin:miter;stroke:rgb(0%,50.195312%,50.195312%);stroke-opacity:1;stroke-miterlimit:4;" d="M 303.429688 76.375 L 324.132812 76.375 "/>
<path style="fill-rule:evenodd;fill:rgb(0%,50.195312%,50.195312%);fill-opacity:1;stroke-width:0.80126;stroke-linecap:butt;stroke-linejoin:miter;stroke:rgb(0%,50.195312%,50.195312%);stroke-opacity:1;stroke-miterlimit:4;" d="M -316.621094 -76.375 L -313.613281 -79.378906 L -324.132812 -76.375 L -313.613281 -73.371094 Z M -316.621094 -76.375 " transform="matrix(-1,0,0,-1,0,0)"/>
<path style="fill:none;stroke-width:0.751181;stroke-linecap:butt;stroke-linejoin:miter;stroke:rgb(0%,0%,0%);stroke-opacity:1;stroke-miterlimit:4;" d="M 268.53125 45.035156 L 303.761719 45.371094 "/>
<path style="fill-rule:evenodd;fill:rgb(0%,0%,0%);fill-opacity:1;stroke-width:0.400612;stroke-linecap:butt;stroke-linejoin:miter;stroke:rgb(0%,0%,0%);stroke-opacity:1;stroke-miterlimit:4;" d="M -301.16119 -42.4843 L -299.659832 -43.986836 L -304.918998 -42.483777 L -299.658654 -40.982941 Z M -301.16119 -42.4843 " transform="matrix(-1,-0.00949475,0.00949475,-1,0,0)"/>
<path style="fill:none;stroke-width:0.751181;stroke-linecap:butt;stroke-linejoin:miter;stroke:rgb(0%,50.195312%,50.195312%);stroke-opacity:1;stroke-miterlimit:4;" d="M 303.355469 104.679688 L 324.058594 104.679688 "/>
<path style="fill-rule:evenodd;fill:rgb(0%,50.195312%,50.195312%);fill-opacity:1;stroke-width:0.80126;stroke-linecap:butt;stroke-linejoin:miter;stroke:rgb(0%,50.195312%,50.195312%);stroke-opacity:1;stroke-miterlimit:4;" d="M -316.546875 -104.679688 L -313.539062 -107.683594 L -324.058594 -104.679688 L -313.539062 -101.675781 Z M -316.546875 -104.679688 " transform="matrix(-1,0,0,-1,0,0)"/>
<path style="fill:none;stroke-width:0.751181;stroke-linecap:butt;stroke-linejoin:miter;stroke:rgb(0%,50.195312%,50.195312%);stroke-opacity:1;stroke-miterlimit:4;" d="M 303.496094 110.484375 L 324.195312 110.484375 "/>
<path style="fill-rule:evenodd;fill:rgb(0%,50.195312%,50.195312%);fill-opacity:1;stroke-width:0.80126;stroke-linecap:butt;stroke-linejoin:miter;stroke:rgb(0%,50.195312%,50.195312%);stroke-opacity:1;stroke-miterlimit:4;" d="M -316.683594 -110.484375 L -313.679688 -113.488281 L -324.195312 -110.484375 L -313.679688 -107.476562 Z M -316.683594 -110.484375 " transform="matrix(-1,0,0,-1,0,0)"/>
<path style="fill:none;stroke-width:0.751181;stroke-linecap:butt;stroke-linejoin:miter;stroke:rgb(0%,0%,0%);stroke-opacity:1;stroke-miterlimit:4;" d="M 267.199219 111.910156 L 291.792969 134.664062 "/>
<path style="fill-rule:evenodd;fill:rgb(0%,0%,0%);fill-opacity:1;stroke-width:0.294059;stroke-linecap:butt;stroke-linejoin:miter;stroke:rgb(0%,0%,0%);stroke-opacity:1;stroke-miterlimit:4;" d="M -222.127922 72.908634 L -221.023984 71.805135 L -224.883129 72.907229 L -221.022319 74.010625 Z M -222.127922 72.908634 " transform="matrix(-1,-0.925294,0.925294,-1,0,0)"/>
<path style="fill:none;stroke-width:0.751181;stroke-linecap:butt;stroke-linejoin:miter;stroke:rgb(50.195312%,0%,50.195312%);stroke-opacity:1;stroke-miterlimit:4;" d="M 119.015625 132.867188 L 140.710938 132.855469 "/>
<path style="fill-rule:evenodd;fill:rgb(50.195312%,0%,50.195312%);fill-opacity:1;stroke-width:0.80126;stroke-linecap:butt;stroke-linejoin:miter;stroke:rgb(50.195312%,0%,50.195312%);stroke-opacity:1;stroke-miterlimit:4;" d="M -133.133225 -132.925472 L -130.127828 -135.927886 L -140.644944 -132.925295 L -130.130811 -129.920075 Z M -133.133225 -132.925472 " transform="matrix(-1,0.000496471,-0.000496471,-1,0,0)"/>
<path style="fill:none;stroke-width:0.751181;stroke-linecap:butt;stroke-linejoin:miter;stroke:rgb(0%,0%,0%);stroke-opacity:1;stroke-miterlimit:4;" d="M 140.710938 132.855469 C 168.816406 149.222656 168.828125 150.75 189.59375 151.984375 "/>
<path style="fill-rule:evenodd;fill:rgb(0%,0%,0%);fill-opacity:1;stroke-width:0.399926;stroke-linecap:butt;stroke-linejoin:miter;stroke:rgb(0%,0%,0%);stroke-opacity:1;stroke-miterlimit:4;" d="M -194.916574 -140.236701 L -193.415707 -141.735931 L -198.66658 -140.2368 L -193.417344 -138.735834 Z M -194.916574 -140.236701 " transform="matrix(-1,-0.0593484,0.0593484,-1,0,0)"/>
<path style="fill-rule:nonzero;fill:rgb(78.430176%,76.861572%,71.763611%);fill-opacity:1;stroke-width:2.834646;stroke-linecap:round;stroke-linejoin:miter;stroke:rgb(0%,0%,0%);stroke-opacity:1;stroke-miterlimit:4;" d="M 155.226562 45.035156 C 155.226562 48.585938 152.347656 51.464844 148.796875 51.464844 C 145.246094 51.464844 142.371094 48.585938 142.371094 45.035156 C 142.371094 41.488281 145.246094 38.609375 148.796875 38.609375 C 152.347656 38.609375 155.226562 41.488281 155.226562 45.035156 Z M 155.226562 45.035156 "/>
<path style="fill-rule:nonzero;fill:rgb(78.430176%,76.861572%,71.763611%);fill-opacity:1;stroke-width:2.834646;stroke-linecap:round;stroke-linejoin:miter;stroke:rgb(0%,0%,0%);stroke-opacity:1;stroke-miterlimit:4;" d="M 155.226562 76.375 C 155.226562 78.082031 154.550781 79.714844 153.34375 80.921875 C 152.136719 82.128906 150.503906 82.804688 148.796875 82.804688 C 147.09375 82.804688 145.457031 82.128906 144.253906 80.921875 C 143.046875 79.714844 142.371094 78.082031 142.371094 76.375 C 142.371094 72.824219 145.246094 69.949219 148.796875 69.949219 C 152.347656 69.949219 155.226562 72.824219 155.226562 76.375 Z M 155.226562 76.375 "/>
<path style="fill-rule:nonzero;fill:rgb(78.430176%,76.861572%,71.763611%);fill-opacity:1;stroke-width:2.834646;stroke-linecap:round;stroke-linejoin:miter;stroke:rgb(0%,0%,0%);stroke-opacity:1;stroke-miterlimit:4;" d="M 155.226562 107.714844 C 155.226562 111.265625 152.347656 114.144531 148.796875 114.144531 C 145.246094 114.144531 142.371094 111.265625 142.371094 107.714844 C 142.371094 104.164062 145.246094 101.285156 148.796875 101.285156 C 152.347656 101.285156 155.226562 104.164062 155.226562 107.714844 Z M 155.226562 107.714844 "/>
<path style="fill-rule:nonzero;fill:rgb(78.430176%,76.861572%,71.763611%);fill-opacity:1;stroke-width:2.834646;stroke-linecap:round;stroke-linejoin:miter;stroke:rgb(0%,0%,0%);stroke-opacity:1;stroke-miterlimit:4;" d="M 190.125 45.035156 C 190.125 48.585938 187.246094 51.464844 183.695312 51.464844 C 180.144531 51.464844 177.265625 48.585938 177.265625 45.035156 C 177.265625 41.488281 180.144531 38.609375 183.695312 38.609375 C 187.246094 38.609375 190.125 41.488281 190.125 45.035156 Z M 190.125 45.035156 "/>
<path style="fill-rule:nonzero;fill:rgb(78.430176%,76.861572%,71.763611%);fill-opacity:1;stroke-width:2.834646;stroke-linecap:round;stroke-linejoin:miter;stroke:rgb(0%,0%,0%);stroke-opacity:1;stroke-miterlimit:4;" d="M 190.125 76.375 C 190.125 78.082031 189.445312 79.714844 188.242188 80.921875 C 187.035156 82.128906 185.402344 82.804688 183.695312 82.804688 C 181.992188 82.804688 180.355469 82.128906 179.148438 80.921875 C 177.945312 79.714844 177.265625 78.082031 177.265625 76.375 C 177.265625 72.824219 180.144531 69.949219 183.695312 69.949219 C 187.246094 69.949219 190.125 72.824219 190.125 76.375 Z M 190.125 76.375 "/>
<path style="fill-rule:nonzero;fill:rgb(78.430176%,76.861572%,71.763611%);fill-opacity:1;stroke-width:2.834646;stroke-linecap:round;stroke-linejoin:miter;stroke:rgb(0%,0%,0%);stroke-opacity:1;stroke-miterlimit:4;" d="M 190.125 107.714844 C 190.125 111.265625 187.246094 114.144531 183.695312 114.144531 C 180.144531 114.144531 177.265625 111.265625 177.265625 107.714844 C 177.265625 104.164062 180.144531 101.285156 183.695312 101.285156 C 187.246094 101.285156 190.125 104.164062 190.125 107.714844 Z M 190.125 107.714844 "/>
<path style=" stroke:none;fill-rule:nonzero;fill:rgb(78.430176%,76.861572%,71.763611%);fill-opacity:1;" d="M 190.125 139.054688 C 190.125 142.605469 187.246094 145.484375 183.695312 145.484375 C 180.144531 145.484375 177.265625 142.605469 177.265625 139.054688 C 177.265625 135.503906 180.144531 132.625 183.695312 132.625 C 187.246094 132.625 190.125 135.503906 190.125 139.054688 Z M 190.125 139.054688 "/>
<g clip-path="url(#clip3)" clip-rule="nonzero">
<path style="fill:none;stroke-width:2.834646;stroke-linecap:round;stroke-linejoin:miter;stroke:rgb(0%,0%,0%);stroke-opacity:1;stroke-miterlimit:4;" d="M 190.125 139.054688 C 190.125 142.605469 187.246094 145.484375 183.695312 145.484375 C 180.144531 145.484375 177.265625 142.605469 177.265625 139.054688 C 177.265625 135.503906 180.144531 132.625 183.695312 132.625 C 187.246094 132.625 190.125 135.503906 190.125 139.054688 Z M 190.125 139.054688 "/>
</g>
<path style="fill:none;stroke-width:0.751181;stroke-linecap:butt;stroke-linejoin:miter;stroke:rgb(50.195312%,0%,50.195312%);stroke-opacity:1;stroke-miterlimit:4;" d="M 119.402344 45.316406 L 141.101562 45.304688 "/>
<path style="fill-rule:evenodd;fill:rgb(50.195312%,0%,50.195312%);fill-opacity:1;stroke-width:0.80126;stroke-linecap:butt;stroke-linejoin:miter;stroke:rgb(50.195312%,0%,50.195312%);stroke-opacity:1;stroke-miterlimit:4;" d="M -133.567316 -45.374906 L -130.561918 -48.381226 L -141.079035 -45.374729 L -130.560996 -42.369507 Z M -133.567316 -45.374906 " transform="matrix(-1,0.000496471,-0.000496471,-1,0,0)"/>
<path style="fill:none;stroke-width:0.751181;stroke-linecap:butt;stroke-linejoin:miter;stroke:rgb(50.195312%,0%,50.195312%);stroke-opacity:1;stroke-miterlimit:4;" d="M 118.890625 73.640625 L 140.585938 73.632812 "/>
<path style="fill-rule:evenodd;fill:rgb(50.195312%,0%,50.195312%);fill-opacity:1;stroke-width:0.80126;stroke-linecap:butt;stroke-linejoin:miter;stroke:rgb(50.195312%,0%,50.195312%);stroke-opacity:1;stroke-miterlimit:4;" d="M -133.037627 -73.702768 L -130.036137 -76.705184 L -140.549346 -73.702591 L -130.035213 -70.697371 Z M -133.037627 -73.702768 " transform="matrix(-1,0.000496471,-0.000496471,-1,0,0)"/>
<path style="fill:none;stroke-width:0.751181;stroke-linecap:butt;stroke-linejoin:miter;stroke:rgb(50.195312%,0%,50.195312%);stroke-opacity:1;stroke-miterlimit:4;" d="M 119.28125 78.394531 L 140.976562 78.386719 "/>
<path style="fill-rule:evenodd;fill:rgb(50.195312%,0%,50.195312%);fill-opacity:1;stroke-width:0.80126;stroke-linecap:butt;stroke-linejoin:miter;stroke:rgb(50.195312%,0%,50.195312%);stroke-opacity:1;stroke-miterlimit:4;" d="M -133.425892 -78.456867 L -130.420495 -81.459281 L -140.937611 -78.45669 L -130.419572 -75.451468 Z M -133.425892 -78.456867 " transform="matrix(-1,0.000496471,-0.000496471,-1,0,0)"/>
<path style="fill:none;stroke-width:0.751181;stroke-linecap:butt;stroke-linejoin:miter;stroke:rgb(50.195312%,0%,50.195312%);stroke-opacity:1;stroke-miterlimit:4;" d="M 119.84375 108.757812 L 141.542969 108.746094 "/>
<path style="fill-rule:evenodd;fill:rgb(50.195312%,0%,50.195312%);fill-opacity:1;stroke-width:0.80126;stroke-linecap:butt;stroke-linejoin:miter;stroke:rgb(50.195312%,0%,50.195312%);stroke-opacity:1;stroke-miterlimit:4;" d="M -133.977226 -108.816516 L -130.971827 -111.822836 L -141.488945 -108.816339 L -130.970905 -105.811117 Z M -133.977226 -108.816516 " transform="matrix(-1,0.000496471,-0.000496471,-1,0,0)"/>
<path style="fill:none;stroke-width:0.751181;stroke-linecap:butt;stroke-linejoin:miter;stroke:rgb(0%,0%,0%);stroke-opacity:1;stroke-miterlimit:4;" d="M 155.226562 45.035156 L 176.566406 45.070312 "/>
<path style="fill-rule:evenodd;fill:rgb(0%,0%,0%);fill-opacity:1;stroke-width:0.400629;stroke-linecap:butt;stroke-linejoin:miter;stroke:rgb(0%,0%,0%);stroke-opacity:1;stroke-miterlimit:4;" d="M -173.636558 -44.779237 L -172.131231 -46.281727 L -177.390467 -44.780842 L -172.134075 -43.277816 Z M -173.636558 -44.779237 " transform="matrix(-1,-0.00165385,0.00165385,-1,0,0)"/>
<path style="fill:none;stroke-width:0.751181;stroke-linecap:butt;stroke-linejoin:miter;stroke:rgb(0%,0%,0%);stroke-opacity:1;stroke-miterlimit:4;" d="M 153.351562 49.324219 L 177.855469 71.835938 "/>
<path style="fill-rule:evenodd;fill:rgb(0%,0%,0%);fill-opacity:1;stroke-width:0.295012;stroke-linecap:butt;stroke-linejoin:miter;stroke:rgb(0%,0%,0%);stroke-opacity:1;stroke-miterlimit:4;" d="M -130.017365 49.655268 L -128.911979 48.549795 L -132.781997 49.656349 L -128.909947 50.762772 Z M -130.017365 49.655268 " transform="matrix(-1,-0.9188,0.9188,-1,0,0)"/>
<path style="fill:none;stroke-width:0.751181;stroke-linecap:butt;stroke-linejoin:miter;stroke:rgb(0%,50.195312%,50.195312%);stroke-opacity:1;stroke-miterlimit:4;" d="M 190.125 45.035156 L 210.824219 45.035156 "/>
<path style="fill-rule:evenodd;fill:rgb(0%,50.195312%,50.195312%);fill-opacity:1;stroke-width:0.80126;stroke-linecap:butt;stroke-linejoin:miter;stroke:rgb(0%,50.195312%,50.195312%);stroke-opacity:1;stroke-miterlimit:4;" d="M -203.3125 -45.035156 L -200.308594 -48.042969 L -210.824219 -45.035156 L -200.308594 -42.03125 Z M -203.3125 -45.035156 " transform="matrix(-1,0,0,-1,0,0)"/>
<path style="fill:none;stroke-width:0.751181;stroke-linecap:butt;stroke-linejoin:miter;stroke:rgb(0%,50.195312%,50.195312%);stroke-opacity:1;stroke-miterlimit:4;" d="M 190.125 76.375 L 210.824219 76.375 "/>
<path style="fill-rule:evenodd;fill:rgb(0%,50.195312%,50.195312%);fill-opacity:1;stroke-width:0.80126;stroke-linecap:butt;stroke-linejoin:miter;stroke:rgb(0%,50.195312%,50.195312%);stroke-opacity:1;stroke-miterlimit:4;" d="M -203.3125 -76.375 L -200.308594 -79.378906 L -210.824219 -76.375 L -200.308594 -73.371094 Z M -203.3125 -76.375 " transform="matrix(-1,0,0,-1,0,0)"/>
<path style="fill:none;stroke-width:0.749999;stroke-linecap:butt;stroke-linejoin:miter;stroke:rgb(0%,0%,0%);stroke-opacity:1;stroke-miterlimit:3.6;" d="M 153.152344 80.59375 L 178.042969 103.027344 "/>
<path style="fill-rule:evenodd;fill:rgb(0%,0%,0%);fill-opacity:1;stroke-width:0.297135;stroke-linecap:butt;stroke-linejoin:miter;stroke:rgb(0%,0%,0%);stroke-opacity:1;stroke-miterlimit:4;" d="M -147.253089 31.68937 L -146.139195 30.576121 L -150.039067 31.688458 L -146.13984 32.803264 Z M -147.253089 31.68937 " transform="matrix(-1,-0.90123,0.90123,-1,0,0)"/>
<path style="fill:none;stroke-width:0.749999;stroke-linecap:butt;stroke-linejoin:miter;stroke:rgb(0%,0%,0%);stroke-opacity:1;stroke-miterlimit:3.6;" d="M 153.28125 112.441406 L 178.171875 134.875 "/>
<path style="fill-rule:evenodd;fill:rgb(0%,0%,0%);fill-opacity:1;stroke-width:0.297135;stroke-linecap:butt;stroke-linejoin:miter;stroke:rgb(0%,0%,0%);stroke-opacity:1;stroke-miterlimit:4;" d="M -163.164483 14.18154 L -162.048434 13.066348 L -165.948519 14.182784 L -162.049291 15.297589 Z M -163.164483 14.18154 " transform="matrix(-1,-0.90123,0.90123,-1,0,0)"/>
<path style="fill-rule:nonzero;fill:rgb(0%,50.195312%,50.195312%);fill-opacity:1;stroke-width:0.751181;stroke-linecap:butt;stroke-linejoin:miter;stroke:rgb(0%,50.195312%,50.195312%);stroke-opacity:1;stroke-miterlimit:4;" d="M 190.125 139.054688 L 212.636719 138.851562 "/>
<path style="fill-rule:evenodd;fill:rgb(0%,50.195312%,50.195312%);fill-opacity:1;stroke-width:0.801227;stroke-linecap:butt;stroke-linejoin:miter;stroke:rgb(0%,50.195312%,50.195312%);stroke-opacity:1;stroke-miterlimit:4;" d="M -203.844828 -140.771725 L -200.840947 -143.775658 L -211.356529 -140.77363 L -200.840895 -137.767845 Z M -203.844828 -140.771725 " transform="matrix(-1,0.00909396,-0.00909396,-1,0,0)"/>
<path style="fill-rule:nonzero;fill:rgb(0%,50.195312%,50.195312%);fill-opacity:1;stroke-width:0.751181;stroke-linecap:butt;stroke-linejoin:miter;stroke:rgb(0%,50.195312%,50.195312%);stroke-opacity:1;stroke-miterlimit:4;" d="M 189.59375 151.984375 L 213.007812 151.777344 "/>
<path style="fill-rule:evenodd;fill:rgb(0%,50.195312%,50.195312%);fill-opacity:1;stroke-width:0.801229;stroke-linecap:butt;stroke-linejoin:miter;stroke:rgb(0%,50.195312%,50.195312%);stroke-opacity:1;stroke-miterlimit:4;" d="M -204.152945 -153.628624 L -201.15011 -156.633621 L -211.66467 -153.627892 L -201.147948 -150.62579 Z M -204.152945 -153.628624 " transform="matrix(-1,0.00874283,-0.00874283,-1,0,0)"/>
<path style="fill-rule:nonzero;fill:rgb(0%,50.195312%,50.195312%);fill-opacity:1;stroke-width:0.751181;stroke-linecap:butt;stroke-linejoin:miter;stroke:rgb(0%,50.195312%,50.195312%);stroke-opacity:1;stroke-miterlimit:4;" d="M 188.863281 112.695312 L 212.277344 112.492188 "/>
<path style="fill-rule:evenodd;fill:rgb(0%,50.195312%,50.195312%);fill-opacity:1;stroke-width:0.801229;stroke-linecap:butt;stroke-linejoin:miter;stroke:rgb(0%,50.195312%,50.195312%);stroke-opacity:1;stroke-miterlimit:4;" d="M -203.765969 -114.340085 L -200.763134 -117.345082 L -211.277694 -114.339352 L -200.761006 -111.333344 Z M -203.765969 -114.340085 " transform="matrix(-1,0.00874283,-0.00874283,-1,0,0)"/>
<path style="fill-rule:nonzero;fill:rgb(0%,50.195312%,50.195312%);fill-opacity:1;stroke-width:0.751181;stroke-linecap:butt;stroke-linejoin:miter;stroke:rgb(0%,50.195312%,50.195312%);stroke-opacity:1;stroke-miterlimit:4;" d="M 188.800781 103.582031 L 212.214844 103.375 "/>
<path style="fill-rule:evenodd;fill:rgb(0%,50.195312%,50.195312%);fill-opacity:1;stroke-width:0.801229;stroke-linecap:butt;stroke-linejoin:miter;stroke:rgb(0%,50.195312%,50.195312%);stroke-opacity:1;stroke-miterlimit:4;" d="M -203.783178 -105.223048 L -200.780343 -108.228045 L -211.294903 -105.222315 L -200.782087 -102.220247 Z M -203.783178 -105.223048 " transform="matrix(-1,0.00874283,-0.00874283,-1,0,0)"/>
<path style="fill:none;stroke-width:1.417323;stroke-linecap:round;stroke-linejoin:round;stroke:rgb(0%,0%,100%);stroke-opacity:1;stroke-miterlimit:4;" d="M 109.328125 19.949219 C 114.84375 19.949219 119.285156 25.03125 119.285156 31.34375 L 119.285156 147.464844 C 119.285156 153.777344 114.84375 158.863281 109.328125 158.863281 C 103.8125 158.863281 99.375 153.777344 99.375 147.464844 L 99.375 31.34375 C 99.375 25.03125 103.8125 19.949219 109.328125 19.949219 Z M 109.328125 19.949219 "/>
<path style="fill:none;stroke-width:1.417323;stroke-linecap:round;stroke-linejoin:round;stroke:rgb(0%,0%,100%);stroke-opacity:1;stroke-miterlimit:4;" d="M 223.367188 19.949219 C 228.882812 19.949219 233.324219 25.03125 233.324219 31.34375 L 233.324219 147.464844 C 233.324219 153.777344 228.882812 158.863281 223.367188 158.863281 C 217.855469 158.863281 213.414062 153.777344 213.414062 147.464844 L 213.414062 31.34375 C 213.414062 25.03125 217.855469 19.949219 223.367188 19.949219 Z M 223.367188 19.949219 "/>
<path style="fill:none;stroke-width:1.417323;stroke-linecap:round;stroke-linejoin:round;stroke:rgb(0%,0%,100%);stroke-opacity:1;stroke-miterlimit:4;" d="M 335.773438 19.949219 C 341.289062 19.949219 345.730469 25.03125 345.730469 31.34375 L 345.730469 147.464844 C 345.730469 153.777344 341.289062 158.863281 335.773438 158.863281 C 330.261719 158.863281 325.820312 153.777344 325.820312 147.464844 L 325.820312 31.34375 C 325.820312 25.03125 330.261719 19.949219 335.773438 19.949219 Z M 335.773438 19.949219 "/>
</g>
</svg>
