<?xml version="1.0" encoding="utf-8" standalone="no"?>
<!DOCTYPE svg PUBLIC "-//W3C//DTD SVG 1.1//EN"
  "http://www.w3.org/Graphics/SVG/1.1/DTD/svg11.dtd">
<svg xmlns:xlink="http://www.w3.org/1999/xlink" width="460.8pt" height="345.6pt" viewBox="0 0 460.8 345.6" xmlns="http://www.w3.org/2000/svg" version="1.1">
 <metadata>
  <rdf:RDF xmlns:dc="http://purl.org/dc/elements/1.1/" xmlns:cc="http://creativecommons.org/ns#" xmlns:rdf="http://www.w3.org/1999/02/22-rdf-syntax-ns#">
   <cc:Work>
    <dc:type rdf:resource="http://purl.org/dc/dcmitype/StillImage"/>
    <dc:date>2022-06-26T15:33:18.670994</dc:date>
    <dc:format>image/svg+xml</dc:format>
    <dc:creator>
     <cc:Agent>
      <dc:title>Matplotlib v3.5.1, https://matplotlib.org/</dc:title>
     </cc:Agent>
    </dc:creator>
   </cc:Work>
  </rdf:RDF>
 </metadata>
 <defs>
  <style type="text/css">*{stroke-linejoin: round; stroke-linecap: butt}</style>
 </defs>
 <g id="figure_1">
  <g id="patch_1">
   <path d="M 0 345.6 
L 460.8 345.6 
L 460.8 0 
L 0 0 
z
" style="fill: #ffffff"/>
  </g>
  <g id="axes_1">
   <g id="patch_2">
    <path d="M 57.6 307.584 
L 414.72 307.584 
L 414.72 41.472 
L 57.6 41.472 
z
" style="fill: #ffffff"/>
   </g>
   <g id="patch_3">
    <path d="M 73.832727 295.488 
L 73.832727 53.568 
L 75.997091 162.929993 
L 78.161455 204.198285 
L 80.325818 225.874559 
L 82.490182 239.230195 
L 84.654545 248.287501 
L 86.818909 254.831786 
L 88.983273 259.78314 
L 91.147636 263.658769 
L 93.312 266.775937 
L 95.476364 269.336576 
L 97.640727 271.478247 
L 99.805091 273.295373 
L 101.969455 274.857072 
L 104.133818 276.21319 
L 106.298182 277.402231 
L 108.462545 278.45291 
L 110.626909 279.388215 
L 112.791273 280.226308 
L 114.955636 280.981329 
L 117.12 281.665289 
L 119.284364 282.287548 
L 121.448727 282.856296 
L 123.613091 283.377966 
L 125.777455 283.858343 
L 127.941818 284.301983 
L 130.106182 284.713094 
L 132.270545 285.094989 
L 134.434909 285.450803 
L 136.599273 285.783001 
L 138.763636 286.09397 
L 140.928 286.242072 
L 143.092364 286.385577 
L 145.256727 286.52472 
L 147.421091 286.659649 
L 149.585455 286.7906 
L 151.749818 286.9177 
L 153.914182 287.041161 
L 156.078545 287.161093 
L 158.242909 287.277689 
L 160.407273 287.391044 
L 162.571636 287.501332 
L 164.736 287.608636 
L 166.900364 287.713114 
L 169.064727 287.814838 
L 171.229091 287.913954 
L 173.393455 288.010524 
L 175.557818 288.104662 
L 177.722182 288.196477 
L 179.886545 288.286019 
L 182.050909 288.373405 
L 184.215273 288.45868 
L 186.379636 288.541951 
L 188.544 288.623256 
L 190.708364 288.702695 
L 192.872727 288.780302 
L 195.037091 288.856168 
L 197.201455 288.930324 
L 199.365818 289.002852 
L 201.530182 289.073781 
L 203.694545 289.143188 
L 205.858909 289.177325 
L 208.023273 289.211096 
L 210.187636 289.244514 
L 212.352 289.277572 
L 214.516364 289.310288 
L 216.680727 289.342655 
L 218.845091 289.374691 
L 221.009455 289.406388 
L 223.173818 289.437764 
L 225.338182 289.468813 
L 227.502545 289.49955 
L 229.666909 289.529969 
L 231.831273 289.560086 
L 233.995636 289.589895 
L 236.16 289.619411 
L 238.324364 289.648627 
L 240.488727 289.677554 
L 242.653091 289.706201 
L 244.817455 289.734562 
L 246.981818 289.762651 
L 249.146182 289.790463 
L 251.310545 289.81801 
L 253.474909 289.845287 
L 255.639273 289.872308 
L 257.803636 289.899066 
L 259.968 289.925576 
L 262.132364 289.95183 
L 264.296727 289.977843 
L 266.461091 290.003607 
L 268.625455 290.029137 
L 270.789818 290.04181 
L 272.954182 290.054425 
L 275.118545 290.066984 
L 277.282909 290.079482 
L 279.447273 290.091925 
L 281.611636 290.104309 
L 283.776 290.116639 
L 285.940364 290.12891 
L 288.104727 290.141127 
L 290.269091 290.153286 
L 292.433455 290.165393 
L 294.597818 290.177442 
L 296.762182 290.189439 
L 298.926545 290.20138 
L 301.090909 290.213269 
L 303.255273 290.225103 
L 305.419636 290.236884 
L 307.584 290.248614 
L 309.748364 290.26029 
L 311.912727 290.271916 
L 314.077091 290.283489 
L 316.241455 290.295012 
L 318.405818 290.306482 
L 320.570182 290.317904 
L 322.734545 290.329273 
L 324.898909 290.340595 
L 327.063273 290.351865 
L 329.227636 290.363088 
L 331.392 290.37426 
L 333.556364 290.385385 
L 335.720727 290.390929 
L 337.885091 290.39646 
L 340.049455 290.40198 
L 342.213818 290.407488 
L 344.378182 290.412985 
L 346.542545 290.418468 
L 348.706909 290.423941 
L 350.871273 290.429401 
L 353.035636 290.434851 
L 355.2 290.440287 
L 357.364364 290.445713 
L 359.528727 290.451126 
L 361.693091 290.456529 
L 363.857455 290.461919 
L 366.021818 290.467298 
L 368.186182 290.472665 
L 370.350545 290.478021 
L 372.514909 290.483366 
L 374.679273 290.488699 
L 376.843636 290.494021 
L 379.008 290.499331 
L 381.172364 290.504631 
L 383.336727 290.509919 
L 385.501091 290.515196 
L 387.665455 290.520461 
L 389.829818 290.525716 
L 391.994182 290.530959 
L 394.158545 290.536192 
L 396.322909 290.541413 
L 398.487273 295.488 
z
" clip-path="url(#pfe1158060c)" style="fill: #1f77b4"/>
   </g>
   <g id="patch_4">
    <path d="M 73.832727 53.568 
L 73.832727 53.568 
L 75.997091 162.929993 
L 78.161455 204.198285 
L 80.325818 225.874559 
L 82.490182 239.230195 
L 84.654545 248.287501 
L 86.818909 254.831786 
L 88.983273 259.78314 
L 91.147636 263.658769 
L 93.312 266.775937 
L 95.476364 269.336576 
L 97.640727 271.478247 
L 99.805091 273.295373 
L 101.969455 274.857072 
L 104.133818 276.21319 
L 106.298182 277.402231 
L 108.462545 278.45291 
L 110.626909 279.388215 
L 112.791273 280.226308 
L 114.955636 280.981329 
L 117.12 281.665289 
L 119.284364 282.287548 
L 121.448727 282.856296 
L 123.613091 283.377966 
L 125.777455 283.858343 
L 127.941818 284.301983 
L 130.106182 284.713094 
L 132.270545 285.094989 
L 134.434909 285.450803 
L 136.599273 285.783001 
L 138.763636 286.09397 
L 140.928 286.242072 
L 143.092364 286.385577 
L 145.256727 286.52472 
L 147.421091 286.659649 
L 149.585455 286.7906 
L 151.749818 286.9177 
L 153.914182 287.041161 
L 156.078545 287.161093 
L 158.242909 287.277689 
L 160.407273 287.391044 
L 162.571636 287.501332 
L 164.736 287.608636 
L 166.900364 287.713114 
L 169.064727 287.814838 
L 171.229091 287.913954 
L 173.393455 288.010524 
L 175.557818 288.104662 
L 177.722182 288.196477 
L 179.886545 288.286019 
L 182.050909 288.373405 
L 184.215273 288.45868 
L 186.379636 288.541951 
L 188.544 288.623256 
L 190.708364 288.702695 
L 192.872727 288.780302 
L 195.037091 288.856168 
L 197.201455 288.930324 
L 199.365818 289.002852 
L 201.530182 289.073781 
L 203.694545 289.143188 
L 205.858909 289.177325 
L 208.023273 289.211096 
L 210.187636 289.244514 
L 212.352 289.277572 
L 214.516364 289.310288 
L 216.680727 289.342655 
L 218.845091 289.374691 
L 221.009455 289.406388 
L 223.173818 289.437764 
L 225.338182 289.468813 
L 227.502545 289.49955 
L 229.666909 289.529969 
L 231.831273 289.560086 
L 233.995636 289.589895 
L 236.16 289.619411 
L 238.324364 289.648627 
L 240.488727 289.677554 
L 242.653091 289.706201 
L 244.817455 289.734562 
L 246.981818 289.762651 
L 249.146182 289.790463 
L 251.310545 289.81801 
L 253.474909 289.845287 
L 255.639273 289.872308 
L 257.803636 289.899066 
L 259.968 289.925576 
L 262.132364 289.95183 
L 264.296727 289.977843 
L 266.461091 290.003607 
L 268.625455 290.029137 
L 270.789818 290.04181 
L 272.954182 290.054425 
L 275.118545 290.066984 
L 277.282909 290.079482 
L 279.447273 290.091925 
L 281.611636 290.104309 
L 283.776 290.116639 
L 285.940364 290.12891 
L 288.104727 290.141127 
L 290.269091 290.153286 
L 292.433455 290.165393 
L 294.597818 290.177442 
L 296.762182 290.189439 
L 298.926545 290.20138 
L 301.090909 290.213269 
L 303.255273 290.225103 
L 305.419636 290.236884 
L 307.584 290.248614 
L 309.748364 290.26029 
L 311.912727 290.271916 
L 314.077091 290.283489 
L 316.241455 290.295012 
L 318.405818 290.306482 
L 320.570182 290.317904 
L 322.734545 290.329273 
L 324.898909 290.340595 
L 327.063273 290.351865 
L 329.227636 290.363088 
L 331.392 290.37426 
L 333.556364 290.385385 
L 335.720727 290.390929 
L 337.885091 290.39646 
L 340.049455 290.40198 
L 342.213818 290.407488 
L 344.378182 290.412985 
L 346.542545 290.418468 
L 348.706909 290.423941 
L 350.871273 290.429401 
L 353.035636 290.434851 
L 355.2 290.440287 
L 357.364364 290.445713 
L 359.528727 290.451126 
L 361.693091 290.456529 
L 363.857455 290.461919 
L 366.021818 290.467298 
L 368.186182 290.472665 
L 370.350545 290.478021 
L 372.514909 290.483366 
L 374.679273 290.488699 
L 376.843636 290.494021 
L 379.008 290.499331 
L 381.172364 290.504631 
L 383.336727 290.509919 
L 385.501091 290.515196 
L 387.665455 290.520461 
L 389.829818 290.525716 
L 391.994182 290.530959 
L 394.158545 290.536192 
L 396.322909 290.541413 
L 398.487273 53.568 
z
" clip-path="url(#pfe1158060c)" style="fill: #ff7f0e"/>
   </g>
   <g id="matplotlib.axis_1">
    <g id="xtick_1">
     <g id="line2d_1">
      <defs>
       <path id="m0d6b589a7c" d="M 0 0 
L 0 3.5 
" style="stroke: #000000; stroke-width: 0.8"/>
      </defs>
      <g>
       <use xlink:href="#m0d6b589a7c" x="73.832727" y="307.584" style="stroke: #000000; stroke-width: 0.8"/>
      </g>
     </g>
     <g id="text_1">
      <!-- 2023 -->
      <g transform="translate(61.107727 322.182437)scale(0.1 -0.1)">
       <defs>
        <path id="DejaVuSans-32" d="M 1228 531 
L 3431 531 
L 3431 0 
L 469 0 
L 469 531 
Q 828 903 1448 1529 
Q 2069 2156 2228 2338 
Q 2531 2678 2651 2914 
Q 2772 3150 2772 3378 
Q 2772 3750 2511 3984 
Q 2250 4219 1831 4219 
Q 1534 4219 1204 4116 
Q 875 4013 500 3803 
L 500 4441 
Q 881 4594 1212 4672 
Q 1544 4750 1819 4750 
Q 2544 4750 2975 4387 
Q 3406 4025 3406 3419 
Q 3406 3131 3298 2873 
Q 3191 2616 2906 2266 
Q 2828 2175 2409 1742 
Q 1991 1309 1228 531 
z
" transform="scale(0.015625)"/>
        <path id="DejaVuSans-30" d="M 2034 4250 
Q 1547 4250 1301 3770 
Q 1056 3291 1056 2328 
Q 1056 1369 1301 889 
Q 1547 409 2034 409 
Q 2525 409 2770 889 
Q 3016 1369 3016 2328 
Q 3016 3291 2770 3770 
Q 2525 4250 2034 4250 
z
M 2034 4750 
Q 2819 4750 3233 4129 
Q 3647 3509 3647 2328 
Q 3647 1150 3233 529 
Q 2819 -91 2034 -91 
Q 1250 -91 836 529 
Q 422 1150 422 2328 
Q 422 3509 836 4129 
Q 1250 4750 2034 4750 
z
" transform="scale(0.015625)"/>
        <path id="DejaVuSans-33" d="M 2597 2516 
Q 3050 2419 3304 2112 
Q 3559 1806 3559 1356 
Q 3559 666 3084 287 
Q 2609 -91 1734 -91 
Q 1441 -91 1130 -33 
Q 819 25 488 141 
L 488 750 
Q 750 597 1062 519 
Q 1375 441 1716 441 
Q 2309 441 2620 675 
Q 2931 909 2931 1356 
Q 2931 1769 2642 2001 
Q 2353 2234 1838 2234 
L 1294 2234 
L 1294 2753 
L 1863 2753 
Q 2328 2753 2575 2939 
Q 2822 3125 2822 3475 
Q 2822 3834 2567 4026 
Q 2313 4219 1838 4219 
Q 1578 4219 1281 4162 
Q 984 4106 628 3988 
L 628 4550 
Q 988 4650 1302 4700 
Q 1616 4750 1894 4750 
Q 2613 4750 3031 4423 
Q 3450 4097 3450 3541 
Q 3450 3153 3228 2886 
Q 3006 2619 2597 2516 
z
" transform="scale(0.015625)"/>
       </defs>
       <use xlink:href="#DejaVuSans-32"/>
       <use xlink:href="#DejaVuSans-30" x="63.623047"/>
       <use xlink:href="#DejaVuSans-32" x="127.246094"/>
       <use xlink:href="#DejaVuSans-33" x="190.869141"/>
      </g>
     </g>
    </g>
    <g id="xtick_2">
     <g id="line2d_2">
      <g>
       <use xlink:href="#m0d6b589a7c" x="138.763636" y="307.584" style="stroke: #000000; stroke-width: 0.8"/>
      </g>
     </g>
     <g id="text_2">
      <!-- 2026 -->
      <g transform="translate(126.038636 322.182437)scale(0.1 -0.1)">
       <defs>
        <path id="DejaVuSans-36" d="M 2113 2584 
Q 1688 2584 1439 2293 
Q 1191 2003 1191 1497 
Q 1191 994 1439 701 
Q 1688 409 2113 409 
Q 2538 409 2786 701 
Q 3034 994 3034 1497 
Q 3034 2003 2786 2293 
Q 2538 2584 2113 2584 
z
M 3366 4563 
L 3366 3988 
Q 3128 4100 2886 4159 
Q 2644 4219 2406 4219 
Q 1781 4219 1451 3797 
Q 1122 3375 1075 2522 
Q 1259 2794 1537 2939 
Q 1816 3084 2150 3084 
Q 2853 3084 3261 2657 
Q 3669 2231 3669 1497 
Q 3669 778 3244 343 
Q 2819 -91 2113 -91 
Q 1303 -91 875 529 
Q 447 1150 447 2328 
Q 447 3434 972 4092 
Q 1497 4750 2381 4750 
Q 2619 4750 2861 4703 
Q 3103 4656 3366 4563 
z
" transform="scale(0.015625)"/>
       </defs>
       <use xlink:href="#DejaVuSans-32"/>
       <use xlink:href="#DejaVuSans-30" x="63.623047"/>
       <use xlink:href="#DejaVuSans-32" x="127.246094"/>
       <use xlink:href="#DejaVuSans-36" x="190.869141"/>
      </g>
     </g>
    </g>
    <g id="xtick_3">
     <g id="line2d_3">
      <g>
       <use xlink:href="#m0d6b589a7c" x="203.694545" y="307.584" style="stroke: #000000; stroke-width: 0.8"/>
      </g>
     </g>
     <g id="text_3">
      <!-- 2029 -->
      <g transform="translate(190.969545 322.182437)scale(0.1 -0.1)">
       <defs>
        <path id="DejaVuSans-39" d="M 703 97 
L 703 672 
Q 941 559 1184 500 
Q 1428 441 1663 441 
Q 2288 441 2617 861 
Q 2947 1281 2994 2138 
Q 2813 1869 2534 1725 
Q 2256 1581 1919 1581 
Q 1219 1581 811 2004 
Q 403 2428 403 3163 
Q 403 3881 828 4315 
Q 1253 4750 1959 4750 
Q 2769 4750 3195 4129 
Q 3622 3509 3622 2328 
Q 3622 1225 3098 567 
Q 2575 -91 1691 -91 
Q 1453 -91 1209 -44 
Q 966 3 703 97 
z
M 1959 2075 
Q 2384 2075 2632 2365 
Q 2881 2656 2881 3163 
Q 2881 3666 2632 3958 
Q 2384 4250 1959 4250 
Q 1534 4250 1286 3958 
Q 1038 3666 1038 3163 
Q 1038 2656 1286 2365 
Q 1534 2075 1959 2075 
z
" transform="scale(0.015625)"/>
       </defs>
       <use xlink:href="#DejaVuSans-32"/>
       <use xlink:href="#DejaVuSans-30" x="63.623047"/>
       <use xlink:href="#DejaVuSans-32" x="127.246094"/>
       <use xlink:href="#DejaVuSans-39" x="190.869141"/>
      </g>
     </g>
    </g>
    <g id="xtick_4">
     <g id="line2d_4">
      <g>
       <use xlink:href="#m0d6b589a7c" x="268.625455" y="307.584" style="stroke: #000000; stroke-width: 0.8"/>
      </g>
     </g>
     <g id="text_4">
      <!-- 2032 -->
      <g transform="translate(255.900455 322.182437)scale(0.1 -0.1)">
       <use xlink:href="#DejaVuSans-32"/>
       <use xlink:href="#DejaVuSans-30" x="63.623047"/>
       <use xlink:href="#DejaVuSans-33" x="127.246094"/>
       <use xlink:href="#DejaVuSans-32" x="190.869141"/>
      </g>
     </g>
    </g>
    <g id="xtick_5">
     <g id="line2d_5">
      <g>
       <use xlink:href="#m0d6b589a7c" x="333.556364" y="307.584" style="stroke: #000000; stroke-width: 0.8"/>
      </g>
     </g>
     <g id="text_5">
      <!-- 2035 -->
      <g transform="translate(320.831364 322.182437)scale(0.1 -0.1)">
       <defs>
        <path id="DejaVuSans-35" d="M 691 4666 
L 3169 4666 
L 3169 4134 
L 1269 4134 
L 1269 2991 
Q 1406 3038 1543 3061 
Q 1681 3084 1819 3084 
Q 2600 3084 3056 2656 
Q 3513 2228 3513 1497 
Q 3513 744 3044 326 
Q 2575 -91 1722 -91 
Q 1428 -91 1123 -41 
Q 819 9 494 109 
L 494 744 
Q 775 591 1075 516 
Q 1375 441 1709 441 
Q 2250 441 2565 725 
Q 2881 1009 2881 1497 
Q 2881 1984 2565 2268 
Q 2250 2553 1709 2553 
Q 1456 2553 1204 2497 
Q 953 2441 691 2322 
L 691 4666 
z
" transform="scale(0.015625)"/>
       </defs>
       <use xlink:href="#DejaVuSans-32"/>
       <use xlink:href="#DejaVuSans-30" x="63.623047"/>
       <use xlink:href="#DejaVuSans-33" x="127.246094"/>
       <use xlink:href="#DejaVuSans-35" x="190.869141"/>
      </g>
     </g>
    </g>
   </g>
   <g id="matplotlib.axis_2">
    <g id="ytick_1">
     <g id="line2d_6">
      <defs>
       <path id="m340d9c3172" d="M 0 0 
L -3.5 0 
" style="stroke: #000000; stroke-width: 0.8"/>
      </defs>
      <g>
       <use xlink:href="#m340d9c3172" x="57.6" y="295.488" style="stroke: #000000; stroke-width: 0.8"/>
      </g>
     </g>
     <g id="text_6">
      <!-- 0.0 -->
      <g transform="translate(34.696875 299.287219)scale(0.1 -0.1)">
       <defs>
        <path id="DejaVuSans-2e" d="M 684 794 
L 1344 794 
L 1344 0 
L 684 0 
L 684 794 
z
" transform="scale(0.015625)"/>
       </defs>
       <use xlink:href="#DejaVuSans-30"/>
       <use xlink:href="#DejaVuSans-2e" x="63.623047"/>
       <use xlink:href="#DejaVuSans-30" x="95.410156"/>
      </g>
     </g>
    </g>
    <g id="ytick_2">
     <g id="line2d_7">
      <g>
       <use xlink:href="#m340d9c3172" x="57.6" y="247.104" style="stroke: #000000; stroke-width: 0.8"/>
      </g>
     </g>
     <g id="text_7">
      <!-- 0.2 -->
      <g transform="translate(34.696875 250.903219)scale(0.1 -0.1)">
       <use xlink:href="#DejaVuSans-30"/>
       <use xlink:href="#DejaVuSans-2e" x="63.623047"/>
       <use xlink:href="#DejaVuSans-32" x="95.410156"/>
      </g>
     </g>
    </g>
    <g id="ytick_3">
     <g id="line2d_8">
      <g>
       <use xlink:href="#m340d9c3172" x="57.6" y="198.72" style="stroke: #000000; stroke-width: 0.8"/>
      </g>
     </g>
     <g id="text_8">
      <!-- 0.4 -->
      <g transform="translate(34.696875 202.519219)scale(0.1 -0.1)">
       <defs>
        <path id="DejaVuSans-34" d="M 2419 4116 
L 825 1625 
L 2419 1625 
L 2419 4116 
z
M 2253 4666 
L 3047 4666 
L 3047 1625 
L 3713 1625 
L 3713 1100 
L 3047 1100 
L 3047 0 
L 2419 0 
L 2419 1100 
L 313 1100 
L 313 1709 
L 2253 4666 
z
" transform="scale(0.015625)"/>
       </defs>
       <use xlink:href="#DejaVuSans-30"/>
       <use xlink:href="#DejaVuSans-2e" x="63.623047"/>
       <use xlink:href="#DejaVuSans-34" x="95.410156"/>
      </g>
     </g>
    </g>
    <g id="ytick_4">
     <g id="line2d_9">
      <g>
       <use xlink:href="#m340d9c3172" x="57.6" y="150.336" style="stroke: #000000; stroke-width: 0.8"/>
      </g>
     </g>
     <g id="text_9">
      <!-- 0.6 -->
      <g transform="translate(34.696875 154.135219)scale(0.1 -0.1)">
       <use xlink:href="#DejaVuSans-30"/>
       <use xlink:href="#DejaVuSans-2e" x="63.623047"/>
       <use xlink:href="#DejaVuSans-36" x="95.410156"/>
      </g>
     </g>
    </g>
    <g id="ytick_5">
     <g id="line2d_10">
      <g>
       <use xlink:href="#m340d9c3172" x="57.6" y="101.952" style="stroke: #000000; stroke-width: 0.8"/>
      </g>
     </g>
     <g id="text_10">
      <!-- 0.8 -->
      <g transform="translate(34.696875 105.751219)scale(0.1 -0.1)">
       <defs>
        <path id="DejaVuSans-38" d="M 2034 2216 
Q 1584 2216 1326 1975 
Q 1069 1734 1069 1313 
Q 1069 891 1326 650 
Q 1584 409 2034 409 
Q 2484 409 2743 651 
Q 3003 894 3003 1313 
Q 3003 1734 2745 1975 
Q 2488 2216 2034 2216 
z
M 1403 2484 
Q 997 2584 770 2862 
Q 544 3141 544 3541 
Q 544 4100 942 4425 
Q 1341 4750 2034 4750 
Q 2731 4750 3128 4425 
Q 3525 4100 3525 3541 
Q 3525 3141 3298 2862 
Q 3072 2584 2669 2484 
Q 3125 2378 3379 2068 
Q 3634 1759 3634 1313 
Q 3634 634 3220 271 
Q 2806 -91 2034 -91 
Q 1263 -91 848 271 
Q 434 634 434 1313 
Q 434 1759 690 2068 
Q 947 2378 1403 2484 
z
M 1172 3481 
Q 1172 3119 1398 2916 
Q 1625 2713 2034 2713 
Q 2441 2713 2670 2916 
Q 2900 3119 2900 3481 
Q 2900 3844 2670 4047 
Q 2441 4250 2034 4250 
Q 1625 4250 1398 4047 
Q 1172 3844 1172 3481 
z
" transform="scale(0.015625)"/>
       </defs>
       <use xlink:href="#DejaVuSans-30"/>
       <use xlink:href="#DejaVuSans-2e" x="63.623047"/>
       <use xlink:href="#DejaVuSans-38" x="95.410156"/>
      </g>
     </g>
    </g>
    <g id="ytick_6">
     <g id="line2d_11">
      <g>
       <use xlink:href="#m340d9c3172" x="57.6" y="53.568" style="stroke: #000000; stroke-width: 0.8"/>
      </g>
     </g>
     <g id="text_11">
      <!-- 1.0 -->
      <g transform="translate(34.696875 57.367219)scale(0.1 -0.1)">
       <defs>
        <path id="DejaVuSans-31" d="M 794 531 
L 1825 531 
L 1825 4091 
L 703 3866 
L 703 4441 
L 1819 4666 
L 2450 4666 
L 2450 531 
L 3481 531 
L 3481 0 
L 794 0 
L 794 531 
z
" transform="scale(0.015625)"/>
       </defs>
       <use xlink:href="#DejaVuSans-31"/>
       <use xlink:href="#DejaVuSans-2e" x="63.623047"/>
       <use xlink:href="#DejaVuSans-30" x="95.410156"/>
      </g>
     </g>
    </g>
   </g>
   <g id="patch_5">
    <path d="M 57.6 307.584 
L 57.6 41.472 
" style="fill: none; stroke: #000000; stroke-width: 0.8; stroke-linejoin: miter; stroke-linecap: square"/>
   </g>
   <g id="patch_6">
    <path d="M 414.72 307.584 
L 414.72 41.472 
" style="fill: none; stroke: #000000; stroke-width: 0.8; stroke-linejoin: miter; stroke-linecap: square"/>
   </g>
   <g id="patch_7">
    <path d="M 57.6 307.584 
L 414.72 307.584 
" style="fill: none; stroke: #000000; stroke-width: 0.8; stroke-linejoin: miter; stroke-linecap: square"/>
   </g>
   <g id="patch_8">
    <path d="M 57.6 41.472 
L 414.72 41.472 
" style="fill: none; stroke: #000000; stroke-width: 0.8; stroke-linejoin: miter; stroke-linecap: square"/>
   </g>
   <g id="text_12">
    <!-- competitive mining -->
    <g transform="translate(117.12 210.816)scale(0.1 -0.1)">
     <defs>
      <path id="DejaVuSans-63" d="M 3122 3366 
L 3122 2828 
Q 2878 2963 2633 3030 
Q 2388 3097 2138 3097 
Q 1578 3097 1268 2742 
Q 959 2388 959 1747 
Q 959 1106 1268 751 
Q 1578 397 2138 397 
Q 2388 397 2633 464 
Q 2878 531 3122 666 
L 3122 134 
Q 2881 22 2623 -34 
Q 2366 -91 2075 -91 
Q 1284 -91 818 406 
Q 353 903 353 1747 
Q 353 2603 823 3093 
Q 1294 3584 2113 3584 
Q 2378 3584 2631 3529 
Q 2884 3475 3122 3366 
z
" transform="scale(0.015625)"/>
      <path id="DejaVuSans-6f" d="M 1959 3097 
Q 1497 3097 1228 2736 
Q 959 2375 959 1747 
Q 959 1119 1226 758 
Q 1494 397 1959 397 
Q 2419 397 2687 759 
Q 2956 1122 2956 1747 
Q 2956 2369 2687 2733 
Q 2419 3097 1959 3097 
z
M 1959 3584 
Q 2709 3584 3137 3096 
Q 3566 2609 3566 1747 
Q 3566 888 3137 398 
Q 2709 -91 1959 -91 
Q 1206 -91 779 398 
Q 353 888 353 1747 
Q 353 2609 779 3096 
Q 1206 3584 1959 3584 
z
" transform="scale(0.015625)"/>
      <path id="DejaVuSans-6d" d="M 3328 2828 
Q 3544 3216 3844 3400 
Q 4144 3584 4550 3584 
Q 5097 3584 5394 3201 
Q 5691 2819 5691 2113 
L 5691 0 
L 5113 0 
L 5113 2094 
Q 5113 2597 4934 2840 
Q 4756 3084 4391 3084 
Q 3944 3084 3684 2787 
Q 3425 2491 3425 1978 
L 3425 0 
L 2847 0 
L 2847 2094 
Q 2847 2600 2669 2842 
Q 2491 3084 2119 3084 
Q 1678 3084 1418 2786 
Q 1159 2488 1159 1978 
L 1159 0 
L 581 0 
L 581 3500 
L 1159 3500 
L 1159 2956 
Q 1356 3278 1631 3431 
Q 1906 3584 2284 3584 
Q 2666 3584 2933 3390 
Q 3200 3197 3328 2828 
z
" transform="scale(0.015625)"/>
      <path id="DejaVuSans-70" d="M 1159 525 
L 1159 -1331 
L 581 -1331 
L 581 3500 
L 1159 3500 
L 1159 2969 
Q 1341 3281 1617 3432 
Q 1894 3584 2278 3584 
Q 2916 3584 3314 3078 
Q 3713 2572 3713 1747 
Q 3713 922 3314 415 
Q 2916 -91 2278 -91 
Q 1894 -91 1617 61 
Q 1341 213 1159 525 
z
M 3116 1747 
Q 3116 2381 2855 2742 
Q 2594 3103 2138 3103 
Q 1681 3103 1420 2742 
Q 1159 2381 1159 1747 
Q 1159 1113 1420 752 
Q 1681 391 2138 391 
Q 2594 391 2855 752 
Q 3116 1113 3116 1747 
z
" transform="scale(0.015625)"/>
      <path id="DejaVuSans-65" d="M 3597 1894 
L 3597 1613 
L 953 1613 
Q 991 1019 1311 708 
Q 1631 397 2203 397 
Q 2534 397 2845 478 
Q 3156 559 3463 722 
L 3463 178 
Q 3153 47 2828 -22 
Q 2503 -91 2169 -91 
Q 1331 -91 842 396 
Q 353 884 353 1716 
Q 353 2575 817 3079 
Q 1281 3584 2069 3584 
Q 2775 3584 3186 3129 
Q 3597 2675 3597 1894 
z
M 3022 2063 
Q 3016 2534 2758 2815 
Q 2500 3097 2075 3097 
Q 1594 3097 1305 2825 
Q 1016 2553 972 2059 
L 3022 2063 
z
" transform="scale(0.015625)"/>
      <path id="DejaVuSans-74" d="M 1172 4494 
L 1172 3500 
L 2356 3500 
L 2356 3053 
L 1172 3053 
L 1172 1153 
Q 1172 725 1289 603 
Q 1406 481 1766 481 
L 2356 481 
L 2356 0 
L 1766 0 
Q 1100 0 847 248 
Q 594 497 594 1153 
L 594 3053 
L 172 3053 
L 172 3500 
L 594 3500 
L 594 4494 
L 1172 4494 
z
" transform="scale(0.015625)"/>
      <path id="DejaVuSans-69" d="M 603 3500 
L 1178 3500 
L 1178 0 
L 603 0 
L 603 3500 
z
M 603 4863 
L 1178 4863 
L 1178 4134 
L 603 4134 
L 603 4863 
z
" transform="scale(0.015625)"/>
      <path id="DejaVuSans-76" d="M 191 3500 
L 800 3500 
L 1894 563 
L 2988 3500 
L 3597 3500 
L 2284 0 
L 1503 0 
L 191 3500 
z
" transform="scale(0.015625)"/>
      <path id="DejaVuSans-20" transform="scale(0.015625)"/>
      <path id="DejaVuSans-6e" d="M 3513 2113 
L 3513 0 
L 2938 0 
L 2938 2094 
Q 2938 2591 2744 2837 
Q 2550 3084 2163 3084 
Q 1697 3084 1428 2787 
Q 1159 2491 1159 1978 
L 1159 0 
L 581 0 
L 581 3500 
L 1159 3500 
L 1159 2956 
Q 1366 3272 1645 3428 
Q 1925 3584 2291 3584 
Q 2894 3584 3203 3211 
Q 3513 2838 3513 2113 
z
" transform="scale(0.015625)"/>
      <path id="DejaVuSans-67" d="M 2906 1791 
Q 2906 2416 2648 2759 
Q 2391 3103 1925 3103 
Q 1463 3103 1205 2759 
Q 947 2416 947 1791 
Q 947 1169 1205 825 
Q 1463 481 1925 481 
Q 2391 481 2648 825 
Q 2906 1169 2906 1791 
z
M 3481 434 
Q 3481 -459 3084 -895 
Q 2688 -1331 1869 -1331 
Q 1566 -1331 1297 -1286 
Q 1028 -1241 775 -1147 
L 775 -588 
Q 1028 -725 1275 -790 
Q 1522 -856 1778 -856 
Q 2344 -856 2625 -561 
Q 2906 -266 2906 331 
L 2906 616 
Q 2728 306 2450 153 
Q 2172 0 1784 0 
Q 1141 0 747 490 
Q 353 981 353 1791 
Q 353 2603 747 3093 
Q 1141 3584 1784 3584 
Q 2172 3584 2450 3431 
Q 2728 3278 2906 2969 
L 2906 3500 
L 3481 3500 
L 3481 434 
z
" transform="scale(0.015625)"/>
     </defs>
     <use xlink:href="#DejaVuSans-63"/>
     <use xlink:href="#DejaVuSans-6f" x="54.980469"/>
     <use xlink:href="#DejaVuSans-6d" x="116.162109"/>
     <use xlink:href="#DejaVuSans-70" x="213.574219"/>
     <use xlink:href="#DejaVuSans-65" x="277.050781"/>
     <use xlink:href="#DejaVuSans-74" x="338.574219"/>
     <use xlink:href="#DejaVuSans-69" x="377.783203"/>
     <use xlink:href="#DejaVuSans-74" x="405.566406"/>
     <use xlink:href="#DejaVuSans-69" x="444.775391"/>
     <use xlink:href="#DejaVuSans-76" x="472.558594"/>
     <use xlink:href="#DejaVuSans-65" x="531.738281"/>
     <use xlink:href="#DejaVuSans-20" x="593.261719"/>
     <use xlink:href="#DejaVuSans-6d" x="625.048828"/>
     <use xlink:href="#DejaVuSans-69" x="722.460938"/>
     <use xlink:href="#DejaVuSans-6e" x="750.244141"/>
     <use xlink:href="#DejaVuSans-69" x="813.623047"/>
     <use xlink:href="#DejaVuSans-6e" x="841.40625"/>
     <use xlink:href="#DejaVuSans-67" x="904.785156"/>
    </g>
   </g>
   <g id="patch_9">
    <path d="M 122.544831 264.183562 
Q 104.491211 273.335825 87.434803 281.982551 
" style="fill: none; stroke: #000000; stroke-linecap: round"/>
    <path d="M 91.906871 281.95776 
L 87.434803 281.982551 
L 90.09821 278.390023 
" style="fill: none; stroke: #000000; stroke-linecap: round"/>
   </g>
   <g id="text_13">
    <!-- premine -->
    <g transform="translate(117.12 259.2)scale(0.1 -0.1)">
     <defs>
      <path id="DejaVuSans-72" d="M 2631 2963 
Q 2534 3019 2420 3045 
Q 2306 3072 2169 3072 
Q 1681 3072 1420 2755 
Q 1159 2438 1159 1844 
L 1159 0 
L 581 0 
L 581 3500 
L 1159 3500 
L 1159 2956 
Q 1341 3275 1631 3429 
Q 1922 3584 2338 3584 
Q 2397 3584 2469 3576 
Q 2541 3569 2628 3553 
L 2631 2963 
z
" transform="scale(0.015625)"/>
     </defs>
     <use xlink:href="#DejaVuSans-70"/>
     <use xlink:href="#DejaVuSans-72" x="63.476562"/>
     <use xlink:href="#DejaVuSans-65" x="102.339844"/>
     <use xlink:href="#DejaVuSans-6d" x="163.863281"/>
     <use xlink:href="#DejaVuSans-69" x="261.275391"/>
     <use xlink:href="#DejaVuSans-6e" x="289.058594"/>
     <use xlink:href="#DejaVuSans-65" x="352.4375"/>
    </g>
   </g>
   <g id="text_14">
    <!-- premine proportion over time -->
    <g transform="translate(147.413437 35.472)scale(0.12 -0.12)">
     <use xlink:href="#DejaVuSans-70"/>
     <use xlink:href="#DejaVuSans-72" x="63.476562"/>
     <use xlink:href="#DejaVuSans-65" x="102.339844"/>
     <use xlink:href="#DejaVuSans-6d" x="163.863281"/>
     <use xlink:href="#DejaVuSans-69" x="261.275391"/>
     <use xlink:href="#DejaVuSans-6e" x="289.058594"/>
     <use xlink:href="#DejaVuSans-65" x="352.4375"/>
     <use xlink:href="#DejaVuSans-20" x="413.960938"/>
     <use xlink:href="#DejaVuSans-70" x="445.748047"/>
     <use xlink:href="#DejaVuSans-72" x="509.224609"/>
     <use xlink:href="#DejaVuSans-6f" x="548.087891"/>
     <use xlink:href="#DejaVuSans-70" x="609.269531"/>
     <use xlink:href="#DejaVuSans-6f" x="672.746094"/>
     <use xlink:href="#DejaVuSans-72" x="733.927734"/>
     <use xlink:href="#DejaVuSans-74" x="775.041016"/>
     <use xlink:href="#DejaVuSans-69" x="814.25"/>
     <use xlink:href="#DejaVuSans-6f" x="842.033203"/>
     <use xlink:href="#DejaVuSans-6e" x="903.214844"/>
     <use xlink:href="#DejaVuSans-20" x="966.59375"/>
     <use xlink:href="#DejaVuSans-6f" x="998.380859"/>
     <use xlink:href="#DejaVuSans-76" x="1059.5625"/>
     <use xlink:href="#DejaVuSans-65" x="1118.742188"/>
     <use xlink:href="#DejaVuSans-72" x="1180.265625"/>
     <use xlink:href="#DejaVuSans-20" x="1221.378906"/>
     <use xlink:href="#DejaVuSans-74" x="1253.166016"/>
     <use xlink:href="#DejaVuSans-69" x="1292.375"/>
     <use xlink:href="#DejaVuSans-6d" x="1320.158203"/>
     <use xlink:href="#DejaVuSans-65" x="1417.570312"/>
    </g>
   </g>
  </g>
 </g>
 <defs>
  <clipPath id="pfe1158060c">
   <rect x="57.6" y="41.472" width="357.12" height="266.112"/>
  </clipPath>
 </defs>
</svg>
