<?xml version="1.0" encoding="UTF-8" standalone="no"?>
<!-- Created with Inkscape (http://www.inkscape.org/) -->

<svg
   version="1.1"
   id="svg2"
   width="421.46338"
   height="260.60486"
   viewBox="0 0 421.46338 260.60486"
   sodipodi:docname="premine-distribution-pie-chart.svg"
   inkscape:version="1.2.2 (b0a8486541, 2022-12-01)"
   xmlns:inkscape="http://www.inkscape.org/namespaces/inkscape"
   xmlns:sodipodi="http://sodipodi.sourceforge.net/DTD/sodipodi-0.dtd"
   xmlns="http://www.w3.org/2000/svg"
   xmlns:svg="http://www.w3.org/2000/svg">
  <defs
     id="defs6">
    <clipPath
       clipPathUnits="userSpaceOnUse"
       id="clipPath168">
      <path
         d="M -2,-2 H 1314 V 379 H -2 Z"
         id="path166" />
    </clipPath>
    <clipPath
       clipPathUnits="userSpaceOnUse"
       id="clipPath180">
      <path
         d="M 0,0 H 600 V 371 H 0 Z"
         id="path178" />
    </clipPath>
    <clipPath
       clipPathUnits="userSpaceOnUse"
       id="clipPath198">
      <path
         d="M 0,0 H 600 V 371 H 0 Z"
         id="path196" />
    </clipPath>
    <clipPath
       clipPathUnits="userSpaceOnUse"
       id="clipPath904">
      <g
         id="g908"
         transform="matrix(1.8981482,0,0,-1.8981482,-95.666664,1059.1667)">
        <path
           d="M 49.346339,559.05366 H 742.65363 V 358.33171 H 49.346339 Z"
           id="path906"
           style="stroke-width:0.526829" />
      </g>
    </clipPath>
    <clipPath
       clipPathUnits="userSpaceOnUse"
       id="clipPath910">
      <g
         id="g914">
        <path
           d="M 49.346339,559.05366 H 742.65363 V 358.33171 H 49.346339 Z"
           id="path912"
           style="stroke-width:0.526829" />
      </g>
    </clipPath>
    <clipPath
       clipPathUnits="userSpaceOnUse"
       id="clipPath651">
      <g
         id="g661">
        <g
           id="g659"
           transform="translate(1.7905692e-6,1.2405692e-5)">
          <g
             id="g657"
             transform="translate(1.7905692e-6,1.2405692e-5)">
            <g
               id="g655"
               transform="translate(1.7905692e-6,1.2405692e-5)">
              <path
                 d="M 397.58047,558 H 713.67801 V 362.54635 H 397.58047 Z"
                 id="path653"
                 style="stroke-width:0.526829" />
            </g>
          </g>
        </g>
      </g>
    </clipPath>
    <clipPath
       clipPathUnits="userSpaceOnUse"
       id="clipPath762">
      <g
         id="g774"
         transform="matrix(1.8981483,0,0,-1.8981483,-754.66667,1059.1667)">
        <g
           id="g772"
           transform="translate(1.7905692e-6,1.2405692e-5)">
          <g
             id="g770"
             transform="translate(1.7905692e-6,1.2405692e-5)">
            <g
               id="g768"
               transform="translate(1.7905692e-6,1.2405692e-5)">
              <g
                 id="g766"
                 transform="translate(1.7905692e-6,1.2405692e-5)">
                <path
                   d="M 397.58047,558 H 713.67801 V 362.54635 H 397.58047 Z"
                   id="path764"
                   style="stroke-width:0.526829" />
              </g>
            </g>
          </g>
        </g>
      </g>
    </clipPath>
    <clipPath
       clipPathUnits="userSpaceOnUse"
       id="clipPath776">
      <g
         id="g788">
        <g
           id="g786"
           transform="translate(1.7905692e-6,1.2405692e-5)">
          <g
             id="g784"
             transform="translate(1.7905692e-6,1.2405692e-5)">
            <g
               id="g782"
               transform="translate(1.7905692e-6,1.2405692e-5)">
              <g
                 id="g780"
                 transform="translate(1.7905692e-6,1.2405692e-5)">
                <path
                   d="M 397.58047,558 H 713.67801 V 362.54635 H 397.58047 Z"
                   id="path778"
                   style="stroke-width:0.526829" />
              </g>
            </g>
          </g>
        </g>
      </g>
    </clipPath>
  </defs>
  <sodipodi:namedview
     id="namedview4"
     pagecolor="#ffffff"
     bordercolor="#000000"
     borderopacity="0.25"
     inkscape:showpageshadow="2"
     inkscape:pageopacity="0.0"
     inkscape:pagecheckerboard="0"
     inkscape:deskcolor="#d1d1d1"
     showgrid="false"
     inkscape:zoom="1.3604873"
     inkscape:cx="299.15751"
     inkscape:cy="156.92906"
     inkscape:window-width="1854"
     inkscape:window-height="1011"
     inkscape:window-x="0"
     inkscape:window-y="0"
     inkscape:window-maximized="1"
     inkscape:current-layer="g10">
    <inkscape:page
       x="0"
       y="0"
       id="page8"
       width="421.46338"
       height="260.60486" />
  </sodipodi:namedview>
  <g
     id="g10"
     inkscape:groupmode="layer"
     inkscape:label="Page 1"
     transform="matrix(1.3333333,0,0,-1.3333333,-530.10728,743.99998)">
    <g
       id="g164"
       clip-path="url(#clipPath168)"
       transform="matrix(0.52682924,0,0,-0.52682924,50.399998,558)" />
    <g
       id="g174"
       transform="matrix(0.52682924,0,0,-0.52682924,397.58047,558)">
      <g
         id="g176"
         clip-path="url(#clipPath180)" />
    </g>
    <path
       d="M 397.58047,558 H 713.67801 V 362.54635 H 397.58047 Z"
       style="fill:#ffffff;fill-opacity:1;fill-rule:nonzero;stroke:none;stroke-width:0.526829"
       id="path202"
       clip-path="url(#clipPath651)" />
    <path
       d="m 555.62924,548.22732 c 46.9233,0 85.58366,-36.83503 87.85136,-83.7035 l -87.85136,-4.25064 z"
       style="fill:#38761d;fill-opacity:1;fill-rule:nonzero;stroke:none;stroke-width:0.526829"
       id="path206"
       clip-path="url(#clipPath776)" />
    <g
       id="g208"
       transform="matrix(0.52682924,0,0,-0.52682924,397.58047,558)"
       clip-path="url(#clipPath762)">
      <path
         d="m 466.7549,177.43164 c 0.47456,9.80736 0.083,19.63745 -1.1702,29.37598 L 300,185.5 Z"
         style="fill:#6aa84f;fill-opacity:1;fill-rule:nonzero;stroke:none"
         id="path210" />
      <g
         id="g212">
        <path
           d="M 134.65,208.55815 C 127.97908,160.721 142.35265,112.33915 174.05981,75.903595 205.76698,39.468037 251.69995,18.55 300,18.55 V 185.5 Z"
           style="fill:#c27ba0;fill-opacity:1;fill-rule:nonzero;stroke:none"
           id="path214" />
        <g
           id="g216">
          <path
             d="m 141.44148,237.76373 c -3.13525,-9.51178 -5.40825,-19.28639 -6.79148,-29.20558 L 300,185.5 Z"
             style="fill:#d5a6bd;fill-opacity:1;fill-rule:nonzero;stroke:none"
             id="path218" />
          <g
             id="g220">
            <path
               d="m 161.45587,278.65485 c -8.50735,-12.6525 -15.24141,-26.41077 -20.01439,-40.89112 L 300,185.5 Z"
               style="fill:#a64d79;fill-opacity:1;fill-rule:nonzero;stroke:none"
               id="path222" />
            <g
               id="g224">
              <path
                 d="m 189.94656,311.04102 c -10.85739,-9.51798 -20.4342,-20.40418 -28.49069,-32.38617 L 300,185.5 Z"
                 style="fill:#1c4587;fill-opacity:1;fill-rule:nonzero;stroke:none"
                 id="path226" />
              <g
                 id="g228">
                <path
                   d="m 195.58551,315.76865 c -1.91415,-1.53427 -3.79427,-3.11055 -5.63895,-4.72763 L 300,185.5 Z"
                   style="fill:#6fa8dc;fill-opacity:1;fill-rule:nonzero;stroke:none"
                   id="path230" />
                <g
                   id="g232">
                  <path
                     d="M 465.5847,206.80762 C 457.8804,266.6787 418.45685,317.72775 362.47858,340.31836 306.50034,362.909 242.68723,353.52216 195.58551,315.76865 L 300,185.5 Z"
                     style="fill:#4a86e8;fill-opacity:1;fill-rule:nonzero;stroke:none"
                     id="path234" />
                  <g
                     id="g236">
                    <path
                       d="m 84.084109,112.23366 1.03125,0.14063 c -0.114584,0.70833 -0.40625,1.26562 -0.875,1.67187 -0.46875,0.40625 -1.041666,0.60938 -1.71875,0.60938 -0.854166,0 -1.541666,-0.27604 -2.0625,-0.82813 -0.510416,-0.5625 -0.765624,-1.36458 -0.765624,-2.40625 0,-0.66666 0.109374,-1.25 0.328124,-1.75 0.229166,-0.51041 0.567707,-0.89062 1.015626,-1.14062 0.458333,-0.25 0.958333,-0.375 1.5,-0.375 0.666665,0 1.21354,0.17187 1.640624,0.51562 0.4375,0.33334 0.71875,0.81771 0.84375,1.45313 l -1.03125,0.15625 c -0.09375,-0.41667 -0.265624,-0.72917 -0.515624,-0.9375 -0.25,-0.21875 -0.552085,-0.32813 -0.90625,-0.32813 -0.53125,0 -0.963542,0.19271 -1.296876,0.57813 -0.333334,0.375 -0.5,0.97396 -0.5,1.79687 0,0.84375 0.161459,1.45313 0.484376,1.82813 0.322915,0.375 0.739581,0.5625 1.25,0.5625 0.416665,0 0.760415,-0.125 1.03125,-0.375 0.28125,-0.25 0.46354,-0.64063 0.546874,-1.17188 z m 1.546876,-0.82812 c 0,-1.15625 0.317708,-2.01042 0.953124,-2.5625 0.53125,-0.45834 1.182291,-0.6875 1.953126,-0.6875 0.854165,0 1.552081,0.28125 2.09375,0.84375 0.552083,0.55208 0.828124,1.32292 0.828124,2.3125 0,0.80208 -0.119791,1.4323 -0.359374,1.89062 -0.239585,0.45834 -0.59375,0.81771 -1.0625,1.07813 -0.458335,0.25 -0.958335,0.375 -1.5,0.375 -0.864585,0 -1.56771,-0.27604 -2.109376,-0.82813 -0.53125,-0.5625 -0.796874,-1.36979 -0.796874,-2.42187 z m 1.078124,0 c 0,0.79166 0.171876,1.38541 0.515626,1.78125 0.354165,0.39583 0.791665,0.59375 1.3125,0.59375 0.53125,0 0.96875,-0.19792 1.3125,-0.59375 0.34375,-0.39584 0.515624,-1 0.515624,-1.8125 0,-0.77084 -0.177084,-1.35417 -0.53125,-1.75 -0.34375,-0.39584 -0.776041,-0.59375 -1.296874,-0.59375 -0.520835,0 -0.958335,0.19791 -1.3125,0.59375 -0.34375,0.38541 -0.515626,0.97916 -0.515626,1.78125 z m 6.3125,3.10937 v -6.21875 h 0.9375 v 0.875 c 0.197918,-0.3125 0.458336,-0.55729 0.78125,-0.73437 0.322918,-0.1875 0.692711,-0.28125 1.109376,-0.28125 0.45833,0 0.83333,0.0937 1.125,0.28125 0.30208,0.1875 0.510413,0.45312 0.625,0.79687 0.5,-0.71875 1.140624,-1.07812 1.921874,-1.07812 0.625001,0 1.098961,0.17187 1.421881,0.51562 0.33333,0.33334 0.5,0.85938 0.5,1.57813 v 4.26562 h -1.04688 v -3.92187 c 0,-0.41667 -0.0365,-0.71875 -0.10937,-0.90625 -0.0625,-0.1875 -0.1823,-0.33854 -0.359381,-0.45313 -0.177082,-0.11458 -0.390624,-0.17187 -0.640624,-0.17187 -0.4375,0 -0.802083,0.14583 -1.09375,0.4375 -0.28125,0.29166 -0.421876,0.76041 -0.421876,1.40625 v 3.60937 h -1.0625 v -4.04687 c 0,-0.46875 -0.08854,-0.81771 -0.265624,-1.04688 -0.16667,-0.23958 -0.44271,-0.35937 -0.828126,-0.35937 -0.302082,0 -0.578124,0.0781 -0.828124,0.23437 -0.25,0.15625 -0.432294,0.38542 -0.546876,0.6875 -0.114582,0.30209 -0.171874,0.73438 -0.171874,1.29688 v 3.23437 z m 11.000001,2.39063 v -8.60938 h 0.95313 v 0.79688 c 0.22916,-0.3125 0.48437,-0.54688 0.76562,-0.70313 0.29167,-0.15625 0.64063,-0.23437 1.04688,-0.23437 0.53125,0 1,0.13541 1.40625,0.40625 0.40625,0.27083 0.70833,0.65625 0.90625,1.15625 0.20833,0.5 0.3125,1.04687 0.3125,1.64062 0,0.63542 -0.11459,1.20833 -0.34375,1.71875 -0.21875,0.51042 -0.54688,0.90104 -0.98438,1.17188 -0.4375,0.27083 -0.89583,0.40625 -1.375,0.40625 -0.35417,0 -0.67187,-0.0729 -0.95312,-0.21875 -0.28125,-0.15625 -0.51042,-0.34375 -0.6875,-0.5625 v 3.03125 z m 0.95313,-5.46875 c 0,0.80208 0.16145,1.39583 0.48437,1.78125 0.32292,0.375 0.71354,0.5625 1.17188,0.5625 0.46875,0 0.86979,-0.19792 1.20312,-0.59375 0.33333,-0.39584 0.5,-1.01042 0.5,-1.84375 0,-0.79167 -0.16146,-1.3802 -0.48437,-1.76563 -0.32292,-0.39583 -0.71355,-0.59375 -1.17188,-0.59375 -0.44792,0 -0.84375,0.20834 -1.1875,0.625 -0.34375,0.41667 -0.51562,1.02604 -0.51562,1.82813 z m 10.10937,2.3125 c -0.39583,0.33333 -0.77604,0.56771 -1.14062,0.70312 -0.35417,0.13542 -0.73959,0.20313 -1.15625,0.20313 -0.6875,0 -1.21355,-0.16667 -1.57813,-0.5 -0.36458,-0.33334 -0.54687,-0.76042 -0.54687,-1.28125 0,-0.30209 0.0677,-0.57813 0.20312,-0.82813 0.13542,-0.26041 0.31771,-0.46354 0.54688,-0.60937 0.22916,-0.15625 0.48437,-0.27084 0.76562,-0.34375 0.19792,-0.0625 0.51042,-0.11979 0.9375,-0.17188 0.84375,-0.0937 1.46875,-0.21354 1.875,-0.35937 0,-0.14584 0,-0.23438 0,-0.26563 0,-0.4375 -0.099,-0.74479 -0.29687,-0.92187 -0.27084,-0.22917 -0.67188,-0.34375 -1.20313,-0.34375 -0.48958,0 -0.85416,0.0885 -1.09375,0.26562 -0.23958,0.16667 -0.41666,0.46875 -0.53125,0.90625 l -1.03125,-0.14062 c 0.0937,-0.4375 0.25,-0.79167 0.46875,-1.0625 0.21875,-0.27084 0.53125,-0.47917 0.9375,-0.625 0.40625,-0.14584 0.875,-0.21875 1.40625,-0.21875 0.53125,0 0.96354,0.0625 1.29688,0.1875 0.33333,0.125 0.57812,0.28125 0.73437,0.46875 0.15625,0.1875 0.26563,0.42708 0.32813,0.71875 0.0312,0.17708 0.0469,0.5 0.0469,0.96875 v 1.40625 c 0,0.97916 0.0208,1.59895 0.0625,1.85937 0.0521,0.26042 0.14583,0.51042 0.28125,0.75 h -1.10938 c -0.10417,-0.21875 -0.17187,-0.47396 -0.20312,-0.76562 z m -0.0937,-2.35938 c -0.38542,0.15625 -0.95833,0.29167 -1.71875,0.40625 -0.4375,0.0625 -0.74479,0.13542 -0.92187,0.21875 -0.17709,0.0729 -0.31771,0.18229 -0.42188,0.32813 -0.0937,0.14583 -0.14062,0.3125 -0.14062,0.5 0,0.28125 0.10416,0.51562 0.3125,0.70312 0.21875,0.1875 0.53125,0.28125 0.9375,0.28125 0.40625,0 0.76562,-0.0885 1.07812,-0.26562 0.32292,-0.17709 0.55729,-0.42188 0.70313,-0.73438 0.11458,-0.23958 0.17187,-0.58854 0.17187,-1.04687 z m 3.03125,3.125 v -6.21875 h 0.9375 v 0.875 c 0.45833,-0.67708 1.11979,-1.01562 1.98438,-1.01562 0.375,0 0.71875,0.0677 1.03125,0.20312 0.32291,0.13542 0.5625,0.3125 0.71875,0.53125 0.15625,0.21875 0.26562,0.47396 0.32812,0.76563 0.0312,0.19791 0.0469,0.54166 0.0469,1.03125 v 3.82812 h -1.04688 v -3.78125 c 0,-0.4375 -0.0417,-0.76041 -0.125,-0.96875 -0.0833,-0.20833 -0.22916,-0.375 -0.4375,-0.5 -0.20833,-0.13541 -0.45312,-0.20312 -0.73437,-0.20312 -0.44792,0 -0.83855,0.14583 -1.17188,0.4375 -0.32292,0.28125 -0.48437,0.81771 -0.48437,1.60937 v 3.40625 z m 6.95313,2.39063 -0.125,-0.98438 c 0.22917,0.0625 0.43229,0.0937 0.60938,0.0937 0.22916,0 0.41145,-0.0417 0.54687,-0.125 0.14584,-0.0729 0.26563,-0.17707 0.35938,-0.3125 0.0625,-0.11458 0.17187,-0.38021 0.32812,-0.79687 0.0104,-0.0521 0.0417,-0.13542 0.0937,-0.25 l -2.375,-6.23438 h 1.14063 l 1.29687,3.59375 c 0.16667,0.45834 0.31771,0.94271 0.45313,1.45313 0.125,-0.48959 0.27083,-0.96355 0.4375,-1.42188 l 1.32812,-3.625 h 1.04688 l -2.35938,6.32813 c -0.26041,0.67708 -0.45833,1.14583 -0.59375,1.40625 -0.1875,0.35416 -0.40625,0.60937 -0.65625,0.76562 -0.23958,0.16667 -0.52604,0.25 -0.85937,0.25 -0.19792,0 -0.42188,-0.0469 -0.67188,-0.14062 z"
                       style="fill:#1a1a1a;fill-opacity:1;fill-rule:nonzero;stroke:none"
                       id="path238" />
                    <g
                       id="g240">
                      <g
                         id="g244">
                        <g
                           id="g248">
                          <path
                             d="m 182.35683,81.383415 c 0,-1.104565 -0.89543,-2 -2,-2 -1.10457,0 -2,0.895435 -2,2 0,1.104565 0.89543,2 2,2 1.10457,0 2,-0.895435 2,-2"
                             style="fill:#9e9e9e;fill-opacity:1;fill-rule:nonzero;stroke:none"
                             id="path250" />
                          <g
                             id="g252">
                            <g
                               id="g256">
                              <g
                                 id="g260">
                                <g
                                   id="g264">
                                <path
                                   d="m 147.51929,221.42303 c 0,-1.10456 -0.89542,-2 -2,-2 -1.10457,0 -2,0.89544 -2,2 0,1.10457 0.89543,2 2,2 1.10458,0 2,-0.89543 2,-2"
                                   style="fill:#9e9e9e;fill-opacity:1;fill-rule:nonzero;stroke:none"
                                   id="path266" />
                                <g
                                   id="g268">
                                <g
                                   id="g272">
                                <g
                                   id="g276">
                                <g
                                   id="g280">
                                <path
                                   d="m 159.54587,255.22499 c 0,-1.10457 -0.89543,-2 -2,-2 -1.10457,0 -2,0.89543 -2,2 0,1.10457 0.89543,2.00001 2,2.00001 1.10457,0 2,-0.89544 2,-2.00001"
                                   style="fill:#9e9e9e;fill-opacity:1;fill-rule:nonzero;stroke:none"
                                   id="path282" />
                                <g
                                   id="g284">
                                <g
                                   id="g288">
                                <g
                                   id="g292">
                                <g
                                   id="g296">
                                <path
                                   d="m 182.91833,290.25833 c 0,-1.10455 -0.89543,-2 -2,-2 -1.10456,0 -2,0.89545 -2,2 0,1.10457 0.89544,2 2,2 1.10457,0 2,-0.89543 2,-2"
                                   style="fill:#9e9e9e;fill-opacity:1;fill-rule:nonzero;stroke:none"
                                   id="path298" />
                                <g
                                   id="g300">
                                <g
                                   id="g304">
                                <g
                                   id="g308">
                                <g
                                   id="g312">
                                <path
                                   d="m 200.10298,307.0391 c 0,-1.10456 -0.89543,-2 -2,-2 -1.10457,0 -2,0.89544 -2,2 0,1.10458 0.89543,2 2,2 1.10457,0 2,-0.89542 2,-2"
                                   style="fill:#9e9e9e;fill-opacity:1;fill-rule:nonzero;stroke:none"
                                   id="path314" />
                                <g
                                   id="g316">
                                <g
                                   id="g320">
                                <g
                                   id="g324">
                                <g
                                   id="g328">
                                <path
                                   d="m 411.40536,70.6731 c 0,-1.104565 -0.89541,-2 -2,-2 -1.10456,0 -2,0.895435 -2,2 0,1.10457 0.89544,2 2,2 1.10459,0 2,-0.89543 2,-2"
                                   style="fill:#9e9e9e;fill-opacity:1;fill-rule:nonzero;stroke:none"
                                   id="path330" />
                                <g
                                   id="g332">
                                <path
                                   d="m 476.4778,80.589186 1.03126,-0.15625 c 0.0625,0.41667 0.22394,0.73437 0.48438,0.95312 0.27081,0.21875 0.651,0.32813 1.14062,0.32813 0.47919,0 0.83338,-0.0937 1.0625,-0.28125 0.23954,-0.19793 0.35938,-0.4323 0.35938,-0.70313 0,-0.23958 -0.10419,-0.42708 -0.3125,-0.5625 -0.14584,-0.0937 -0.50519,-0.21355 -1.07814,-0.35937 -0.7708,-0.19793 -1.30724,-0.3646 -1.60936,-0.5 -0.29166,-0.14583 -0.51564,-0.34375 -0.67188,-0.59375 -0.15626,-0.25 -0.23436,-0.53125 -0.23436,-0.84375 0,-0.27083 0.0625,-0.52604 0.1875,-0.76563 0.125,-0.23958 0.29686,-0.4375 0.5156,-0.59375 0.16667,-0.11457 0.39064,-0.21353 0.6719,-0.29687 0.28124,-0.0833 0.58855,-0.125 0.92186,-0.125 0.47919,0 0.90104,0.0729 1.26564,0.21875 0.375,0.13542 0.65105,0.32292 0.8281,0.5625 0.1771,0.23957 0.2969,0.55728 0.3594,0.95312 l -1.03126,0.14063 c -0.0417,-0.3125 -0.17714,-0.5573 -0.40624,-0.73438 -0.21876,-0.1875 -0.53645,-0.28125 -0.95314,-0.28125 -0.47916,0 -0.82296,0.0833 -1.03126,0.25 -0.2083,0.15625 -0.3125,0.34375 -0.3125,0.5625 0,0.13543 0.0417,0.25522 0.125,0.35938 0.0938,0.11457 0.2292,0.20832 0.40626,0.28125 0.10419,0.0417 0.41669,0.13021 0.9375,0.26562 0.75,0.20833 1.27084,0.375 1.5625,0.5 0.29169,0.125 0.52088,0.3073 0.6875,0.54688 0.16669,0.23957 0.25,0.54165 0.25,0.90625 0,0.35417 -0.10416,0.6875 -0.3125,1 -0.19796,0.30207 -0.48962,0.54165 -0.875,0.71875 -0.38546,0.16667 -0.82296,0.25 -1.3125,0.25 -0.8125,0 -1.43231,-0.16668 -1.85936,-0.5 -0.41667,-0.34375 -0.6823,-0.84375 -0.7969,-1.5 z m 7.03126,-1.25 c 0,-1.15625 0.31769,-2.01043 0.95314,-2.5625 0.53124,-0.45833 1.1823,-0.6875 1.9531,-0.6875 0.8542,0 1.55214,0.28125 2.09376,0.84375 0.55204,0.55207 0.82814,1.3229 0.82814,2.3125 0,0.80207 -0.1198,1.43228 -0.3594,1.89062 -0.23955,0.45833 -0.59374,0.8177 -1.0625,1.07813 -0.4583,0.25 -0.9583,0.375 -1.5,0.375 -0.86455,0 -1.5677,-0.27605 -2.10936,-0.82813 -0.53124,-0.5625 -0.79688,-1.3698 -0.79688,-2.42187 z m 1.07814,0 c 0,0.79167 0.17186,1.38542 0.5156,1.78125 0.3542,0.39582 0.7917,0.59375 1.3125,0.59375 0.53126,0 0.96876,-0.19793 1.3125,-0.59375 0.34376,-0.39583 0.51564,-1 0.51564,-1.8125 0,-0.77083 -0.17704,-1.35416 -0.53124,-1.75 -0.34376,-0.39583 -0.7761,-0.59375 -1.2969,-0.59375 -0.5208,0 -0.9583,0.19792 -1.3125,0.59375 -0.34374,0.38542 -0.5156,0.97917 -0.5156,1.78125 z m 6.28124,3.10937 v -8.59375 h 1.0625 v 8.59375 z m 7.0625,0 v -0.78125 c -0.39584,0.61458 -0.97394,0.92188 -1.73438,0.92188 -0.5,0 -0.95831,-0.13543 -1.375,-0.40625 -0.41666,-0.28125 -0.73962,-0.66668 -0.96876,-1.15625 -0.2292,-0.48958 -0.34374,-1.05208 -0.34374,-1.6875 0,-0.61458 0.10419,-1.17708 0.3125,-1.6875 0.20834,-0.51043 0.52084,-0.89585 0.9375,-1.15625 0.41669,-0.27083 0.88024,-0.40625 1.39064,-0.40625 0.375,0 0.7083,0.0781 1,0.23437 0.2917,0.15625 0.53124,0.35938 0.71874,0.60938 v -3.07813 h 1.04686 v 8.59375 z m -3.32814,-3.10937 c 0,0.80207 0.1667,1.40103 0.5,1.79687 0.3333,0.38543 0.72914,0.57813 1.1875,0.57813 0.4583,0 0.84895,-0.1875 1.1719,-0.5625 0.3229,-0.375 0.48436,-0.94793 0.48436,-1.71875 0,-0.85418 -0.16666,-1.47918 -0.5,-1.875 -0.32296,-0.39583 -0.724,-0.59375 -1.20312,-0.59375 -0.46874,0 -0.85938,0.1927 -1.17188,0.57812 -0.3125,0.375 -0.46876,0.97395 -0.46876,1.79688 z"
                                   style="fill:#1a1a1a;fill-opacity:1;fill-rule:nonzero;stroke:none"
                                   id="path334"
                                   sodipodi:nodetypes="cccscscccssscsscscccscscccsssccsccscscsscscsscssscscscccccccscssscsscccccscssscscs" />
                                <g
                                   id="g336">
                                <g
                                   id="g340">
                                <g
                                   id="g344">
                                <path
                                   d="m 460.4768,191.81317 c 0,-1.10457 -0.89544,-2 -2,-2 -1.10458,0 -2,0.89543 -2,2 0,1.10457 0.89542,2 2,2 1.10456,0 2,-0.89543 2,-2"
                                   style="fill:#9e9e9e;fill-opacity:1;fill-rule:nonzero;stroke:none"
                                   id="path346" />
                                <g
                                   id="g348">
                                <path
                                   d="m 404.02145,343.79181 v -0.78125 c -0.39584,0.6146 -0.97397,0.92188 -1.73438,0.92188 -0.5,0 -0.95834,-0.13541 -1.375,-0.40625 -0.41666,-0.28125 -0.73956,-0.66666 -0.96876,-1.15625 -0.22914,-0.48958 -0.34374,-1.05208 -0.34374,-1.6875 0,-0.61458 0.10416,-1.17708 0.3125,-1.6875 0.20834,-0.51041 0.52084,-0.89581 0.9375,-1.15625 0.41666,-0.27083 0.88019,-0.40625 1.39064,-0.40625 0.375,0 0.70833,0.0781 1,0.23437 0.29164,0.15625 0.53124,0.35938 0.71874,0.60938 v -3.07813 h 1.04686 v 8.59375 z m -3.32814,-3.10937 c 0,0.80209 0.16667,1.40106 0.5,1.79687 0.33336,0.38541 0.7292,0.57813 1.1875,0.57813 0.45836,0 0.84898,-0.1875 1.1719,-0.5625 0.3229,-0.375 0.48436,-0.94791 0.48436,-1.71875 0,-0.85416 -0.16666,-1.47916 -0.5,-1.875 -0.3229,-0.39583 -0.72394,-0.59375 -1.20312,-0.59375 -0.46874,0 -0.85938,0.19272 -1.17188,0.57812 -0.3125,0.375 -0.46876,0.97397 -0.46876,1.79688 z m 6.2969,-4.26563 v -1.21875 h 1.0625 v 1.21875 z m 0,7.375 v -6.21875 h 1.0625 v 6.21875 z m 2.5781,-1.85937 1.03126,-0.15625 c 0.0625,0.41667 0.22397,0.73437 0.48438,0.95312 0.27084,0.21875 0.65106,0.32813 1.14062,0.32813 0.47916,0 0.83332,-0.0937 1.0625,-0.28125 0.2396,-0.19791 0.35938,-0.43228 0.35938,-0.70313 0,-0.2396 -0.10416,-0.4271 -0.3125,-0.5625 -0.14584,-0.0937 -0.50522,-0.21353 -1.07814,-0.35937 -0.77083,-0.19791 -1.3073,-0.36456 -1.60936,-0.5 -0.29166,-0.14583 -0.51564,-0.34375 -0.67188,-0.59375 -0.15626,-0.25 -0.23436,-0.53125 -0.23436,-0.84375 0,-0.27083 0.0625,-0.52606 0.1875,-0.76563 0.125,-0.2396 0.29686,-0.4375 0.5156,-0.59375 0.16667,-0.11459 0.39064,-0.21355 0.6719,-0.29687 0.28124,-0.0833 0.58852,-0.125 0.92186,-0.125 0.47916,0 0.90104,0.0729 1.26564,0.21875 0.375,0.13541 0.65102,0.32291 0.8281,0.5625 0.1771,0.23959 0.2969,0.55731 0.3594,0.95312 l -1.03126,0.14063 c -0.0417,-0.3125 -0.17707,-0.55728 -0.40624,-0.73438 -0.21876,-0.1875 -0.53648,-0.28125 -0.95314,-0.28125 -0.47916,0 -0.8229,0.0833 -1.03126,0.25 -0.20833,0.15625 -0.3125,0.34375 -0.3125,0.5625 0,0.13541 0.0417,0.25519 0.125,0.35938 0.0938,0.11459 0.22917,0.20834 0.40626,0.28125 0.10416,0.0417 0.41666,0.13019 0.9375,0.26562 0.75,0.20835 1.27084,0.375 1.5625,0.5 0.29166,0.125 0.52082,0.3073 0.6875,0.54688 0.16666,0.23959 0.25,0.54169 0.25,0.90625 0,0.35417 -0.10416,0.6875 -0.3125,1 -0.1979,0.30209 -0.48956,0.54169 -0.875,0.71875 -0.3854,0.16666 -0.8229,0.25 -1.3125,0.25 -0.8125,0 -1.43228,-0.16666 -1.85936,-0.5 -0.41667,-0.34375 -0.6823,-0.84375 -0.7969,-1.5 z m 9.71876,0.92187 0.15624,0.92188 c -0.30208,0.0625 -0.5677,0.0937 -0.79686,0.0937 -0.38541,0 -0.68228,-0.0573 -0.89064,-0.17188 -0.20833,-0.125 -0.35936,-0.28646 -0.4531,-0.48437 -0.0834,-0.19791 -0.125,-0.61456 -0.125,-1.25 v -3.57813 h -0.76564 v -0.8125 h 0.76564 v -1.54687 l 1.04686,-0.625 v 2.17187 h 1.0625 v 0.8125 h -1.0625 v 3.64063 c 0,0.30209 0.0156,0.49481 0.0469,0.57812 0.0417,0.0833 0.10416,0.15107 0.1875,0.20313 0.0833,0.0521 0.20312,0.0781 0.35936,0.0781 0.125,0 0.28126,-0.0104 0.46876,-0.0312 z m 0.6875,0.9375 v -6.21875 h 0.95314 v 0.9375 c 0.23958,-0.4375 0.45833,-0.72396 0.65624,-0.85937 0.20834,-0.14583 0.4375,-0.21875 0.6875,-0.21875 0.35416,0 0.71353,0.10937 1.07812,0.32812 l -0.35936,0.98438 c -0.26042,-0.15625 -0.51564,-0.23438 -0.76564,-0.23438 -0.23959,0 -0.45312,0.0729 -0.64062,0.21875 -0.1771,0.13541 -0.3021,0.32813 -0.375,0.57813 -0.125,0.375 -0.1875,0.78125 -0.1875,1.21875 v 3.26562 z m 4.01564,-7.375 v -1.21875 h 1.0625 v 1.21875 z m 0,7.375 v -6.21875 h 1.0625 v 6.21875 z m 3.96874,0 h -0.98438 v -8.59375 h 1.0625 v 3.0625 c 0.44791,-0.5521 1.01564,-0.82812 1.70314,-0.82812 0.3854,0 0.7448,0.0781 1.0781,0.23437 0.34376,0.14585 0.625,0.35938 0.84376,0.64063 0.22919,0.28125 0.40624,0.61978 0.53124,1.01562 0.125,0.39585 0.1875,0.81772 0.1875,1.26563 0,1.0625 -0.2656,1.88541 -0.79686,2.46875 -0.53124,0.58334 -1.16144,0.875 -1.89064,0.875 -0.73958,0 -1.3177,-0.30728 -1.73436,-0.92188 z m -0.0156,-3.15625 c 0,0.7396 0.10417,1.27607 0.3125,1.60938 0.33336,0.54166 0.78126,0.8125 1.34376,0.8125 0.45834,0 0.85414,-0.19791 1.1875,-0.59375 0.34374,-0.39583 0.51564,-0.99481 0.51564,-1.79688 0,-0.8125 -0.16145,-1.41145 -0.4844,-1.79687 -0.3229,-0.38541 -0.71355,-0.57813 -1.17186,-0.57813 -0.45834,0 -0.85938,0.20313 -1.20314,0.60938 -0.33333,0.39584 -0.5,0.97397 -0.5,1.73437 z m 10.125,3.15625 v -0.92187 c -0.48955,0.70834 -1.151,1.0625 -1.98436,1.0625 -0.36454,0 -0.70834,-0.0677 -1.03124,-0.20313 -0.3125,-0.14585 -0.5469,-0.32293 -0.70314,-0.53125 -0.15626,-0.21875 -0.26562,-0.48437 -0.32812,-0.79687 -0.0417,-0.19791 -0.0625,-0.52603 -0.0625,-0.98438 v -3.84375 h 1.0625 v 3.45313 c 0,0.54167 0.0208,0.91144 0.0625,1.10937 0.0625,0.27085 0.19796,0.4896 0.40626,0.65625 0.21874,0.15625 0.48955,0.23438 0.8125,0.23438 0.3125,0 0.6042,-0.0781 0.875,-0.23438 0.28124,-0.16665 0.4792,-0.39062 0.59374,-0.67187 0.125,-0.28125 0.1875,-0.6875 0.1875,-1.21875 v -3.32813 h 1.04686 v 6.21875 z m 5.21876,-0.9375 0.15624,0.92188 c -0.30205,0.0625 -0.5677,0.0937 -0.79686,0.0937 -0.38544,0 -0.68234,-0.0573 -0.89064,-0.17188 -0.2083,-0.125 -0.35936,-0.28646 -0.4531,-0.48437 -0.0833,-0.19791 -0.125,-0.61456 -0.125,-1.25 v -3.57813 h -0.76564 v -0.8125 h 0.76564 v -1.54687 l 1.04686,-0.625 v 2.17187 h 1.0625 v 0.8125 h -1.0625 v 3.64063 c 0,0.30209 0.0156,0.49481 0.0469,0.57812 0.0417,0.0833 0.10416,0.15107 0.1875,0.20313 0.0833,0.0521 0.20312,0.0781 0.35936,0.0781 0.125,0 0.28126,-0.0104 0.46876,-0.0312 z m 4.95314,-1.0625 1.09374,0.125 c -0.16669,0.63541 -0.48438,1.13019 -0.95314,1.48438 -0.46874,0.35417 -1.0625,0.53125 -1.78124,0.53125 -0.90626,0 -1.63016,-0.28125 -2.17186,-0.84375 -0.53126,-0.5625 -0.7969,-1.34897 -0.7969,-2.35938 0,-1.04165 0.2708,-1.84893 0.8125,-2.42187 0.5417,-0.58334 1.23964,-0.875 2.09376,-0.875 0.83334,0 1.51038,0.28125 2.03124,0.84375 0.53126,0.5625 0.7969,1.35937 0.7969,2.39062 v 0.28125 h -4.64064 c 0.0417,0.6875 0.23438,1.21354 0.57814,1.57813 0.34374,0.35417 0.77605,0.53125 1.29686,0.53125 0.38544,0 0.71354,-0.099 0.98438,-0.29688 0.28126,-0.20834 0.5,-0.53125 0.65626,-0.96875 z m -3.45314,-1.70312 h 3.46874 c -0.0417,-0.53125 -0.17186,-0.92709 -0.3906,-1.1875 -0.34376,-0.40625 -0.78126,-0.60938 -1.3125,-0.60938 -0.4896,0 -0.901,0.16147 -1.2344,0.48438 -0.3229,0.32291 -0.5,0.76041 -0.53124,1.3125 z m 10.23438,3.70312 v -0.78125 c -0.39584,0.6146 -0.97394,0.92188 -1.73438,0.92188 -0.5,0 -0.95831,-0.13541 -1.375,-0.40625 -0.41666,-0.28125 -0.73962,-0.66666 -0.96876,-1.15625 -0.2292,-0.48958 -0.34374,-1.05208 -0.34374,-1.6875 0,-0.61458 0.10419,-1.17708 0.3125,-1.6875 0.20834,-0.51041 0.52084,-0.89581 0.9375,-1.15625 0.41669,-0.27083 0.88024,-0.40625 1.39064,-0.40625 0.375,0 0.7083,0.0781 1,0.23437 0.2917,0.15625 0.53124,0.35938 0.71874,0.60938 v -3.07813 h 1.04686 v 8.59375 z m -3.32814,-3.10937 c 0,0.80209 0.1667,1.40106 0.5,1.79687 0.3333,0.38541 0.72914,0.57813 1.1875,0.57813 0.4583,0 0.84895,-0.1875 1.1719,-0.5625 0.3229,-0.375 0.48436,-0.94791 0.48436,-1.71875 0,-0.85416 -0.16666,-1.47916 -0.5,-1.875 -0.32296,-0.39583 -0.724,-0.59375 -1.20312,-0.59375 -0.46874,0 -0.85938,0.19272 -1.17188,0.57812 -0.3125,0.375 -0.46876,0.97397 -0.46876,1.79688 z"
                                   style="fill:#1a1a1a;fill-opacity:1;fill-rule:nonzero;stroke:none"
                                   id="path350"
                                   sodipodi:nodetypes="ccscssscsscccccscssscscscccccccccccccscscccssscsscscccscscccsssccsccccsccsccccccccccscsssccccccsccsccscccccccccccccccccsccssssccscscssscsccscccsccsccsccsccccccsccsccccccccccscssscccsscscscscccscccccsccccscssscsscccccscssscscs" />
                                <g
                                   id="g352">
                                <g
                                   id="g356">
                                <g
                                   id="g360">
                                <path
                                   d="m 361.35464,332.57745 c 0,-1.10455 -0.89541,-2 -2,-2 -1.10454,0 -2,0.89545 -2,2 0,1.10459 0.89546,2 2,2 1.10459,0 2,-0.89541 2,-2"
                                   style="fill:#9e9e9e;fill-opacity:1;fill-rule:nonzero;stroke:none"
                                   id="path362" />
                                <g
                                   id="g364">
                                <path
                                   d="M 0,0 H 598"
                                   style="fill:none;stroke:#999999;stroke-width:1;stroke-linecap:square;stroke-linejoin:miter;stroke-miterlimit:10;stroke-dasharray:none;stroke-opacity:1"
                                   id="path366" />
                                <g
                                   id="g368">
                                <path
                                   d="M 599,0 V 369"
                                   style="fill:none;stroke:#999999;stroke-width:1;stroke-linecap:square;stroke-linejoin:miter;stroke-miterlimit:10;stroke-dasharray:none;stroke-opacity:1"
                                   id="path370" />
                                <g
                                   id="g372">
                                <path
                                   d="M 599,370 H 1"
                                   style="fill:none;stroke:#999999;stroke-width:1;stroke-linecap:square;stroke-linejoin:miter;stroke-miterlimit:10;stroke-dasharray:none;stroke-opacity:1"
                                   id="path374" />
                                <g
                                   id="g376">
                                <path
                                   d="M 0,370 V 1"
                                   style="fill:none;stroke:#999999;stroke-width:1;stroke-linecap:square;stroke-linejoin:miter;stroke-miterlimit:10;stroke-dasharray:none;stroke-opacity:1"
                                   id="path378" />
                                </g>
                                </g>
                                </g>
                                </g>
                                </g>
                                </g>
                                </g>
                                </g>
                                </g>
                                </g>
                                </g>
                                </g>
                                </g>
                                </g>
                                </g>
                                </g>
                                </g>
                                </g>
                                </g>
                                </g>
                                </g>
                                </g>
                                </g>
                                </g>
                                </g>
                                </g>
                                </g>
                                </g>
                                </g>
                              </g>
                            </g>
                          </g>
                        </g>
                      </g>
                    </g>
                  </g>
                </g>
              </g>
            </g>
          </g>
        </g>
      </g>
    </g>
  </g>
</svg>
